<svg xmlns="http://www.w3.org/2000/svg" xmlns:xlink="http://www.w3.org/1999/xlink" viewBox="0 0 86.16 77.89"><defs><style>.a6722a1a-30d3-4789-b3bd-ada25a0b7b2e,.ab707417-51ff-43e8-b8f3-92c3ea2dab88{fill:none;}.a84a98d8-b001-443f-8b7c-a49eff3a6710{clip-path:url(#b01d54a7-6461-4fd3-b6f1-8d7890aecdef);}.a91a4cd7-dd33-46af-92a2-6f1c87bc4ce8{fill:#241f21;}.a7a8f3d2-a991-4c00-a003-86ac8ffc3908{fill:#fff;}.f9625975-6e72-4ebf-aa59-1b06dc3f49a8{fill:#1d1d1b;}.ee209e48-e59d-4bb3-a418-a3af096d9f42{fill:#f7941f;}.ab707417-51ff-43e8-b8f3-92c3ea2dab88{stroke:#1d1d1b;stroke-width:1.12px;}</style><clipPath id="b01d54a7-6461-4fd3-b6f1-8d7890aecdef" transform="translate(0 0)"><rect class="a6722a1a-30d3-4789-b3bd-ada25a0b7b2e" width="86.17" height="77.89"/></clipPath></defs><g id="ab2b4c69-3f8d-4222-8476-fe5cdb84f191" data-name="Livello 2"><g id="a232445f-ec30-4507-ae45-049f79601133" data-name="Livello 1"><g class="a84a98d8-b001-443f-8b7c-a49eff3a6710"><path class="a91a4cd7-dd33-46af-92a2-6f1c87bc4ce8" d="M62.57.39a0,0,0,0,1,0,0s0,0,0,0a0,0,0,0,1,0,0s0,0,0,0" transform="translate(0 0)"/><path class="a91a4cd7-dd33-46af-92a2-6f1c87bc4ce8" d="M58.49.52a.17.17,0,0,1-.17-.17.18.18,0,0,1,.17-.17.17.17,0,0,1,.17.17.16.16,0,0,1-.17.17" transform="translate(0 0)"/><path class="a91a4cd7-dd33-46af-92a2-6f1c87bc4ce8" d="M54.42.61a.26.26,0,0,1-.26-.26.26.26,0,0,1,.52,0,.26.26,0,0,1-.26.26" transform="translate(0 0)"/><path class="a91a4cd7-dd33-46af-92a2-6f1c87bc4ce8" d="M50.34.68A.32.32,0,0,1,50,.35.32.32,0,0,1,50.34,0a.33.33,0,0,1,.33.33.33.33,0,0,1-.33.33" transform="translate(0 0)"/><path class="a91a4cd7-dd33-46af-92a2-6f1c87bc4ce8" d="M46.27.7a.35.35,0,0,1-.35-.35.35.35,0,0,1,.7,0,.35.35,0,0,1-.35.35" transform="translate(0 0)"/><path class="a91a4cd7-dd33-46af-92a2-6f1c87bc4ce8" d="M42.19.69a.34.34,0,0,1-.33-.34.34.34,0,1,1,.67,0,.34.34,0,0,1-.34.34" transform="translate(0 0)"/><path class="a91a4cd7-dd33-46af-92a2-6f1c87bc4ce8" d="M38.12.64a.29.29,0,1,1,.29-.29.29.29,0,0,1-.29.29" transform="translate(0 0)"/><path class="a91a4cd7-dd33-46af-92a2-6f1c87bc4ce8" d="M34.05.55a.2.2,0,0,1-.21-.2.2.2,0,0,1,.21-.2.2.2,0,0,1,0,.4" transform="translate(0 0)"/><path class="a91a4cd7-dd33-46af-92a2-6f1c87bc4ce8" d="M30,.43a.08.08,0,0,1-.08-.08A.09.09,0,0,1,30,.27a.08.08,0,0,1,.08.08A.07.07,0,0,1,30,.43" transform="translate(0 0)"/><path class="a91a4cd7-dd33-46af-92a2-6f1c87bc4ce8" d="M66.64,4.61a.18.18,0,1,1,.18-.18.18.18,0,0,1-.18.18" transform="translate(0 0)"/><path class="a91a4cd7-dd33-46af-92a2-6f1c87bc4ce8" d="M62.57,4.78a.36.36,0,0,1,0-.71.36.36,0,0,1,0,.71" transform="translate(0 0)"/><path class="a91a4cd7-dd33-46af-92a2-6f1c87bc4ce8" d="M58.49,4.93a.5.5,0,0,1-.5-.5.5.5,0,0,1,.5-.51.51.51,0,0,1,.51.51.5.5,0,0,1-.51.5" transform="translate(0 0)"/><path class="a91a4cd7-dd33-46af-92a2-6f1c87bc4ce8" d="M54.42,5a.61.61,0,1,1,.61-.6.6.6,0,0,1-.61.6" transform="translate(0 0)"/><path class="a91a4cd7-dd33-46af-92a2-6f1c87bc4ce8" d="M50.34,5.1A.68.68,0,1,1,51,4.43a.67.67,0,0,1-.68.67" transform="translate(0 0)"/><path class="a91a4cd7-dd33-46af-92a2-6f1c87bc4ce8" d="M46.27,5.14A.72.72,0,1,1,47,4.43a.71.71,0,0,1-.71.71" transform="translate(0 0)"/><path class="a91a4cd7-dd33-46af-92a2-6f1c87bc4ce8" d="M42.19,5.12a.69.69,0,0,1,0-1.38.69.69,0,1,1,0,1.38" transform="translate(0 0)"/><path class="a91a4cd7-dd33-46af-92a2-6f1c87bc4ce8" d="M38.12,5.07a.65.65,0,1,1,.64-.64.64.64,0,0,1-.64.64" transform="translate(0 0)"/><path class="a91a4cd7-dd33-46af-92a2-6f1c87bc4ce8" d="M34.05,5a.55.55,0,0,1-.55-.54.55.55,0,0,1,.55-.55.55.55,0,0,1,.54.55.54.54,0,0,1-.54.54" transform="translate(0 0)"/><path class="a91a4cd7-dd33-46af-92a2-6f1c87bc4ce8" d="M30,4.83A.41.41,0,0,1,30,4a.41.41,0,1,1,0,.81" transform="translate(0 0)"/><path class="a91a4cd7-dd33-46af-92a2-6f1c87bc4ce8" d="M25.9,4.67a.25.25,0,1,1,.24-.24.25.25,0,0,1-.24.24" transform="translate(0 0)"/><path class="a91a4cd7-dd33-46af-92a2-6f1c87bc4ce8" d="M21.82,4.47a0,0,0,0,1,0,0,0,0,0,0,1,0,0,0,0,0,0,1,.05,0,0,0,0,0,1-.05,0" transform="translate(0 0)"/><path class="a91a4cd7-dd33-46af-92a2-6f1c87bc4ce8" d="M74.79,8.51h0" transform="translate(0 0)"/><path class="a91a4cd7-dd33-46af-92a2-6f1c87bc4ce8" d="M70.72,8.75a.25.25,0,0,1,0-.5.25.25,0,0,1,0,.5" transform="translate(0 0)"/><path class="a91a4cd7-dd33-46af-92a2-6f1c87bc4ce8" d="M66.64,9a.48.48,0,0,1-.47-.48.48.48,0,0,1,1,0,.48.48,0,0,1-.48.48" transform="translate(0 0)"/><path class="a91a4cd7-dd33-46af-92a2-6f1c87bc4ce8" d="M62.57,9.17a.67.67,0,0,1-.67-.67.66.66,0,0,1,.67-.66.65.65,0,0,1,.66.66.66.66,0,0,1-.66.67" transform="translate(0 0)"/><path class="a91a4cd7-dd33-46af-92a2-6f1c87bc4ce8" d="M58.49,9.33a.83.83,0,1,1,.83-.83.83.83,0,0,1-.83.83" transform="translate(0 0)"/><path class="a91a4cd7-dd33-46af-92a2-6f1c87bc4ce8" d="M54.42,9.45a1,1,0,1,1,0-1.9.95.95,0,1,1,0,1.9" transform="translate(0 0)"/><path class="a91a4cd7-dd33-46af-92a2-6f1c87bc4ce8" d="M50.34,9.53a1,1,0,1,1,1-1,1,1,0,0,1-1,1" transform="translate(0 0)"/><path class="a91a4cd7-dd33-46af-92a2-6f1c87bc4ce8" d="M46.27,9.56A1.06,1.06,0,1,1,47.33,8.5a1.05,1.05,0,0,1-1.06,1.06" transform="translate(0 0)"/><path class="a91a4cd7-dd33-46af-92a2-6f1c87bc4ce8" d="M42.19,9.54a1,1,0,1,1,1-1,1,1,0,0,1-1,1" transform="translate(0 0)"/><path class="a91a4cd7-dd33-46af-92a2-6f1c87bc4ce8" d="M38.12,9.48a1,1,0,1,1,1-1,1,1,0,0,1-1,1" transform="translate(0 0)"/><path class="a91a4cd7-dd33-46af-92a2-6f1c87bc4ce8" d="M34.05,9.37a.87.87,0,1,1,.87-.87.87.87,0,0,1-.87.87" transform="translate(0 0)"/><path class="a91a4cd7-dd33-46af-92a2-6f1c87bc4ce8" d="M30,9.22a.72.72,0,1,1,.72-.72.72.72,0,0,1-.72.72" transform="translate(0 0)"/><path class="a91a4cd7-dd33-46af-92a2-6f1c87bc4ce8" d="M25.9,9a.54.54,0,1,1,.54-.54A.54.54,0,0,1,25.9,9" transform="translate(0 0)"/><path class="a91a4cd7-dd33-46af-92a2-6f1c87bc4ce8" d="M21.82,8.83a.33.33,0,1,1,.33-.33.33.33,0,0,1-.33.33" transform="translate(0 0)"/><path class="a91a4cd7-dd33-46af-92a2-6f1c87bc4ce8" d="M17.75,8.59a.09.09,0,1,1,.09-.09.09.09,0,0,1-.09.09" transform="translate(0 0)"/><path class="a91a4cd7-dd33-46af-92a2-6f1c87bc4ce8" d="M74.79,12.82a.25.25,0,1,1,.25-.25.25.25,0,0,1-.25.25" transform="translate(0 0)"/><path class="a91a4cd7-dd33-46af-92a2-6f1c87bc4ce8" d="M70.72,13.09a.52.52,0,1,1,.52-.52.52.52,0,0,1-.52.52" transform="translate(0 0)"/><path class="a91a4cd7-dd33-46af-92a2-6f1c87bc4ce8" d="M66.64,13.33a.76.76,0,0,1,0-1.51.76.76,0,1,1,0,1.51" transform="translate(0 0)"/><path class="a91a4cd7-dd33-46af-92a2-6f1c87bc4ce8" d="M62.57,13.55a1,1,0,1,1,1-1,1,1,0,0,1-1,1" transform="translate(0 0)"/><path class="a91a4cd7-dd33-46af-92a2-6f1c87bc4ce8" d="M58.49,13.72a1.15,1.15,0,1,1,1.14-1.14,1.14,1.14,0,0,1-1.14,1.14" transform="translate(0 0)"/><path class="a91a4cd7-dd33-46af-92a2-6f1c87bc4ce8" d="M54.42,13.85a1.28,1.28,0,1,1,1.28-1.27,1.27,1.27,0,0,1-1.28,1.27" transform="translate(0 0)"/><path class="a91a4cd7-dd33-46af-92a2-6f1c87bc4ce8" d="M50.34,14a1.38,1.38,0,1,1,1.38-1.39A1.38,1.38,0,0,1,50.34,14" transform="translate(0 0)"/><path class="a91a4cd7-dd33-46af-92a2-6f1c87bc4ce8" d="M46.27,14a1.42,1.42,0,1,1,1.41-1.42A1.42,1.42,0,0,1,46.27,14" transform="translate(0 0)"/><path class="a91a4cd7-dd33-46af-92a2-6f1c87bc4ce8" d="M42.19,14a1.39,1.39,0,1,1,1.39-1.39A1.38,1.38,0,0,1,42.19,14" transform="translate(0 0)"/><path class="a91a4cd7-dd33-46af-92a2-6f1c87bc4ce8" d="M38.12,13.9a1.33,1.33,0,1,1,1.32-1.33,1.32,1.32,0,0,1-1.32,1.33" transform="translate(0 0)"/><path class="a91a4cd7-dd33-46af-92a2-6f1c87bc4ce8" d="M34.05,13.77a1.2,1.2,0,1,1,1.19-1.2,1.19,1.19,0,0,1-1.19,1.2" transform="translate(0 0)"/><path class="a91a4cd7-dd33-46af-92a2-6f1c87bc4ce8" d="M30,13.6a1,1,0,1,1,1-1,1,1,0,0,1-1,1" transform="translate(0 0)"/><path class="a91a4cd7-dd33-46af-92a2-6f1c87bc4ce8" d="M25.9,13.4a.83.83,0,1,1,.82-.83.83.83,0,0,1-.82.83" transform="translate(0 0)"/><path class="a91a4cd7-dd33-46af-92a2-6f1c87bc4ce8" d="M21.82,13.17a.6.6,0,1,1,.6-.6.6.6,0,0,1-.6.6" transform="translate(0 0)"/><path class="a91a4cd7-dd33-46af-92a2-6f1c87bc4ce8" d="M17.75,12.91a.34.34,0,1,1,0-.67.34.34,0,0,1,0,.67" transform="translate(0 0)"/><path class="a91a4cd7-dd33-46af-92a2-6f1c87bc4ce8" d="M13.67,12.64a.07.07,0,0,1-.07-.06.07.07,0,0,1,.14,0,.07.07,0,0,1-.07.06" transform="translate(0 0)"/><path class="a91a4cd7-dd33-46af-92a2-6f1c87bc4ce8" d="M78.87,16.83a.18.18,0,1,1,0-.36.18.18,0,1,1,0,.36" transform="translate(0 0)"/><path class="a91a4cd7-dd33-46af-92a2-6f1c87bc4ce8" d="M74.79,17.12a.47.47,0,1,1,0-.94.47.47,0,1,1,0,.94" transform="translate(0 0)"/><path class="a91a4cd7-dd33-46af-92a2-6f1c87bc4ce8" d="M70.72,17.41a.76.76,0,1,1,.75-.76.76.76,0,0,1-.75.76" transform="translate(0 0)"/><path class="a91a4cd7-dd33-46af-92a2-6f1c87bc4ce8" d="M66.64,17.67a1,1,0,1,1,1-1,1,1,0,0,1-1,1" transform="translate(0 0)"/><path class="a91a4cd7-dd33-46af-92a2-6f1c87bc4ce8" d="M62.57,17.89a1.24,1.24,0,1,1,1.24-1.24,1.23,1.23,0,0,1-1.24,1.24" transform="translate(0 0)"/><path class="a91a4cd7-dd33-46af-92a2-6f1c87bc4ce8" d="M58.49,18.1a1.45,1.45,0,1,1,1.45-1.45,1.44,1.44,0,0,1-1.45,1.45" transform="translate(0 0)"/><path class="a91a4cd7-dd33-46af-92a2-6f1c87bc4ce8" d="M54.42,18.27a1.62,1.62,0,1,1,0-3.23,1.62,1.62,0,0,1,0,3.23" transform="translate(0 0)"/><path class="a91a4cd7-dd33-46af-92a2-6f1c87bc4ce8" d="M50.34,18.38a1.73,1.73,0,1,1,1.73-1.73,1.72,1.72,0,0,1-1.73,1.73" transform="translate(0 0)"/><path class="a91a4cd7-dd33-46af-92a2-6f1c87bc4ce8" d="M46.27,18.41A1.76,1.76,0,1,1,48,16.65a1.76,1.76,0,0,1-1.76,1.76" transform="translate(0 0)"/><path class="a91a4cd7-dd33-46af-92a2-6f1c87bc4ce8" d="M42.19,18.4A1.75,1.75,0,1,1,44,16.65a1.75,1.75,0,0,1-1.76,1.75" transform="translate(0 0)"/><path class="a91a4cd7-dd33-46af-92a2-6f1c87bc4ce8" d="M38.12,18.31a1.66,1.66,0,1,1,1.66-1.66,1.66,1.66,0,0,1-1.66,1.66" transform="translate(0 0)"/><path class="a91a4cd7-dd33-46af-92a2-6f1c87bc4ce8" d="M34.05,18.16a1.51,1.51,0,1,1,1.51-1.51,1.51,1.51,0,0,1-1.51,1.51" transform="translate(0 0)"/><path class="a91a4cd7-dd33-46af-92a2-6f1c87bc4ce8" d="M30,18a1.32,1.32,0,1,1,1.32-1.32A1.32,1.32,0,0,1,30,18" transform="translate(0 0)"/><path class="a91a4cd7-dd33-46af-92a2-6f1c87bc4ce8" d="M25.9,17.75A1.1,1.1,0,1,1,27,16.65a1.1,1.1,0,0,1-1.09,1.1" transform="translate(0 0)"/><path class="a91a4cd7-dd33-46af-92a2-6f1c87bc4ce8" d="M21.82,17.49a.84.84,0,1,1,.84-.84.85.85,0,0,1-.84.84" transform="translate(0 0)"/><path class="a91a4cd7-dd33-46af-92a2-6f1c87bc4ce8" d="M17.75,17.23a.58.58,0,1,1,.57-.58.58.58,0,0,1-.57.58" transform="translate(0 0)"/><path class="a91a4cd7-dd33-46af-92a2-6f1c87bc4ce8" d="M13.67,16.93a.28.28,0,1,1,.29-.28.28.28,0,0,1-.29.28" transform="translate(0 0)"/><path class="a91a4cd7-dd33-46af-92a2-6f1c87bc4ce8" d="M82.94,20.76s0,0,0,0a0,0,0,0,1,.06,0s0,0,0,0" transform="translate(0 0)"/><path class="a91a4cd7-dd33-46af-92a2-6f1c87bc4ce8" d="M78.87,21.07a.35.35,0,1,1,0-.69.35.35,0,1,1,0,.69" transform="translate(0 0)"/><path class="a91a4cd7-dd33-46af-92a2-6f1c87bc4ce8" d="M74.79,21.39a.67.67,0,1,1,.67-.67.67.67,0,0,1-.67.67" transform="translate(0 0)"/><path class="a91a4cd7-dd33-46af-92a2-6f1c87bc4ce8" d="M70.72,21.7a1,1,0,1,1,1-1,1,1,0,0,1-1,1" transform="translate(0 0)"/><path class="a91a4cd7-dd33-46af-92a2-6f1c87bc4ce8" d="M66.64,22a1.25,1.25,0,1,1,1.25-1.25A1.25,1.25,0,0,1,66.64,22" transform="translate(0 0)"/><path class="a91a4cd7-dd33-46af-92a2-6f1c87bc4ce8" d="M62.57,22.24a1.52,1.52,0,1,1,1.51-1.52,1.52,1.52,0,0,1-1.51,1.52" transform="translate(0 0)"/><path class="a91a4cd7-dd33-46af-92a2-6f1c87bc4ce8" d="M58.49,22.48a1.76,1.76,0,1,1,1.76-1.76,1.76,1.76,0,0,1-1.76,1.76" transform="translate(0 0)"/><path class="a91a4cd7-dd33-46af-92a2-6f1c87bc4ce8" d="M54.42,22.67a1.95,1.95,0,1,1,1.94-2,1.94,1.94,0,0,1-1.94,2" transform="translate(0 0)"/><path class="a91a4cd7-dd33-46af-92a2-6f1c87bc4ce8" d="M50.34,22.79a2.07,2.07,0,1,1,2.07-2.07,2.06,2.06,0,0,1-2.07,2.07" transform="translate(0 0)"/><path class="a91a4cd7-dd33-46af-92a2-6f1c87bc4ce8" d="M46.27,22.85a2.13,2.13,0,1,1,2.12-2.13,2.12,2.12,0,0,1-2.12,2.13" transform="translate(0 0)"/><path class="a91a4cd7-dd33-46af-92a2-6f1c87bc4ce8" d="M42.19,22.81a2.09,2.09,0,1,1,2.09-2.09,2.09,2.09,0,0,1-2.09,2.09" transform="translate(0 0)"/><path class="a91a4cd7-dd33-46af-92a2-6f1c87bc4ce8" d="M38.12,22.71a2,2,0,1,1,2-2,2,2,0,0,1-2,2" transform="translate(0 0)"/><path class="a91a4cd7-dd33-46af-92a2-6f1c87bc4ce8" d="M34.05,22.55a1.82,1.82,0,1,1,1.82-1.83,1.82,1.82,0,0,1-1.82,1.83" transform="translate(0 0)"/><path class="a91a4cd7-dd33-46af-92a2-6f1c87bc4ce8" d="M30,22.32a1.6,1.6,0,1,1,1.59-1.6A1.6,1.6,0,0,1,30,22.32" transform="translate(0 0)"/><path class="a91a4cd7-dd33-46af-92a2-6f1c87bc4ce8" d="M25.9,22.06a1.34,1.34,0,1,1,1.33-1.34,1.34,1.34,0,0,1-1.33,1.34" transform="translate(0 0)"/><path class="a91a4cd7-dd33-46af-92a2-6f1c87bc4ce8" d="M21.82,21.79a1.07,1.07,0,1,1,1.06-1.07,1.07,1.07,0,0,1-1.06,1.07" transform="translate(0 0)"/><path class="a91a4cd7-dd33-46af-92a2-6f1c87bc4ce8" d="M17.75,21.49a.77.77,0,1,1,.76-.77.76.76,0,0,1-.76.77" transform="translate(0 0)"/><path class="a91a4cd7-dd33-46af-92a2-6f1c87bc4ce8" d="M13.67,21.19a.47.47,0,1,1,.47-.47.47.47,0,0,1-.47.47" transform="translate(0 0)"/><path class="a91a4cd7-dd33-46af-92a2-6f1c87bc4ce8" d="M9.6,20.86a.14.14,0,0,1-.14-.14.13.13,0,0,1,.14-.13.13.13,0,0,1,.13.13.13.13,0,0,1-.13.14" transform="translate(0 0)"/><path class="a91a4cd7-dd33-46af-92a2-6f1c87bc4ce8" d="M82.94,25a.17.17,0,1,1,.17-.17.18.18,0,0,1-.17.17" transform="translate(0 0)"/><path class="a91a4cd7-dd33-46af-92a2-6f1c87bc4ce8" d="M78.87,25.31a.51.51,0,1,1,.5-.51.51.51,0,0,1-.5.51" transform="translate(0 0)"/><path class="a91a4cd7-dd33-46af-92a2-6f1c87bc4ce8" d="M74.79,25.62A.82.82,0,0,1,74,24.8a.83.83,0,1,1,.82.82" transform="translate(0 0)"/><path class="a91a4cd7-dd33-46af-92a2-6f1c87bc4ce8" d="M70.72,25.94a1.14,1.14,0,1,1,1.14-1.14,1.14,1.14,0,0,1-1.14,1.14" transform="translate(0 0)"/><path class="a91a4cd7-dd33-46af-92a2-6f1c87bc4ce8" d="M66.64,26.25a1.45,1.45,0,1,1,1.45-1.45,1.44,1.44,0,0,1-1.45,1.45" transform="translate(0 0)"/><path class="a91a4cd7-dd33-46af-92a2-6f1c87bc4ce8" d="M62.57,26.55a1.75,1.75,0,1,1,1.75-1.75,1.75,1.75,0,0,1-1.75,1.75" transform="translate(0 0)"/><path class="a91a4cd7-dd33-46af-92a2-6f1c87bc4ce8" d="M58.49,26.81a2,2,0,1,1,2-2,2,2,0,0,1-2,2" transform="translate(0 0)"/><path class="a91a4cd7-dd33-46af-92a2-6f1c87bc4ce8" d="M54.42,27.05a2.25,2.25,0,1,1,2.25-2.25,2.25,2.25,0,0,1-2.25,2.25" transform="translate(0 0)"/><path class="a91a4cd7-dd33-46af-92a2-6f1c87bc4ce8" d="M50.34,27.21a2.41,2.41,0,1,1,2.41-2.41,2.4,2.4,0,0,1-2.41,2.41" transform="translate(0 0)"/><path class="a91a4cd7-dd33-46af-92a2-6f1c87bc4ce8" d="M46.27,27.27a2.47,2.47,0,1,1,2.47-2.47,2.47,2.47,0,0,1-2.47,2.47" transform="translate(0 0)"/><path class="a91a4cd7-dd33-46af-92a2-6f1c87bc4ce8" d="M42.19,27.24a2.44,2.44,0,1,1,2.44-2.44,2.44,2.44,0,0,1-2.44,2.44" transform="translate(0 0)"/><path class="a91a4cd7-dd33-46af-92a2-6f1c87bc4ce8" d="M38.12,27.1a2.31,2.31,0,1,1,2.3-2.3,2.31,2.31,0,0,1-2.3,2.3" transform="translate(0 0)"/><path class="a91a4cd7-dd33-46af-92a2-6f1c87bc4ce8" d="M34.05,26.89a2.09,2.09,0,1,1,2.09-2.09,2.09,2.09,0,0,1-2.09,2.09" transform="translate(0 0)"/><path class="a91a4cd7-dd33-46af-92a2-6f1c87bc4ce8" d="M30,26.64a1.84,1.84,0,1,1,1.84-1.84A1.84,1.84,0,0,1,30,26.64" transform="translate(0 0)"/><path class="a91a4cd7-dd33-46af-92a2-6f1c87bc4ce8" d="M25.9,26.35a1.55,1.55,0,1,1,1.54-1.55,1.55,1.55,0,0,1-1.54,1.55" transform="translate(0 0)"/><path class="a91a4cd7-dd33-46af-92a2-6f1c87bc4ce8" d="M21.82,26a1.24,1.24,0,1,1,1.24-1.24A1.23,1.23,0,0,1,21.82,26" transform="translate(0 0)"/><path class="a91a4cd7-dd33-46af-92a2-6f1c87bc4ce8" d="M17.75,25.74a.94.94,0,1,1,.94-.94.94.94,0,0,1-.94.94" transform="translate(0 0)"/><path class="a91a4cd7-dd33-46af-92a2-6f1c87bc4ce8" d="M13.67,25.41a.61.61,0,1,1,0-1.22.61.61,0,0,1,0,1.22" transform="translate(0 0)"/><path class="a91a4cd7-dd33-46af-92a2-6f1c87bc4ce8" d="M9.6,25.08a.28.28,0,0,1,0-.56.28.28,0,0,1,0,.56" transform="translate(0 0)"/><path class="a91a4cd7-dd33-46af-92a2-6f1c87bc4ce8" d="M82.94,29.13a.26.26,0,0,1-.26-.25.26.26,0,1,1,.52,0,.26.26,0,0,1-.26.25" transform="translate(0 0)"/><path class="a91a4cd7-dd33-46af-92a2-6f1c87bc4ce8" d="M78.87,29.48a.6.6,0,0,1-.61-.6.61.61,0,0,1,.61-.62.62.62,0,0,1,.61.62.61.61,0,0,1-.61.6" transform="translate(0 0)"/><path class="a91a4cd7-dd33-46af-92a2-6f1c87bc4ce8" d="M74.79,29.82a.95.95,0,1,1,.95-.94.95.95,0,0,1-.95.94" transform="translate(0 0)"/><path class="a91a4cd7-dd33-46af-92a2-6f1c87bc4ce8" d="M70.72,30.15A1.28,1.28,0,1,1,72,28.88a1.27,1.27,0,0,1-1.27,1.27" transform="translate(0 0)"/><path class="a91a4cd7-dd33-46af-92a2-6f1c87bc4ce8" d="M66.64,30.49a1.62,1.62,0,1,1,1.62-1.62,1.61,1.61,0,0,1-1.62,1.62" transform="translate(0 0)"/><path class="a91a4cd7-dd33-46af-92a2-6f1c87bc4ce8" d="M62.57,30.82a1.95,1.95,0,1,1,1.94-1.94,1.94,1.94,0,0,1-1.94,1.94" transform="translate(0 0)"/><path class="a91a4cd7-dd33-46af-92a2-6f1c87bc4ce8" d="M58.49,31.12a2.25,2.25,0,1,1,2.25-2.24,2.24,2.24,0,0,1-2.25,2.24" transform="translate(0 0)"/><path class="a91a4cd7-dd33-46af-92a2-6f1c87bc4ce8" d="M54.42,31.39a2.52,2.52,0,1,1,2.52-2.51,2.51,2.51,0,0,1-2.52,2.51" transform="translate(0 0)"/><path class="a91a4cd7-dd33-46af-92a2-6f1c87bc4ce8" d="M50.34,31.39a2.52,2.52,0,1,1,2.52-2.51,2.51,2.51,0,0,1-2.52,2.51" transform="translate(0 0)"/><path class="a91a4cd7-dd33-46af-92a2-6f1c87bc4ce8" d="M46.27,31.39a2.52,2.52,0,1,1,2.52-2.51,2.51,2.51,0,0,1-2.52,2.51" transform="translate(0 0)"/><path class="a91a4cd7-dd33-46af-92a2-6f1c87bc4ce8" d="M42.19,31.39a2.52,2.52,0,1,1,2.52-2.51,2.51,2.51,0,0,1-2.52,2.51" transform="translate(0 0)"/><path class="a91a4cd7-dd33-46af-92a2-6f1c87bc4ce8" d="M38.12,31.39a2.52,2.52,0,1,1,2.52-2.51,2.51,2.51,0,0,1-2.52,2.51" transform="translate(0 0)"/><path class="a91a4cd7-dd33-46af-92a2-6f1c87bc4ce8" d="M34.05,31.21a2.34,2.34,0,1,1,2.33-2.33,2.33,2.33,0,0,1-2.33,2.33" transform="translate(0 0)"/><path class="a91a4cd7-dd33-46af-92a2-6f1c87bc4ce8" d="M30,30.92a2,2,0,1,1,2.05-2,2,2,0,0,1-2.05,2" transform="translate(0 0)"/><path class="a91a4cd7-dd33-46af-92a2-6f1c87bc4ce8" d="M25.9,30.6a1.73,1.73,0,1,1,1.73-1.72A1.72,1.72,0,0,1,25.9,30.6" transform="translate(0 0)"/><path class="a91a4cd7-dd33-46af-92a2-6f1c87bc4ce8" d="M21.82,30.26a1.39,1.39,0,1,1,1.39-1.38,1.38,1.38,0,0,1-1.39,1.38" transform="translate(0 0)"/><path class="a91a4cd7-dd33-46af-92a2-6f1c87bc4ce8" d="M17.75,29.94a1.07,1.07,0,1,1,1.06-1.07,1.07,1.07,0,0,1-1.06,1.07" transform="translate(0 0)"/><path class="a91a4cd7-dd33-46af-92a2-6f1c87bc4ce8" d="M13.67,29.6a.73.73,0,0,1,0-1.45.73.73,0,1,1,0,1.45" transform="translate(0 0)"/><path class="a91a4cd7-dd33-46af-92a2-6f1c87bc4ce8" d="M9.6,29.26a.39.39,0,1,1,.38-.38.38.38,0,0,1-.38.38" transform="translate(0 0)"/><path class="a91a4cd7-dd33-46af-92a2-6f1c87bc4ce8" d="M5.52,28.91a0,0,0,0,1,0,0s0,0,0,0a0,0,0,0,1,0,0,0,0,0,0,1,0,0" transform="translate(0 0)"/><path class="a91a4cd7-dd33-46af-92a2-6f1c87bc4ce8" d="M82.94,33.27a.32.32,0,0,1-.33-.32.33.33,0,0,1,.66,0,.32.32,0,0,1-.33.32" transform="translate(0 0)"/><path class="a91a4cd7-dd33-46af-92a2-6f1c87bc4ce8" d="M78.87,33.63a.68.68,0,1,1,0-1.36.68.68,0,0,1,0,1.36" transform="translate(0 0)"/><path class="a91a4cd7-dd33-46af-92a2-6f1c87bc4ce8" d="M74.79,34a1,1,0,1,1,1-1,1,1,0,0,1-1,1" transform="translate(0 0)"/><path class="a91a4cd7-dd33-46af-92a2-6f1c87bc4ce8" d="M70.72,34.33A1.38,1.38,0,1,1,72.09,33a1.38,1.38,0,0,1-1.37,1.38" transform="translate(0 0)"/><path class="a91a4cd7-dd33-46af-92a2-6f1c87bc4ce8" d="M66.64,34.68A1.73,1.73,0,1,1,68.37,33a1.74,1.74,0,0,1-1.73,1.73" transform="translate(0 0)"/><path class="a91a4cd7-dd33-46af-92a2-6f1c87bc4ce8" d="M62.57,35A2.07,2.07,0,1,1,64.64,33,2.07,2.07,0,0,1,62.57,35" transform="translate(0 0)"/><path class="a91a4cd7-dd33-46af-92a2-6f1c87bc4ce8" d="M58.49,35.35A2.41,2.41,0,1,1,60.9,33a2.39,2.39,0,0,1-2.41,2.4" transform="translate(0 0)"/><path class="a91a4cd7-dd33-46af-92a2-6f1c87bc4ce8" d="M54.42,35.47A2.52,2.52,0,1,1,56.94,33a2.52,2.52,0,0,1-2.52,2.52" transform="translate(0 0)"/><path class="a91a4cd7-dd33-46af-92a2-6f1c87bc4ce8" d="M50.34,35.47A2.52,2.52,0,1,1,52.86,33a2.51,2.51,0,0,1-2.52,2.52" transform="translate(0 0)"/><path class="a91a4cd7-dd33-46af-92a2-6f1c87bc4ce8" d="M46.27,35.47A2.52,2.52,0,1,1,48.79,33a2.52,2.52,0,0,1-2.52,2.52" transform="translate(0 0)"/><path class="a91a4cd7-dd33-46af-92a2-6f1c87bc4ce8" d="M42.19,35.47A2.52,2.52,0,1,1,44.71,33a2.51,2.51,0,0,1-2.52,2.52" transform="translate(0 0)"/><path class="a91a4cd7-dd33-46af-92a2-6f1c87bc4ce8" d="M38.12,35.47A2.52,2.52,0,1,1,40.64,33a2.52,2.52,0,0,1-2.52,2.52" transform="translate(0 0)"/><path class="a91a4cd7-dd33-46af-92a2-6f1c87bc4ce8" d="M34.05,35.47A2.52,2.52,0,1,1,36.57,33a2.52,2.52,0,0,1-2.52,2.52" transform="translate(0 0)"/><path class="a91a4cd7-dd33-46af-92a2-6f1c87bc4ce8" d="M30,35.13A2.18,2.18,0,1,1,32.15,33,2.19,2.19,0,0,1,30,35.13" transform="translate(0 0)"/><path class="a91a4cd7-dd33-46af-92a2-6f1c87bc4ce8" d="M25.9,34.79A1.84,1.84,0,1,1,27.74,33a1.84,1.84,0,0,1-1.84,1.84" transform="translate(0 0)"/><path class="a91a4cd7-dd33-46af-92a2-6f1c87bc4ce8" d="M21.82,34.44A1.49,1.49,0,1,1,23.31,33a1.49,1.49,0,0,1-1.49,1.49" transform="translate(0 0)"/><path class="a91a4cd7-dd33-46af-92a2-6f1c87bc4ce8" d="M17.75,34.09A1.14,1.14,0,1,1,18.89,33a1.14,1.14,0,0,1-1.14,1.14" transform="translate(0 0)"/><path class="a91a4cd7-dd33-46af-92a2-6f1c87bc4ce8" d="M13.67,33.75a.8.8,0,1,1,.8-.8.8.8,0,0,1-.8.8" transform="translate(0 0)"/><path class="a91a4cd7-dd33-46af-92a2-6f1c87bc4ce8" d="M9.6,33.4a.45.45,0,1,1,.45-.45.45.45,0,0,1-.45.45" transform="translate(0 0)"/><path class="a91a4cd7-dd33-46af-92a2-6f1c87bc4ce8" d="M5.52,33A.09.09,0,1,1,5.61,33a.09.09,0,0,1-.09.09" transform="translate(0 0)"/><path class="a91a4cd7-dd33-46af-92a2-6f1c87bc4ce8" d="M82.94,37.37a.35.35,0,0,1-.35-.35.35.35,0,0,1,.7,0,.35.35,0,0,1-.35.35" transform="translate(0 0)"/><path class="a91a4cd7-dd33-46af-92a2-6f1c87bc4ce8" d="M78.87,37.73a.71.71,0,1,1,.71-.71.71.71,0,0,1-.71.71" transform="translate(0 0)"/><path class="a91a4cd7-dd33-46af-92a2-6f1c87bc4ce8" d="M74.79,38.09A1.07,1.07,0,1,1,75.85,37a1.06,1.06,0,0,1-1.06,1.07" transform="translate(0 0)"/><path class="a91a4cd7-dd33-46af-92a2-6f1c87bc4ce8" d="M70.72,38.44a1.42,1.42,0,1,1,0-2.83,1.42,1.42,0,0,1,0,2.83" transform="translate(0 0)"/><path class="a91a4cd7-dd33-46af-92a2-6f1c87bc4ce8" d="M66.64,38.79A1.77,1.77,0,1,1,68.41,37a1.76,1.76,0,0,1-1.77,1.77" transform="translate(0 0)"/><path class="a91a4cd7-dd33-46af-92a2-6f1c87bc4ce8" d="M62.57,39.15A2.13,2.13,0,1,1,64.69,37a2.13,2.13,0,0,1-2.12,2.13" transform="translate(0 0)"/><path class="a91a4cd7-dd33-46af-92a2-6f1c87bc4ce8" d="M58.49,39.5A2.48,2.48,0,1,1,61,37a2.48,2.48,0,0,1-2.48,2.48" transform="translate(0 0)"/><path class="a91a4cd7-dd33-46af-92a2-6f1c87bc4ce8" d="M54.42,39.54A2.52,2.52,0,1,1,56.94,37a2.52,2.52,0,0,1-2.52,2.52" transform="translate(0 0)"/><path class="a91a4cd7-dd33-46af-92a2-6f1c87bc4ce8" d="M50.34,39.54A2.52,2.52,0,1,1,52.86,37a2.51,2.51,0,0,1-2.52,2.52" transform="translate(0 0)"/><path class="a91a4cd7-dd33-46af-92a2-6f1c87bc4ce8" d="M46.27,39.54A2.52,2.52,0,1,1,48.79,37a2.52,2.52,0,0,1-2.52,2.52" transform="translate(0 0)"/><path class="a91a4cd7-dd33-46af-92a2-6f1c87bc4ce8" d="M42.19,39.54A2.52,2.52,0,1,1,44.71,37a2.51,2.51,0,0,1-2.52,2.52" transform="translate(0 0)"/><path class="a91a4cd7-dd33-46af-92a2-6f1c87bc4ce8" d="M38.12,39.54A2.52,2.52,0,1,1,40.64,37a2.52,2.52,0,0,1-2.52,2.52" transform="translate(0 0)"/><path class="a91a4cd7-dd33-46af-92a2-6f1c87bc4ce8" d="M34.05,39.54A2.52,2.52,0,1,1,36.57,37a2.51,2.51,0,0,1-2.52,2.52" transform="translate(0 0)"/><path class="a91a4cd7-dd33-46af-92a2-6f1c87bc4ce8" d="M30,39.27A2.25,2.25,0,1,1,32.22,37,2.25,2.25,0,0,1,30,39.27" transform="translate(0 0)"/><path class="a91a4cd7-dd33-46af-92a2-6f1c87bc4ce8" d="M25.9,38.91A1.89,1.89,0,1,1,27.78,37a1.88,1.88,0,0,1-1.88,1.89" transform="translate(0 0)"/><path class="a91a4cd7-dd33-46af-92a2-6f1c87bc4ce8" d="M21.82,38.56A1.54,1.54,0,1,1,23.36,37a1.53,1.53,0,0,1-1.54,1.54" transform="translate(0 0)"/><path class="a91a4cd7-dd33-46af-92a2-6f1c87bc4ce8" d="M17.75,38.2A1.18,1.18,0,1,1,18.92,37a1.18,1.18,0,0,1-1.17,1.18" transform="translate(0 0)"/><path class="a91a4cd7-dd33-46af-92a2-6f1c87bc4ce8" d="M13.67,37.85A.83.83,0,1,1,14.5,37a.83.83,0,0,1-.83.83" transform="translate(0 0)"/><path class="a91a4cd7-dd33-46af-92a2-6f1c87bc4ce8" d="M9.6,37.5a.48.48,0,1,1,0-1,.48.48,0,0,1,0,1" transform="translate(0 0)"/><path class="a91a4cd7-dd33-46af-92a2-6f1c87bc4ce8" d="M5.52,37.15A.12.12,0,0,1,5.4,37a.12.12,0,0,1,.12-.12.12.12,0,0,1,.13.12.13.13,0,0,1-.13.13" transform="translate(0 0)"/><path class="a91a4cd7-dd33-46af-92a2-6f1c87bc4ce8" d="M82.94,41.44a.34.34,0,1,1,.34-.34.34.34,0,0,1-.34.34" transform="translate(0 0)"/><path class="a91a4cd7-dd33-46af-92a2-6f1c87bc4ce8" d="M78.87,41.79a.69.69,0,1,1,.69-.69.69.69,0,0,1-.69.69" transform="translate(0 0)"/><path class="a91a4cd7-dd33-46af-92a2-6f1c87bc4ce8" d="M74.79,42.14a1,1,0,0,1,0-2.08,1,1,0,0,1,0,2.08" transform="translate(0 0)"/><path class="a91a4cd7-dd33-46af-92a2-6f1c87bc4ce8" d="M70.72,42.49a1.39,1.39,0,1,1,1.39-1.39,1.39,1.39,0,0,1-1.39,1.39" transform="translate(0 0)"/><path class="a91a4cd7-dd33-46af-92a2-6f1c87bc4ce8" d="M66.64,42.85a1.75,1.75,0,1,1,1.75-1.75,1.75,1.75,0,0,1-1.75,1.75" transform="translate(0 0)"/><path class="a91a4cd7-dd33-46af-92a2-6f1c87bc4ce8" d="M62.57,43.19a2.09,2.09,0,1,1,2.09-2.09,2.09,2.09,0,0,1-2.09,2.09" transform="translate(0 0)"/><path class="a91a4cd7-dd33-46af-92a2-6f1c87bc4ce8" d="M58.49,43.54a2.44,2.44,0,1,1,2.44-2.44,2.44,2.44,0,0,1-2.44,2.44" transform="translate(0 0)"/><path class="a91a4cd7-dd33-46af-92a2-6f1c87bc4ce8" d="M54.42,43.62a2.52,2.52,0,1,1,2.52-2.52,2.52,2.52,0,0,1-2.52,2.52" transform="translate(0 0)"/><path class="a91a4cd7-dd33-46af-92a2-6f1c87bc4ce8" d="M50.34,43.62a2.52,2.52,0,1,1,2.52-2.52,2.51,2.51,0,0,1-2.52,2.52" transform="translate(0 0)"/><path class="a91a4cd7-dd33-46af-92a2-6f1c87bc4ce8" d="M46.27,43.62a2.52,2.52,0,1,1,2.52-2.52,2.52,2.52,0,0,1-2.52,2.52" transform="translate(0 0)"/><path class="a91a4cd7-dd33-46af-92a2-6f1c87bc4ce8" d="M42.19,43.62a2.52,2.52,0,1,1,2.52-2.52,2.51,2.51,0,0,1-2.52,2.52" transform="translate(0 0)"/><path class="a91a4cd7-dd33-46af-92a2-6f1c87bc4ce8" d="M38.12,43.62a2.52,2.52,0,1,1,2.52-2.52,2.52,2.52,0,0,1-2.52,2.52" transform="translate(0 0)"/><path class="a91a4cd7-dd33-46af-92a2-6f1c87bc4ce8" d="M34.05,43.62a2.52,2.52,0,1,1,2.52-2.52,2.52,2.52,0,0,1-2.52,2.52" transform="translate(0 0)"/><path class="a91a4cd7-dd33-46af-92a2-6f1c87bc4ce8" d="M30,43.31a2.22,2.22,0,1,1,2.22-2.21A2.21,2.21,0,0,1,30,43.31" transform="translate(0 0)"/><path class="a91a4cd7-dd33-46af-92a2-6f1c87bc4ce8" d="M25.9,43a1.87,1.87,0,1,1,1.86-1.86A1.87,1.87,0,0,1,25.9,43" transform="translate(0 0)"/><path class="a91a4cd7-dd33-46af-92a2-6f1c87bc4ce8" d="M21.82,42.61a1.52,1.52,0,1,1,1.51-1.51,1.51,1.51,0,0,1-1.51,1.51" transform="translate(0 0)"/><path class="a91a4cd7-dd33-46af-92a2-6f1c87bc4ce8" d="M17.75,42.26a1.17,1.17,0,1,1,1.16-1.16,1.16,1.16,0,0,1-1.16,1.16" transform="translate(0 0)"/><path class="a91a4cd7-dd33-46af-92a2-6f1c87bc4ce8" d="M13.67,41.91a.81.81,0,0,1-.81-.81.82.82,0,0,1,.81-.82.82.82,0,0,1,.82.82.82.82,0,0,1-.82.81" transform="translate(0 0)"/><path class="a91a4cd7-dd33-46af-92a2-6f1c87bc4ce8" d="M9.6,41.56a.46.46,0,0,1-.47-.46.47.47,0,1,1,.93,0,.46.46,0,0,1-.46.46" transform="translate(0 0)"/><path class="a91a4cd7-dd33-46af-92a2-6f1c87bc4ce8" d="M5.52,41.2a.11.11,0,0,1-.1-.1.1.1,0,0,1,.1-.1.09.09,0,0,1,.1.1.1.1,0,0,1-.1.1" transform="translate(0 0)"/><path class="a91a4cd7-dd33-46af-92a2-6f1c87bc4ce8" d="M82.94,45.47a.3.3,0,0,1-.29-.3.29.29,0,1,1,.58,0,.3.3,0,0,1-.29.3" transform="translate(0 0)"/><path class="a91a4cd7-dd33-46af-92a2-6f1c87bc4ce8" d="M78.87,45.82a.65.65,0,1,1,.64-.65.65.65,0,0,1-.64.65" transform="translate(0 0)"/><path class="a91a4cd7-dd33-46af-92a2-6f1c87bc4ce8" d="M74.79,46.16a1,1,0,1,1,1-1,1,1,0,0,1-1,1" transform="translate(0 0)"/><path class="a91a4cd7-dd33-46af-92a2-6f1c87bc4ce8" d="M70.72,46.5A1.33,1.33,0,1,1,72,45.17a1.33,1.33,0,0,1-1.32,1.33" transform="translate(0 0)"/><path class="a91a4cd7-dd33-46af-92a2-6f1c87bc4ce8" d="M66.64,46.83a1.66,1.66,0,1,1,1.66-1.66,1.66,1.66,0,0,1-1.66,1.66" transform="translate(0 0)"/><path class="a91a4cd7-dd33-46af-92a2-6f1c87bc4ce8" d="M62.57,47.16a2,2,0,1,1,2-2,2,2,0,0,1-2,2" transform="translate(0 0)"/><path class="a91a4cd7-dd33-46af-92a2-6f1c87bc4ce8" d="M58.49,47.48a2.31,2.31,0,1,1,2.31-2.31,2.31,2.31,0,0,1-2.31,2.31" transform="translate(0 0)"/><path class="a91a4cd7-dd33-46af-92a2-6f1c87bc4ce8" d="M54.42,47.69a2.52,2.52,0,1,1,2.52-2.52,2.52,2.52,0,0,1-2.52,2.52" transform="translate(0 0)"/><path class="a91a4cd7-dd33-46af-92a2-6f1c87bc4ce8" d="M50.34,47.69a2.52,2.52,0,1,1,2.52-2.52,2.51,2.51,0,0,1-2.52,2.52" transform="translate(0 0)"/><path class="a91a4cd7-dd33-46af-92a2-6f1c87bc4ce8" d="M46.27,47.69a2.52,2.52,0,1,1,2.52-2.52,2.52,2.52,0,0,1-2.52,2.52" transform="translate(0 0)"/><path class="a91a4cd7-dd33-46af-92a2-6f1c87bc4ce8" d="M42.19,47.69a2.52,2.52,0,1,1,2.52-2.52,2.51,2.51,0,0,1-2.52,2.52" transform="translate(0 0)"/><path class="a91a4cd7-dd33-46af-92a2-6f1c87bc4ce8" d="M38.12,47.69a2.52,2.52,0,1,1,2.52-2.52,2.52,2.52,0,0,1-2.52,2.52" transform="translate(0 0)"/><path class="a91a4cd7-dd33-46af-92a2-6f1c87bc4ce8" d="M34.05,47.58a2.41,2.41,0,1,1,2.4-2.41,2.41,2.41,0,0,1-2.4,2.41" transform="translate(0 0)"/><path class="a91a4cd7-dd33-46af-92a2-6f1c87bc4ce8" d="M30,47.26a2.09,2.09,0,1,1,2.09-2.09A2.09,2.09,0,0,1,30,47.26" transform="translate(0 0)"/><path class="a91a4cd7-dd33-46af-92a2-6f1c87bc4ce8" d="M25.9,46.93a1.76,1.76,0,1,1,1.76-1.76,1.76,1.76,0,0,1-1.76,1.76" transform="translate(0 0)"/><path class="a91a4cd7-dd33-46af-92a2-6f1c87bc4ce8" d="M21.82,46.61a1.44,1.44,0,1,1,1.44-1.44,1.43,1.43,0,0,1-1.44,1.44" transform="translate(0 0)"/><path class="a91a4cd7-dd33-46af-92a2-6f1c87bc4ce8" d="M17.75,46.27a1.1,1.1,0,1,1,1.09-1.1,1.1,1.1,0,0,1-1.09,1.1" transform="translate(0 0)"/><path class="a91a4cd7-dd33-46af-92a2-6f1c87bc4ce8" d="M13.67,45.93a.76.76,0,1,1,.76-.76.76.76,0,0,1-.76.76" transform="translate(0 0)"/><path class="a91a4cd7-dd33-46af-92a2-6f1c87bc4ce8" d="M9.6,45.58a.41.41,0,1,1,0-.81.41.41,0,0,1,0,.81" transform="translate(0 0)"/><path class="a91a4cd7-dd33-46af-92a2-6f1c87bc4ce8" d="M5.52,45.23a.06.06,0,0,1,0-.06,0,0,0,0,1,0-.05.06.06,0,0,1,.06.05.06.06,0,0,1-.06.06" transform="translate(0 0)"/><path class="a91a4cd7-dd33-46af-92a2-6f1c87bc4ce8" d="M82.94,49.45a.2.2,0,0,1-.2-.2.2.2,0,1,1,.4,0,.2.2,0,0,1-.2.2" transform="translate(0 0)"/><path class="a91a4cd7-dd33-46af-92a2-6f1c87bc4ce8" d="M78.87,49.79a.54.54,0,1,1,0-1.08.54.54,0,1,1,0,1.08" transform="translate(0 0)"/><path class="a91a4cd7-dd33-46af-92a2-6f1c87bc4ce8" d="M74.79,50.12a.87.87,0,1,1,.87-.87.87.87,0,0,1-.87.87" transform="translate(0 0)"/><path class="a91a4cd7-dd33-46af-92a2-6f1c87bc4ce8" d="M70.72,50.45a1.2,1.2,0,0,1,0-2.4,1.2,1.2,0,0,1,0,2.4" transform="translate(0 0)"/><path class="a91a4cd7-dd33-46af-92a2-6f1c87bc4ce8" d="M66.64,50.76a1.52,1.52,0,1,1,1.52-1.51,1.52,1.52,0,0,1-1.52,1.51" transform="translate(0 0)"/><path class="a91a4cd7-dd33-46af-92a2-6f1c87bc4ce8" d="M62.57,51.07a1.82,1.82,0,1,1,1.82-1.82,1.82,1.82,0,0,1-1.82,1.82" transform="translate(0 0)"/><path class="a91a4cd7-dd33-46af-92a2-6f1c87bc4ce8" d="M58.49,51.34a2.09,2.09,0,1,1,2.09-2.09,2.1,2.1,0,0,1-2.09,2.09" transform="translate(0 0)"/><path class="a91a4cd7-dd33-46af-92a2-6f1c87bc4ce8" d="M54.42,51.59a2.34,2.34,0,1,1,2.34-2.34,2.34,2.34,0,0,1-2.34,2.34" transform="translate(0 0)"/><path class="a91a4cd7-dd33-46af-92a2-6f1c87bc4ce8" d="M50.34,51.77a2.52,2.52,0,1,1,2.52-2.52,2.51,2.51,0,0,1-2.52,2.52" transform="translate(0 0)"/><path class="a91a4cd7-dd33-46af-92a2-6f1c87bc4ce8" d="M46.27,51.77a2.52,2.52,0,1,1,2.52-2.52,2.52,2.52,0,0,1-2.52,2.52" transform="translate(0 0)"/><path class="a91a4cd7-dd33-46af-92a2-6f1c87bc4ce8" d="M42.19,51.77a2.52,2.52,0,1,1,2.52-2.52,2.51,2.51,0,0,1-2.52,2.52" transform="translate(0 0)"/><path class="a91a4cd7-dd33-46af-92a2-6f1c87bc4ce8" d="M38.12,51.65a2.41,2.41,0,1,1,2.41-2.4,2.4,2.4,0,0,1-2.41,2.4" transform="translate(0 0)"/><path class="a91a4cd7-dd33-46af-92a2-6f1c87bc4ce8" d="M34.05,51.43a2.18,2.18,0,1,1,2.18-2.18,2.19,2.19,0,0,1-2.18,2.18" transform="translate(0 0)"/><path class="a91a4cd7-dd33-46af-92a2-6f1c87bc4ce8" d="M30,51.16a1.91,1.91,0,1,1,1.91-1.91A1.92,1.92,0,0,1,30,51.16" transform="translate(0 0)"/><path class="a91a4cd7-dd33-46af-92a2-6f1c87bc4ce8" d="M25.9,50.86a1.62,1.62,0,1,1,1.61-1.61,1.61,1.61,0,0,1-1.61,1.61" transform="translate(0 0)"/><path class="a91a4cd7-dd33-46af-92a2-6f1c87bc4ce8" d="M21.82,50.55a1.3,1.3,0,1,1,1.3-1.3,1.3,1.3,0,0,1-1.3,1.3" transform="translate(0 0)"/><path class="a91a4cd7-dd33-46af-92a2-6f1c87bc4ce8" d="M17.75,50.23a1,1,0,1,1,1-1,1,1,0,0,1-1,1" transform="translate(0 0)"/><path class="a91a4cd7-dd33-46af-92a2-6f1c87bc4ce8" d="M13.67,49.9a.65.65,0,0,1-.65-.65.66.66,0,0,1,.65-.66.67.67,0,0,1,.66.66.66.66,0,0,1-.66.65" transform="translate(0 0)"/><path class="a91a4cd7-dd33-46af-92a2-6f1c87bc4ce8" d="M9.6,49.56a.32.32,0,1,1,.31-.31.31.31,0,0,1-.31.31" transform="translate(0 0)"/><path class="a91a4cd7-dd33-46af-92a2-6f1c87bc4ce8" d="M82.94,53.4a.08.08,0,0,1-.08-.08.08.08,0,1,1,.16,0,.08.08,0,0,1-.08.08" transform="translate(0 0)"/><path class="a91a4cd7-dd33-46af-92a2-6f1c87bc4ce8" d="M78.87,53.73a.41.41,0,1,1,0-.81.41.41,0,0,1,0,.81" transform="translate(0 0)"/><path class="a91a4cd7-dd33-46af-92a2-6f1c87bc4ce8" d="M74.79,54a.72.72,0,1,1,.72-.72.72.72,0,0,1-.72.72" transform="translate(0 0)"/><path class="a91a4cd7-dd33-46af-92a2-6f1c87bc4ce8" d="M70.72,54.35a1,1,0,1,1,1-1,1,1,0,0,1-1,1" transform="translate(0 0)"/><path class="a91a4cd7-dd33-46af-92a2-6f1c87bc4ce8" d="M66.64,54.64A1.32,1.32,0,1,1,68,53.32a1.32,1.32,0,0,1-1.33,1.32" transform="translate(0 0)"/><path class="a91a4cd7-dd33-46af-92a2-6f1c87bc4ce8" d="M62.57,54.91a1.59,1.59,0,1,1,1.59-1.59,1.6,1.6,0,0,1-1.59,1.59" transform="translate(0 0)"/><path class="a91a4cd7-dd33-46af-92a2-6f1c87bc4ce8" d="M58.49,55.16a1.84,1.84,0,1,1,1.85-1.84,1.84,1.84,0,0,1-1.85,1.84" transform="translate(0 0)"/><path class="a91a4cd7-dd33-46af-92a2-6f1c87bc4ce8" d="M54.42,55.37a2,2,0,1,1,2-2,2.05,2.05,0,0,1-2,2" transform="translate(0 0)"/><path class="a91a4cd7-dd33-46af-92a2-6f1c87bc4ce8" d="M50.34,55.5a2.18,2.18,0,1,1,2.19-2.18,2.17,2.17,0,0,1-2.19,2.18" transform="translate(0 0)"/><path class="a91a4cd7-dd33-46af-92a2-6f1c87bc4ce8" d="M46.27,55.57a2.25,2.25,0,1,1,2.25-2.25,2.25,2.25,0,0,1-2.25,2.25" transform="translate(0 0)"/><path class="a91a4cd7-dd33-46af-92a2-6f1c87bc4ce8" d="M42.19,55.54a2.22,2.22,0,1,1,2.22-2.22,2.21,2.21,0,0,1-2.22,2.22" transform="translate(0 0)"/><path class="a91a4cd7-dd33-46af-92a2-6f1c87bc4ce8" d="M38.12,55.41a2.09,2.09,0,1,1,2.09-2.09,2.09,2.09,0,0,1-2.09,2.09" transform="translate(0 0)"/><path class="a91a4cd7-dd33-46af-92a2-6f1c87bc4ce8" d="M34.05,55.23A1.91,1.91,0,1,1,36,53.32a1.9,1.9,0,0,1-1.91,1.91" transform="translate(0 0)"/><path class="a91a4cd7-dd33-46af-92a2-6f1c87bc4ce8" d="M30,55a1.67,1.67,0,1,1,1.67-1.67A1.67,1.67,0,0,1,30,55" transform="translate(0 0)"/><path class="a91a4cd7-dd33-46af-92a2-6f1c87bc4ce8" d="M25.9,54.73a1.41,1.41,0,1,1,1.41-1.41,1.42,1.42,0,0,1-1.41,1.41" transform="translate(0 0)"/><path class="a91a4cd7-dd33-46af-92a2-6f1c87bc4ce8" d="M21.82,54.45A1.13,1.13,0,1,1,23,53.32a1.13,1.13,0,0,1-1.13,1.13" transform="translate(0 0)"/><path class="a91a4cd7-dd33-46af-92a2-6f1c87bc4ce8" d="M17.75,54.15a.83.83,0,1,1,.82-.83.83.83,0,0,1-.82.83" transform="translate(0 0)"/><path class="a91a4cd7-dd33-46af-92a2-6f1c87bc4ce8" d="M13.67,53.84a.52.52,0,0,1-.52-.52.53.53,0,0,1,.52-.52.52.52,0,0,1,.52.52.52.52,0,0,1-.52.52" transform="translate(0 0)"/><path class="a91a4cd7-dd33-46af-92a2-6f1c87bc4ce8" d="M9.6,53.51a.19.19,0,0,1-.2-.19.2.2,0,0,1,.2-.19.2.2,0,0,1,.19.19.19.19,0,0,1-.19.19" transform="translate(0 0)"/><path class="a91a4cd7-dd33-46af-92a2-6f1c87bc4ce8" d="M78.87,57.65a.25.25,0,1,1,.24-.25.25.25,0,0,1-.24.25" transform="translate(0 0)"/><path class="a91a4cd7-dd33-46af-92a2-6f1c87bc4ce8" d="M74.79,57.94a.54.54,0,0,1-.54-.54.54.54,0,1,1,1.08,0,.54.54,0,0,1-.54.54" transform="translate(0 0)"/><path class="a91a4cd7-dd33-46af-92a2-6f1c87bc4ce8" d="M70.72,58.22a.83.83,0,1,1,.82-.82.83.83,0,0,1-.82.82" transform="translate(0 0)"/><path class="a91a4cd7-dd33-46af-92a2-6f1c87bc4ce8" d="M66.64,58.49a1.1,1.1,0,1,1,1.1-1.09,1.09,1.09,0,0,1-1.1,1.09" transform="translate(0 0)"/><path class="a91a4cd7-dd33-46af-92a2-6f1c87bc4ce8" d="M62.57,58.73A1.34,1.34,0,1,1,63.9,57.4a1.33,1.33,0,0,1-1.33,1.33" transform="translate(0 0)"/><path class="a91a4cd7-dd33-46af-92a2-6f1c87bc4ce8" d="M58.49,58.94A1.55,1.55,0,1,1,60,57.4a1.54,1.54,0,0,1-1.55,1.54" transform="translate(0 0)"/><path class="a91a4cd7-dd33-46af-92a2-6f1c87bc4ce8" d="M54.42,59.13a1.73,1.73,0,1,1,1.73-1.73,1.74,1.74,0,0,1-1.73,1.73" transform="translate(0 0)"/><path class="a91a4cd7-dd33-46af-92a2-6f1c87bc4ce8" d="M50.34,59.24a1.85,1.85,0,1,1,1.85-1.84,1.85,1.85,0,0,1-1.85,1.84" transform="translate(0 0)"/><path class="a91a4cd7-dd33-46af-92a2-6f1c87bc4ce8" d="M46.27,59.28a1.89,1.89,0,1,1,1.89-1.88,1.89,1.89,0,0,1-1.89,1.88" transform="translate(0 0)"/><path class="a91a4cd7-dd33-46af-92a2-6f1c87bc4ce8" d="M42.19,59.26a1.87,1.87,0,1,1,1.87-1.86,1.86,1.86,0,0,1-1.87,1.86" transform="translate(0 0)"/><path class="a91a4cd7-dd33-46af-92a2-6f1c87bc4ce8" d="M38.12,59.16a1.76,1.76,0,1,1,1.76-1.76,1.76,1.76,0,0,1-1.76,1.76" transform="translate(0 0)"/><path class="a91a4cd7-dd33-46af-92a2-6f1c87bc4ce8" d="M34.05,59a1.62,1.62,0,1,1,1.61-1.61A1.61,1.61,0,0,1,34.05,59" transform="translate(0 0)"/><path class="a91a4cd7-dd33-46af-92a2-6f1c87bc4ce8" d="M30,58.81a1.42,1.42,0,1,1,1.41-1.41A1.41,1.41,0,0,1,30,58.81" transform="translate(0 0)"/><path class="a91a4cd7-dd33-46af-92a2-6f1c87bc4ce8" d="M25.9,58.57a1.18,1.18,0,1,1,1.17-1.17,1.17,1.17,0,0,1-1.17,1.17" transform="translate(0 0)"/><path class="a91a4cd7-dd33-46af-92a2-6f1c87bc4ce8" d="M21.82,58.31a.92.92,0,1,1,.92-.91.91.91,0,0,1-.92.91" transform="translate(0 0)"/><path class="a91a4cd7-dd33-46af-92a2-6f1c87bc4ce8" d="M17.75,58a.65.65,0,1,1,.64-.64.65.65,0,0,1-.64.64" transform="translate(0 0)"/><path class="a91a4cd7-dd33-46af-92a2-6f1c87bc4ce8" d="M13.67,57.74a.34.34,0,0,1-.34-.34.34.34,0,1,1,.68,0,.34.34,0,0,1-.34.34" transform="translate(0 0)"/><path class="a91a4cd7-dd33-46af-92a2-6f1c87bc4ce8" d="M9.6,57.43s0,0,0,0a0,0,0,0,1,0,0s0,0,0,0a0,0,0,0,1,0,0" transform="translate(0 0)"/><path class="a91a4cd7-dd33-46af-92a2-6f1c87bc4ce8" d="M78.87,61.52a0,0,0,0,1-.05-.05,0,0,0,0,1,.05,0,0,0,0,0,1,0,0,0,0,0,0,1,0,.05" transform="translate(0 0)"/><path class="a91a4cd7-dd33-46af-92a2-6f1c87bc4ce8" d="M74.79,61.8a.33.33,0,1,1,.33-.33.33.33,0,0,1-.33.33" transform="translate(0 0)"/><path class="a91a4cd7-dd33-46af-92a2-6f1c87bc4ce8" d="M70.72,62.07a.6.6,0,1,1,.6-.6.6.6,0,0,1-.6.6" transform="translate(0 0)"/><path class="a91a4cd7-dd33-46af-92a2-6f1c87bc4ce8" d="M66.64,62.31a.84.84,0,0,1-.83-.84.83.83,0,0,1,.83-.83.84.84,0,0,1,.84.83.85.85,0,0,1-.84.84" transform="translate(0 0)"/><path class="a91a4cd7-dd33-46af-92a2-6f1c87bc4ce8" d="M62.57,62.53a1.06,1.06,0,1,1,0-2.12,1.06,1.06,0,0,1,0,2.12" transform="translate(0 0)"/><path class="a91a4cd7-dd33-46af-92a2-6f1c87bc4ce8" d="M58.49,62.71a1.24,1.24,0,1,1,1.25-1.24,1.24,1.24,0,0,1-1.25,1.24" transform="translate(0 0)"/><path class="a91a4cd7-dd33-46af-92a2-6f1c87bc4ce8" d="M54.42,62.86a1.39,1.39,0,1,1,1.39-1.39,1.39,1.39,0,0,1-1.39,1.39" transform="translate(0 0)"/><path class="a91a4cd7-dd33-46af-92a2-6f1c87bc4ce8" d="M50.34,63a1.49,1.49,0,1,1,1.5-1.49A1.49,1.49,0,0,1,50.34,63" transform="translate(0 0)"/><path class="a91a4cd7-dd33-46af-92a2-6f1c87bc4ce8" d="M46.27,63a1.54,1.54,0,1,1,1.54-1.54A1.54,1.54,0,0,1,46.27,63" transform="translate(0 0)"/><path class="a91a4cd7-dd33-46af-92a2-6f1c87bc4ce8" d="M42.19,63a1.52,1.52,0,1,1,1.52-1.52A1.52,1.52,0,0,1,42.19,63" transform="translate(0 0)"/><path class="a91a4cd7-dd33-46af-92a2-6f1c87bc4ce8" d="M38.12,62.91a1.44,1.44,0,1,1,0-2.87,1.44,1.44,0,0,1,0,2.87" transform="translate(0 0)"/><path class="a91a4cd7-dd33-46af-92a2-6f1c87bc4ce8" d="M34.05,62.77a1.3,1.3,0,1,1,1.29-1.3,1.3,1.3,0,0,1-1.29,1.3" transform="translate(0 0)"/><path class="a91a4cd7-dd33-46af-92a2-6f1c87bc4ce8" d="M30,62.6a1.13,1.13,0,1,1,1.13-1.13A1.14,1.14,0,0,1,30,62.6" transform="translate(0 0)"/><path class="a91a4cd7-dd33-46af-92a2-6f1c87bc4ce8" d="M25.9,62.39a.92.92,0,1,1,.91-.92.92.92,0,0,1-.91.92" transform="translate(0 0)"/><path class="a91a4cd7-dd33-46af-92a2-6f1c87bc4ce8" d="M21.82,62.15a.68.68,0,1,1,.68-.68.69.69,0,0,1-.68.68" transform="translate(0 0)"/><path class="a91a4cd7-dd33-46af-92a2-6f1c87bc4ce8" d="M17.75,61.89a.42.42,0,1,1,.41-.42.42.42,0,0,1-.41.42" transform="translate(0 0)"/><path class="a91a4cd7-dd33-46af-92a2-6f1c87bc4ce8" d="M13.67,61.61a.13.13,0,0,1-.13-.14.13.13,0,0,1,.13-.13.13.13,0,0,1,.14.13.14.14,0,0,1-.14.14" transform="translate(0 0)"/><path class="a91a4cd7-dd33-46af-92a2-6f1c87bc4ce8" d="M74.79,65.64a.09.09,0,1,1,.09-.09.09.09,0,0,1-.09.09" transform="translate(0 0)"/><path class="a91a4cd7-dd33-46af-92a2-6f1c87bc4ce8" d="M70.72,65.89a.34.34,0,0,1-.34-.34.34.34,0,0,1,.34-.34.34.34,0,0,1,.34.34.35.35,0,0,1-.34.34" transform="translate(0 0)"/><path class="a91a4cd7-dd33-46af-92a2-6f1c87bc4ce8" d="M66.64,66.12a.58.58,0,0,1,0-1.15.58.58,0,1,1,0,1.15" transform="translate(0 0)"/><path class="a91a4cd7-dd33-46af-92a2-6f1c87bc4ce8" d="M62.57,66.31a.77.77,0,1,1,0-1.53.77.77,0,1,1,0,1.53" transform="translate(0 0)"/><path class="a91a4cd7-dd33-46af-92a2-6f1c87bc4ce8" d="M58.49,66.48a.94.94,0,1,1,.94-.93.93.93,0,0,1-.94.93" transform="translate(0 0)"/><path class="a91a4cd7-dd33-46af-92a2-6f1c87bc4ce8" d="M54.42,66.61a1.07,1.07,0,1,1,1.06-1.06,1.06,1.06,0,0,1-1.06,1.06" transform="translate(0 0)"/><path class="a91a4cd7-dd33-46af-92a2-6f1c87bc4ce8" d="M50.34,66.69a1.14,1.14,0,1,1,1.14-1.14,1.14,1.14,0,0,1-1.14,1.14" transform="translate(0 0)"/><path class="a91a4cd7-dd33-46af-92a2-6f1c87bc4ce8" d="M46.27,66.72a1.18,1.18,0,1,1,1.17-1.17,1.18,1.18,0,0,1-1.17,1.17" transform="translate(0 0)"/><path class="a91a4cd7-dd33-46af-92a2-6f1c87bc4ce8" d="M42.19,66.71a1.17,1.17,0,1,1,1.17-1.16,1.16,1.16,0,0,1-1.17,1.16" transform="translate(0 0)"/><path class="a91a4cd7-dd33-46af-92a2-6f1c87bc4ce8" d="M38.12,66.64a1.1,1.1,0,1,1,1.1-1.09,1.1,1.1,0,0,1-1.1,1.09" transform="translate(0 0)"/><path class="a91a4cd7-dd33-46af-92a2-6f1c87bc4ce8" d="M34.05,66.53a1,1,0,1,1,1-1,1,1,0,0,1-1,1" transform="translate(0 0)"/><path class="a91a4cd7-dd33-46af-92a2-6f1c87bc4ce8" d="M30,66.37a.83.83,0,0,1,0-1.65.83.83,0,1,1,0,1.65" transform="translate(0 0)"/><path class="a91a4cd7-dd33-46af-92a2-6f1c87bc4ce8" d="M25.9,66.19a.65.65,0,1,1,.64-.64.65.65,0,0,1-.64.64" transform="translate(0 0)"/><path class="a91a4cd7-dd33-46af-92a2-6f1c87bc4ce8" d="M21.82,66a.42.42,0,1,1,.42-.41.41.41,0,0,1-.42.41" transform="translate(0 0)"/><path class="a91a4cd7-dd33-46af-92a2-6f1c87bc4ce8" d="M17.75,65.73a.19.19,0,0,1-.18-.18.18.18,0,0,1,.36,0,.19.19,0,0,1-.18.18" transform="translate(0 0)"/><path class="a91a4cd7-dd33-46af-92a2-6f1c87bc4ce8" d="M70.72,69.69a.07.07,0,1,1,.07-.07.07.07,0,0,1-.07.07" transform="translate(0 0)"/><path class="a91a4cd7-dd33-46af-92a2-6f1c87bc4ce8" d="M66.64,69.9a.28.28,0,1,1,.29-.28.28.28,0,0,1-.29.28" transform="translate(0 0)"/><path class="a91a4cd7-dd33-46af-92a2-6f1c87bc4ce8" d="M62.57,70.08a.46.46,0,1,1,0-.92.46.46,0,1,1,0,.92" transform="translate(0 0)"/><path class="a91a4cd7-dd33-46af-92a2-6f1c87bc4ce8" d="M58.49,70.23a.61.61,0,0,1,0-1.22.61.61,0,0,1,0,1.22" transform="translate(0 0)"/><path class="a91a4cd7-dd33-46af-92a2-6f1c87bc4ce8" d="M54.42,70.34a.72.72,0,1,1,.72-.72.72.72,0,0,1-.72.72" transform="translate(0 0)"/><path class="a91a4cd7-dd33-46af-92a2-6f1c87bc4ce8" d="M50.34,70.42a.8.8,0,1,1,.81-.8.8.8,0,0,1-.81.8" transform="translate(0 0)"/><path class="a91a4cd7-dd33-46af-92a2-6f1c87bc4ce8" d="M46.27,70.45a.83.83,0,0,1-.82-.83.82.82,0,0,1,1.64,0,.83.83,0,0,1-.82.83" transform="translate(0 0)"/><path class="a91a4cd7-dd33-46af-92a2-6f1c87bc4ce8" d="M42.19,70.44a.82.82,0,0,1-.81-.82.81.81,0,0,1,.81-.81.82.82,0,0,1,.82.81.82.82,0,0,1-.82.82" transform="translate(0 0)"/><path class="a91a4cd7-dd33-46af-92a2-6f1c87bc4ce8" d="M38.12,70.38a.76.76,0,1,1,.76-.76.76.76,0,0,1-.76.76" transform="translate(0 0)"/><path class="a91a4cd7-dd33-46af-92a2-6f1c87bc4ce8" d="M34.05,70.28a.66.66,0,1,1,.65-.66.66.66,0,0,1-.65.66" transform="translate(0 0)"/><path class="a91a4cd7-dd33-46af-92a2-6f1c87bc4ce8" d="M30,70.14a.52.52,0,1,1,.52-.52.52.52,0,0,1-.52.52" transform="translate(0 0)"/><path class="a91a4cd7-dd33-46af-92a2-6f1c87bc4ce8" d="M25.9,70a.34.34,0,1,1,.33-.34.34.34,0,0,1-.33.34" transform="translate(0 0)"/><path class="a91a4cd7-dd33-46af-92a2-6f1c87bc4ce8" d="M21.82,69.76a.13.13,0,0,1-.13-.14.13.13,0,0,1,.13-.13.13.13,0,0,1,.14.13.14.14,0,0,1-.14.14" transform="translate(0 0)"/><path class="a91a4cd7-dd33-46af-92a2-6f1c87bc4ce8" d="M62.57,73.83a.14.14,0,0,1-.14-.14.13.13,0,0,1,.14-.13.13.13,0,0,1,.13.13.13.13,0,0,1-.13.14" transform="translate(0 0)"/><path class="a91a4cd7-dd33-46af-92a2-6f1c87bc4ce8" d="M58.49,74a.29.29,0,1,1,.29-.29.29.29,0,0,1-.29.29" transform="translate(0 0)"/><path class="a91a4cd7-dd33-46af-92a2-6f1c87bc4ce8" d="M54.42,74.08a.39.39,0,1,1,.38-.39.38.38,0,0,1-.38.39" transform="translate(0 0)"/><path class="a91a4cd7-dd33-46af-92a2-6f1c87bc4ce8" d="M50.34,74.15a.45.45,0,0,1-.45-.45.46.46,0,0,1,.45-.46.47.47,0,0,1,.46.46.46.46,0,0,1-.46.45" transform="translate(0 0)"/><path class="a91a4cd7-dd33-46af-92a2-6f1c87bc4ce8" d="M46.27,74.17a.48.48,0,1,1,0-1,.48.48,0,0,1,0,1" transform="translate(0 0)"/><path class="a91a4cd7-dd33-46af-92a2-6f1c87bc4ce8" d="M42.19,74.16a.47.47,0,1,1,.47-.47.47.47,0,0,1-.47.47" transform="translate(0 0)"/><path class="a91a4cd7-dd33-46af-92a2-6f1c87bc4ce8" d="M38.12,74.1a.41.41,0,1,1,0-.81.41.41,0,1,1,0,.81" transform="translate(0 0)"/><path class="a91a4cd7-dd33-46af-92a2-6f1c87bc4ce8" d="M34.05,74a.32.32,0,1,1,.31-.31.31.31,0,0,1-.31.31" transform="translate(0 0)"/><path class="a91a4cd7-dd33-46af-92a2-6f1c87bc4ce8" d="M30,73.89a.2.2,0,0,1-.19-.2A.2.2,0,0,1,30,73.5a.19.19,0,0,1,.19.19.19.19,0,0,1-.19.2" transform="translate(0 0)"/><path class="a91a4cd7-dd33-46af-92a2-6f1c87bc4ce8" d="M25.9,73.73s0,0,0,0a0,0,0,0,1,0,0s0,0,0,0a0,0,0,0,1,0,0" transform="translate(0 0)"/><path class="a91a4cd7-dd33-46af-92a2-6f1c87bc4ce8" d="M54.42,77.8s0,0,0,0,0,0,0,0a0,0,0,0,1,0,.06" transform="translate(0 0)"/><path class="a91a4cd7-dd33-46af-92a2-6f1c87bc4ce8" d="M50.34,77.86a.09.09,0,0,1,0-.18.09.09,0,0,1,0,.18" transform="translate(0 0)"/><path class="a91a4cd7-dd33-46af-92a2-6f1c87bc4ce8" d="M46.27,77.89a.12.12,0,0,1-.13-.12.13.13,0,0,1,.13-.13.12.12,0,0,1,.12.13.12.12,0,0,1-.12.12" transform="translate(0 0)"/><path class="a91a4cd7-dd33-46af-92a2-6f1c87bc4ce8" d="M42.19,77.87a.1.1,0,0,1,0-.2.1.1,0,1,1,0,.2" transform="translate(0 0)"/><path class="a91a4cd7-dd33-46af-92a2-6f1c87bc4ce8" d="M38.12,77.83a.06.06,0,1,1,.06-.06.06.06,0,0,1-.06.06" transform="translate(0 0)"/><path class="a91a4cd7-dd33-46af-92a2-6f1c87bc4ce8" d="M49.49,62.89c-.81-2.6-3.77-9.38-7.79-9.57-1.9,0-7.66,4.28-11.92,8.24L19.65,71l7.42-11.68c.05-.08,5.18-8.24,2.86-13.88C28,40.79,17.1,38.56,13.42,38.15L0,36.63l13.36-2C17,34.09,27,31.92,29.48,28.42c1.72-2.37-.1-8.85-1.25-11.61L24.56,6.66,31.26,15c2.21,2.83,6.79,7.32,9.72,7.32a2.11,2.11,0,0,0,.68-.1c3.68-1.19,8.66-9.18,10.93-13.93L56.22.75,56,9.15c-.21,7,.59,13.86,1.7,14.8.13.09,1.56.95,8.88.95,3.27,0,6.11-.18,6.14-.18l7.63-.47L73.67,28c-4,2.3-10.42,7.28-10.3,10.83.06,1.88,6.48,6.31,12.2,9.11l10.6,5.17L74.52,51.31a129.18,129.18,0,0,0-14.65-1.48,7.33,7.33,0,0,0-2.45.22C54.24,52,53.1,59.88,53,62.47l-.56,9.84Z" transform="translate(0 0)"/><path class="a7a8f3d2-a991-4c00-a003-86ac8ffc3908" d="M42.19,22.68c5.79-1.88,12-16.84,12-16.84s-.41,16.27,2.46,18.28,16.65,1.75,16.65,1.75S61.39,31.7,61.58,37.65c.15,4.27,13.75,11.28,13.75,11.28s-16.46-3.15-18.82-1.68c-4.73,3-5.34,13.85-5.34,13.85S48,50.57,41.77,50.27C38.11,50.1,28.56,59,28.56,59s5.77-9.33,2.13-15.44C26.85,37.09,11.8,35.8,11.8,35.8s14.45-2.43,18-7.3c2.85-3.93.12-14.26.12-14.26s7.3,10.06,12.3,8.44" transform="translate(0 0)"/></g><polygon class="f9625975-6e72-4ebf-aa59-1b06dc3f49a8" points="53.04 32.78 49.19 32.78 50.57 15.97 52.82 5.31 61.12 5.31 58.81 15.97 53.04 32.78"/><polygon class="f9625975-6e72-4ebf-aa59-1b06dc3f49a8" points="54.85 36.08 53.04 44.54 44.42 44.54 46.17 36.08 54.85 36.08"/><polygon class="ee209e48-e59d-4bb3-a418-a3af096d9f42" points="50.61 30.3 46.76 30.3 48.13 13.48 50.39 2.83 58.68 2.83 56.38 13.48 50.61 30.3"/><polygon class="ab707417-51ff-43e8-b8f3-92c3ea2dab88" points="50.61 30.3 46.76 30.3 48.13 13.48 50.39 2.83 58.68 2.83 56.38 13.48 50.61 30.3"/><polygon class="ee209e48-e59d-4bb3-a418-a3af096d9f42" points="52.42 33.59 50.61 42.05 41.98 42.05 43.74 33.59 52.42 33.59"/><polygon class="ab707417-51ff-43e8-b8f3-92c3ea2dab88" points="52.42 33.59 50.61 42.05 41.98 42.05 43.74 33.59 52.42 33.59"/></g></g></svg>