<svg xmlns="http://www.w3.org/2000/svg" xmlns:xlink="http://www.w3.org/1999/xlink" viewBox="0 0 132.8 126.07"><defs><style>.a8b37261-260f-456f-9892-b185e227fbb1,.e53f916b-06f9-491b-a796-9271551f35ab{fill:none;}.a9047773-be64-4e24-8667-79e28e5d158a{clip-path:url(#ebd64477-872d-4a0c-9243-2f472a72af13);}.b62c6bdb-4d12-43ae-a0de-6439a1ce3613{fill:#241f21;}.fb67e4b0-8dd0-40c4-8f73-5a19e08f2d41{fill:#fff;}.acea0591-a770-40d8-afdc-ac07cab0f4e5{fill:#1d1d1b;}.e53f916b-06f9-491b-a796-9271551f35ab{stroke:#1d1d1b;stroke-width:1.13px;}.b2d21299-8f17-4909-992d-52cfecea1b32{fill:#ea5178;}</style><clipPath id="ebd64477-872d-4a0c-9243-2f472a72af13" transform="translate(0 0)"><rect class="a8b37261-260f-456f-9892-b185e227fbb1" width="132.8" height="126.07"/></clipPath></defs><g id="e3180195-b6bb-4aec-8110-eb0741992bc4" data-name="Livello 2"><g id="a4d041c2-0b65-4971-ae5e-f13d3b7bb944" data-name="Livello 1"><g class="a9047773-be64-4e24-8667-79e28e5d158a"><path class="b62c6bdb-4d12-43ae-a0de-6439a1ce3613" d="M40.05.62a.06.06,0,0,0,.06-.05.06.06,0,0,0-.06-.06.06.06,0,0,0,0,.06,0,0,0,0,0,0,.05" transform="translate(0 0)"/><path class="b62c6bdb-4d12-43ae-a0de-6439a1ce3613" d="M46.65.84a.27.27,0,0,0,.27-.27.28.28,0,0,0-.27-.28.29.29,0,0,0-.28.28.28.28,0,0,0,.28.27" transform="translate(0 0)"/><path class="b62c6bdb-4d12-43ae-a0de-6439a1ce3613" d="M53.24,1a.42.42,0,0,0,.42-.42.42.42,0,0,0-.42-.42.42.42,0,1,0,0,.84" transform="translate(0 0)"/><path class="b62c6bdb-4d12-43ae-a0de-6439a1ce3613" d="M59.84,1.1a.53.53,0,0,0,.53-.53A.53.53,0,0,0,59.84,0a.52.52,0,0,0-.53.53.53.53,0,0,0,.53.53" transform="translate(0 0)"/><path class="b62c6bdb-4d12-43ae-a0de-6439a1ce3613" d="M66.43,1.13A.57.57,0,0,0,67,.57a.57.57,0,0,0-1.14,0,.57.57,0,0,0,.57.56" transform="translate(0 0)"/><path class="b62c6bdb-4d12-43ae-a0de-6439a1ce3613" d="M73,1.12a.55.55,0,0,0,.55-.55A.55.55,0,0,0,73,0a.55.55,0,1,0,0,1.1" transform="translate(0 0)"/><path class="b62c6bdb-4d12-43ae-a0de-6439a1ce3613" d="M79.62,1A.48.48,0,0,0,80.1.57a.48.48,0,0,0-.48-.48.47.47,0,0,0-.47.48.47.47,0,0,0,.47.47" transform="translate(0 0)"/><path class="b62c6bdb-4d12-43ae-a0de-6439a1ce3613" d="M86.22.9a.33.33,0,0,0,.33-.33.33.33,0,1,0-.66,0,.33.33,0,0,0,.33.33" transform="translate(0 0)"/><path class="b62c6bdb-4d12-43ae-a0de-6439a1ce3613" d="M92.81.7a.13.13,0,1,0-.13-.13.13.13,0,0,0,.13.13" transform="translate(0 0)"/><path class="b62c6bdb-4d12-43ae-a0de-6439a1ce3613" d="M33.46,7.46a.3.3,0,1,0-.29-.3.29.29,0,0,0,.29.3" transform="translate(0 0)"/><path class="b62c6bdb-4d12-43ae-a0de-6439a1ce3613" d="M40.05,7.73a.56.56,0,0,0,.57-.57.57.57,0,1,0-1.13,0,.56.56,0,0,0,.56.57" transform="translate(0 0)"/><path class="b62c6bdb-4d12-43ae-a0de-6439a1ce3613" d="M46.65,8a.82.82,0,1,0,0-1.64.82.82,0,1,0,0,1.64" transform="translate(0 0)"/><path class="b62c6bdb-4d12-43ae-a0de-6439a1ce3613" d="M53.24,8.15a1,1,0,1,0,0-2,1,1,0,0,0,0,2" transform="translate(0 0)"/><path class="b62c6bdb-4d12-43ae-a0de-6439a1ce3613" d="M59.84,8.26a1.1,1.1,0,1,0-1.1-1.1,1.09,1.09,0,0,0,1.1,1.1" transform="translate(0 0)"/><path class="b62c6bdb-4d12-43ae-a0de-6439a1ce3613" d="M66.43,8.32a1.16,1.16,0,1,0-1.15-1.16,1.15,1.15,0,0,0,1.15,1.16" transform="translate(0 0)"/><path class="b62c6bdb-4d12-43ae-a0de-6439a1ce3613" d="M73,8.28a1.12,1.12,0,1,0-1.12-1.12A1.12,1.12,0,0,0,73,8.28" transform="translate(0 0)"/><path class="b62c6bdb-4d12-43ae-a0de-6439a1ce3613" d="M79.62,8.21a1,1,0,1,0-1-1.05,1,1,0,0,0,1,1.05" transform="translate(0 0)"/><path class="b62c6bdb-4d12-43ae-a0de-6439a1ce3613" d="M86.22,8a.88.88,0,1,0-.88-.88.88.88,0,0,0,.88.88" transform="translate(0 0)"/><path class="b62c6bdb-4d12-43ae-a0de-6439a1ce3613" d="M92.81,7.82a.66.66,0,1,0-.66-.66.65.65,0,0,0,.66.66" transform="translate(0 0)"/><path class="b62c6bdb-4d12-43ae-a0de-6439a1ce3613" d="M99.41,7.56a.39.39,0,0,0,.4-.4.41.41,0,1,0-.4.4" transform="translate(0 0)"/><path class="b62c6bdb-4d12-43ae-a0de-6439a1ce3613" d="M106,7.24a.08.08,0,0,0,.07-.08.07.07,0,1,0-.14,0,.08.08,0,0,0,.07.08" transform="translate(0 0)"/><path class="b62c6bdb-4d12-43ae-a0de-6439a1ce3613" d="M20.27,13.78a0,0,0,0,0,0,0,0,0,0,0,0,0,0l0,0,0,0" transform="translate(0 0)"/><path class="b62c6bdb-4d12-43ae-a0de-6439a1ce3613" d="M26.86,14.16a.41.41,0,0,0,.41-.4.4.4,0,0,0-.41-.4.39.39,0,0,0-.4.4.4.4,0,0,0,.4.4" transform="translate(0 0)"/><path class="b62c6bdb-4d12-43ae-a0de-6439a1ce3613" d="M33.46,14.53a.77.77,0,1,0-.77-.77.78.78,0,0,0,.77.77" transform="translate(0 0)"/><path class="b62c6bdb-4d12-43ae-a0de-6439a1ce3613" d="M40.05,14.84A1.08,1.08,0,1,0,39,13.76a1.08,1.08,0,0,0,1.08,1.08" transform="translate(0 0)"/><path class="b62c6bdb-4d12-43ae-a0de-6439a1ce3613" d="M46.65,15.09a1.34,1.34,0,1,0-1.34-1.33,1.33,1.33,0,0,0,1.34,1.33" transform="translate(0 0)"/><path class="b62c6bdb-4d12-43ae-a0de-6439a1ce3613" d="M53.24,15.29a1.54,1.54,0,1,0-1.53-1.53,1.53,1.53,0,0,0,1.53,1.53" transform="translate(0 0)"/><path class="b62c6bdb-4d12-43ae-a0de-6439a1ce3613" d="M59.84,15.42a1.67,1.67,0,0,0,0-3.33,1.67,1.67,0,1,0,0,3.33" transform="translate(0 0)"/><path class="b62c6bdb-4d12-43ae-a0de-6439a1ce3613" d="M66.43,15.48a1.72,1.72,0,1,0-1.72-1.72,1.72,1.72,0,0,0,1.72,1.72" transform="translate(0 0)"/><path class="b62c6bdb-4d12-43ae-a0de-6439a1ce3613" d="M73,15.44a1.68,1.68,0,1,0-1.69-1.68A1.68,1.68,0,0,0,73,15.44" transform="translate(0 0)"/><path class="b62c6bdb-4d12-43ae-a0de-6439a1ce3613" d="M79.62,15.35A1.59,1.59,0,1,0,78,13.76a1.59,1.59,0,0,0,1.59,1.59" transform="translate(0 0)"/><path class="b62c6bdb-4d12-43ae-a0de-6439a1ce3613" d="M86.22,15.17a1.41,1.41,0,1,0-1.41-1.41,1.41,1.41,0,0,0,1.41,1.41" transform="translate(0 0)"/><path class="b62c6bdb-4d12-43ae-a0de-6439a1ce3613" d="M92.81,14.93a1.17,1.17,0,1,0-1.17-1.17,1.17,1.17,0,0,0,1.17,1.17" transform="translate(0 0)"/><path class="b62c6bdb-4d12-43ae-a0de-6439a1ce3613" d="M99.41,14.64a.88.88,0,1,0-.88-.88.88.88,0,0,0,.88.88" transform="translate(0 0)"/><path class="b62c6bdb-4d12-43ae-a0de-6439a1ce3613" d="M106,14.29a.53.53,0,0,0,.53-.53.52.52,0,0,0-.53-.53.53.53,0,0,0-.53.53.53.53,0,0,0,.53.53" transform="translate(0 0)"/><path class="b62c6bdb-4d12-43ae-a0de-6439a1ce3613" d="M112.6,13.9a.14.14,0,0,0,.14-.14.15.15,0,0,0-.14-.15.15.15,0,0,0-.15.15.15.15,0,0,0,.15.14" transform="translate(0 0)"/><path class="b62c6bdb-4d12-43ae-a0de-6439a1ce3613" d="M20.27,20.76a.41.41,0,0,0,.4-.41.4.4,0,1,0-.8,0,.41.41,0,0,0,.4.41" transform="translate(0 0)"/><path class="b62c6bdb-4d12-43ae-a0de-6439a1ce3613" d="M26.86,21.19a.84.84,0,0,0,0-1.68.84.84,0,0,0,0,1.68" transform="translate(0 0)"/><path class="b62c6bdb-4d12-43ae-a0de-6439a1ce3613" d="M33.46,21.58a1.23,1.23,0,1,0-1.23-1.23,1.22,1.22,0,0,0,1.23,1.23" transform="translate(0 0)"/><path class="b62c6bdb-4d12-43ae-a0de-6439a1ce3613" d="M40.05,21.92a1.57,1.57,0,1,0-1.57-1.57,1.57,1.57,0,0,0,1.57,1.57" transform="translate(0 0)"/><path class="b62c6bdb-4d12-43ae-a0de-6439a1ce3613" d="M46.65,22.2a1.85,1.85,0,1,0-1.85-1.85,1.84,1.84,0,0,0,1.85,1.85" transform="translate(0 0)"/><path class="b62c6bdb-4d12-43ae-a0de-6439a1ce3613" d="M53.24,22.42a2.07,2.07,0,1,0-2.06-2.07,2.07,2.07,0,0,0,2.06,2.07" transform="translate(0 0)"/><path class="b62c6bdb-4d12-43ae-a0de-6439a1ce3613" d="M59.84,22.58a2.23,2.23,0,1,0-2.23-2.23,2.23,2.23,0,0,0,2.23,2.23" transform="translate(0 0)"/><path class="b62c6bdb-4d12-43ae-a0de-6439a1ce3613" d="M66.43,22.64a2.29,2.29,0,1,0-2.28-2.29,2.29,2.29,0,0,0,2.28,2.29" transform="translate(0 0)"/><path class="b62c6bdb-4d12-43ae-a0de-6439a1ce3613" d="M73,22.6a2.25,2.25,0,1,0-2.25-2.25A2.25,2.25,0,0,0,73,22.6" transform="translate(0 0)"/><path class="b62c6bdb-4d12-43ae-a0de-6439a1ce3613" d="M79.62,22.49a2.14,2.14,0,1,0-2.14-2.14,2.14,2.14,0,0,0,2.14,2.14" transform="translate(0 0)"/><path class="b62c6bdb-4d12-43ae-a0de-6439a1ce3613" d="M86.22,22.29a1.94,1.94,0,1,0-1.94-1.94,1.94,1.94,0,0,0,1.94,1.94" transform="translate(0 0)"/><path class="b62c6bdb-4d12-43ae-a0de-6439a1ce3613" d="M92.81,22a1.67,1.67,0,1,0-1.66-1.67A1.66,1.66,0,0,0,92.81,22" transform="translate(0 0)"/><path class="b62c6bdb-4d12-43ae-a0de-6439a1ce3613" d="M99.41,21.69a1.34,1.34,0,1,0-1.34-1.34,1.34,1.34,0,0,0,1.34,1.34" transform="translate(0 0)"/><path class="b62c6bdb-4d12-43ae-a0de-6439a1ce3613" d="M106,21.32a1,1,0,0,0,0-1.94,1,1,0,1,0,0,1.94" transform="translate(0 0)"/><path class="b62c6bdb-4d12-43ae-a0de-6439a1ce3613" d="M112.6,20.9a.55.55,0,0,0,0-1.1.55.55,0,1,0,0,1.1" transform="translate(0 0)"/><path class="b62c6bdb-4d12-43ae-a0de-6439a1ce3613" d="M119.19,20.46a.11.11,0,1,0-.11-.11.11.11,0,0,0,.11.11" transform="translate(0 0)"/><path class="b62c6bdb-4d12-43ae-a0de-6439a1ce3613" d="M13.67,27.24a.29.29,0,1,0-.29-.29.29.29,0,0,0,.29.29" transform="translate(0 0)"/><path class="b62c6bdb-4d12-43ae-a0de-6439a1ce3613" d="M20.27,27.71A.77.77,0,1,0,19.5,27a.77.77,0,0,0,.77.76" transform="translate(0 0)"/><path class="b62c6bdb-4d12-43ae-a0de-6439a1ce3613" d="M26.86,28.17A1.23,1.23,0,1,0,25.64,27a1.23,1.23,0,0,0,1.22,1.22" transform="translate(0 0)"/><path class="b62c6bdb-4d12-43ae-a0de-6439a1ce3613" d="M33.46,28.59A1.65,1.65,0,1,0,31.81,27a1.64,1.64,0,0,0,1.65,1.64" transform="translate(0 0)"/><path class="b62c6bdb-4d12-43ae-a0de-6439a1ce3613" d="M40.05,29a2,2,0,1,0-2-2,2,2,0,0,0,2,2" transform="translate(0 0)"/><path class="b62c6bdb-4d12-43ae-a0de-6439a1ce3613" d="M46.65,29.29A2.34,2.34,0,1,0,44.31,27a2.34,2.34,0,0,0,2.34,2.34" transform="translate(0 0)"/><path class="b62c6bdb-4d12-43ae-a0de-6439a1ce3613" d="M53.24,29.56A2.62,2.62,0,1,0,50.63,27a2.61,2.61,0,0,0,2.61,2.61" transform="translate(0 0)"/><path class="b62c6bdb-4d12-43ae-a0de-6439a1ce3613" d="M59.84,29.74A2.8,2.8,0,1,0,57,27a2.8,2.8,0,0,0,2.8,2.79" transform="translate(0 0)"/><path class="b62c6bdb-4d12-43ae-a0de-6439a1ce3613" d="M66.43,29.8A2.85,2.85,0,1,0,63.58,27a2.86,2.86,0,0,0,2.85,2.85" transform="translate(0 0)"/><path class="b62c6bdb-4d12-43ae-a0de-6439a1ce3613" d="M73,29.78A2.84,2.84,0,1,0,70.19,27,2.83,2.83,0,0,0,73,29.78" transform="translate(0 0)"/><path class="b62c6bdb-4d12-43ae-a0de-6439a1ce3613" d="M79.62,29.63A2.69,2.69,0,1,0,76.94,27a2.68,2.68,0,0,0,2.68,2.68" transform="translate(0 0)"/><path class="b62c6bdb-4d12-43ae-a0de-6439a1ce3613" d="M86.22,29.4A2.45,2.45,0,1,0,83.77,27a2.45,2.45,0,0,0,2.45,2.45" transform="translate(0 0)"/><path class="b62c6bdb-4d12-43ae-a0de-6439a1ce3613" d="M92.81,29.09A2.14,2.14,0,1,0,90.67,27a2.14,2.14,0,0,0,2.14,2.14" transform="translate(0 0)"/><path class="b62c6bdb-4d12-43ae-a0de-6439a1ce3613" d="M99.41,28.72A1.78,1.78,0,1,0,97.63,27a1.77,1.77,0,0,0,1.78,1.77" transform="translate(0 0)"/><path class="b62c6bdb-4d12-43ae-a0de-6439a1ce3613" d="M106,28.3A1.36,1.36,0,1,0,104.65,27,1.34,1.34,0,0,0,106,28.3" transform="translate(0 0)"/><path class="b62c6bdb-4d12-43ae-a0de-6439a1ce3613" d="M112.6,27.88a.94.94,0,1,0-.94-.93.93.93,0,0,0,.94.93" transform="translate(0 0)"/><path class="b62c6bdb-4d12-43ae-a0de-6439a1ce3613" d="M119.19,27.4a.46.46,0,1,0,0-.91.46.46,0,0,0,0,.91" transform="translate(0 0)"/><path class="b62c6bdb-4d12-43ae-a0de-6439a1ce3613" d="M7.08,33.6a.06.06,0,0,0,0-.06,0,0,0,0,0,0,0,.06.06,0,0,0-.06,0,.06.06,0,0,0,.06.06" transform="translate(0 0)"/><path class="b62c6bdb-4d12-43ae-a0de-6439a1ce3613" d="M13.67,34.11a.57.57,0,1,0-.56-.57.56.56,0,0,0,.56.57" transform="translate(0 0)"/><path class="b62c6bdb-4d12-43ae-a0de-6439a1ce3613" d="M20.27,34.62a1.08,1.08,0,1,0-1.08-1.08,1.08,1.08,0,0,0,1.08,1.08" transform="translate(0 0)"/><path class="b62c6bdb-4d12-43ae-a0de-6439a1ce3613" d="M26.86,35.12a1.58,1.58,0,1,0,0-3.15,1.58,1.58,0,0,0,0,3.15" transform="translate(0 0)"/><path class="b62c6bdb-4d12-43ae-a0de-6439a1ce3613" d="M33.46,35.55a2,2,0,1,0-2-2,2,2,0,0,0,2,2" transform="translate(0 0)"/><path class="b62c6bdb-4d12-43ae-a0de-6439a1ce3613" d="M40.05,36a2.45,2.45,0,1,0-2.45-2.45A2.44,2.44,0,0,0,40.05,36" transform="translate(0 0)"/><path class="b62c6bdb-4d12-43ae-a0de-6439a1ce3613" d="M46.65,36.38a2.84,2.84,0,1,0-2.84-2.84,2.84,2.84,0,0,0,2.84,2.84" transform="translate(0 0)"/><path class="b62c6bdb-4d12-43ae-a0de-6439a1ce3613" d="M53.24,36.69a3.15,3.15,0,1,0-3.14-3.15,3.15,3.15,0,0,0,3.14,3.15" transform="translate(0 0)"/><path class="b62c6bdb-4d12-43ae-a0de-6439a1ce3613" d="M59.84,36.89a3.35,3.35,0,1,0-3.35-3.35,3.34,3.34,0,0,0,3.35,3.35" transform="translate(0 0)"/><path class="b62c6bdb-4d12-43ae-a0de-6439a1ce3613" d="M66.43,37A3.44,3.44,0,1,0,63,33.54,3.44,3.44,0,0,0,66.43,37" transform="translate(0 0)"/><path class="b62c6bdb-4d12-43ae-a0de-6439a1ce3613" d="M73,36.92a3.38,3.38,0,1,0-3.39-3.38A3.38,3.38,0,0,0,73,36.92" transform="translate(0 0)"/><path class="b62c6bdb-4d12-43ae-a0de-6439a1ce3613" d="M79.62,36.76a3.22,3.22,0,1,0-3.22-3.22,3.22,3.22,0,0,0,3.22,3.22" transform="translate(0 0)"/><path class="b62c6bdb-4d12-43ae-a0de-6439a1ce3613" d="M86.22,36.49a2.95,2.95,0,1,0-3-3,2.95,2.95,0,0,0,3,3" transform="translate(0 0)"/><path class="b62c6bdb-4d12-43ae-a0de-6439a1ce3613" d="M92.81,36.12a2.58,2.58,0,1,0-2.58-2.58,2.57,2.57,0,0,0,2.58,2.58" transform="translate(0 0)"/><path class="b62c6bdb-4d12-43ae-a0de-6439a1ce3613" d="M99.41,35.7a2.16,2.16,0,1,0-2.16-2.16,2.16,2.16,0,0,0,2.16,2.16" transform="translate(0 0)"/><path class="b62c6bdb-4d12-43ae-a0de-6439a1ce3613" d="M106,35.26a1.72,1.72,0,1,0-1.72-1.72A1.72,1.72,0,0,0,106,35.26" transform="translate(0 0)"/><path class="b62c6bdb-4d12-43ae-a0de-6439a1ce3613" d="M112.6,34.79a1.25,1.25,0,1,0-1.25-1.25,1.25,1.25,0,0,0,1.25,1.25" transform="translate(0 0)"/><path class="b62c6bdb-4d12-43ae-a0de-6439a1ce3613" d="M119.19,34.29a.75.75,0,0,0,0-1.5.75.75,0,0,0,0,1.5" transform="translate(0 0)"/><path class="b62c6bdb-4d12-43ae-a0de-6439a1ce3613" d="M125.79,33.76a.22.22,0,1,0-.22-.22.21.21,0,0,0,.22.22" transform="translate(0 0)"/><path class="b62c6bdb-4d12-43ae-a0de-6439a1ce3613" d="M7.08,40.41a.27.27,0,0,0,.27-.27.28.28,0,0,0-.27-.28.29.29,0,0,0-.28.28.28.28,0,0,0,.28.27" transform="translate(0 0)"/><path class="b62c6bdb-4d12-43ae-a0de-6439a1ce3613" d="M13.67,41a.83.83,0,0,0,0-1.65.83.83,0,0,0,0,1.65" transform="translate(0 0)"/><path class="b62c6bdb-4d12-43ae-a0de-6439a1ce3613" d="M20.27,41.47a1.34,1.34,0,1,0-1.34-1.33,1.33,1.33,0,0,0,1.34,1.33" transform="translate(0 0)"/><path class="b62c6bdb-4d12-43ae-a0de-6439a1ce3613" d="M26.86,42A1.85,1.85,0,1,0,25,40.14,1.84,1.84,0,0,0,26.86,42" transform="translate(0 0)"/><path class="b62c6bdb-4d12-43ae-a0de-6439a1ce3613" d="M33.46,42.48a2.34,2.34,0,1,0-2.34-2.34,2.34,2.34,0,0,0,2.34,2.34" transform="translate(0 0)"/><path class="b62c6bdb-4d12-43ae-a0de-6439a1ce3613" d="M40.05,43a2.84,2.84,0,1,0-2.83-2.83A2.84,2.84,0,0,0,40.05,43" transform="translate(0 0)"/><path class="b62c6bdb-4d12-43ae-a0de-6439a1ce3613" d="M46.65,43.39a3.26,3.26,0,1,0-3.26-3.25,3.25,3.25,0,0,0,3.26,3.25" transform="translate(0 0)"/><path class="b62c6bdb-4d12-43ae-a0de-6439a1ce3613" d="M53.24,43.78a3.64,3.64,0,1,0-3.64-3.64,3.64,3.64,0,0,0,3.64,3.64" transform="translate(0 0)"/><path class="b62c6bdb-4d12-43ae-a0de-6439a1ce3613" d="M59.84,44a3.9,3.9,0,1,0-3.9-3.89A3.89,3.89,0,0,0,59.84,44" transform="translate(0 0)"/><path class="b62c6bdb-4d12-43ae-a0de-6439a1ce3613" d="M66.43,44.14a4,4,0,1,0-4-4,4,4,0,0,0,4,4" transform="translate(0 0)"/><path class="b62c6bdb-4d12-43ae-a0de-6439a1ce3613" d="M73,44.09a4,4,0,1,0-4-4,4,4,0,0,0,4,4" transform="translate(0 0)"/><path class="b62c6bdb-4d12-43ae-a0de-6439a1ce3613" d="M79.62,43.87a3.73,3.73,0,1,0-3.73-3.73,3.73,3.73,0,0,0,3.73,3.73" transform="translate(0 0)"/><path class="b62c6bdb-4d12-43ae-a0de-6439a1ce3613" d="M86.22,43.52a3.39,3.39,0,1,0-3.39-3.38,3.38,3.38,0,0,0,3.39,3.38" transform="translate(0 0)"/><path class="b62c6bdb-4d12-43ae-a0de-6439a1ce3613" d="M92.81,43.12a3,3,0,1,0-3-3,3,3,0,0,0,3,3" transform="translate(0 0)"/><path class="b62c6bdb-4d12-43ae-a0de-6439a1ce3613" d="M99.41,42.64a2.51,2.51,0,1,0-2.51-2.5,2.5,2.5,0,0,0,2.51,2.5" transform="translate(0 0)"/><path class="b62c6bdb-4d12-43ae-a0de-6439a1ce3613" d="M106,42.15a2,2,0,1,0-2-2,2,2,0,0,0,2,2" transform="translate(0 0)"/><path class="b62c6bdb-4d12-43ae-a0de-6439a1ce3613" d="M112.6,41.65a1.52,1.52,0,1,0-1.52-1.51,1.52,1.52,0,0,0,1.52,1.51" transform="translate(0 0)"/><path class="b62c6bdb-4d12-43ae-a0de-6439a1ce3613" d="M119.19,41.12a1,1,0,1,0-1-1,1,1,0,0,0,1,1" transform="translate(0 0)"/><path class="b62c6bdb-4d12-43ae-a0de-6439a1ce3613" d="M125.79,40.59a.46.46,0,1,0-.46-.45.45.45,0,0,0,.46.45" transform="translate(0 0)"/><path class="b62c6bdb-4d12-43ae-a0de-6439a1ce3613" d="M7.08,47.15a.42.42,0,1,0-.42-.42.42.42,0,0,0,.42.42" transform="translate(0 0)"/><path class="b62c6bdb-4d12-43ae-a0de-6439a1ce3613" d="M13.67,47.72a1,1,0,0,0,0-2,1,1,0,1,0,0,2" transform="translate(0 0)"/><path class="b62c6bdb-4d12-43ae-a0de-6439a1ce3613" d="M20.27,48.27a1.54,1.54,0,1,0-1.54-1.54,1.53,1.53,0,0,0,1.54,1.54" transform="translate(0 0)"/><path class="b62c6bdb-4d12-43ae-a0de-6439a1ce3613" d="M26.86,48.8a2.07,2.07,0,1,0-2.06-2.07,2.07,2.07,0,0,0,2.06,2.07" transform="translate(0 0)"/><path class="b62c6bdb-4d12-43ae-a0de-6439a1ce3613" d="M33.46,49.35a2.62,2.62,0,1,0-2.62-2.62,2.61,2.61,0,0,0,2.62,2.62" transform="translate(0 0)"/><path class="b62c6bdb-4d12-43ae-a0de-6439a1ce3613" d="M40.05,49.88a3.15,3.15,0,1,0-3.14-3.15,3.15,3.15,0,0,0,3.14,3.15" transform="translate(0 0)"/><path class="b62c6bdb-4d12-43ae-a0de-6439a1ce3613" d="M46.65,50.37A3.64,3.64,0,1,0,43,46.73a3.64,3.64,0,0,0,3.64,3.64" transform="translate(0 0)"/><path class="b62c6bdb-4d12-43ae-a0de-6439a1ce3613" d="M53.24,50.81a4.08,4.08,0,1,0-4.07-4.08,4.07,4.07,0,0,0,4.07,4.08" transform="translate(0 0)"/><path class="b62c6bdb-4d12-43ae-a0de-6439a1ce3613" d="M59.84,50.81a4.08,4.08,0,1,0-4.08-4.08,4.08,4.08,0,0,0,4.08,4.08" transform="translate(0 0)"/><path class="b62c6bdb-4d12-43ae-a0de-6439a1ce3613" d="M66.43,50.81a4.08,4.08,0,1,0-4.08-4.08,4.07,4.07,0,0,0,4.08,4.08" transform="translate(0 0)"/><path class="b62c6bdb-4d12-43ae-a0de-6439a1ce3613" d="M73,50.81A4.08,4.08,0,1,0,69,46.73,4.08,4.08,0,0,0,73,50.81" transform="translate(0 0)"/><path class="b62c6bdb-4d12-43ae-a0de-6439a1ce3613" d="M79.62,50.81a4.08,4.08,0,1,0-4.08-4.08,4.08,4.08,0,0,0,4.08,4.08" transform="translate(0 0)"/><path class="b62c6bdb-4d12-43ae-a0de-6439a1ce3613" d="M86.22,50.52a3.79,3.79,0,1,0-3.79-3.79,3.79,3.79,0,0,0,3.79,3.79" transform="translate(0 0)"/><path class="b62c6bdb-4d12-43ae-a0de-6439a1ce3613" d="M92.81,50a3.31,3.31,0,1,0-3.31-3.31A3.31,3.31,0,0,0,92.81,50" transform="translate(0 0)"/><path class="b62c6bdb-4d12-43ae-a0de-6439a1ce3613" d="M99.41,49.53a2.8,2.8,0,1,0-2.8-2.8,2.8,2.8,0,0,0,2.8,2.8" transform="translate(0 0)"/><path class="b62c6bdb-4d12-43ae-a0de-6439a1ce3613" d="M106,49a2.25,2.25,0,1,0-2.25-2.25A2.25,2.25,0,0,0,106,49" transform="translate(0 0)"/><path class="b62c6bdb-4d12-43ae-a0de-6439a1ce3613" d="M112.6,48.45a1.72,1.72,0,1,0-1.72-1.72,1.72,1.72,0,0,0,1.72,1.72" transform="translate(0 0)"/><path class="b62c6bdb-4d12-43ae-a0de-6439a1ce3613" d="M119.19,47.9A1.17,1.17,0,1,0,118,46.73a1.17,1.17,0,0,0,1.17,1.17" transform="translate(0 0)"/><path class="b62c6bdb-4d12-43ae-a0de-6439a1ce3613" d="M125.79,47.35a.62.62,0,1,0-.63-.62.62.62,0,0,0,.63.62" transform="translate(0 0)"/><path class="b62c6bdb-4d12-43ae-a0de-6439a1ce3613" d="M7.08,53.86a.53.53,0,0,0,.53-.53.53.53,0,0,0-1.06,0,.53.53,0,0,0,.53.53" transform="translate(0 0)"/><path class="b62c6bdb-4d12-43ae-a0de-6439a1ce3613" d="M13.67,54.43a1.1,1.1,0,1,0-1.09-1.1,1.1,1.1,0,0,0,1.09,1.1" transform="translate(0 0)"/><path class="b62c6bdb-4d12-43ae-a0de-6439a1ce3613" d="M20.27,55a1.67,1.67,0,0,0,0-3.33,1.67,1.67,0,1,0,0,3.33" transform="translate(0 0)"/><path class="b62c6bdb-4d12-43ae-a0de-6439a1ce3613" d="M26.86,55.56a2.23,2.23,0,1,0-2.23-2.23,2.23,2.23,0,0,0,2.23,2.23" transform="translate(0 0)"/><path class="b62c6bdb-4d12-43ae-a0de-6439a1ce3613" d="M33.46,56.13a2.8,2.8,0,1,0-2.8-2.8,2.81,2.81,0,0,0,2.8,2.8" transform="translate(0 0)"/><path class="b62c6bdb-4d12-43ae-a0de-6439a1ce3613" d="M40.05,56.67a3.35,3.35,0,1,0-3.34-3.34,3.35,3.35,0,0,0,3.34,3.34" transform="translate(0 0)"/><path class="b62c6bdb-4d12-43ae-a0de-6439a1ce3613" d="M46.65,57.22a3.9,3.9,0,1,0-3.9-3.89,3.89,3.89,0,0,0,3.9,3.89" transform="translate(0 0)"/><path class="b62c6bdb-4d12-43ae-a0de-6439a1ce3613" d="M53.24,57.4a4.08,4.08,0,1,0-4.07-4.07,4.07,4.07,0,0,0,4.07,4.07" transform="translate(0 0)"/><path class="b62c6bdb-4d12-43ae-a0de-6439a1ce3613" d="M59.84,57.4a4.08,4.08,0,1,0-4.08-4.07,4.08,4.08,0,0,0,4.08,4.07" transform="translate(0 0)"/><path class="b62c6bdb-4d12-43ae-a0de-6439a1ce3613" d="M66.43,57.4a4.08,4.08,0,1,0-4.08-4.07,4.07,4.07,0,0,0,4.08,4.07" transform="translate(0 0)"/><path class="b62c6bdb-4d12-43ae-a0de-6439a1ce3613" d="M73,57.4A4.08,4.08,0,1,0,69,53.33,4.08,4.08,0,0,0,73,57.4" transform="translate(0 0)"/><path class="b62c6bdb-4d12-43ae-a0de-6439a1ce3613" d="M79.62,57.4a4.08,4.08,0,1,0-4.08-4.07,4.08,4.08,0,0,0,4.08,4.07" transform="translate(0 0)"/><path class="b62c6bdb-4d12-43ae-a0de-6439a1ce3613" d="M86.22,57.4a4.08,4.08,0,1,0-4.08-4.07,4.07,4.07,0,0,0,4.08,4.07" transform="translate(0 0)"/><path class="b62c6bdb-4d12-43ae-a0de-6439a1ce3613" d="M92.81,56.86a3.53,3.53,0,1,0-3.53-3.53,3.54,3.54,0,0,0,3.53,3.53" transform="translate(0 0)"/><path class="b62c6bdb-4d12-43ae-a0de-6439a1ce3613" d="M99.41,56.31a3,3,0,1,0-3-3,3,3,0,0,0,3,3" transform="translate(0 0)"/><path class="b62c6bdb-4d12-43ae-a0de-6439a1ce3613" d="M106,55.74a2.42,2.42,0,1,0-2.41-2.41A2.41,2.41,0,0,0,106,55.74" transform="translate(0 0)"/><path class="b62c6bdb-4d12-43ae-a0de-6439a1ce3613" d="M112.6,55.17a1.85,1.85,0,1,0-1.85-1.84,1.84,1.84,0,0,0,1.85,1.84" transform="translate(0 0)"/><path class="b62c6bdb-4d12-43ae-a0de-6439a1ce3613" d="M119.19,54.63a1.3,1.3,0,1,0-1.3-1.3,1.3,1.3,0,0,0,1.3,1.3" transform="translate(0 0)"/><path class="b62c6bdb-4d12-43ae-a0de-6439a1ce3613" d="M125.79,54.06a.73.73,0,0,0,0-1.46.73.73,0,1,0,0,1.46" transform="translate(0 0)"/><path class="b62c6bdb-4d12-43ae-a0de-6439a1ce3613" d="M7.08,60.49a.57.57,0,0,0,0-1.14.57.57,0,1,0,0,1.14" transform="translate(0 0)"/><path class="b62c6bdb-4d12-43ae-a0de-6439a1ce3613" d="M13.67,61.07a1.15,1.15,0,1,0-1.15-1.15,1.15,1.15,0,0,0,1.15,1.15" transform="translate(0 0)"/><path class="b62c6bdb-4d12-43ae-a0de-6439a1ce3613" d="M20.27,61.64a1.72,1.72,0,1,0-1.72-1.72,1.72,1.72,0,0,0,1.72,1.72" transform="translate(0 0)"/><path class="b62c6bdb-4d12-43ae-a0de-6439a1ce3613" d="M26.86,62.21a2.29,2.29,0,1,0-2.28-2.29,2.29,2.29,0,0,0,2.28,2.29" transform="translate(0 0)"/><path class="b62c6bdb-4d12-43ae-a0de-6439a1ce3613" d="M33.46,62.77a2.85,2.85,0,1,0-2.85-2.85,2.85,2.85,0,0,0,2.85,2.85" transform="translate(0 0)"/><path class="b62c6bdb-4d12-43ae-a0de-6439a1ce3613" d="M40.05,63.36a3.44,3.44,0,1,0-3.44-3.44,3.44,3.44,0,0,0,3.44,3.44" transform="translate(0 0)"/><path class="b62c6bdb-4d12-43ae-a0de-6439a1ce3613" d="M46.65,63.93a4,4,0,1,0-4-4,4,4,0,0,0,4,4" transform="translate(0 0)"/><path class="b62c6bdb-4d12-43ae-a0de-6439a1ce3613" d="M53.24,64a4.08,4.08,0,1,0-4.07-4.08A4.08,4.08,0,0,0,53.24,64" transform="translate(0 0)"/><path class="b62c6bdb-4d12-43ae-a0de-6439a1ce3613" d="M59.84,64a4.08,4.08,0,1,0-4.08-4.08A4.08,4.08,0,0,0,59.84,64" transform="translate(0 0)"/><path class="b62c6bdb-4d12-43ae-a0de-6439a1ce3613" d="M66.43,64a4.08,4.08,0,1,0-4.08-4.08A4.08,4.08,0,0,0,66.43,64" transform="translate(0 0)"/><path class="b62c6bdb-4d12-43ae-a0de-6439a1ce3613" d="M73,64A4.08,4.08,0,1,0,69,59.92,4.08,4.08,0,0,0,73,64" transform="translate(0 0)"/><path class="b62c6bdb-4d12-43ae-a0de-6439a1ce3613" d="M79.62,64a4.08,4.08,0,1,0-4.08-4.08A4.08,4.08,0,0,0,79.62,64" transform="translate(0 0)"/><path class="b62c6bdb-4d12-43ae-a0de-6439a1ce3613" d="M86.22,64a4.08,4.08,0,1,0-4.08-4.08A4.08,4.08,0,0,0,86.22,64" transform="translate(0 0)"/><path class="b62c6bdb-4d12-43ae-a0de-6439a1ce3613" d="M92.81,63.56a3.64,3.64,0,1,0-3.64-3.64,3.64,3.64,0,0,0,3.64,3.64" transform="translate(0 0)"/><path class="b62c6bdb-4d12-43ae-a0de-6439a1ce3613" d="M99.41,63a3.06,3.06,0,1,0-3.06-3.06A3.06,3.06,0,0,0,99.41,63" transform="translate(0 0)"/><path class="b62c6bdb-4d12-43ae-a0de-6439a1ce3613" d="M106,62.41a2.49,2.49,0,1,0-2.49-2.49A2.5,2.5,0,0,0,106,62.41" transform="translate(0 0)"/><path class="b62c6bdb-4d12-43ae-a0de-6439a1ce3613" d="M112.6,61.82a1.9,1.9,0,1,0-1.91-1.9,1.9,1.9,0,0,0,1.91,1.9" transform="translate(0 0)"/><path class="b62c6bdb-4d12-43ae-a0de-6439a1ce3613" d="M119.19,61.25a1.33,1.33,0,1,0-1.33-1.33,1.33,1.33,0,0,0,1.33,1.33" transform="translate(0 0)"/><path class="b62c6bdb-4d12-43ae-a0de-6439a1ce3613" d="M125.79,60.69a.77.77,0,0,0,0-1.54.77.77,0,1,0,0,1.54" transform="translate(0 0)"/><path class="b62c6bdb-4d12-43ae-a0de-6439a1ce3613" d="M7.08,67.07a.55.55,0,0,0,.55-.55.55.55,0,0,0-1.1,0,.55.55,0,0,0,.55.55" transform="translate(0 0)"/><path class="b62c6bdb-4d12-43ae-a0de-6439a1ce3613" d="M13.67,67.63a1.12,1.12,0,1,0-1.11-1.11,1.12,1.12,0,0,0,1.11,1.11" transform="translate(0 0)"/><path class="b62c6bdb-4d12-43ae-a0de-6439a1ce3613" d="M20.27,68.2a1.69,1.69,0,1,0-1.68-1.68,1.68,1.68,0,0,0,1.68,1.68" transform="translate(0 0)"/><path class="b62c6bdb-4d12-43ae-a0de-6439a1ce3613" d="M26.86,68.77a2.25,2.25,0,1,0-2.25-2.25,2.25,2.25,0,0,0,2.25,2.25" transform="translate(0 0)"/><path class="b62c6bdb-4d12-43ae-a0de-6439a1ce3613" d="M33.46,69.35a2.84,2.84,0,1,0-2.84-2.83,2.83,2.83,0,0,0,2.84,2.83" transform="translate(0 0)"/><path class="b62c6bdb-4d12-43ae-a0de-6439a1ce3613" d="M40.05,69.9a3.39,3.39,0,1,0-3.38-3.38,3.39,3.39,0,0,0,3.38,3.38" transform="translate(0 0)"/><path class="b62c6bdb-4d12-43ae-a0de-6439a1ce3613" d="M46.65,70.47a4,4,0,1,0-3.95-4,4,4,0,0,0,3.95,4" transform="translate(0 0)"/><path class="b62c6bdb-4d12-43ae-a0de-6439a1ce3613" d="M53.24,70.59a4.08,4.08,0,1,0-4.07-4.07,4.07,4.07,0,0,0,4.07,4.07" transform="translate(0 0)"/><path class="b62c6bdb-4d12-43ae-a0de-6439a1ce3613" d="M59.84,70.59a4.08,4.08,0,1,0-4.08-4.07,4.08,4.08,0,0,0,4.08,4.07" transform="translate(0 0)"/><path class="b62c6bdb-4d12-43ae-a0de-6439a1ce3613" d="M66.43,70.59a4.08,4.08,0,1,0-4.08-4.07,4.07,4.07,0,0,0,4.08,4.07" transform="translate(0 0)"/><path class="b62c6bdb-4d12-43ae-a0de-6439a1ce3613" d="M73,70.59A4.08,4.08,0,1,0,69,66.52,4.08,4.08,0,0,0,73,70.59" transform="translate(0 0)"/><path class="b62c6bdb-4d12-43ae-a0de-6439a1ce3613" d="M79.62,70.59a4.08,4.08,0,1,0-4.08-4.07,4.08,4.08,0,0,0,4.08,4.07" transform="translate(0 0)"/><path class="b62c6bdb-4d12-43ae-a0de-6439a1ce3613" d="M86.22,70.59a4.08,4.08,0,1,0-4.08-4.07,4.07,4.07,0,0,0,4.08,4.07" transform="translate(0 0)"/><path class="b62c6bdb-4d12-43ae-a0de-6439a1ce3613" d="M92.81,70.1a3.59,3.59,0,1,0-3.58-3.58,3.58,3.58,0,0,0,3.58,3.58" transform="translate(0 0)"/><path class="b62c6bdb-4d12-43ae-a0de-6439a1ce3613" d="M99.41,69.53a3,3,0,1,0-3-3,3,3,0,0,0,3,3" transform="translate(0 0)"/><path class="b62c6bdb-4d12-43ae-a0de-6439a1ce3613" d="M106,69a2.45,2.45,0,1,0-2.45-2.45A2.45,2.45,0,0,0,106,69" transform="translate(0 0)"/><path class="b62c6bdb-4d12-43ae-a0de-6439a1ce3613" d="M112.6,68.4a1.89,1.89,0,1,0-1.89-1.88,1.88,1.88,0,0,0,1.89,1.88" transform="translate(0 0)"/><path class="b62c6bdb-4d12-43ae-a0de-6439a1ce3613" d="M119.19,67.83a1.32,1.32,0,1,0-1.32-1.31,1.31,1.31,0,0,0,1.32,1.31" transform="translate(0 0)"/><path class="b62c6bdb-4d12-43ae-a0de-6439a1ce3613" d="M125.79,67.26a.75.75,0,1,0-.75-.74.75.75,0,0,0,.75.74" transform="translate(0 0)"/><path class="b62c6bdb-4d12-43ae-a0de-6439a1ce3613" d="M7.08,73.58a.47.47,0,1,0-.48-.47.47.47,0,0,0,.48.47" transform="translate(0 0)"/><path class="b62c6bdb-4d12-43ae-a0de-6439a1ce3613" d="M13.67,74.15a1,1,0,1,0-1-1,1,1,0,0,0,1,1" transform="translate(0 0)"/><path class="b62c6bdb-4d12-43ae-a0de-6439a1ce3613" d="M20.27,74.7a1.59,1.59,0,1,0-1.59-1.59,1.59,1.59,0,0,0,1.59,1.59" transform="translate(0 0)"/><path class="b62c6bdb-4d12-43ae-a0de-6439a1ce3613" d="M26.86,75.25a2.14,2.14,0,1,0-2.14-2.14,2.14,2.14,0,0,0,2.14,2.14" transform="translate(0 0)"/><path class="b62c6bdb-4d12-43ae-a0de-6439a1ce3613" d="M33.46,75.8a2.69,2.69,0,1,0-2.69-2.69,2.69,2.69,0,0,0,2.69,2.69" transform="translate(0 0)"/><path class="b62c6bdb-4d12-43ae-a0de-6439a1ce3613" d="M40.05,76.33a3.22,3.22,0,1,0-3.22-3.22,3.22,3.22,0,0,0,3.22,3.22" transform="translate(0 0)"/><path class="b62c6bdb-4d12-43ae-a0de-6439a1ce3613" d="M46.65,76.84a3.73,3.73,0,1,0-3.73-3.73,3.73,3.73,0,0,0,3.73,3.73" transform="translate(0 0)"/><path class="b62c6bdb-4d12-43ae-a0de-6439a1ce3613" d="M53.24,77.19a4.08,4.08,0,1,0-4.07-4.08,4.08,4.08,0,0,0,4.07,4.08" transform="translate(0 0)"/><path class="b62c6bdb-4d12-43ae-a0de-6439a1ce3613" d="M59.84,77.19a4.08,4.08,0,1,0-4.08-4.08,4.08,4.08,0,0,0,4.08,4.08" transform="translate(0 0)"/><path class="b62c6bdb-4d12-43ae-a0de-6439a1ce3613" d="M66.43,77.19a4.08,4.08,0,1,0-4.08-4.08,4.08,4.08,0,0,0,4.08,4.08" transform="translate(0 0)"/><path class="b62c6bdb-4d12-43ae-a0de-6439a1ce3613" d="M73,77.19A4.08,4.08,0,1,0,69,73.11,4.08,4.08,0,0,0,73,77.19" transform="translate(0 0)"/><path class="b62c6bdb-4d12-43ae-a0de-6439a1ce3613" d="M79.62,77.19a4.08,4.08,0,1,0-4.08-4.08,4.08,4.08,0,0,0,4.08,4.08" transform="translate(0 0)"/><path class="b62c6bdb-4d12-43ae-a0de-6439a1ce3613" d="M86.22,77a3.9,3.9,0,1,0-3.9-3.9,3.9,3.9,0,0,0,3.9,3.9" transform="translate(0 0)"/><path class="b62c6bdb-4d12-43ae-a0de-6439a1ce3613" d="M92.81,76.49a3.38,3.38,0,1,0-3.38-3.38,3.38,3.38,0,0,0,3.38,3.38" transform="translate(0 0)"/><path class="b62c6bdb-4d12-43ae-a0de-6439a1ce3613" d="M99.41,76a2.85,2.85,0,1,0-2.86-2.85A2.85,2.85,0,0,0,99.41,76" transform="translate(0 0)"/><path class="b62c6bdb-4d12-43ae-a0de-6439a1ce3613" d="M106,75.43a2.32,2.32,0,1,0-2.32-2.32A2.32,2.32,0,0,0,106,75.43" transform="translate(0 0)"/><path class="b62c6bdb-4d12-43ae-a0de-6439a1ce3613" d="M112.6,74.89a1.78,1.78,0,1,0-1.78-1.78,1.78,1.78,0,0,0,1.78,1.78" transform="translate(0 0)"/><path class="b62c6bdb-4d12-43ae-a0de-6439a1ce3613" d="M119.19,74.34A1.23,1.23,0,1,0,118,73.11a1.23,1.23,0,0,0,1.22,1.23" transform="translate(0 0)"/><path class="b62c6bdb-4d12-43ae-a0de-6439a1ce3613" d="M125.79,73.77a.66.66,0,1,0-.66-.66.66.66,0,0,0,.66.66" transform="translate(0 0)"/><path class="b62c6bdb-4d12-43ae-a0de-6439a1ce3613" d="M7.08,80a.34.34,0,0,0,.33-.34.33.33,0,0,0-.66,0,.34.34,0,0,0,.33.34" transform="translate(0 0)"/><path class="b62c6bdb-4d12-43ae-a0de-6439a1ce3613" d="M13.67,80.58a.88.88,0,1,0-.87-.87.87.87,0,0,0,.87.87" transform="translate(0 0)"/><path class="b62c6bdb-4d12-43ae-a0de-6439a1ce3613" d="M20.27,81.11a1.41,1.41,0,1,0-1.41-1.41,1.41,1.41,0,0,0,1.41,1.41" transform="translate(0 0)"/><path class="b62c6bdb-4d12-43ae-a0de-6439a1ce3613" d="M26.86,81.64a1.94,1.94,0,1,0-1.93-1.93,1.93,1.93,0,0,0,1.93,1.93" transform="translate(0 0)"/><path class="b62c6bdb-4d12-43ae-a0de-6439a1ce3613" d="M33.46,82.16A2.45,2.45,0,1,0,31,79.71a2.45,2.45,0,0,0,2.45,2.45" transform="translate(0 0)"/><path class="b62c6bdb-4d12-43ae-a0de-6439a1ce3613" d="M40.05,82.65a2.95,2.95,0,1,0-2.94-3,2.95,2.95,0,0,0,2.94,3" transform="translate(0 0)"/><path class="b62c6bdb-4d12-43ae-a0de-6439a1ce3613" d="M46.65,83.09a3.39,3.39,0,1,0-3.38-3.38,3.38,3.38,0,0,0,3.38,3.38" transform="translate(0 0)"/><path class="b62c6bdb-4d12-43ae-a0de-6439a1ce3613" d="M53.24,83.49a3.79,3.79,0,1,0-3.78-3.79,3.79,3.79,0,0,0,3.78,3.79" transform="translate(0 0)"/><path class="b62c6bdb-4d12-43ae-a0de-6439a1ce3613" d="M59.84,83.79a4.08,4.08,0,1,0-4.08-4.09,4.09,4.09,0,0,0,4.08,4.09" transform="translate(0 0)"/><path class="b62c6bdb-4d12-43ae-a0de-6439a1ce3613" d="M66.43,83.79a4.08,4.08,0,1,0-4.08-4.09,4.08,4.08,0,0,0,4.08,4.09" transform="translate(0 0)"/><path class="b62c6bdb-4d12-43ae-a0de-6439a1ce3613" d="M73,83.79A4.08,4.08,0,1,0,69,79.7,4.09,4.09,0,0,0,73,83.79" transform="translate(0 0)"/><path class="b62c6bdb-4d12-43ae-a0de-6439a1ce3613" d="M79.62,83.6a3.9,3.9,0,1,0-3.89-3.89,3.9,3.9,0,0,0,3.89,3.89" transform="translate(0 0)"/><path class="b62c6bdb-4d12-43ae-a0de-6439a1ce3613" d="M86.22,83.23a3.53,3.53,0,1,0-3.53-3.52,3.52,3.52,0,0,0,3.53,3.52" transform="translate(0 0)"/><path class="b62c6bdb-4d12-43ae-a0de-6439a1ce3613" d="M92.81,82.8a3.1,3.1,0,1,0-3.09-3.1,3.09,3.09,0,0,0,3.09,3.1" transform="translate(0 0)"/><path class="b62c6bdb-4d12-43ae-a0de-6439a1ce3613" d="M99.41,82.32a2.62,2.62,0,1,0-2.62-2.62,2.61,2.61,0,0,0,2.62,2.62" transform="translate(0 0)"/><path class="b62c6bdb-4d12-43ae-a0de-6439a1ce3613" d="M106,81.81a2.11,2.11,0,1,0-2.1-2.11,2.1,2.1,0,0,0,2.1,2.11" transform="translate(0 0)"/><path class="b62c6bdb-4d12-43ae-a0de-6439a1ce3613" d="M112.6,81.3A1.59,1.59,0,1,0,111,79.7a1.6,1.6,0,0,0,1.59,1.6" transform="translate(0 0)"/><path class="b62c6bdb-4d12-43ae-a0de-6439a1ce3613" d="M119.19,80.77a1.06,1.06,0,1,0-1.06-1.06,1.06,1.06,0,0,0,1.06,1.06" transform="translate(0 0)"/><path class="b62c6bdb-4d12-43ae-a0de-6439a1ce3613" d="M125.79,80.22a.52.52,0,1,0-.52-.51.51.51,0,0,0,.52.51" transform="translate(0 0)"/><path class="b62c6bdb-4d12-43ae-a0de-6439a1ce3613" d="M7.08,86.43A.13.13,0,1,0,7,86.3a.13.13,0,0,0,.13.13" transform="translate(0 0)"/><path class="b62c6bdb-4d12-43ae-a0de-6439a1ce3613" d="M13.67,87A.66.66,0,1,0,13,86.3a.66.66,0,0,0,.65.66" transform="translate(0 0)"/><path class="b62c6bdb-4d12-43ae-a0de-6439a1ce3613" d="M20.27,87.47A1.17,1.17,0,1,0,19.1,86.3a1.17,1.17,0,0,0,1.17,1.17" transform="translate(0 0)"/><path class="b62c6bdb-4d12-43ae-a0de-6439a1ce3613" d="M26.86,88a1.67,1.67,0,1,0,0-3.33,1.67,1.67,0,0,0,0,3.33" transform="translate(0 0)"/><path class="b62c6bdb-4d12-43ae-a0de-6439a1ce3613" d="M33.46,88.44a2.14,2.14,0,1,0-2.14-2.14,2.14,2.14,0,0,0,2.14,2.14" transform="translate(0 0)"/><path class="b62c6bdb-4d12-43ae-a0de-6439a1ce3613" d="M40.05,88.88a2.58,2.58,0,1,0-2.57-2.58,2.57,2.57,0,0,0,2.57,2.58" transform="translate(0 0)"/><path class="b62c6bdb-4d12-43ae-a0de-6439a1ce3613" d="M46.65,89.28a3,3,0,1,0-3-3,3,3,0,0,0,3,3" transform="translate(0 0)"/><path class="b62c6bdb-4d12-43ae-a0de-6439a1ce3613" d="M53.24,89.61a3.31,3.31,0,1,0-3.31-3.31,3.31,3.31,0,0,0,3.31,3.31" transform="translate(0 0)"/><path class="b62c6bdb-4d12-43ae-a0de-6439a1ce3613" d="M59.84,89.83a3.53,3.53,0,1,0-3.53-3.53,3.53,3.53,0,0,0,3.53,3.53" transform="translate(0 0)"/><path class="b62c6bdb-4d12-43ae-a0de-6439a1ce3613" d="M66.43,89.94a3.64,3.64,0,1,0-3.64-3.64,3.64,3.64,0,0,0,3.64,3.64" transform="translate(0 0)"/><path class="b62c6bdb-4d12-43ae-a0de-6439a1ce3613" d="M73,89.89a3.59,3.59,0,1,0-3.59-3.59A3.58,3.58,0,0,0,73,89.89" transform="translate(0 0)"/><path class="b62c6bdb-4d12-43ae-a0de-6439a1ce3613" d="M79.62,89.68a3.38,3.38,0,1,0-3.38-3.38,3.38,3.38,0,0,0,3.38,3.38" transform="translate(0 0)"/><path class="b62c6bdb-4d12-43ae-a0de-6439a1ce3613" d="M86.22,89.39a3.09,3.09,0,1,0-3.09-3.09,3.09,3.09,0,0,0,3.09,3.09" transform="translate(0 0)"/><path class="b62c6bdb-4d12-43ae-a0de-6439a1ce3613" d="M92.81,89A2.71,2.71,0,1,0,90.1,86.3,2.71,2.71,0,0,0,92.81,89" transform="translate(0 0)"/><path class="b62c6bdb-4d12-43ae-a0de-6439a1ce3613" d="M99.41,88.59a2.29,2.29,0,1,0-2.29-2.29,2.29,2.29,0,0,0,2.29,2.29" transform="translate(0 0)"/><path class="b62c6bdb-4d12-43ae-a0de-6439a1ce3613" d="M106,88.13a1.83,1.83,0,1,0-1.83-1.83A1.83,1.83,0,0,0,106,88.13" transform="translate(0 0)"/><path class="b62c6bdb-4d12-43ae-a0de-6439a1ce3613" d="M112.6,87.64a1.34,1.34,0,1,0-1.34-1.34,1.34,1.34,0,0,0,1.34,1.34" transform="translate(0 0)"/><path class="b62c6bdb-4d12-43ae-a0de-6439a1ce3613" d="M119.19,87.14a.84.84,0,0,0,0-1.68.84.84,0,0,0,0,1.68" transform="translate(0 0)"/><path class="b62c6bdb-4d12-43ae-a0de-6439a1ce3613" d="M125.79,86.61a.31.31,0,1,0-.31-.31.31.31,0,0,0,.31.31" transform="translate(0 0)"/><path class="b62c6bdb-4d12-43ae-a0de-6439a1ce3613" d="M13.67,93.3a.41.41,0,1,0-.4-.4.4.4,0,0,0,.4.4" transform="translate(0 0)"/><path class="b62c6bdb-4d12-43ae-a0de-6439a1ce3613" d="M20.27,93.77a.88.88,0,1,0-.88-.87.88.88,0,0,0,.88.87" transform="translate(0 0)"/><path class="b62c6bdb-4d12-43ae-a0de-6439a1ce3613" d="M26.86,94.23a1.34,1.34,0,1,0-1.33-1.33,1.34,1.34,0,0,0,1.33,1.33" transform="translate(0 0)"/><path class="b62c6bdb-4d12-43ae-a0de-6439a1ce3613" d="M33.46,94.67a1.78,1.78,0,1,0-1.78-1.77,1.77,1.77,0,0,0,1.78,1.77" transform="translate(0 0)"/><path class="b62c6bdb-4d12-43ae-a0de-6439a1ce3613" d="M40.05,95.05a2.16,2.16,0,1,0-2.16-2.15,2.15,2.15,0,0,0,2.16,2.15" transform="translate(0 0)"/><path class="b62c6bdb-4d12-43ae-a0de-6439a1ce3613" d="M46.65,95.4a2.51,2.51,0,1,0-2.51-2.5,2.5,2.5,0,0,0,2.51,2.5" transform="translate(0 0)"/><path class="b62c6bdb-4d12-43ae-a0de-6439a1ce3613" d="M53.24,95.69a2.8,2.8,0,1,0-2.8-2.79,2.79,2.79,0,0,0,2.8,2.79" transform="translate(0 0)"/><path class="b62c6bdb-4d12-43ae-a0de-6439a1ce3613" d="M59.84,95.88a3,3,0,1,0-3-3,3,3,0,0,0,3,3" transform="translate(0 0)"/><path class="b62c6bdb-4d12-43ae-a0de-6439a1ce3613" d="M66.43,96a3.06,3.06,0,1,0-3.05-3,3.06,3.06,0,0,0,3.05,3" transform="translate(0 0)"/><path class="b62c6bdb-4d12-43ae-a0de-6439a1ce3613" d="M73,95.91a3,3,0,1,0-3-3,3,3,0,0,0,3,3" transform="translate(0 0)"/><path class="b62c6bdb-4d12-43ae-a0de-6439a1ce3613" d="M79.62,95.75a2.86,2.86,0,1,0-2.85-2.85,2.86,2.86,0,0,0,2.85,2.85" transform="translate(0 0)"/><path class="b62c6bdb-4d12-43ae-a0de-6439a1ce3613" d="M86.22,95.51A2.62,2.62,0,1,0,83.6,92.9a2.61,2.61,0,0,0,2.62,2.61" transform="translate(0 0)"/><path class="b62c6bdb-4d12-43ae-a0de-6439a1ce3613" d="M92.81,95.18a2.29,2.29,0,1,0-2.28-2.28,2.29,2.29,0,0,0,2.28,2.28" transform="translate(0 0)"/><path class="b62c6bdb-4d12-43ae-a0de-6439a1ce3613" d="M99.41,94.8a1.91,1.91,0,1,0-1.9-1.9,1.9,1.9,0,0,0,1.9,1.9" transform="translate(0 0)"/><path class="b62c6bdb-4d12-43ae-a0de-6439a1ce3613" d="M106,94.38a1.49,1.49,0,1,0-1.48-1.48A1.48,1.48,0,0,0,106,94.38" transform="translate(0 0)"/><path class="b62c6bdb-4d12-43ae-a0de-6439a1ce3613" d="M112.6,93.94a1,1,0,1,0-1-1,1,1,0,0,0,1,1" transform="translate(0 0)"/><path class="b62c6bdb-4d12-43ae-a0de-6439a1ce3613" d="M119.19,93.44a.55.55,0,1,0-.55-.54.55.55,0,0,0,.55.54" transform="translate(0 0)"/><path class="b62c6bdb-4d12-43ae-a0de-6439a1ce3613" d="M125.79,93a0,0,0,0,0,0,0s0-.06,0-.06a.06.06,0,0,0-.06.06.06.06,0,0,0,.06,0" transform="translate(0 0)"/><path class="b62c6bdb-4d12-43ae-a0de-6439a1ce3613" d="M13.67,99.56a.07.07,0,1,0,0-.14.07.07,0,0,0,0,.14" transform="translate(0 0)"/><path class="b62c6bdb-4d12-43ae-a0de-6439a1ce3613" d="M20.27,100a.53.53,0,0,0,0-1.06.53.53,0,1,0,0,1.06" transform="translate(0 0)"/><path class="b62c6bdb-4d12-43ae-a0de-6439a1ce3613" d="M26.86,100.46a1,1,0,0,0,0-1.94,1,1,0,0,0,0,1.94" transform="translate(0 0)"/><path class="b62c6bdb-4d12-43ae-a0de-6439a1ce3613" d="M33.46,100.84a1.35,1.35,0,1,0-1.36-1.35,1.34,1.34,0,0,0,1.36,1.35" transform="translate(0 0)"/><path class="b62c6bdb-4d12-43ae-a0de-6439a1ce3613" d="M40.05,101.21a1.72,1.72,0,1,0-1.72-1.72,1.72,1.72,0,0,0,1.72,1.72" transform="translate(0 0)"/><path class="b62c6bdb-4d12-43ae-a0de-6439a1ce3613" d="M46.65,101.5a2,2,0,1,0-2-2,2,2,0,0,0,2,2" transform="translate(0 0)"/><path class="b62c6bdb-4d12-43ae-a0de-6439a1ce3613" d="M53.24,101.74A2.25,2.25,0,1,0,51,99.49a2.25,2.25,0,0,0,2.25,2.25" transform="translate(0 0)"/><path class="b62c6bdb-4d12-43ae-a0de-6439a1ce3613" d="M59.84,101.9a2.41,2.41,0,1,0-2.42-2.41,2.41,2.41,0,0,0,2.42,2.41" transform="translate(0 0)"/><path class="b62c6bdb-4d12-43ae-a0de-6439a1ce3613" d="M66.43,102A2.49,2.49,0,1,0,64,99.49,2.49,2.49,0,0,0,66.43,102" transform="translate(0 0)"/><path class="b62c6bdb-4d12-43ae-a0de-6439a1ce3613" d="M73,101.94a2.45,2.45,0,1,0-2.45-2.45A2.45,2.45,0,0,0,73,101.94" transform="translate(0 0)"/><path class="b62c6bdb-4d12-43ae-a0de-6439a1ce3613" d="M79.62,101.81a2.32,2.32,0,1,0-2.32-2.32,2.32,2.32,0,0,0,2.32,2.32" transform="translate(0 0)"/><path class="b62c6bdb-4d12-43ae-a0de-6439a1ce3613" d="M86.22,101.59a2.1,2.1,0,1,0-2.11-2.1,2.1,2.1,0,0,0,2.11,2.1" transform="translate(0 0)"/><path class="b62c6bdb-4d12-43ae-a0de-6439a1ce3613" d="M92.81,101.32A1.83,1.83,0,1,0,91,99.49a1.83,1.83,0,0,0,1.83,1.83" transform="translate(0 0)"/><path class="b62c6bdb-4d12-43ae-a0de-6439a1ce3613" d="M99.41,101a1.48,1.48,0,1,0-1.48-1.48A1.48,1.48,0,0,0,99.41,101" transform="translate(0 0)"/><path class="b62c6bdb-4d12-43ae-a0de-6439a1ce3613" d="M106,100.59a1.1,1.1,0,1,0-1.1-1.1,1.1,1.1,0,0,0,1.1,1.1" transform="translate(0 0)"/><path class="b62c6bdb-4d12-43ae-a0de-6439a1ce3613" d="M112.6,100.17a.68.68,0,0,0,0-1.36.68.68,0,0,0,0,1.36" transform="translate(0 0)"/><path class="b62c6bdb-4d12-43ae-a0de-6439a1ce3613" d="M119.19,99.71a.22.22,0,1,0-.22-.22.22.22,0,0,0,.22.22" transform="translate(0 0)"/><path class="b62c6bdb-4d12-43ae-a0de-6439a1ce3613" d="M20.27,106.23a.15.15,0,0,0,.15-.14.15.15,0,0,0-.3,0,.15.15,0,0,0,.15.14" transform="translate(0 0)"/><path class="b62c6bdb-4d12-43ae-a0de-6439a1ce3613" d="M26.86,106.63a.55.55,0,1,0-.54-.54.54.54,0,0,0,.54.54" transform="translate(0 0)"/><path class="b62c6bdb-4d12-43ae-a0de-6439a1ce3613" d="M33.46,107a.94.94,0,1,0-.94-.93.93.93,0,0,0,.94.93" transform="translate(0 0)"/><path class="b62c6bdb-4d12-43ae-a0de-6439a1ce3613" d="M40.05,107.33a1.25,1.25,0,1,0-1.24-1.24,1.25,1.25,0,0,0,1.24,1.24" transform="translate(0 0)"/><path class="b62c6bdb-4d12-43ae-a0de-6439a1ce3613" d="M46.65,107.6a1.52,1.52,0,1,0-1.52-1.51,1.52,1.52,0,0,0,1.52,1.51" transform="translate(0 0)"/><path class="b62c6bdb-4d12-43ae-a0de-6439a1ce3613" d="M53.24,107.8a1.72,1.72,0,1,0-1.72-1.71,1.72,1.72,0,0,0,1.72,1.71" transform="translate(0 0)"/><path class="b62c6bdb-4d12-43ae-a0de-6439a1ce3613" d="M59.84,107.93A1.85,1.85,0,1,0,58,106.09a1.84,1.84,0,0,0,1.85,1.84" transform="translate(0 0)"/><path class="b62c6bdb-4d12-43ae-a0de-6439a1ce3613" d="M66.43,108a1.91,1.91,0,1,0-1.9-1.9,1.9,1.9,0,0,0,1.9,1.9" transform="translate(0 0)"/><path class="b62c6bdb-4d12-43ae-a0de-6439a1ce3613" d="M73,108a1.89,1.89,0,1,0-1.89-1.88A1.88,1.88,0,0,0,73,108" transform="translate(0 0)"/><path class="b62c6bdb-4d12-43ae-a0de-6439a1ce3613" d="M79.62,107.86a1.78,1.78,0,1,0-1.77-1.77,1.78,1.78,0,0,0,1.77,1.77" transform="translate(0 0)"/><path class="b62c6bdb-4d12-43ae-a0de-6439a1ce3613" d="M86.22,107.68a1.6,1.6,0,1,0-1.59-1.59,1.59,1.59,0,0,0,1.59,1.59" transform="translate(0 0)"/><path class="b62c6bdb-4d12-43ae-a0de-6439a1ce3613" d="M92.81,107.42a1.34,1.34,0,1,0-1.33-1.33,1.34,1.34,0,0,0,1.33,1.33" transform="translate(0 0)"/><path class="b62c6bdb-4d12-43ae-a0de-6439a1ce3613" d="M99.41,107.13a1,1,0,1,0-1-1,1,1,0,0,0,1,1" transform="translate(0 0)"/><path class="b62c6bdb-4d12-43ae-a0de-6439a1ce3613" d="M106,106.76a.68.68,0,1,0-.67-.67.67.67,0,0,0,.67.67" transform="translate(0 0)"/><path class="b62c6bdb-4d12-43ae-a0de-6439a1ce3613" d="M112.6,106.38a.3.3,0,0,0,0-.59.3.3,0,1,0,0,.59" transform="translate(0 0)"/><path class="b62c6bdb-4d12-43ae-a0de-6439a1ce3613" d="M26.86,112.79a.11.11,0,1,0-.11-.11.11.11,0,0,0,.11.11" transform="translate(0 0)"/><path class="b62c6bdb-4d12-43ae-a0de-6439a1ce3613" d="M33.46,113.14a.46.46,0,0,0,0-.92.46.46,0,1,0,0,.92" transform="translate(0 0)"/><path class="b62c6bdb-4d12-43ae-a0de-6439a1ce3613" d="M40.05,113.43a.75.75,0,1,0-.75-.75.75.75,0,0,0,.75.75" transform="translate(0 0)"/><path class="b62c6bdb-4d12-43ae-a0de-6439a1ce3613" d="M46.65,113.67a1,1,0,1,0-1-1,1,1,0,0,0,1,1" transform="translate(0 0)"/><path class="b62c6bdb-4d12-43ae-a0de-6439a1ce3613" d="M53.24,113.85a1.17,1.17,0,1,0-1.17-1.17,1.17,1.17,0,0,0,1.17,1.17" transform="translate(0 0)"/><path class="b62c6bdb-4d12-43ae-a0de-6439a1ce3613" d="M59.84,114a1.3,1.3,0,1,0-1.3-1.3,1.3,1.3,0,0,0,1.3,1.3" transform="translate(0 0)"/><path class="b62c6bdb-4d12-43ae-a0de-6439a1ce3613" d="M66.43,114a1.34,1.34,0,1,0-1.33-1.34A1.34,1.34,0,0,0,66.43,114" transform="translate(0 0)"/><path class="b62c6bdb-4d12-43ae-a0de-6439a1ce3613" d="M73,114a1.32,1.32,0,1,0-1.32-1.32A1.32,1.32,0,0,0,73,114" transform="translate(0 0)"/><path class="b62c6bdb-4d12-43ae-a0de-6439a1ce3613" d="M79.62,113.91a1.23,1.23,0,1,0-1.22-1.23,1.23,1.23,0,0,0,1.22,1.23" transform="translate(0 0)"/><path class="b62c6bdb-4d12-43ae-a0de-6439a1ce3613" d="M86.22,113.74a1.06,1.06,0,1,0-1.06-1.06,1.06,1.06,0,0,0,1.06,1.06" transform="translate(0 0)"/><path class="b62c6bdb-4d12-43ae-a0de-6439a1ce3613" d="M92.81,113.52a.84.84,0,1,0-.84-.84.83.83,0,0,0,.84.84" transform="translate(0 0)"/><path class="b62c6bdb-4d12-43ae-a0de-6439a1ce3613" d="M99.41,113.23a.55.55,0,1,0-.55-.55.55.55,0,0,0,.55.55" transform="translate(0 0)"/><path class="b62c6bdb-4d12-43ae-a0de-6439a1ce3613" d="M106,112.9a.22.22,0,1,0-.22-.22.22.22,0,0,0,.22.22" transform="translate(0 0)"/><path class="b62c6bdb-4d12-43ae-a0de-6439a1ce3613" d="M40.05,119.5a.22.22,0,0,0,.22-.23.21.21,0,0,0-.22-.21.21.21,0,0,0-.22.21.22.22,0,0,0,.22.23" transform="translate(0 0)"/><path class="b62c6bdb-4d12-43ae-a0de-6439a1ce3613" d="M46.65,119.73a.46.46,0,1,0-.46-.46.46.46,0,0,0,.46.46" transform="translate(0 0)"/><path class="b62c6bdb-4d12-43ae-a0de-6439a1ce3613" d="M53.24,119.9a.63.63,0,1,0-.62-.63.63.63,0,0,0,.62.63" transform="translate(0 0)"/><path class="b62c6bdb-4d12-43ae-a0de-6439a1ce3613" d="M59.84,120a.74.74,0,0,0,0-1.47.74.74,0,0,0,0,1.47" transform="translate(0 0)"/><path class="b62c6bdb-4d12-43ae-a0de-6439a1ce3613" d="M66.43,120a.77.77,0,1,0-.77-.77.76.76,0,0,0,.77.77" transform="translate(0 0)"/><path class="b62c6bdb-4d12-43ae-a0de-6439a1ce3613" d="M73,120a.76.76,0,0,0,.75-.76A.75.75,0,1,0,73,120" transform="translate(0 0)"/><path class="b62c6bdb-4d12-43ae-a0de-6439a1ce3613" d="M79.62,119.93a.66.66,0,1,0-.66-.66.65.65,0,0,0,.66.66" transform="translate(0 0)"/><path class="b62c6bdb-4d12-43ae-a0de-6439a1ce3613" d="M86.22,119.79a.52.52,0,1,0-.52-.52.51.51,0,0,0,.52.52" transform="translate(0 0)"/><path class="b62c6bdb-4d12-43ae-a0de-6439a1ce3613" d="M92.81,119.59a.32.32,0,1,0-.31-.32.31.31,0,0,0,.31.32" transform="translate(0 0)"/><path class="b62c6bdb-4d12-43ae-a0de-6439a1ce3613" d="M99.41,119.33s0,0,0-.06a0,0,0,0,0,0,0,.06.06,0,0,0-.06,0,.06.06,0,0,0,.06.06" transform="translate(0 0)"/><path class="b62c6bdb-4d12-43ae-a0de-6439a1ce3613" d="M53.24,125.92a.05.05,0,1,0,0-.1,0,0,0,0,0,0,.1" transform="translate(0 0)"/><path class="b62c6bdb-4d12-43ae-a0de-6439a1ce3613" d="M59.84,126a.15.15,0,1,0-.15-.15.15.15,0,0,0,.15.15" transform="translate(0 0)"/><path class="b62c6bdb-4d12-43ae-a0de-6439a1ce3613" d="M66.43,126.07a.2.2,0,1,0-.2-.2.2.2,0,0,0,.2.2" transform="translate(0 0)"/><path class="b62c6bdb-4d12-43ae-a0de-6439a1ce3613" d="M73,126a.17.17,0,0,0,0-.34.17.17,0,0,0,0,.34" transform="translate(0 0)"/><path class="b62c6bdb-4d12-43ae-a0de-6439a1ce3613" d="M79.62,126a.09.09,0,1,0-.09-.09.09.09,0,0,0,.09.09" transform="translate(0 0)"/></g><polygon class="b62c6bdb-4d12-43ae-a0de-6439a1ce3613" points="23.49 29.47 5.33 28.06 15.06 43.19 0 49.56 14.39 55.36 0.82 71.38 24.15 69.48 28 81.24 38.06 76.64 42.63 101.14 56.31 78.78 64.95 86.03 71.81 76.46 87.44 87.14 87.85 69.92 102.63 72.93 98.19 57.98 132.8 49.66 95.77 40.46 110.9 24.58 88.63 31.1 89.09 12.42 70.04 22.21 65.48 12.83 53.67 21.39 46.27 11.76 41.32 22.12 24.55 9.58 23.49 29.47"/><polygon class="fb67e4b0-8dd0-40c4-8f73-5a19e08f2d41" points="122.04 48.77 90.54 40.48 103.99 27.95 85.7 32.8 86.8 14.66 68.82 24.42 64.42 15 53.14 23.67 46.37 14.66 42.37 24.8 26.2 12.49 26.09 30.91 9.6 29.75 19.14 42.93 4.98 48.48 18.95 52.72 6.04 67.39 26.09 65.07 29 77.16 40.13 71.18 44.25 93.21 55.65 73.12 64.91 81.32 71.17 71.18 84.95 81.97 85.2 65.07 98.84 69.13 94.76 54.49 122.04 48.77"/><polygon class="acea0591-a770-40d8-afdc-ac07cab0f4e5" points="62.9 59.89 60.27 72.17 47.67 72.17 50.3 59.89 62.9 59.89"/><polygon class="e53f916b-06f9-491b-a796-9271551f35ab" points="62.9 59.89 60.27 72.17 47.67 72.17 50.3 59.89 62.9 59.89"/><g class="a9047773-be64-4e24-8667-79e28e5d158a"><path class="acea0591-a770-40d8-afdc-ac07cab0f4e5" d="M45.8,24.65a17.55,17.55,0,0,1,4.78-6,20.43,20.43,0,0,1,6.9-3.59,28.62,28.62,0,0,1,8.45-1.2,24.64,24.64,0,0,1,6.58.88,16.67,16.67,0,0,1,5.54,2.67A13.14,13.14,0,0,1,81.87,22a14.3,14.3,0,0,1,1.44,6.62,13.33,13.33,0,0,1-.92,5.1A15.63,15.63,0,0,1,80,37.81a18.86,18.86,0,0,1-3.51,3.27c-1.33,1-2.74,1.86-4.22,2.71A27.25,27.25,0,0,0,66.17,48a10.33,10.33,0,0,0-3,6.62H52.61a30.07,30.07,0,0,1,1.6-6.54,14.73,14.73,0,0,1,2.67-4.46,19.1,19.1,0,0,1,3.83-3.27q2.19-1.44,5.06-3a15.71,15.71,0,0,0,4-3.27,6.86,6.86,0,0,0,1.68-4.7,5.43,5.43,0,0,0-2.07-4.7,8.06,8.06,0,0,0-4.87-1.52,8.31,8.31,0,0,0-6.57,3A11.21,11.21,0,0,0,56,29.32,14.77,14.77,0,0,0,55.09,33H43.77a20.89,20.89,0,0,1,2-8.38" transform="translate(0 0)"/><path class="e53f916b-06f9-491b-a796-9271551f35ab" d="M45.8,24.65a17.55,17.55,0,0,1,4.78-6,20.43,20.43,0,0,1,6.9-3.59,28.62,28.62,0,0,1,8.45-1.2,24.64,24.64,0,0,1,6.58.88,16.67,16.67,0,0,1,5.54,2.67A13.14,13.14,0,0,1,81.87,22a14.3,14.3,0,0,1,1.44,6.62,13.33,13.33,0,0,1-.92,5.1A15.63,15.63,0,0,1,80,37.81a18.86,18.86,0,0,1-3.51,3.27c-1.33,1-2.74,1.86-4.22,2.71A27.25,27.25,0,0,0,66.17,48a10.33,10.33,0,0,0-3,6.62H52.61a30.07,30.07,0,0,1,1.6-6.54,14.73,14.73,0,0,1,2.67-4.46,19.1,19.1,0,0,1,3.83-3.27q2.19-1.44,5.06-3a15.71,15.71,0,0,0,4-3.27,6.86,6.86,0,0,0,1.68-4.7,5.43,5.43,0,0,0-2.07-4.7,8.06,8.06,0,0,0-4.87-1.52,8.31,8.31,0,0,0-6.57,3A11.21,11.21,0,0,0,56,29.32,14.77,14.77,0,0,0,55.09,33H43.77A20.89,20.89,0,0,1,45.8,24.65Z" transform="translate(0 0)"/></g><polygon class="b2d21299-8f17-4909-992d-52cfecea1b32" points="59.25 56.29 56.62 68.56 44.02 68.56 46.66 56.29 59.25 56.29"/><polygon class="e53f916b-06f9-491b-a796-9271551f35ab" points="59.25 56.29 56.62 68.56 44.02 68.56 46.66 56.29 59.25 56.29"/><g class="a9047773-be64-4e24-8667-79e28e5d158a"><path class="b2d21299-8f17-4909-992d-52cfecea1b32" d="M42.15,21.05a17.8,17.8,0,0,1,4.78-6,20.8,20.8,0,0,1,6.9-3.59,29,29,0,0,1,8.45-1.19,24.19,24.19,0,0,1,6.58.88,16.39,16.39,0,0,1,5.54,2.67,13.18,13.18,0,0,1,3.83,4.58A14.4,14.4,0,0,1,79.66,25a13.37,13.37,0,0,1-.92,5.1,15.58,15.58,0,0,1-2.43,4.06,18.21,18.21,0,0,1-3.51,3.27,45.49,45.49,0,0,1-4.22,2.71,27.28,27.28,0,0,0-6.06,4.23,10.3,10.3,0,0,0-3,6.62H49a29.26,29.26,0,0,1,1.59-6.54A14.79,14.79,0,0,1,53.23,40a19,19,0,0,1,3.83-3.26q2.19-1.44,5.06-2.95a16.39,16.39,0,0,0,4-3.27,6.94,6.94,0,0,0,1.67-4.71,5.44,5.44,0,0,0-2.07-4.7,8,8,0,0,0-4.86-1.51,8.56,8.56,0,0,0-3.79.79,8.45,8.45,0,0,0-2.79,2.16,11,11,0,0,0-1.87,3.14,15,15,0,0,0-1,3.71H40.12a21,21,0,0,1,2-8.37" transform="translate(0 0)"/><path class="e53f916b-06f9-491b-a796-9271551f35ab" d="M42.15,21.05a17.8,17.8,0,0,1,4.78-6,20.8,20.8,0,0,1,6.9-3.59,29,29,0,0,1,8.45-1.19,24.19,24.19,0,0,1,6.58.88,16.39,16.39,0,0,1,5.54,2.67,13.18,13.18,0,0,1,3.83,4.58A14.4,14.4,0,0,1,79.66,25a13.37,13.37,0,0,1-.92,5.1,15.58,15.58,0,0,1-2.43,4.06,18.21,18.21,0,0,1-3.51,3.27,45.49,45.49,0,0,1-4.22,2.71,27.28,27.28,0,0,0-6.06,4.23,10.3,10.3,0,0,0-3,6.62H49a29.26,29.26,0,0,1,1.59-6.54A14.79,14.79,0,0,1,53.23,40a19,19,0,0,1,3.83-3.26q2.19-1.44,5.06-2.95a16.39,16.39,0,0,0,4-3.27,6.94,6.94,0,0,0,1.67-4.71,5.44,5.44,0,0,0-2.07-4.7,8,8,0,0,0-4.86-1.51,8.56,8.56,0,0,0-3.79.79,8.45,8.45,0,0,0-2.79,2.16,11,11,0,0,0-1.87,3.14,15,15,0,0,0-1,3.71H40.12A21,21,0,0,1,42.15,21.05Z" transform="translate(0 0)"/></g></g></g></svg>