<svg xmlns="http://www.w3.org/2000/svg" xmlns:xlink="http://www.w3.org/1999/xlink" viewBox="0 0 89.92 83.44"><defs><style>.a1282a23-d558-4621-9d4c-58c34f627471,.eaf7f04d-53ab-4ac5-a1b4-ddc699b5975c{fill:none;}.a9a38514-1a45-4fc4-ae97-92246545f03c{clip-path:url(#f92616f2-13e3-487e-a847-3cc343fc5e1d);}.b9e71bb3-eabe-4a5f-ad8f-70c705e1fa40{fill:#241f21;}.b881024e-6287-43cb-b042-73c6125e089a{fill:#fff;}.b699cf2d-32a2-44b1-8903-7659cdca7cda{fill:#1d1d1b;}.f331539a-b972-496b-bb35-a51ae077ddc3{fill:#0086b2;}.a1282a23-d558-4621-9d4c-58c34f627471{stroke:#1d1d1b;stroke-width:1.26px;}</style><clipPath id="f92616f2-13e3-487e-a847-3cc343fc5e1d" transform="translate(0 0)"><rect class="eaf7f04d-53ab-4ac5-a1b4-ddc699b5975c" width="89.92" height="83.44"/></clipPath></defs><g id="b180ba19-c39f-4ea9-a26f-298246012f3d" data-name="Livello 2"><g id="a6a7bc9e-c3a7-4d08-a5d2-9e8fa6526c85" data-name="Livello 1"><g class="a9a38514-1a45-4fc4-ae97-92246545f03c"><path class="b9e71bb3-eabe-4a5f-ad8f-70c705e1fa40" d="M29.8.43a0,0,0,0,0,0,0s0,0,0,0,0,0,0,0a0,0,0,0,0,0,0" transform="translate(0 0)"/><path class="b9e71bb3-eabe-4a5f-ad8f-70c705e1fa40" d="M34.38.59a.19.19,0,0,0,.19-.2A.19.19,0,0,0,34.38.2a.2.2,0,0,0-.19.19.2.2,0,0,0,.19.2" transform="translate(0 0)"/><path class="b9e71bb3-eabe-4a5f-ad8f-70c705e1fa40" d="M39,.69a.29.29,0,0,0,.29-.3A.29.29,0,0,0,39,.1a.3.3,0,0,0-.3.29.3.3,0,0,0,.3.3" transform="translate(0 0)"/><path class="b9e71bb3-eabe-4a5f-ad8f-70c705e1fa40" d="M43.55.76a.37.37,0,0,0,.37-.37.37.37,0,0,0-.74,0,.37.37,0,0,0,.37.37" transform="translate(0 0)"/><path class="b9e71bb3-eabe-4a5f-ad8f-70c705e1fa40" d="M48.13.79a.4.4,0,0,0,.4-.39.4.4,0,1,0-.79,0,.4.4,0,0,0,.39.39" transform="translate(0 0)"/><path class="b9e71bb3-eabe-4a5f-ad8f-70c705e1fa40" d="M52.72.78A.38.38,0,0,0,53.1.39a.38.38,0,1,0-.76,0,.38.38,0,0,0,.38.39" transform="translate(0 0)"/><path class="b9e71bb3-eabe-4a5f-ad8f-70c705e1fa40" d="M57.3.72a.33.33,0,0,0,.33-.33.33.33,0,0,0-.66,0,.33.33,0,0,0,.33.33" transform="translate(0 0)"/><path class="b9e71bb3-eabe-4a5f-ad8f-70c705e1fa40" d="M61.89.62a.23.23,0,0,0,.23-.23.23.23,0,0,0-.23-.22.23.23,0,1,0,0,.45" transform="translate(0 0)"/><path class="b9e71bb3-eabe-4a5f-ad8f-70c705e1fa40" d="M66.47.48a.09.09,0,0,0,.09-.09.09.09,0,0,0-.18,0,.09.09,0,0,0,.09.09" transform="translate(0 0)"/><path class="b9e71bb3-eabe-4a5f-ad8f-70c705e1fa40" d="M25.22,5.18a.2.2,0,0,0,0-.4.2.2,0,1,0,0,.4" transform="translate(0 0)"/><path class="b9e71bb3-eabe-4a5f-ad8f-70c705e1fa40" d="M29.8,5.37A.38.38,0,0,0,30.19,5a.39.39,0,0,0-.39-.4.4.4,0,0,0-.4.4.39.39,0,0,0,.4.39" transform="translate(0 0)"/><path class="b9e71bb3-eabe-4a5f-ad8f-70c705e1fa40" d="M34.38,5.55a.57.57,0,1,0,0-1.14.57.57,0,0,0,0,1.14" transform="translate(0 0)"/><path class="b9e71bb3-eabe-4a5f-ad8f-70c705e1fa40" d="M39,5.66A.67.67,0,0,0,39.65,5,.68.68,0,0,0,39,4.29a.69.69,0,0,0-.69.69.68.68,0,0,0,.69.68" transform="translate(0 0)"/><path class="b9e71bb3-eabe-4a5f-ad8f-70c705e1fa40" d="M43.55,5.74A.76.76,0,1,0,42.79,5a.76.76,0,0,0,.76.76" transform="translate(0 0)"/><path class="b9e71bb3-eabe-4a5f-ad8f-70c705e1fa40" d="M48.13,5.78a.8.8,0,1,0-.8-.8.8.8,0,0,0,.8.8" transform="translate(0 0)"/><path class="b9e71bb3-eabe-4a5f-ad8f-70c705e1fa40" d="M52.72,5.76a.78.78,0,0,0,0-1.56.78.78,0,0,0,0,1.56" transform="translate(0 0)"/><path class="b9e71bb3-eabe-4a5f-ad8f-70c705e1fa40" d="M57.3,5.7A.73.73,0,0,0,58,5a.73.73,0,0,0-.73-.73.73.73,0,0,0-.72.73.72.72,0,0,0,.72.72" transform="translate(0 0)"/><path class="b9e71bb3-eabe-4a5f-ad8f-70c705e1fa40" d="M61.89,5.59a.61.61,0,0,0,0-1.22.61.61,0,1,0,0,1.22" transform="translate(0 0)"/><path class="b9e71bb3-eabe-4a5f-ad8f-70c705e1fa40" d="M66.47,5.44A.46.46,0,1,0,66,5a.47.47,0,0,0,.46.46" transform="translate(0 0)"/><path class="b9e71bb3-eabe-4a5f-ad8f-70c705e1fa40" d="M71.05,5.26A.28.28,0,0,0,71.33,5a.27.27,0,0,0-.28-.28.28.28,0,0,0-.28.28.29.29,0,0,0,.28.28" transform="translate(0 0)"/><path class="b9e71bb3-eabe-4a5f-ad8f-70c705e1fa40" d="M75.64,5a.05.05,0,1,0,0-.1,0,0,0,0,0,0,.1,0,0,0,0,0,0,0" transform="translate(0 0)"/><path class="b9e71bb3-eabe-4a5f-ad8f-70c705e1fa40" d="M16.05,9.58v0h0a0,0,0,0,0,0,0" transform="translate(0 0)"/><path class="b9e71bb3-eabe-4a5f-ad8f-70c705e1fa40" d="M20.63,9.84a.28.28,0,0,0,.28-.28.28.28,0,1,0-.56,0,.28.28,0,0,0,.28.28" transform="translate(0 0)"/><path class="b9e71bb3-eabe-4a5f-ad8f-70c705e1fa40" d="M25.22,10.1a.54.54,0,1,0-.54-.54.54.54,0,0,0,.54.54" transform="translate(0 0)"/><path class="b9e71bb3-eabe-4a5f-ad8f-70c705e1fa40" d="M29.8,10.31a.75.75,0,1,0-.75-.75.75.75,0,0,0,.75.75" transform="translate(0 0)"/><path class="b9e71bb3-eabe-4a5f-ad8f-70c705e1fa40" d="M34.38,10.49a.93.93,0,1,0-.93-.93.93.93,0,0,0,.93.93" transform="translate(0 0)"/><path class="b9e71bb3-eabe-4a5f-ad8f-70c705e1fa40" d="M39,10.63A1.07,1.07,0,1,0,37.9,9.56,1.06,1.06,0,0,0,39,10.63" transform="translate(0 0)"/><path class="b9e71bb3-eabe-4a5f-ad8f-70c705e1fa40" d="M43.55,10.72a1.16,1.16,0,1,0-1.16-1.16,1.16,1.16,0,0,0,1.16,1.16" transform="translate(0 0)"/><path class="b9e71bb3-eabe-4a5f-ad8f-70c705e1fa40" d="M48.13,10.76a1.2,1.2,0,1,0,0-2.39,1.2,1.2,0,0,0,0,2.39" transform="translate(0 0)"/><path class="b9e71bb3-eabe-4a5f-ad8f-70c705e1fa40" d="M52.72,10.73a1.17,1.17,0,1,0-1.17-1.17,1.17,1.17,0,0,0,1.17,1.17" transform="translate(0 0)"/><path class="b9e71bb3-eabe-4a5f-ad8f-70c705e1fa40" d="M57.3,10.67a1.11,1.11,0,1,0,0-2.21,1.11,1.11,0,0,0,0,2.21" transform="translate(0 0)"/><path class="b9e71bb3-eabe-4a5f-ad8f-70c705e1fa40" d="M61.89,10.54a1,1,0,1,0-1-1,1,1,0,0,0,1,1" transform="translate(0 0)"/><path class="b9e71bb3-eabe-4a5f-ad8f-70c705e1fa40" d="M66.47,10.38a.82.82,0,0,0,.81-.82.81.81,0,0,0-1.62,0,.82.82,0,0,0,.81.82" transform="translate(0 0)"/><path class="b9e71bb3-eabe-4a5f-ad8f-70c705e1fa40" d="M71.05,10.17a.61.61,0,0,0,.61-.61A.61.61,0,0,0,71.05,9a.62.62,0,0,0-.61.61.61.61,0,0,0,.61.61" transform="translate(0 0)"/><path class="b9e71bb3-eabe-4a5f-ad8f-70c705e1fa40" d="M75.64,9.93A.37.37,0,0,0,76,9.56a.38.38,0,0,0-.37-.37.37.37,0,0,0-.37.37.36.36,0,0,0,.37.37" transform="translate(0 0)"/><path class="b9e71bb3-eabe-4a5f-ad8f-70c705e1fa40" d="M80.22,9.66a.09.09,0,0,0,.1-.1.1.1,0,0,0-.1-.1.11.11,0,0,0-.1.1.1.1,0,0,0,.1.1" transform="translate(0 0)"/><path class="b9e71bb3-eabe-4a5f-ad8f-70c705e1fa40" d="M16.05,14.43a.28.28,0,0,0,.27-.28.28.28,0,1,0-.55,0,.28.28,0,0,0,.28.28" transform="translate(0 0)"/><path class="b9e71bb3-eabe-4a5f-ad8f-70c705e1fa40" d="M20.63,14.73a.59.59,0,1,0-.58-.58.58.58,0,0,0,.58.58" transform="translate(0 0)"/><path class="b9e71bb3-eabe-4a5f-ad8f-70c705e1fa40" d="M25.22,15a.85.85,0,1,0-.86-.85.86.86,0,0,0,.86.85" transform="translate(0 0)"/><path class="b9e71bb3-eabe-4a5f-ad8f-70c705e1fa40" d="M29.8,15.24a1.1,1.1,0,1,0-1.09-1.09,1.09,1.09,0,0,0,1.09,1.09" transform="translate(0 0)"/><path class="b9e71bb3-eabe-4a5f-ad8f-70c705e1fa40" d="M34.38,15.43a1.29,1.29,0,1,0-1.28-1.28,1.28,1.28,0,0,0,1.28,1.28" transform="translate(0 0)"/><path class="b9e71bb3-eabe-4a5f-ad8f-70c705e1fa40" d="M39,15.58a1.44,1.44,0,1,0-1.44-1.43A1.43,1.43,0,0,0,39,15.58" transform="translate(0 0)"/><path class="b9e71bb3-eabe-4a5f-ad8f-70c705e1fa40" d="M43.55,15.7A1.55,1.55,0,1,0,42,14.15a1.55,1.55,0,0,0,1.55,1.55" transform="translate(0 0)"/><path class="b9e71bb3-eabe-4a5f-ad8f-70c705e1fa40" d="M48.13,15.74a1.59,1.59,0,1,0-1.58-1.59,1.59,1.59,0,0,0,1.58,1.59" transform="translate(0 0)"/><path class="b9e71bb3-eabe-4a5f-ad8f-70c705e1fa40" d="M52.72,15.71a1.57,1.57,0,1,0-1.57-1.56,1.56,1.56,0,0,0,1.57,1.56" transform="translate(0 0)"/><path class="b9e71bb3-eabe-4a5f-ad8f-70c705e1fa40" d="M57.3,15.63a1.49,1.49,0,1,0-1.49-1.48,1.49,1.49,0,0,0,1.49,1.48" transform="translate(0 0)"/><path class="b9e71bb3-eabe-4a5f-ad8f-70c705e1fa40" d="M61.89,15.49a1.35,1.35,0,1,0-1.35-1.34,1.34,1.34,0,0,0,1.35,1.34" transform="translate(0 0)"/><path class="b9e71bb3-eabe-4a5f-ad8f-70c705e1fa40" d="M66.47,15.3a1.16,1.16,0,1,0-1.16-1.15,1.15,1.15,0,0,0,1.16,1.15" transform="translate(0 0)"/><path class="b9e71bb3-eabe-4a5f-ad8f-70c705e1fa40" d="M71.05,15.07a.93.93,0,1,0-.92-.92.92.92,0,0,0,.92.92" transform="translate(0 0)"/><path class="b9e71bb3-eabe-4a5f-ad8f-70c705e1fa40" d="M75.64,14.82a.68.68,0,0,0,0-1.35.68.68,0,1,0,0,1.35" transform="translate(0 0)"/><path class="b9e71bb3-eabe-4a5f-ad8f-70c705e1fa40" d="M80.22,14.53a.38.38,0,0,0,.38-.38.38.38,0,1,0-.76,0,.38.38,0,0,0,.38.38" transform="translate(0 0)"/><path class="b9e71bb3-eabe-4a5f-ad8f-70c705e1fa40" d="M84.81,14.22a.07.07,0,0,0,.07-.07.07.07,0,0,0-.07-.08.07.07,0,0,0-.08.08.07.07,0,0,0,.08.07" transform="translate(0 0)"/><path class="b9e71bb3-eabe-4a5f-ad8f-70c705e1fa40" d="M11.46,18.93a.2.2,0,1,0,0-.4.2.2,0,0,0,0,.4" transform="translate(0 0)"/><path class="b9e71bb3-eabe-4a5f-ad8f-70c705e1fa40" d="M16.05,19.26a.53.53,0,0,0,.53-.53.54.54,0,1,0-.53.53" transform="translate(0 0)"/><path class="b9e71bb3-eabe-4a5f-ad8f-70c705e1fa40" d="M20.63,19.58a.85.85,0,1,0-.85-.85.85.85,0,0,0,.85.85" transform="translate(0 0)"/><path class="b9e71bb3-eabe-4a5f-ad8f-70c705e1fa40" d="M25.22,19.88a1.15,1.15,0,1,0-1.15-1.15,1.15,1.15,0,0,0,1.15,1.15" transform="translate(0 0)"/><path class="b9e71bb3-eabe-4a5f-ad8f-70c705e1fa40" d="M29.8,20.13a1.4,1.4,0,1,0-1.4-1.4,1.4,1.4,0,0,0,1.4,1.4" transform="translate(0 0)"/><path class="b9e71bb3-eabe-4a5f-ad8f-70c705e1fa40" d="M34.38,20.36a1.63,1.63,0,1,0-1.63-1.63,1.63,1.63,0,0,0,1.63,1.63" transform="translate(0 0)"/><path class="b9e71bb3-eabe-4a5f-ad8f-70c705e1fa40" d="M39,20.55a1.82,1.82,0,1,0-1.82-1.82A1.81,1.81,0,0,0,39,20.55" transform="translate(0 0)"/><path class="b9e71bb3-eabe-4a5f-ad8f-70c705e1fa40" d="M43.55,20.68a1.95,1.95,0,1,0-1.94-1.95,2,2,0,0,0,1.94,1.95" transform="translate(0 0)"/><path class="b9e71bb3-eabe-4a5f-ad8f-70c705e1fa40" d="M48.13,20.71a2,2,0,1,0-2-2,2,2,0,0,0,2,2" transform="translate(0 0)"/><path class="b9e71bb3-eabe-4a5f-ad8f-70c705e1fa40" d="M52.72,20.7a2,2,0,1,0-2-2,2,2,0,0,0,2,2" transform="translate(0 0)"/><path class="b9e71bb3-eabe-4a5f-ad8f-70c705e1fa40" d="M57.3,20.6a1.87,1.87,0,1,0-1.87-1.87A1.87,1.87,0,0,0,57.3,20.6" transform="translate(0 0)"/><path class="b9e71bb3-eabe-4a5f-ad8f-70c705e1fa40" d="M61.89,20.43a1.7,1.7,0,1,0-1.71-1.7,1.7,1.7,0,0,0,1.71,1.7" transform="translate(0 0)"/><path class="b9e71bb3-eabe-4a5f-ad8f-70c705e1fa40" d="M66.47,20.22A1.49,1.49,0,1,0,65,18.73a1.49,1.49,0,0,0,1.49,1.49" transform="translate(0 0)"/><path class="b9e71bb3-eabe-4a5f-ad8f-70c705e1fa40" d="M71.05,20a1.23,1.23,0,1,0-1.23-1.23A1.23,1.23,0,0,0,71.05,20" transform="translate(0 0)"/><path class="b9e71bb3-eabe-4a5f-ad8f-70c705e1fa40" d="M75.64,19.67a.94.94,0,1,0-.94-.94.94.94,0,0,0,.94.94" transform="translate(0 0)"/><path class="b9e71bb3-eabe-4a5f-ad8f-70c705e1fa40" d="M80.22,19.38a.65.65,0,1,0-.65-.65.65.65,0,0,0,.65.65" transform="translate(0 0)"/><path class="b9e71bb3-eabe-4a5f-ad8f-70c705e1fa40" d="M84.81,19.05a.31.31,0,0,0,.31-.32.32.32,0,1,0-.63,0,.32.32,0,0,0,.32.32" transform="translate(0 0)"/><path class="b9e71bb3-eabe-4a5f-ad8f-70c705e1fa40" d="M6.88,23.35a0,0,0,0,0,0,0s0,0,0,0,0,0,0,0a0,0,0,0,0,0,0" transform="translate(0 0)"/><path class="b9e71bb3-eabe-4a5f-ad8f-70c705e1fa40" d="M11.46,23.71a.4.4,0,1,0,0-.79.4.4,0,0,0,0,.79" transform="translate(0 0)"/><path class="b9e71bb3-eabe-4a5f-ad8f-70c705e1fa40" d="M16.05,24.06a.75.75,0,0,0,0-1.5.75.75,0,0,0,0,1.5" transform="translate(0 0)"/><path class="b9e71bb3-eabe-4a5f-ad8f-70c705e1fa40" d="M20.63,24.41a1.1,1.1,0,1,0-1.09-1.1,1.09,1.09,0,0,0,1.09,1.1" transform="translate(0 0)"/><path class="b9e71bb3-eabe-4a5f-ad8f-70c705e1fa40" d="M25.22,24.71a1.4,1.4,0,1,0-1.41-1.4,1.39,1.39,0,0,0,1.41,1.4" transform="translate(0 0)"/><path class="b9e71bb3-eabe-4a5f-ad8f-70c705e1fa40" d="M29.8,25a1.71,1.71,0,1,0-1.71-1.71A1.7,1.7,0,0,0,29.8,25" transform="translate(0 0)"/><path class="b9e71bb3-eabe-4a5f-ad8f-70c705e1fa40" d="M34.38,25.29a2,2,0,1,0-2-2,2,2,0,0,0,2,2" transform="translate(0 0)"/><path class="b9e71bb3-eabe-4a5f-ad8f-70c705e1fa40" d="M39,25.5a2.19,2.19,0,1,0-2.19-2.19A2.19,2.19,0,0,0,39,25.5" transform="translate(0 0)"/><path class="b9e71bb3-eabe-4a5f-ad8f-70c705e1fa40" d="M43.55,25.64a2.33,2.33,0,1,0-2.33-2.33,2.33,2.33,0,0,0,2.33,2.33" transform="translate(0 0)"/><path class="b9e71bb3-eabe-4a5f-ad8f-70c705e1fa40" d="M48.13,25.7a2.39,2.39,0,1,0-2.38-2.39,2.39,2.39,0,0,0,2.38,2.39" transform="translate(0 0)"/><path class="b9e71bb3-eabe-4a5f-ad8f-70c705e1fa40" d="M52.72,25.67a2.36,2.36,0,1,0-2.35-2.36,2.36,2.36,0,0,0,2.35,2.36" transform="translate(0 0)"/><path class="b9e71bb3-eabe-4a5f-ad8f-70c705e1fa40" d="M57.3,25.55a2.24,2.24,0,1,0-2.24-2.24,2.24,2.24,0,0,0,2.24,2.24" transform="translate(0 0)"/><path class="b9e71bb3-eabe-4a5f-ad8f-70c705e1fa40" d="M61.89,25.36a2,2,0,1,0-2-2.05,2,2,0,0,0,2,2.05" transform="translate(0 0)"/><path class="b9e71bb3-eabe-4a5f-ad8f-70c705e1fa40" d="M66.47,25.11a1.8,1.8,0,1,0-1.79-1.8,1.8,1.8,0,0,0,1.79,1.8" transform="translate(0 0)"/><path class="b9e71bb3-eabe-4a5f-ad8f-70c705e1fa40" d="M71.05,24.82a1.51,1.51,0,1,0-1.5-1.51,1.51,1.51,0,0,0,1.5,1.51" transform="translate(0 0)"/><path class="b9e71bb3-eabe-4a5f-ad8f-70c705e1fa40" d="M75.64,24.51a1.2,1.2,0,1,0-1.2-1.2,1.19,1.19,0,0,0,1.2,1.2" transform="translate(0 0)"/><path class="b9e71bb3-eabe-4a5f-ad8f-70c705e1fa40" d="M80.22,24.18a.87.87,0,1,0,0-1.73.87.87,0,0,0,0,1.73" transform="translate(0 0)"/><path class="b9e71bb3-eabe-4a5f-ad8f-70c705e1fa40" d="M84.81,23.84a.53.53,0,1,0-.53-.53.53.53,0,0,0,.53.53" transform="translate(0 0)"/><path class="b9e71bb3-eabe-4a5f-ad8f-70c705e1fa40" d="M89.39,23.47a.16.16,0,0,0,.15-.16.15.15,0,0,0-.3,0,.16.16,0,0,0,.15.16" transform="translate(0 0)"/><path class="b9e71bb3-eabe-4a5f-ad8f-70c705e1fa40" d="M6.88,28.09a.2.2,0,0,0,.19-.19.19.19,0,0,0-.19-.19.18.18,0,0,0-.19.19.19.19,0,0,0,.19.19" transform="translate(0 0)"/><path class="b9e71bb3-eabe-4a5f-ad8f-70c705e1fa40" d="M11.46,28.47A.57.57,0,0,0,12,27.9a.56.56,0,0,0-.57-.57.57.57,0,0,0-.57.57.58.58,0,0,0,.57.57" transform="translate(0 0)"/><path class="b9e71bb3-eabe-4a5f-ad8f-70c705e1fa40" d="M16.05,28.83a.93.93,0,1,0-.93-.93.93.93,0,0,0,.93.93" transform="translate(0 0)"/><path class="b9e71bb3-eabe-4a5f-ad8f-70c705e1fa40" d="M20.63,29.18a1.28,1.28,0,1,0-1.28-1.28,1.28,1.28,0,0,0,1.28,1.28" transform="translate(0 0)"/><path class="b9e71bb3-eabe-4a5f-ad8f-70c705e1fa40" d="M25.22,29.53a1.63,1.63,0,1,0-1.63-1.63,1.63,1.63,0,0,0,1.63,1.63" transform="translate(0 0)"/><path class="b9e71bb3-eabe-4a5f-ad8f-70c705e1fa40" d="M29.8,29.87a2,2,0,1,0-2-2,2,2,0,0,0,2,2" transform="translate(0 0)"/><path class="b9e71bb3-eabe-4a5f-ad8f-70c705e1fa40" d="M34.38,30.16a2.26,2.26,0,1,0-2.26-2.26,2.26,2.26,0,0,0,2.26,2.26" transform="translate(0 0)"/><path class="b9e71bb3-eabe-4a5f-ad8f-70c705e1fa40" d="M39,30.43a2.53,2.53,0,1,0-2.53-2.53A2.53,2.53,0,0,0,39,30.43" transform="translate(0 0)"/><path class="b9e71bb3-eabe-4a5f-ad8f-70c705e1fa40" d="M43.55,30.61a2.71,2.71,0,1,0-2.71-2.71,2.71,2.71,0,0,0,2.71,2.71" transform="translate(0 0)"/><path class="b9e71bb3-eabe-4a5f-ad8f-70c705e1fa40" d="M48.13,30.68a2.79,2.79,0,1,0-2.78-2.78,2.78,2.78,0,0,0,2.78,2.78" transform="translate(0 0)"/><path class="b9e71bb3-eabe-4a5f-ad8f-70c705e1fa40" d="M52.72,30.64A2.75,2.75,0,1,0,50,27.9a2.74,2.74,0,0,0,2.75,2.74" transform="translate(0 0)"/><path class="b9e71bb3-eabe-4a5f-ad8f-70c705e1fa40" d="M57.3,30.49a2.59,2.59,0,1,0-2.59-2.59,2.6,2.6,0,0,0,2.59,2.59" transform="translate(0 0)"/><path class="b9e71bb3-eabe-4a5f-ad8f-70c705e1fa40" d="M61.89,30.25a2.35,2.35,0,1,0-2.36-2.35,2.35,2.35,0,0,0,2.36,2.35" transform="translate(0 0)"/><path class="b9e71bb3-eabe-4a5f-ad8f-70c705e1fa40" d="M66.47,30A2.07,2.07,0,1,0,64.4,27.9,2.07,2.07,0,0,0,66.47,30" transform="translate(0 0)"/><path class="b9e71bb3-eabe-4a5f-ad8f-70c705e1fa40" d="M71.05,29.64a1.74,1.74,0,1,0-1.74-1.74,1.74,1.74,0,0,0,1.74,1.74" transform="translate(0 0)"/><path class="b9e71bb3-eabe-4a5f-ad8f-70c705e1fa40" d="M75.64,29.3a1.4,1.4,0,1,0-1.4-1.4,1.4,1.4,0,0,0,1.4,1.4" transform="translate(0 0)"/><path class="b9e71bb3-eabe-4a5f-ad8f-70c705e1fa40" d="M80.22,29a1.06,1.06,0,1,0-1-1.05,1.05,1.05,0,0,0,1,1.05" transform="translate(0 0)"/><path class="b9e71bb3-eabe-4a5f-ad8f-70c705e1fa40" d="M84.81,28.58a.68.68,0,0,0,.68-.68.69.69,0,1,0-.68.68" transform="translate(0 0)"/><path class="b9e71bb3-eabe-4a5f-ad8f-70c705e1fa40" d="M89.39,28.22a.33.33,0,0,0,.32-.32.32.32,0,0,0-.32-.32.32.32,0,0,0-.32.32.32.32,0,0,0,.32.32" transform="translate(0 0)"/><path class="b9e71bb3-eabe-4a5f-ad8f-70c705e1fa40" d="M6.88,32.78a.3.3,0,0,0,.29-.3.29.29,0,0,0-.58,0,.3.3,0,0,0,.29.3" transform="translate(0 0)"/><path class="b9e71bb3-eabe-4a5f-ad8f-70c705e1fa40" d="M11.46,33.17a.69.69,0,0,0,.69-.69.68.68,0,0,0-.69-.68.67.67,0,0,0-.68.68.68.68,0,0,0,.68.69" transform="translate(0 0)"/><path class="b9e71bb3-eabe-4a5f-ad8f-70c705e1fa40" d="M16.05,33.55A1.07,1.07,0,1,0,15,32.48a1.06,1.06,0,0,0,1.07,1.07" transform="translate(0 0)"/><path class="b9e71bb3-eabe-4a5f-ad8f-70c705e1fa40" d="M20.63,33.92a1.44,1.44,0,1,0-1.44-1.44,1.44,1.44,0,0,0,1.44,1.44" transform="translate(0 0)"/><path class="b9e71bb3-eabe-4a5f-ad8f-70c705e1fa40" d="M25.22,34.3a1.82,1.82,0,1,0-1.82-1.82,1.81,1.81,0,0,0,1.82,1.82" transform="translate(0 0)"/><path class="b9e71bb3-eabe-4a5f-ad8f-70c705e1fa40" d="M29.8,34.67a2.19,2.19,0,1,0-2.19-2.19,2.18,2.18,0,0,0,2.19,2.19" transform="translate(0 0)"/><path class="b9e71bb3-eabe-4a5f-ad8f-70c705e1fa40" d="M34.38,35a2.53,2.53,0,1,0-2.53-2.53A2.53,2.53,0,0,0,34.38,35" transform="translate(0 0)"/><path class="b9e71bb3-eabe-4a5f-ad8f-70c705e1fa40" d="M39,35.32a2.84,2.84,0,1,0-2.84-2.84A2.84,2.84,0,0,0,39,35.32" transform="translate(0 0)"/><path class="b9e71bb3-eabe-4a5f-ad8f-70c705e1fa40" d="M43.55,35.32a2.84,2.84,0,1,0-2.83-2.84,2.83,2.83,0,0,0,2.83,2.84" transform="translate(0 0)"/><path class="b9e71bb3-eabe-4a5f-ad8f-70c705e1fa40" d="M48.13,35.32a2.84,2.84,0,1,0-2.83-2.84,2.84,2.84,0,0,0,2.83,2.84" transform="translate(0 0)"/><path class="b9e71bb3-eabe-4a5f-ad8f-70c705e1fa40" d="M52.72,35.32a2.84,2.84,0,1,0-2.84-2.84,2.84,2.84,0,0,0,2.84,2.84" transform="translate(0 0)"/><path class="b9e71bb3-eabe-4a5f-ad8f-70c705e1fa40" d="M57.3,35.32a2.84,2.84,0,1,0-2.83-2.84,2.84,2.84,0,0,0,2.83,2.84" transform="translate(0 0)"/><path class="b9e71bb3-eabe-4a5f-ad8f-70c705e1fa40" d="M61.89,35.11a2.63,2.63,0,1,0-2.64-2.63,2.63,2.63,0,0,0,2.64,2.63" transform="translate(0 0)"/><path class="b9e71bb3-eabe-4a5f-ad8f-70c705e1fa40" d="M66.47,34.78a2.3,2.3,0,1,0-2.3-2.3,2.3,2.3,0,0,0,2.3,2.3" transform="translate(0 0)"/><path class="b9e71bb3-eabe-4a5f-ad8f-70c705e1fa40" d="M71.05,34.43a1.95,1.95,0,1,0-1.94-2,1.95,1.95,0,0,0,1.94,2" transform="translate(0 0)"/><path class="b9e71bb3-eabe-4a5f-ad8f-70c705e1fa40" d="M75.64,34.05a1.57,1.57,0,1,0-1.57-1.57,1.56,1.56,0,0,0,1.57,1.57" transform="translate(0 0)"/><path class="b9e71bb3-eabe-4a5f-ad8f-70c705e1fa40" d="M80.22,33.68a1.2,1.2,0,1,0,0-2.39,1.2,1.2,0,0,0,0,2.39" transform="translate(0 0)"/><path class="b9e71bb3-eabe-4a5f-ad8f-70c705e1fa40" d="M84.81,33.3a.82.82,0,0,0,.81-.82.82.82,0,0,0-1.63,0,.82.82,0,0,0,.82.82" transform="translate(0 0)"/><path class="b9e71bb3-eabe-4a5f-ad8f-70c705e1fa40" d="M89.39,32.92a.44.44,0,0,0,.43-.44.43.43,0,1,0-.86,0,.44.44,0,0,0,.43.44" transform="translate(0 0)"/><path class="b9e71bb3-eabe-4a5f-ad8f-70c705e1fa40" d="M6.88,37.43a.37.37,0,1,0,0-.73.37.37,0,1,0,0,.73" transform="translate(0 0)"/><path class="b9e71bb3-eabe-4a5f-ad8f-70c705e1fa40" d="M11.46,37.83a.77.77,0,1,0-.76-.76.76.76,0,0,0,.76.76" transform="translate(0 0)"/><path class="b9e71bb3-eabe-4a5f-ad8f-70c705e1fa40" d="M16.05,38.22a1.16,1.16,0,1,0-1.16-1.15,1.15,1.15,0,0,0,1.16,1.15" transform="translate(0 0)"/><path class="b9e71bb3-eabe-4a5f-ad8f-70c705e1fa40" d="M20.63,38.62a1.55,1.55,0,1,0-1.55-1.55,1.55,1.55,0,0,0,1.55,1.55" transform="translate(0 0)"/><path class="b9e71bb3-eabe-4a5f-ad8f-70c705e1fa40" d="M25.22,39a1.95,1.95,0,1,0-1.95-1.94A1.94,1.94,0,0,0,25.22,39" transform="translate(0 0)"/><path class="b9e71bb3-eabe-4a5f-ad8f-70c705e1fa40" d="M29.8,39.39a2.33,2.33,0,1,0-2.33-2.32,2.32,2.32,0,0,0,2.33,2.32" transform="translate(0 0)"/><path class="b9e71bb3-eabe-4a5f-ad8f-70c705e1fa40" d="M34.38,39.77a2.71,2.71,0,1,0-2.71-2.7,2.7,2.7,0,0,0,2.71,2.7" transform="translate(0 0)"/><path class="b9e71bb3-eabe-4a5f-ad8f-70c705e1fa40" d="M39,39.9a2.84,2.84,0,1,0-2.84-2.83A2.83,2.83,0,0,0,39,39.9" transform="translate(0 0)"/><path class="b9e71bb3-eabe-4a5f-ad8f-70c705e1fa40" d="M43.55,39.9a2.84,2.84,0,1,0-2.83-2.83,2.83,2.83,0,0,0,2.83,2.83" transform="translate(0 0)"/><path class="b9e71bb3-eabe-4a5f-ad8f-70c705e1fa40" d="M48.13,39.9a2.84,2.84,0,1,0-2.83-2.83,2.84,2.84,0,0,0,2.83,2.83" transform="translate(0 0)"/><path class="b9e71bb3-eabe-4a5f-ad8f-70c705e1fa40" d="M52.72,39.9a2.84,2.84,0,1,0-2.84-2.83,2.83,2.83,0,0,0,2.84,2.83" transform="translate(0 0)"/><path class="b9e71bb3-eabe-4a5f-ad8f-70c705e1fa40" d="M57.3,39.9a2.84,2.84,0,1,0-2.83-2.83A2.84,2.84,0,0,0,57.3,39.9" transform="translate(0 0)"/><path class="b9e71bb3-eabe-4a5f-ad8f-70c705e1fa40" d="M61.89,39.9a2.84,2.84,0,1,0-2.84-2.83,2.83,2.83,0,0,0,2.84,2.83" transform="translate(0 0)"/><path class="b9e71bb3-eabe-4a5f-ad8f-70c705e1fa40" d="M66.47,39.52A2.46,2.46,0,1,0,64,37.07a2.45,2.45,0,0,0,2.45,2.45" transform="translate(0 0)"/><path class="b9e71bb3-eabe-4a5f-ad8f-70c705e1fa40" d="M71.05,39.14A2.08,2.08,0,1,0,69,37.07a2.08,2.08,0,0,0,2.07,2.07" transform="translate(0 0)"/><path class="b9e71bb3-eabe-4a5f-ad8f-70c705e1fa40" d="M75.64,38.74A1.68,1.68,0,1,0,74,37.07a1.68,1.68,0,0,0,1.68,1.67" transform="translate(0 0)"/><path class="b9e71bb3-eabe-4a5f-ad8f-70c705e1fa40" d="M80.22,38.35a1.29,1.29,0,1,0-1.28-1.28,1.28,1.28,0,0,0,1.28,1.28" transform="translate(0 0)"/><path class="b9e71bb3-eabe-4a5f-ad8f-70c705e1fa40" d="M84.81,38a.91.91,0,1,0-.91-.9.91.91,0,0,0,.91.9" transform="translate(0 0)"/><path class="b9e71bb3-eabe-4a5f-ad8f-70c705e1fa40" d="M89.39,37.58a.51.51,0,1,0-.51-.51.51.51,0,0,0,.51.51" transform="translate(0 0)"/><path class="b9e71bb3-eabe-4a5f-ad8f-70c705e1fa40" d="M6.88,42a.39.39,0,1,0-.39-.39.38.38,0,0,0,.39.39" transform="translate(0 0)"/><path class="b9e71bb3-eabe-4a5f-ad8f-70c705e1fa40" d="M11.46,42.45a.8.8,0,1,0-.8-.8.8.8,0,0,0,.8.8" transform="translate(0 0)"/><path class="b9e71bb3-eabe-4a5f-ad8f-70c705e1fa40" d="M16.05,42.85a1.2,1.2,0,1,0-1.2-1.2,1.19,1.19,0,0,0,1.2,1.2" transform="translate(0 0)"/><path class="b9e71bb3-eabe-4a5f-ad8f-70c705e1fa40" d="M20.63,43.24A1.59,1.59,0,1,0,19,41.65a1.59,1.59,0,0,0,1.59,1.59" transform="translate(0 0)"/><path class="b9e71bb3-eabe-4a5f-ad8f-70c705e1fa40" d="M25.22,43.63a2,2,0,1,0-2-2,2,2,0,0,0,2,2" transform="translate(0 0)"/><path class="b9e71bb3-eabe-4a5f-ad8f-70c705e1fa40" d="M29.8,44a2.39,2.39,0,1,0-2.39-2.39A2.39,2.39,0,0,0,29.8,44" transform="translate(0 0)"/><path class="b9e71bb3-eabe-4a5f-ad8f-70c705e1fa40" d="M34.38,44.43a2.78,2.78,0,1,0-2.78-2.78,2.78,2.78,0,0,0,2.78,2.78" transform="translate(0 0)"/><path class="b9e71bb3-eabe-4a5f-ad8f-70c705e1fa40" d="M39,44.49a2.84,2.84,0,1,0-2.84-2.84A2.84,2.84,0,0,0,39,44.49" transform="translate(0 0)"/><path class="b9e71bb3-eabe-4a5f-ad8f-70c705e1fa40" d="M43.55,44.49a2.84,2.84,0,1,0-2.83-2.84,2.83,2.83,0,0,0,2.83,2.84" transform="translate(0 0)"/><path class="b9e71bb3-eabe-4a5f-ad8f-70c705e1fa40" d="M48.13,44.49a2.84,2.84,0,1,0-2.83-2.84,2.84,2.84,0,0,0,2.83,2.84" transform="translate(0 0)"/><path class="b9e71bb3-eabe-4a5f-ad8f-70c705e1fa40" d="M52.72,44.49a2.84,2.84,0,1,0-2.84-2.84,2.84,2.84,0,0,0,2.84,2.84" transform="translate(0 0)"/><path class="b9e71bb3-eabe-4a5f-ad8f-70c705e1fa40" d="M57.3,44.49a2.84,2.84,0,1,0-2.83-2.84,2.84,2.84,0,0,0,2.83,2.84" transform="translate(0 0)"/><path class="b9e71bb3-eabe-4a5f-ad8f-70c705e1fa40" d="M61.89,44.49a2.84,2.84,0,1,0-2.84-2.84,2.84,2.84,0,0,0,2.84,2.84" transform="translate(0 0)"/><path class="b9e71bb3-eabe-4a5f-ad8f-70c705e1fa40" d="M66.47,44.18a2.53,2.53,0,1,0-2.53-2.53,2.53,2.53,0,0,0,2.53,2.53" transform="translate(0 0)"/><path class="b9e71bb3-eabe-4a5f-ad8f-70c705e1fa40" d="M71.05,43.77a2.12,2.12,0,1,0-2.12-2.12,2.12,2.12,0,0,0,2.12,2.12" transform="translate(0 0)"/><path class="b9e71bb3-eabe-4a5f-ad8f-70c705e1fa40" d="M75.64,43.38a1.73,1.73,0,1,0-1.73-1.73,1.74,1.74,0,0,0,1.73,1.73" transform="translate(0 0)"/><path class="b9e71bb3-eabe-4a5f-ad8f-70c705e1fa40" d="M80.22,43a1.32,1.32,0,1,0-1.32-1.32A1.32,1.32,0,0,0,80.22,43" transform="translate(0 0)"/><path class="b9e71bb3-eabe-4a5f-ad8f-70c705e1fa40" d="M84.81,42.58a.93.93,0,1,0-.93-.93.93.93,0,0,0,.93.93" transform="translate(0 0)"/><path class="b9e71bb3-eabe-4a5f-ad8f-70c705e1fa40" d="M89.39,42.18a.53.53,0,0,0,.53-.53.53.53,0,0,0-.53-.53.53.53,0,0,0-.53.53.52.52,0,0,0,.53.53" transform="translate(0 0)"/><path class="b9e71bb3-eabe-4a5f-ad8f-70c705e1fa40" d="M6.88,46.62a.39.39,0,1,0-.38-.39.38.38,0,0,0,.38.39" transform="translate(0 0)"/><path class="b9e71bb3-eabe-4a5f-ad8f-70c705e1fa40" d="M11.46,47a.78.78,0,1,0,0-1.55.78.78,0,0,0,0,1.55" transform="translate(0 0)"/><path class="b9e71bb3-eabe-4a5f-ad8f-70c705e1fa40" d="M16.05,47.4a1.17,1.17,0,1,0-1.17-1.17,1.17,1.17,0,0,0,1.17,1.17" transform="translate(0 0)"/><path class="b9e71bb3-eabe-4a5f-ad8f-70c705e1fa40" d="M20.63,47.8a1.57,1.57,0,1,0-1.56-1.57,1.56,1.56,0,0,0,1.56,1.57" transform="translate(0 0)"/><path class="b9e71bb3-eabe-4a5f-ad8f-70c705e1fa40" d="M25.22,48.2a2,2,0,1,0-2-2,2,2,0,0,0,2,2" transform="translate(0 0)"/><path class="b9e71bb3-eabe-4a5f-ad8f-70c705e1fa40" d="M29.8,48.59a2.36,2.36,0,1,0-2.35-2.36,2.36,2.36,0,0,0,2.35,2.36" transform="translate(0 0)"/><path class="b9e71bb3-eabe-4a5f-ad8f-70c705e1fa40" d="M34.38,49a2.75,2.75,0,1,0-2.74-2.75A2.75,2.75,0,0,0,34.38,49" transform="translate(0 0)"/><path class="b9e71bb3-eabe-4a5f-ad8f-70c705e1fa40" d="M39,49.07a2.84,2.84,0,1,0-2.84-2.84A2.84,2.84,0,0,0,39,49.07" transform="translate(0 0)"/><path class="b9e71bb3-eabe-4a5f-ad8f-70c705e1fa40" d="M43.55,49.07a2.84,2.84,0,1,0-2.83-2.84,2.83,2.83,0,0,0,2.83,2.84" transform="translate(0 0)"/><path class="b9e71bb3-eabe-4a5f-ad8f-70c705e1fa40" d="M48.13,49.07a2.84,2.84,0,1,0-2.83-2.84,2.84,2.84,0,0,0,2.83,2.84" transform="translate(0 0)"/><path class="b9e71bb3-eabe-4a5f-ad8f-70c705e1fa40" d="M52.72,49.07a2.84,2.84,0,1,0-2.84-2.84,2.84,2.84,0,0,0,2.84,2.84" transform="translate(0 0)"/><path class="b9e71bb3-eabe-4a5f-ad8f-70c705e1fa40" d="M57.3,49.07a2.84,2.84,0,1,0-2.83-2.84,2.84,2.84,0,0,0,2.83,2.84" transform="translate(0 0)"/><path class="b9e71bb3-eabe-4a5f-ad8f-70c705e1fa40" d="M61.89,49.07a2.84,2.84,0,1,0-2.84-2.84,2.84,2.84,0,0,0,2.84,2.84" transform="translate(0 0)"/><path class="b9e71bb3-eabe-4a5f-ad8f-70c705e1fa40" d="M66.47,48.73A2.5,2.5,0,1,0,64,46.23a2.49,2.49,0,0,0,2.49,2.5" transform="translate(0 0)"/><path class="b9e71bb3-eabe-4a5f-ad8f-70c705e1fa40" d="M71.05,48.33A2.1,2.1,0,1,0,69,46.23a2.1,2.1,0,0,0,2.09,2.1" transform="translate(0 0)"/><path class="b9e71bb3-eabe-4a5f-ad8f-70c705e1fa40" d="M75.64,47.94a1.71,1.71,0,1,0-1.71-1.71,1.7,1.7,0,0,0,1.71,1.71" transform="translate(0 0)"/><path class="b9e71bb3-eabe-4a5f-ad8f-70c705e1fa40" d="M80.22,47.54a1.31,1.31,0,1,0-1.31-1.31,1.3,1.3,0,0,0,1.31,1.31" transform="translate(0 0)"/><path class="b9e71bb3-eabe-4a5f-ad8f-70c705e1fa40" d="M84.81,47.15a.92.92,0,1,0-.92-.92.92.92,0,0,0,.92.92" transform="translate(0 0)"/><path class="b9e71bb3-eabe-4a5f-ad8f-70c705e1fa40" d="M89.39,46.75a.52.52,0,0,0,.52-.52.52.52,0,0,0-1,0,.52.52,0,0,0,.52.52" transform="translate(0 0)"/><path class="b9e71bb3-eabe-4a5f-ad8f-70c705e1fa40" d="M6.88,51.15a.33.33,0,1,0-.33-.33.33.33,0,0,0,.33.33" transform="translate(0 0)"/><path class="b9e71bb3-eabe-4a5f-ad8f-70c705e1fa40" d="M11.46,51.54a.73.73,0,0,0,.73-.72.73.73,0,0,0-.73-.73.73.73,0,0,0-.72.73.72.72,0,0,0,.72.72" transform="translate(0 0)"/><path class="b9e71bb3-eabe-4a5f-ad8f-70c705e1fa40" d="M16.05,51.92a1.11,1.11,0,0,0,0-2.21,1.11,1.11,0,1,0,0,2.21" transform="translate(0 0)"/><path class="b9e71bb3-eabe-4a5f-ad8f-70c705e1fa40" d="M20.63,52.31a1.49,1.49,0,1,0-1.49-1.49,1.49,1.49,0,0,0,1.49,1.49" transform="translate(0 0)"/><path class="b9e71bb3-eabe-4a5f-ad8f-70c705e1fa40" d="M25.22,52.69a1.87,1.87,0,1,0-1.88-1.87,1.87,1.87,0,0,0,1.88,1.87" transform="translate(0 0)"/><path class="b9e71bb3-eabe-4a5f-ad8f-70c705e1fa40" d="M29.8,53.06a2.24,2.24,0,1,0-2.24-2.24,2.24,2.24,0,0,0,2.24,2.24" transform="translate(0 0)"/><path class="b9e71bb3-eabe-4a5f-ad8f-70c705e1fa40" d="M34.38,53.41a2.59,2.59,0,1,0-2.59-2.59,2.59,2.59,0,0,0,2.59,2.59" transform="translate(0 0)"/><path class="b9e71bb3-eabe-4a5f-ad8f-70c705e1fa40" d="M39,53.65a2.84,2.84,0,1,0-2.84-2.83A2.83,2.83,0,0,0,39,53.65" transform="translate(0 0)"/><path class="b9e71bb3-eabe-4a5f-ad8f-70c705e1fa40" d="M43.55,53.65a2.84,2.84,0,1,0-2.83-2.83,2.83,2.83,0,0,0,2.83,2.83" transform="translate(0 0)"/><path class="b9e71bb3-eabe-4a5f-ad8f-70c705e1fa40" d="M48.13,53.65a2.84,2.84,0,1,0-2.83-2.83,2.84,2.84,0,0,0,2.83,2.83" transform="translate(0 0)"/><path class="b9e71bb3-eabe-4a5f-ad8f-70c705e1fa40" d="M52.72,53.65a2.84,2.84,0,1,0-2.84-2.83,2.83,2.83,0,0,0,2.84,2.83" transform="translate(0 0)"/><path class="b9e71bb3-eabe-4a5f-ad8f-70c705e1fa40" d="M57.3,53.65a2.84,2.84,0,1,0-2.83-2.83,2.84,2.84,0,0,0,2.83,2.83" transform="translate(0 0)"/><path class="b9e71bb3-eabe-4a5f-ad8f-70c705e1fa40" d="M61.89,53.53a2.71,2.71,0,1,0-2.71-2.71,2.71,2.71,0,0,0,2.71,2.71" transform="translate(0 0)"/><path class="b9e71bb3-eabe-4a5f-ad8f-70c705e1fa40" d="M66.47,53.17a2.35,2.35,0,1,0-2.35-2.35,2.35,2.35,0,0,0,2.35,2.35" transform="translate(0 0)"/><path class="b9e71bb3-eabe-4a5f-ad8f-70c705e1fa40" d="M71.05,52.8a2,2,0,1,0-2-2,2,2,0,0,0,2,2" transform="translate(0 0)"/><path class="b9e71bb3-eabe-4a5f-ad8f-70c705e1fa40" d="M75.64,52.43a1.62,1.62,0,0,0,0-3.23,1.62,1.62,0,1,0,0,3.23" transform="translate(0 0)"/><path class="b9e71bb3-eabe-4a5f-ad8f-70c705e1fa40" d="M80.22,52.05A1.23,1.23,0,1,0,79,50.82a1.23,1.23,0,0,0,1.23,1.23" transform="translate(0 0)"/><path class="b9e71bb3-eabe-4a5f-ad8f-70c705e1fa40" d="M84.81,51.67a.85.85,0,1,0-.85-.85.85.85,0,0,0,.85.85" transform="translate(0 0)"/><path class="b9e71bb3-eabe-4a5f-ad8f-70c705e1fa40" d="M89.39,51.28a.46.46,0,1,0-.46-.46.47.47,0,0,0,.46.46" transform="translate(0 0)"/><path class="b9e71bb3-eabe-4a5f-ad8f-70c705e1fa40" d="M6.88,55.63a.23.23,0,0,0,.23-.23.24.24,0,0,0-.23-.23.23.23,0,0,0-.23.23.23.23,0,0,0,.23.23" transform="translate(0 0)"/><path class="b9e71bb3-eabe-4a5f-ad8f-70c705e1fa40" d="M11.46,56a.61.61,0,0,0,.61-.61.61.61,0,0,0-.61-.61.62.62,0,0,0-.61.61.61.61,0,0,0,.61.61" transform="translate(0 0)"/><path class="b9e71bb3-eabe-4a5f-ad8f-70c705e1fa40" d="M16.05,56.38a1,1,0,1,0-1-1,1,1,0,0,0,1,1" transform="translate(0 0)"/><path class="b9e71bb3-eabe-4a5f-ad8f-70c705e1fa40" d="M20.63,56.75a1.35,1.35,0,1,0-1.35-1.35,1.35,1.35,0,0,0,1.35,1.35" transform="translate(0 0)"/><path class="b9e71bb3-eabe-4a5f-ad8f-70c705e1fa40" d="M25.22,57.11a1.71,1.71,0,1,0-1.71-1.71,1.71,1.71,0,0,0,1.71,1.71" transform="translate(0 0)"/><path class="b9e71bb3-eabe-4a5f-ad8f-70c705e1fa40" d="M29.8,57.45a2,2,0,1,0-2.05-2.05,2.05,2.05,0,0,0,2.05,2.05" transform="translate(0 0)"/><path class="b9e71bb3-eabe-4a5f-ad8f-70c705e1fa40" d="M34.38,57.75A2.35,2.35,0,1,0,32,55.4a2.35,2.35,0,0,0,2.35,2.35" transform="translate(0 0)"/><path class="b9e71bb3-eabe-4a5f-ad8f-70c705e1fa40" d="M39,58a2.63,2.63,0,1,0-2.63-2.63A2.63,2.63,0,0,0,39,58" transform="translate(0 0)"/><path class="b9e71bb3-eabe-4a5f-ad8f-70c705e1fa40" d="M43.55,58.24a2.84,2.84,0,1,0-2.83-2.84,2.83,2.83,0,0,0,2.83,2.84" transform="translate(0 0)"/><path class="b9e71bb3-eabe-4a5f-ad8f-70c705e1fa40" d="M48.13,58.24A2.84,2.84,0,1,0,45.3,55.4a2.84,2.84,0,0,0,2.83,2.84" transform="translate(0 0)"/><path class="b9e71bb3-eabe-4a5f-ad8f-70c705e1fa40" d="M52.72,58.24a2.84,2.84,0,1,0-2.84-2.84,2.84,2.84,0,0,0,2.84,2.84" transform="translate(0 0)"/><path class="b9e71bb3-eabe-4a5f-ad8f-70c705e1fa40" d="M57.3,58.11a2.71,2.71,0,1,0-2.7-2.71,2.71,2.71,0,0,0,2.7,2.71" transform="translate(0 0)"/><path class="b9e71bb3-eabe-4a5f-ad8f-70c705e1fa40" d="M61.89,57.85a2.45,2.45,0,1,0-2.46-2.45,2.45,2.45,0,0,0,2.46,2.45" transform="translate(0 0)"/><path class="b9e71bb3-eabe-4a5f-ad8f-70c705e1fa40" d="M66.47,57.55a2.15,2.15,0,1,0-2.15-2.15,2.15,2.15,0,0,0,2.15,2.15" transform="translate(0 0)"/><path class="b9e71bb3-eabe-4a5f-ad8f-70c705e1fa40" d="M71.05,57.22a1.82,1.82,0,1,0-1.81-1.82,1.81,1.81,0,0,0,1.81,1.82" transform="translate(0 0)"/><path class="b9e71bb3-eabe-4a5f-ad8f-70c705e1fa40" d="M75.64,56.86a1.46,1.46,0,1,0-1.46-1.46,1.46,1.46,0,0,0,1.46,1.46" transform="translate(0 0)"/><path class="b9e71bb3-eabe-4a5f-ad8f-70c705e1fa40" d="M80.22,56.51a1.11,1.11,0,1,0,0-2.21,1.11,1.11,0,0,0,0,2.21" transform="translate(0 0)"/><path class="b9e71bb3-eabe-4a5f-ad8f-70c705e1fa40" d="M84.81,56.14a.74.74,0,1,0-.74-.74.74.74,0,0,0,.74.74" transform="translate(0 0)"/><path class="b9e71bb3-eabe-4a5f-ad8f-70c705e1fa40" d="M89.39,55.76A.36.36,0,1,0,89,55.4a.36.36,0,0,0,.36.36" transform="translate(0 0)"/><path class="b9e71bb3-eabe-4a5f-ad8f-70c705e1fa40" d="M6.88,60.08A.09.09,0,1,0,6.79,60a.09.09,0,0,0,.09.09" transform="translate(0 0)"/><path class="b9e71bb3-eabe-4a5f-ad8f-70c705e1fa40" d="M11.46,60.44a.46.46,0,1,0,0-.91.46.46,0,1,0,0,.91" transform="translate(0 0)"/><path class="b9e71bb3-eabe-4a5f-ad8f-70c705e1fa40" d="M16.05,60.8a.81.81,0,0,0,.81-.81.82.82,0,1,0-.81.81" transform="translate(0 0)"/><path class="b9e71bb3-eabe-4a5f-ad8f-70c705e1fa40" d="M20.63,61.14A1.16,1.16,0,1,0,19.47,60a1.15,1.15,0,0,0,1.16,1.15" transform="translate(0 0)"/><path class="b9e71bb3-eabe-4a5f-ad8f-70c705e1fa40" d="M25.22,61.47A1.49,1.49,0,1,0,23.73,60a1.48,1.48,0,0,0,1.49,1.48" transform="translate(0 0)"/><path class="b9e71bb3-eabe-4a5f-ad8f-70c705e1fa40" d="M29.8,61.78A1.8,1.8,0,1,0,28,60a1.79,1.79,0,0,0,1.79,1.79" transform="translate(0 0)"/><path class="b9e71bb3-eabe-4a5f-ad8f-70c705e1fa40" d="M34.38,62.06A2.08,2.08,0,1,0,32.31,60a2.07,2.07,0,0,0,2.07,2.07" transform="translate(0 0)"/><path class="b9e71bb3-eabe-4a5f-ad8f-70c705e1fa40" d="M39,62.29a2.3,2.3,0,1,0-2.3-2.3,2.3,2.3,0,0,0,2.3,2.3" transform="translate(0 0)"/><path class="b9e71bb3-eabe-4a5f-ad8f-70c705e1fa40" d="M43.55,62.44A2.46,2.46,0,1,0,41.1,60a2.45,2.45,0,0,0,2.45,2.45" transform="translate(0 0)"/><path class="b9e71bb3-eabe-4a5f-ad8f-70c705e1fa40" d="M48.13,62.52A2.53,2.53,0,1,0,45.6,60a2.53,2.53,0,0,0,2.53,2.53" transform="translate(0 0)"/><path class="b9e71bb3-eabe-4a5f-ad8f-70c705e1fa40" d="M52.72,62.48A2.49,2.49,0,1,0,50.23,60a2.5,2.5,0,0,0,2.49,2.49" transform="translate(0 0)"/><path class="b9e71bb3-eabe-4a5f-ad8f-70c705e1fa40" d="M57.3,62.34A2.35,2.35,0,1,0,55,60a2.35,2.35,0,0,0,2.35,2.35" transform="translate(0 0)"/><path class="b9e71bb3-eabe-4a5f-ad8f-70c705e1fa40" d="M61.89,62.13A2.15,2.15,0,1,0,59.74,60a2.14,2.14,0,0,0,2.15,2.14" transform="translate(0 0)"/><path class="b9e71bb3-eabe-4a5f-ad8f-70c705e1fa40" d="M66.47,61.87A1.88,1.88,0,1,0,64.59,60a1.88,1.88,0,0,0,1.88,1.88" transform="translate(0 0)"/><path class="b9e71bb3-eabe-4a5f-ad8f-70c705e1fa40" d="M71.05,61.58A1.59,1.59,0,1,0,69.46,60a1.59,1.59,0,0,0,1.59,1.59" transform="translate(0 0)"/><path class="b9e71bb3-eabe-4a5f-ad8f-70c705e1fa40" d="M75.64,61.26A1.27,1.27,0,1,0,74.37,60a1.27,1.27,0,0,0,1.27,1.27" transform="translate(0 0)"/><path class="b9e71bb3-eabe-4a5f-ad8f-70c705e1fa40" d="M80.22,60.91a.93.93,0,1,0-.93-.92.92.92,0,0,0,.93.92" transform="translate(0 0)"/><path class="b9e71bb3-eabe-4a5f-ad8f-70c705e1fa40" d="M84.81,60.57a.59.59,0,1,0-.59-.58.58.58,0,0,0,.59.58" transform="translate(0 0)"/><path class="b9e71bb3-eabe-4a5f-ad8f-70c705e1fa40" d="M89.39,60.2a.21.21,0,0,0,.22-.21.22.22,0,1,0-.44,0,.21.21,0,0,0,.22.21" transform="translate(0 0)"/><path class="b9e71bb3-eabe-4a5f-ad8f-70c705e1fa40" d="M11.46,64.85a.27.27,0,0,0,.28-.28.28.28,0,0,0-.28-.28.29.29,0,0,0-.28.28.28.28,0,0,0,.28.28" transform="translate(0 0)"/><path class="b9e71bb3-eabe-4a5f-ad8f-70c705e1fa40" d="M16.05,65.18a.61.61,0,0,0,0-1.22.61.61,0,1,0,0,1.22" transform="translate(0 0)"/><path class="b9e71bb3-eabe-4a5f-ad8f-70c705e1fa40" d="M20.63,65.5a.93.93,0,1,0-.93-.93.93.93,0,0,0,.93.93" transform="translate(0 0)"/><path class="b9e71bb3-eabe-4a5f-ad8f-70c705e1fa40" d="M25.22,65.8A1.23,1.23,0,1,0,24,64.57a1.24,1.24,0,0,0,1.24,1.23" transform="translate(0 0)"/><path class="b9e71bb3-eabe-4a5f-ad8f-70c705e1fa40" d="M29.8,66.07a1.5,1.5,0,1,0-1.5-1.5,1.5,1.5,0,0,0,1.5,1.5" transform="translate(0 0)"/><path class="b9e71bb3-eabe-4a5f-ad8f-70c705e1fa40" d="M34.38,66.31a1.74,1.74,0,1,0-1.74-1.74,1.74,1.74,0,0,0,1.74,1.74" transform="translate(0 0)"/><path class="b9e71bb3-eabe-4a5f-ad8f-70c705e1fa40" d="M39,66.51A1.94,1.94,0,1,0,37,64.57,1.94,1.94,0,0,0,39,66.51" transform="translate(0 0)"/><path class="b9e71bb3-eabe-4a5f-ad8f-70c705e1fa40" d="M43.55,66.64a2.07,2.07,0,1,0-2.07-2.07,2.07,2.07,0,0,0,2.07,2.07" transform="translate(0 0)"/><path class="b9e71bb3-eabe-4a5f-ad8f-70c705e1fa40" d="M48.13,66.69A2.12,2.12,0,1,0,46,64.57a2.12,2.12,0,0,0,2.12,2.12" transform="translate(0 0)"/><path class="b9e71bb3-eabe-4a5f-ad8f-70c705e1fa40" d="M52.72,66.67a2.1,2.1,0,1,0-2.1-2.1,2.09,2.09,0,0,0,2.1,2.1" transform="translate(0 0)"/><path class="b9e71bb3-eabe-4a5f-ad8f-70c705e1fa40" d="M57.3,66.55a2,2,0,1,0-2-2,2,2,0,0,0,2,2" transform="translate(0 0)"/><path class="b9e71bb3-eabe-4a5f-ad8f-70c705e1fa40" d="M61.89,66.39a1.82,1.82,0,1,0-1.82-1.82,1.82,1.82,0,0,0,1.82,1.82" transform="translate(0 0)"/><path class="b9e71bb3-eabe-4a5f-ad8f-70c705e1fa40" d="M66.47,66.16a1.59,1.59,0,1,0-1.59-1.59,1.59,1.59,0,0,0,1.59,1.59" transform="translate(0 0)"/><path class="b9e71bb3-eabe-4a5f-ad8f-70c705e1fa40" d="M71.05,65.89a1.32,1.32,0,1,0-1.32-1.32,1.33,1.33,0,0,0,1.32,1.32" transform="translate(0 0)"/><path class="b9e71bb3-eabe-4a5f-ad8f-70c705e1fa40" d="M75.64,65.6a1,1,0,1,0-1-1,1,1,0,0,0,1,1" transform="translate(0 0)"/><path class="b9e71bb3-eabe-4a5f-ad8f-70c705e1fa40" d="M80.22,65.3a.73.73,0,0,0,.73-.73.73.73,0,0,0-.73-.72.72.72,0,0,0-.72.72.73.73,0,0,0,.72.73" transform="translate(0 0)"/><path class="b9e71bb3-eabe-4a5f-ad8f-70c705e1fa40" d="M84.81,65a.38.38,0,1,0-.38-.38.38.38,0,0,0,.38.38" transform="translate(0 0)"/><path class="b9e71bb3-eabe-4a5f-ad8f-70c705e1fa40" d="M89.39,64.61a0,0,0,1,0,0-.08,0,0,0,0,0,0,.08,0,0,0,0,0,0,0" transform="translate(0 0)"/><path class="b9e71bb3-eabe-4a5f-ad8f-70c705e1fa40" d="M11.46,69.21a.06.06,0,0,0,0-.06,0,0,0,0,0-.1,0,.06.06,0,0,0,.05.06" transform="translate(0 0)"/><path class="b9e71bb3-eabe-4a5f-ad8f-70c705e1fa40" d="M16.05,69.52a.37.37,0,1,0-.37-.37.36.36,0,0,0,.37.37" transform="translate(0 0)"/><path class="b9e71bb3-eabe-4a5f-ad8f-70c705e1fa40" d="M20.63,69.83a.68.68,0,1,0-.67-.68.67.67,0,0,0,.67.68" transform="translate(0 0)"/><path class="b9e71bb3-eabe-4a5f-ad8f-70c705e1fa40" d="M25.22,70.09a.94.94,0,1,0-.95-.94.94.94,0,0,0,.95.94" transform="translate(0 0)"/><path class="b9e71bb3-eabe-4a5f-ad8f-70c705e1fa40" d="M29.8,70.35a1.2,1.2,0,1,0-1.2-1.2,1.19,1.19,0,0,0,1.2,1.2" transform="translate(0 0)"/><path class="b9e71bb3-eabe-4a5f-ad8f-70c705e1fa40" d="M34.38,70.55a1.4,1.4,0,1,0-1.4-1.4,1.4,1.4,0,0,0,1.4,1.4" transform="translate(0 0)"/><path class="b9e71bb3-eabe-4a5f-ad8f-70c705e1fa40" d="M39,70.72a1.57,1.57,0,1,0-1.57-1.56A1.56,1.56,0,0,0,39,70.72" transform="translate(0 0)"/><path class="b9e71bb3-eabe-4a5f-ad8f-70c705e1fa40" d="M43.55,70.83a1.68,1.68,0,1,0-1.68-1.68,1.68,1.68,0,0,0,1.68,1.68" transform="translate(0 0)"/><path class="b9e71bb3-eabe-4a5f-ad8f-70c705e1fa40" d="M48.13,70.88a1.73,1.73,0,1,0-1.73-1.72,1.72,1.72,0,0,0,1.73,1.72" transform="translate(0 0)"/><path class="b9e71bb3-eabe-4a5f-ad8f-70c705e1fa40" d="M52.72,70.86A1.71,1.71,0,1,0,51,69.16a1.7,1.7,0,0,0,1.71,1.7" transform="translate(0 0)"/><path class="b9e71bb3-eabe-4a5f-ad8f-70c705e1fa40" d="M57.3,70.77a1.62,1.62,0,1,0-1.61-1.62,1.62,1.62,0,0,0,1.61,1.62" transform="translate(0 0)"/><path class="b9e71bb3-eabe-4a5f-ad8f-70c705e1fa40" d="M61.89,70.62a1.47,1.47,0,1,0-1.47-1.47,1.47,1.47,0,0,0,1.47,1.47" transform="translate(0 0)"/><path class="b9e71bb3-eabe-4a5f-ad8f-70c705e1fa40" d="M66.47,70.43a1.28,1.28,0,1,0-1.27-1.28,1.27,1.27,0,0,0,1.27,1.28" transform="translate(0 0)"/><path class="b9e71bb3-eabe-4a5f-ad8f-70c705e1fa40" d="M71.05,70.18a1,1,0,1,0-1-1,1,1,0,0,0,1,1" transform="translate(0 0)"/><path class="b9e71bb3-eabe-4a5f-ad8f-70c705e1fa40" d="M75.64,69.92a.77.77,0,1,0-.76-.77.76.76,0,0,0,.76.77" transform="translate(0 0)"/><path class="b9e71bb3-eabe-4a5f-ad8f-70c705e1fa40" d="M80.22,69.62a.47.47,0,1,0-.47-.47.47.47,0,0,0,.47.47" transform="translate(0 0)"/><path class="b9e71bb3-eabe-4a5f-ad8f-70c705e1fa40" d="M84.81,69.31a.16.16,0,0,0,.15-.16.15.15,0,0,0-.15-.15.16.16,0,0,0-.16.15.16.16,0,0,0,.16.16" transform="translate(0 0)"/><path class="b9e71bb3-eabe-4a5f-ad8f-70c705e1fa40" d="M16.05,73.84a.11.11,0,0,0,.1-.1.1.1,0,0,0-.1-.1.1.1,0,0,0-.11.1.11.11,0,0,0,.11.1" transform="translate(0 0)"/><path class="b9e71bb3-eabe-4a5f-ad8f-70c705e1fa40" d="M20.63,74.12a.38.38,0,1,0-.38-.38.38.38,0,0,0,.38.38" transform="translate(0 0)"/><path class="b9e71bb3-eabe-4a5f-ad8f-70c705e1fa40" d="M25.22,74.39a.65.65,0,1,0-.65-.65.65.65,0,0,0,.65.65" transform="translate(0 0)"/><path class="b9e71bb3-eabe-4a5f-ad8f-70c705e1fa40" d="M29.8,74.6a.86.86,0,1,0-.87-.86.85.85,0,0,0,.87.86" transform="translate(0 0)"/><path class="b9e71bb3-eabe-4a5f-ad8f-70c705e1fa40" d="M34.38,74.79a1.06,1.06,0,1,0-1.05-1.05,1.06,1.06,0,0,0,1.05,1.05" transform="translate(0 0)"/><path class="b9e71bb3-eabe-4a5f-ad8f-70c705e1fa40" d="M39,74.93a1.2,1.2,0,0,0,0-2.39,1.2,1.2,0,1,0,0,2.39" transform="translate(0 0)"/><path class="b9e71bb3-eabe-4a5f-ad8f-70c705e1fa40" d="M43.55,75a1.29,1.29,0,1,0-1.28-1.28A1.28,1.28,0,0,0,43.55,75" transform="translate(0 0)"/><path class="b9e71bb3-eabe-4a5f-ad8f-70c705e1fa40" d="M48.13,75.06a1.32,1.32,0,1,0-1.32-1.32,1.33,1.33,0,0,0,1.32,1.32" transform="translate(0 0)"/><path class="b9e71bb3-eabe-4a5f-ad8f-70c705e1fa40" d="M52.72,75.05a1.31,1.31,0,1,0-1.31-1.31,1.31,1.31,0,0,0,1.31,1.31" transform="translate(0 0)"/><path class="b9e71bb3-eabe-4a5f-ad8f-70c705e1fa40" d="M57.3,75a1.23,1.23,0,1,0-1.23-1.23A1.24,1.24,0,0,0,57.3,75" transform="translate(0 0)"/><path class="b9e71bb3-eabe-4a5f-ad8f-70c705e1fa40" d="M61.89,74.84a1.11,1.11,0,0,0,0-2.21,1.11,1.11,0,1,0,0,2.21" transform="translate(0 0)"/><path class="b9e71bb3-eabe-4a5f-ad8f-70c705e1fa40" d="M66.47,74.67a.93.93,0,1,0-.93-.93.93.93,0,0,0,.93.93" transform="translate(0 0)"/><path class="b9e71bb3-eabe-4a5f-ad8f-70c705e1fa40" d="M71.05,74.46a.73.73,0,0,0,.73-.72.73.73,0,0,0-.73-.73.73.73,0,0,0-.72.73.72.72,0,0,0,.72.72" transform="translate(0 0)"/><path class="b9e71bb3-eabe-4a5f-ad8f-70c705e1fa40" d="M75.64,74.21a.47.47,0,1,0-.47-.47.47.47,0,0,0,.47.47" transform="translate(0 0)"/><path class="b9e71bb3-eabe-4a5f-ad8f-70c705e1fa40" d="M80.22,73.94a.21.21,0,0,0,.21-.2.22.22,0,0,0-.21-.21.21.21,0,0,0-.2.21.2.2,0,0,0,.2.2" transform="translate(0 0)"/><path class="b9e71bb3-eabe-4a5f-ad8f-70c705e1fa40" d="M20.63,78.4a.09.09,0,0,0,.08-.08.08.08,0,0,0-.16,0,.09.09,0,0,0,.08.08" transform="translate(0 0)"/><path class="b9e71bb3-eabe-4a5f-ad8f-70c705e1fa40" d="M25.22,78.64a.31.31,0,0,0,.31-.32.32.32,0,1,0-.63,0,.32.32,0,0,0,.32.32" transform="translate(0 0)"/><path class="b9e71bb3-eabe-4a5f-ad8f-70c705e1fa40" d="M29.8,78.84a.52.52,0,1,0-.52-.52.52.52,0,0,0,.52.52" transform="translate(0 0)"/><path class="b9e71bb3-eabe-4a5f-ad8f-70c705e1fa40" d="M34.38,79a.69.69,0,0,0,.69-.69.68.68,0,0,0-.69-.68.67.67,0,0,0-.68.68.68.68,0,0,0,.68.69" transform="translate(0 0)"/><path class="b9e71bb3-eabe-4a5f-ad8f-70c705e1fa40" d="M39,79.14a.82.82,0,0,0,.81-.82.81.81,0,0,0-.81-.81.82.82,0,0,0-.82.81.82.82,0,0,0,.82.82" transform="translate(0 0)"/><path class="b9e71bb3-eabe-4a5f-ad8f-70c705e1fa40" d="M43.55,79.22a.9.9,0,1,0-.9-.9.9.9,0,0,0,.9.9" transform="translate(0 0)"/><path class="b9e71bb3-eabe-4a5f-ad8f-70c705e1fa40" d="M48.13,79.25a.93.93,0,1,0-.92-.93.93.93,0,0,0,.92.93" transform="translate(0 0)"/><path class="b9e71bb3-eabe-4a5f-ad8f-70c705e1fa40" d="M52.72,79.24a.92.92,0,1,0-.92-.92.92.92,0,0,0,.92.92" transform="translate(0 0)"/><path class="b9e71bb3-eabe-4a5f-ad8f-70c705e1fa40" d="M57.3,79.17a.85.85,0,1,0-.85-.85.85.85,0,0,0,.85.85" transform="translate(0 0)"/><path class="b9e71bb3-eabe-4a5f-ad8f-70c705e1fa40" d="M61.89,79.06a.74.74,0,0,0,0-1.48.74.74,0,1,0,0,1.48" transform="translate(0 0)"/><path class="b9e71bb3-eabe-4a5f-ad8f-70c705e1fa40" d="M66.47,78.91a.59.59,0,0,0,0-1.17.59.59,0,1,0,0,1.17" transform="translate(0 0)"/><path class="b9e71bb3-eabe-4a5f-ad8f-70c705e1fa40" d="M71.05,78.7a.38.38,0,1,0,0-.76.38.38,0,1,0,0,.76" transform="translate(0 0)"/><path class="b9e71bb3-eabe-4a5f-ad8f-70c705e1fa40" d="M75.64,78.48a.16.16,0,0,0,.15-.16.15.15,0,0,0-.15-.15.15.15,0,0,0-.15.15.15.15,0,0,0,.15.16" transform="translate(0 0)"/><path class="b9e71bb3-eabe-4a5f-ad8f-70c705e1fa40" d="M29.8,83.06a.15.15,0,0,0,.15-.15.16.16,0,0,0-.15-.16.15.15,0,0,0-.15.16.15.15,0,0,0,.15.15" transform="translate(0 0)"/><path class="b9e71bb3-eabe-4a5f-ad8f-70c705e1fa40" d="M34.38,83.22a.32.32,0,1,0,0-.63.32.32,0,1,0,0,.63" transform="translate(0 0)"/><path class="b9e71bb3-eabe-4a5f-ad8f-70c705e1fa40" d="M39,83.34a.44.44,0,0,0,0-.87.44.44,0,1,0,0,.87" transform="translate(0 0)"/><path class="b9e71bb3-eabe-4a5f-ad8f-70c705e1fa40" d="M43.55,83.42a.51.51,0,1,0-.51-.51.51.51,0,0,0,.51.51" transform="translate(0 0)"/><path class="b9e71bb3-eabe-4a5f-ad8f-70c705e1fa40" d="M48.13,83.44a.54.54,0,1,0-.53-.53.54.54,0,0,0,.53.53" transform="translate(0 0)"/><path class="b9e71bb3-eabe-4a5f-ad8f-70c705e1fa40" d="M52.72,83.43a.52.52,0,0,0,.52-.52.52.52,0,0,0-1,0,.52.52,0,0,0,.52.52" transform="translate(0 0)"/><path class="b9e71bb3-eabe-4a5f-ad8f-70c705e1fa40" d="M57.3,83.36a.46.46,0,1,0-.46-.45.46.46,0,0,0,.46.45" transform="translate(0 0)"/><path class="b9e71bb3-eabe-4a5f-ad8f-70c705e1fa40" d="M61.89,83.26a.36.36,0,0,0,0-.71.36.36,0,1,0,0,.71" transform="translate(0 0)"/><path class="b9e71bb3-eabe-4a5f-ad8f-70c705e1fa40" d="M66.47,83.12a.21.21,0,0,0,.22-.21.22.22,0,0,0-.44,0,.21.21,0,0,0,.22.21" transform="translate(0 0)"/><path class="b9e71bb3-eabe-4a5f-ad8f-70c705e1fa40" d="M71.05,82.94s0,0,0,0a0,0,0,0,0,0,0s0,0,0,0a0,0,0,0,0,0,0" transform="translate(0 0)"/><path class="b9e71bb3-eabe-4a5f-ad8f-70c705e1fa40" d="M67.91,15.24c-.45-.28-.91-.56-1.38-.83a44.54,44.54,0,0,0-9.07-3.87,61.91,61.91,0,0,0-18.2-2.63c-10.29,0-20,2.32-27.33,6.54C4.24,18.87,0,24.87,0,31.36S4.24,43.85,11.93,48.27c7.33,4.22,17,6.54,27.33,6.54s20-2.32,27.33-6.54c7.69-4.42,11.93-10.43,11.93-16.91,0-6.11-3.76-11.78-10.61-16.12" transform="translate(0 0)"/><path class="b881024e-6287-43cb-b042-73c6125e089a" d="M77.65,30.34C77.65,18.54,61,9,40.46,9,26,9,13.42,13.72,7.28,20.67A14.92,14.92,0,0,0,2.71,31c0,11.81,16.65,21.38,37.19,21.38,14.49,0,27-4.76,33.18-11.7a14.9,14.9,0,0,0,4.57-10.29" transform="translate(0 0)"/><path class="b9e71bb3-eabe-4a5f-ad8f-70c705e1fa40" d="M54.82,50.13c-.35.58-.64,1.08-.77,1.28a26,26,0,0,1-5.88,6.45,31.26,31.26,0,0,1-9.31,4.91,22.37,22.37,0,0,0,7.54-9.12c1.53-3.51-.46-6.53-1.94-2.22-3.25,9.51-12.48,12.49-21,15.9,11.39-.94,27-5.19,33.26-17.24a4.74,4.74,0,0,1-1.91,0" transform="translate(0 0)"/><path class="b881024e-6287-43cb-b042-73c6125e089a" d="M46.87,50C45.16,57.62,40,61.63,32.77,64.48c9.35-1.44,18-6.2,23-14.27-1-.29-6.84.43-8.87-.22" transform="translate(0 0)"/><path class="b699cf2d-32a2-44b1-8903-7659cdca7cda" d="M44.08,11.68,40.91,27a30.62,30.62,0,0,1-2,6.29,17.41,17.41,0,0,1-3.47,5.16A15.78,15.78,0,0,1,30,42a24.73,24.73,0,0,1-8.18,1.53l1.49-6.93c2.9-.53,5-1.56,6.19-3.08A14.68,14.68,0,0,0,32.09,27H25.25l3.17-15.27Z" transform="translate(0 0)"/><path class="b699cf2d-32a2-44b1-8903-7659cdca7cda" d="M65,11.68,61.83,27a31.24,31.24,0,0,1-2,6.29,17.41,17.41,0,0,1-3.47,5.16A15.82,15.82,0,0,1,50.87,42,24.67,24.67,0,0,1,42.7,43.5l1.48-6.93q4.37-.8,6.2-3.08A14.68,14.68,0,0,0,53,27H46.17l3.17-15.27Z" transform="translate(0 0)"/><path class="f331539a-b972-496b-bb35-a51ae077ddc3" d="M41.81,6.83,38.64,22.09a31.55,31.55,0,0,1-2,6.3,17,17,0,0,1-3.46,5.15,15.82,15.82,0,0,1-5.51,3.57,24.65,24.65,0,0,1-8.17,1.54L21,31.71c2.91-.53,5-1.55,6.2-3.07a14.73,14.73,0,0,0,2.62-6.55H23L26.15,6.83Z" transform="translate(0 0)"/><path class="a1282a23-d558-4621-9d4c-58c34f627471" d="M41.81,6.83,38.64,22.09a31.55,31.55,0,0,1-2,6.3,17,17,0,0,1-3.46,5.15,15.82,15.82,0,0,1-5.51,3.57,24.65,24.65,0,0,1-8.17,1.54L21,31.71c2.91-.53,5-1.55,6.2-3.07a14.73,14.73,0,0,0,2.62-6.55H23L26.15,6.83Z" transform="translate(0 0)"/><path class="f331539a-b972-496b-bb35-a51ae077ddc3" d="M62.73,6.83,59.55,22.09a30.91,30.91,0,0,1-2,6.3,17.24,17.24,0,0,1-3.47,5.15,15.78,15.78,0,0,1-5.5,3.57,24.71,24.71,0,0,1-8.18,1.54l1.49-6.94q4.37-.8,6.19-3.07a14.61,14.61,0,0,0,2.63-6.55H43.89L47.06,6.83Z" transform="translate(0 0)"/><path class="a1282a23-d558-4621-9d4c-58c34f627471" d="M62.73,6.83,59.55,22.09a30.91,30.91,0,0,1-2,6.3,17.24,17.24,0,0,1-3.47,5.15,15.78,15.78,0,0,1-5.5,3.57,24.71,24.71,0,0,1-8.18,1.54l1.49-6.94q4.37-.8,6.19-3.07a14.61,14.61,0,0,0,2.63-6.55H43.89L47.06,6.83Z" transform="translate(0 0)"/></g></g></g></svg>