<svg xmlns="http://www.w3.org/2000/svg" xmlns:xlink="http://www.w3.org/1999/xlink" viewBox="0 0 91.48 89.75"><defs><style>.a49b5883-8eca-4cf1-8a25-4246240a2b8b,.b8db34e0-014e-4f8b-b97b-89484302404a{fill:none;}.fdfcc0ae-37f8-4b31-8135-d9b68ae1561a{clip-path:url(#a404a449-201c-4cce-bb9a-4ae14fe4f9ec);}.b12e8fdc-90eb-47d3-80ec-052d37e9dc04{fill:#241f21;}.e56ac702-7f8d-41f8-9f6b-e3190bc00d12{fill:#fff;}.f15c23e8-a73d-4c87-ac05-439021c7c68e{fill:#1d1d1b;}.bbe4c924-aebf-4618-860f-fc2d828d554a{fill:#50af47;}.a49b5883-8eca-4cf1-8a25-4246240a2b8b{stroke:#1d1d1b;stroke-width:1.01px;}</style><clipPath id="a404a449-201c-4cce-bb9a-4ae14fe4f9ec" transform="translate(0 0)"><rect class="b8db34e0-014e-4f8b-b97b-89484302404a" width="91.49" height="89.75"/></clipPath></defs><g id="b3a4d976-0757-4753-a622-4ca761e2d38a" data-name="Livello 2"><g id="bb71a983-ae05-40e9-a311-02ed59bb1b77" data-name="Livello 1"><g class="fdfcc0ae-37f8-4b31-8135-d9b68ae1561a"><path class="b12e8fdc-90eb-47d3-80ec-052d37e9dc04" d="M25.08.46a0,0,0,0,0,0,0,0,0,0,0,0,0,0,0,0,0,0,0,0,0s0,0,0,0" transform="translate(0 0)"/><path class="b12e8fdc-90eb-47d3-80ec-052d37e9dc04" d="M30,.63a.2.2,0,0,0,.2-.21.2.2,0,0,0-.2-.2.2.2,0,0,0-.21.2A.21.21,0,0,0,30,.63" transform="translate(0 0)"/><path class="b12e8fdc-90eb-47d3-80ec-052d37e9dc04" d="M34.94.74a.31.31,0,0,0,.31-.32.32.32,0,0,0-.63,0,.32.32,0,0,0,.32.32" transform="translate(0 0)"/><path class="b12e8fdc-90eb-47d3-80ec-052d37e9dc04" d="M39.87.82a.39.39,0,0,0,.39-.4A.38.38,0,0,0,39.87,0a.39.39,0,0,0-.4.39.4.4,0,0,0,.4.4" transform="translate(0 0)"/><path class="b12e8fdc-90eb-47d3-80ec-052d37e9dc04" d="M44.8.85a.43.43,0,1,0-.43-.43.42.42,0,0,0,.43.43" transform="translate(0 0)"/><path class="b12e8fdc-90eb-47d3-80ec-052d37e9dc04" d="M49.73.83a.41.41,0,0,0,.41-.41.41.41,0,0,0-.82,0,.41.41,0,0,0,.41.41" transform="translate(0 0)"/><path class="b12e8fdc-90eb-47d3-80ec-052d37e9dc04" d="M54.66.78A.36.36,0,1,0,54.3.42a.36.36,0,0,0,.36.36" transform="translate(0 0)"/><path class="b12e8fdc-90eb-47d3-80ec-052d37e9dc04" d="M59.59.67a.25.25,0,0,0,.25-.25.25.25,0,0,0-.25-.24.25.25,0,1,0,0,.49" transform="translate(0 0)"/><path class="b12e8fdc-90eb-47d3-80ec-052d37e9dc04" d="M64.52.52a.09.09,0,0,0,.09-.1.09.09,0,0,0-.09-.09.1.1,0,0,0-.1.09.1.1,0,0,0,.1.1" transform="translate(0 0)"/><path class="b12e8fdc-90eb-47d3-80ec-052d37e9dc04" d="M20.15,5.57a.21.21,0,0,0,.21-.22.21.21,0,0,0-.21-.21.22.22,0,1,0,0,.43" transform="translate(0 0)"/><path class="b12e8fdc-90eb-47d3-80ec-052d37e9dc04" d="M25.08,5.78a.43.43,0,1,0-.43-.43.42.42,0,0,0,.43.43" transform="translate(0 0)"/><path class="b12e8fdc-90eb-47d3-80ec-052d37e9dc04" d="M30,6a.61.61,0,0,0,.61-.62A.61.61,0,0,0,30,4.74a.61.61,0,0,0-.62.61A.62.62,0,0,0,30,6" transform="translate(0 0)"/><path class="b12e8fdc-90eb-47d3-80ec-052d37e9dc04" d="M34.94,6.09a.74.74,0,1,0,0-1.47.74.74,0,1,0,0,1.47" transform="translate(0 0)"/><path class="b12e8fdc-90eb-47d3-80ec-052d37e9dc04" d="M39.87,6.17a.82.82,0,1,0-.82-.82.82.82,0,0,0,.82.82" transform="translate(0 0)"/><path class="b12e8fdc-90eb-47d3-80ec-052d37e9dc04" d="M44.8,6.22a.87.87,0,1,0-.86-.87.87.87,0,0,0,.86.87" transform="translate(0 0)"/><path class="b12e8fdc-90eb-47d3-80ec-052d37e9dc04" d="M49.73,6.19a.84.84,0,1,0-.84-.84.84.84,0,0,0,.84.84" transform="translate(0 0)"/><path class="b12e8fdc-90eb-47d3-80ec-052d37e9dc04" d="M54.66,6.13a.78.78,0,1,0-.78-.78.77.77,0,0,0,.78.78" transform="translate(0 0)"/><path class="b12e8fdc-90eb-47d3-80ec-052d37e9dc04" d="M59.59,6a.66.66,0,1,0-.66-.66.66.66,0,0,0,.66.66" transform="translate(0 0)"/><path class="b12e8fdc-90eb-47d3-80ec-052d37e9dc04" d="M64.52,5.85a.5.5,0,1,0-.49-.5.49.49,0,0,0,.49.5" transform="translate(0 0)"/><path class="b12e8fdc-90eb-47d3-80ec-052d37e9dc04" d="M69.45,5.65a.3.3,0,0,0,.3-.3.31.31,0,0,0-.3-.3.3.3,0,0,0-.3.3.29.29,0,0,0,.3.3" transform="translate(0 0)"/><path class="b12e8fdc-90eb-47d3-80ec-052d37e9dc04" d="M74.38,5.41s.05,0,.05-.06a0,0,0,0,0-.05,0,.06.06,0,0,0-.06,0,.06.06,0,0,0,.06.06" transform="translate(0 0)"/><path class="b12e8fdc-90eb-47d3-80ec-052d37e9dc04" d="M10.28,10.3l0,0h0v0" transform="translate(0 0)"/><path class="b12e8fdc-90eb-47d3-80ec-052d37e9dc04" d="M15.22,10.58a.3.3,0,0,0,.3-.3.31.31,0,0,0-.61,0,.3.3,0,0,0,.31.3" transform="translate(0 0)"/><path class="b12e8fdc-90eb-47d3-80ec-052d37e9dc04" d="M20.15,10.86a.58.58,0,1,0-.58-.58.58.58,0,0,0,.58.58" transform="translate(0 0)"/><path class="b12e8fdc-90eb-47d3-80ec-052d37e9dc04" d="M25.08,11.09a.81.81,0,1,0-.81-.81.8.8,0,0,0,.81.81" transform="translate(0 0)"/><path class="b12e8fdc-90eb-47d3-80ec-052d37e9dc04" d="M30,11.28a1,1,0,1,0-1-1,1,1,0,0,0,1,1" transform="translate(0 0)"/><path class="b12e8fdc-90eb-47d3-80ec-052d37e9dc04" d="M34.94,11.43a1.15,1.15,0,1,0-1.15-1.15,1.15,1.15,0,0,0,1.15,1.15" transform="translate(0 0)"/><path class="b12e8fdc-90eb-47d3-80ec-052d37e9dc04" d="M39.87,11.53a1.25,1.25,0,1,0-1.25-1.25,1.24,1.24,0,0,0,1.25,1.25" transform="translate(0 0)"/><path class="b12e8fdc-90eb-47d3-80ec-052d37e9dc04" d="M44.8,11.57a1.29,1.29,0,1,0-1.29-1.29,1.28,1.28,0,0,0,1.29,1.29" transform="translate(0 0)"/><path class="b12e8fdc-90eb-47d3-80ec-052d37e9dc04" d="M49.73,11.54a1.26,1.26,0,1,0-1.26-1.26,1.26,1.26,0,0,0,1.26,1.26" transform="translate(0 0)"/><path class="b12e8fdc-90eb-47d3-80ec-052d37e9dc04" d="M54.66,11.47a1.19,1.19,0,1,0-1.19-1.19,1.19,1.19,0,0,0,1.19,1.19" transform="translate(0 0)"/><path class="b12e8fdc-90eb-47d3-80ec-052d37e9dc04" d="M59.59,11.34a1.06,1.06,0,1,0-1.05-1.06,1.05,1.05,0,0,0,1.05,1.06" transform="translate(0 0)"/><path class="b12e8fdc-90eb-47d3-80ec-052d37e9dc04" d="M64.52,11.16a.88.88,0,1,0-.88-.88.87.87,0,0,0,.88.88" transform="translate(0 0)"/><path class="b12e8fdc-90eb-47d3-80ec-052d37e9dc04" d="M69.45,10.94a.66.66,0,1,0-.66-.66.66.66,0,0,0,.66.66" transform="translate(0 0)"/><path class="b12e8fdc-90eb-47d3-80ec-052d37e9dc04" d="M74.38,10.68a.4.4,0,1,0-.4-.4.4.4,0,0,0,.4.4" transform="translate(0 0)"/><path class="b12e8fdc-90eb-47d3-80ec-052d37e9dc04" d="M79.31,10.39a.1.1,0,0,0,.11-.11.11.11,0,0,0-.22,0,.1.1,0,0,0,.11.11" transform="translate(0 0)"/><path class="b12e8fdc-90eb-47d3-80ec-052d37e9dc04" d="M10.28,15.52a.31.31,0,1,0,0-.61.31.31,0,0,0,0,.61" transform="translate(0 0)"/><path class="b12e8fdc-90eb-47d3-80ec-052d37e9dc04" d="M15.22,15.84a.63.63,0,1,0-.63-.62.62.62,0,0,0,.63.62" transform="translate(0 0)"/><path class="b12e8fdc-90eb-47d3-80ec-052d37e9dc04" d="M20.15,16.13a.92.92,0,1,0-.92-.92.92.92,0,0,0,.92.92" transform="translate(0 0)"/><path class="b12e8fdc-90eb-47d3-80ec-052d37e9dc04" d="M25.08,16.39a1.18,1.18,0,1,0-1.18-1.18,1.17,1.17,0,0,0,1.18,1.18" transform="translate(0 0)"/><path class="b12e8fdc-90eb-47d3-80ec-052d37e9dc04" d="M30,16.6a1.39,1.39,0,1,0-1.38-1.38A1.38,1.38,0,0,0,30,16.6" transform="translate(0 0)"/><path class="b12e8fdc-90eb-47d3-80ec-052d37e9dc04" d="M34.94,16.76a1.55,1.55,0,1,0-1.55-1.55,1.54,1.54,0,0,0,1.55,1.55" transform="translate(0 0)"/><path class="b12e8fdc-90eb-47d3-80ec-052d37e9dc04" d="M39.87,16.88a1.67,1.67,0,1,0-1.67-1.66,1.66,1.66,0,0,0,1.67,1.66" transform="translate(0 0)"/><path class="b12e8fdc-90eb-47d3-80ec-052d37e9dc04" d="M44.8,16.92a1.71,1.71,0,1,0-1.71-1.7,1.71,1.71,0,0,0,1.71,1.7" transform="translate(0 0)"/><path class="b12e8fdc-90eb-47d3-80ec-052d37e9dc04" d="M49.73,16.9a1.69,1.69,0,1,0-1.68-1.68,1.68,1.68,0,0,0,1.68,1.68" transform="translate(0 0)"/><path class="b12e8fdc-90eb-47d3-80ec-052d37e9dc04" d="M54.66,16.81a1.6,1.6,0,1,0-1.6-1.6,1.6,1.6,0,0,0,1.6,1.6" transform="translate(0 0)"/><path class="b12e8fdc-90eb-47d3-80ec-052d37e9dc04" d="M59.59,16.66a1.45,1.45,0,1,0-1.45-1.45,1.45,1.45,0,0,0,1.45,1.45" transform="translate(0 0)"/><path class="b12e8fdc-90eb-47d3-80ec-052d37e9dc04" d="M64.52,16.46a1.25,1.25,0,1,0-1.24-1.24,1.24,1.24,0,0,0,1.24,1.24" transform="translate(0 0)"/><path class="b12e8fdc-90eb-47d3-80ec-052d37e9dc04" d="M69.45,16.21a1,1,0,1,0-1-1,1,1,0,0,0,1,1" transform="translate(0 0)"/><path class="b12e8fdc-90eb-47d3-80ec-052d37e9dc04" d="M74.38,15.94a.72.72,0,0,0,.72-.72.72.72,0,1,0-1.44,0,.72.72,0,0,0,.72.72" transform="translate(0 0)"/><path class="b12e8fdc-90eb-47d3-80ec-052d37e9dc04" d="M79.31,15.62a.41.41,0,0,0,.41-.41.41.41,0,0,0-.82,0,.41.41,0,0,0,.41.41" transform="translate(0 0)"/><path class="b12e8fdc-90eb-47d3-80ec-052d37e9dc04" d="M84.24,15.3a.09.09,0,0,0,.08-.08.08.08,0,1,0-.16,0,.09.09,0,0,0,.08.08" transform="translate(0 0)"/><path class="b12e8fdc-90eb-47d3-80ec-052d37e9dc04" d="M5.35,20.36a.22.22,0,1,0,0-.43.21.21,0,0,0-.21.21.21.21,0,0,0,.21.22" transform="translate(0 0)"/><path class="b12e8fdc-90eb-47d3-80ec-052d37e9dc04" d="M10.28,20.72a.58.58,0,1,0-.57-.58.58.58,0,0,0,.57.58" transform="translate(0 0)"/><path class="b12e8fdc-90eb-47d3-80ec-052d37e9dc04" d="M15.22,21.06a.92.92,0,1,0-.92-.91.91.91,0,0,0,.92.91" transform="translate(0 0)"/><path class="b12e8fdc-90eb-47d3-80ec-052d37e9dc04" d="M20.15,21.38a1.23,1.23,0,1,0-1.24-1.23,1.24,1.24,0,0,0,1.24,1.23" transform="translate(0 0)"/><path class="b12e8fdc-90eb-47d3-80ec-052d37e9dc04" d="M25.08,21.65a1.51,1.51,0,1,0-1.51-1.5,1.5,1.5,0,0,0,1.51,1.5" transform="translate(0 0)"/><path class="b12e8fdc-90eb-47d3-80ec-052d37e9dc04" d="M30,21.89a1.75,1.75,0,1,0-1.75-1.75A1.75,1.75,0,0,0,30,21.89" transform="translate(0 0)"/><path class="b12e8fdc-90eb-47d3-80ec-052d37e9dc04" d="M34.94,22.1a2,2,0,1,0-2-2,1.95,1.95,0,0,0,2,2" transform="translate(0 0)"/><path class="b12e8fdc-90eb-47d3-80ec-052d37e9dc04" d="M39.87,22.24a2.1,2.1,0,1,0-2.09-2.09,2.1,2.1,0,0,0,2.09,2.09" transform="translate(0 0)"/><path class="b12e8fdc-90eb-47d3-80ec-052d37e9dc04" d="M44.8,22.28a2.14,2.14,0,1,0-2.13-2.13,2.14,2.14,0,0,0,2.13,2.13" transform="translate(0 0)"/><path class="b12e8fdc-90eb-47d3-80ec-052d37e9dc04" d="M49.73,22.26a2.12,2.12,0,1,0-2.12-2.11,2.11,2.11,0,0,0,2.12,2.11" transform="translate(0 0)"/><path class="b12e8fdc-90eb-47d3-80ec-052d37e9dc04" d="M54.66,22.15a2,2,0,1,0-2-2,2,2,0,0,0,2,2" transform="translate(0 0)"/><path class="b12e8fdc-90eb-47d3-80ec-052d37e9dc04" d="M59.59,22a1.84,1.84,0,1,0-1.83-1.84A1.83,1.83,0,0,0,59.59,22" transform="translate(0 0)"/><path class="b12e8fdc-90eb-47d3-80ec-052d37e9dc04" d="M64.52,21.74a1.6,1.6,0,1,0-1.6-1.6,1.6,1.6,0,0,0,1.6,1.6" transform="translate(0 0)"/><path class="b12e8fdc-90eb-47d3-80ec-052d37e9dc04" d="M69.45,21.47a1.33,1.33,0,1,0-1.33-1.33,1.33,1.33,0,0,0,1.33,1.33" transform="translate(0 0)"/><path class="b12e8fdc-90eb-47d3-80ec-052d37e9dc04" d="M74.38,21.16a1,1,0,1,0-1-1,1,1,0,0,0,1,1" transform="translate(0 0)"/><path class="b12e8fdc-90eb-47d3-80ec-052d37e9dc04" d="M79.31,20.84a.7.7,0,1,0-.7-.7.7.7,0,0,0,.7.7" transform="translate(0 0)"/><path class="b12e8fdc-90eb-47d3-80ec-052d37e9dc04" d="M84.24,20.49a.35.35,0,1,0-.34-.35.35.35,0,0,0,.34.35" transform="translate(0 0)"/><path class="b12e8fdc-90eb-47d3-80ec-052d37e9dc04" d="M.42,25.12a0,0,0,0,0,0,0s0,0,0,0a0,0,0,0,0,0,0,0,0,0,0,0,0,0" transform="translate(0 0)"/><path class="b12e8fdc-90eb-47d3-80ec-052d37e9dc04" d="M5.35,25.5a.43.43,0,1,0-.42-.42.42.42,0,0,0,.42.42" transform="translate(0 0)"/><path class="b12e8fdc-90eb-47d3-80ec-052d37e9dc04" d="M10.28,25.88a.81.81,0,1,0-.8-.8.8.8,0,0,0,.8.8" transform="translate(0 0)"/><path class="b12e8fdc-90eb-47d3-80ec-052d37e9dc04" d="M15.22,26.25A1.18,1.18,0,1,0,14,25.08a1.17,1.17,0,0,0,1.18,1.17" transform="translate(0 0)"/><path class="b12e8fdc-90eb-47d3-80ec-052d37e9dc04" d="M20.15,26.58a1.51,1.51,0,0,0,0-3,1.51,1.51,0,1,0,0,3" transform="translate(0 0)"/><path class="b12e8fdc-90eb-47d3-80ec-052d37e9dc04" d="M25.08,26.91a1.84,1.84,0,1,0-1.84-1.83,1.83,1.83,0,0,0,1.84,1.83" transform="translate(0 0)"/><path class="b12e8fdc-90eb-47d3-80ec-052d37e9dc04" d="M30,27.2a2.12,2.12,0,1,0-2.12-2.12A2.12,2.12,0,0,0,30,27.2" transform="translate(0 0)"/><path class="b12e8fdc-90eb-47d3-80ec-052d37e9dc04" d="M34.94,27.43a2.36,2.36,0,1,0-2.35-2.35,2.35,2.35,0,0,0,2.35,2.35" transform="translate(0 0)"/><path class="b12e8fdc-90eb-47d3-80ec-052d37e9dc04" d="M39.87,27.58a2.51,2.51,0,1,0-2.5-2.51,2.5,2.5,0,0,0,2.5,2.51" transform="translate(0 0)"/><path class="b12e8fdc-90eb-47d3-80ec-052d37e9dc04" d="M44.8,27.65a2.58,2.58,0,1,0-2.57-2.57,2.57,2.57,0,0,0,2.57,2.57" transform="translate(0 0)"/><path class="b12e8fdc-90eb-47d3-80ec-052d37e9dc04" d="M49.73,27.6a2.53,2.53,0,1,0-2.53-2.52,2.52,2.52,0,0,0,2.53,2.52" transform="translate(0 0)"/><path class="b12e8fdc-90eb-47d3-80ec-052d37e9dc04" d="M54.66,27.48a2.41,2.41,0,1,0-2.41-2.4,2.4,2.4,0,0,0,2.41,2.4" transform="translate(0 0)"/><path class="b12e8fdc-90eb-47d3-80ec-052d37e9dc04" d="M59.59,27.28a2.21,2.21,0,1,0-2.2-2.2,2.21,2.21,0,0,0,2.2,2.2" transform="translate(0 0)"/><path class="b12e8fdc-90eb-47d3-80ec-052d37e9dc04" d="M64.52,27a1.93,1.93,0,1,0-1.93-1.92A1.93,1.93,0,0,0,64.52,27" transform="translate(0 0)"/><path class="b12e8fdc-90eb-47d3-80ec-052d37e9dc04" d="M69.45,26.69a1.62,1.62,0,1,0-1.61-1.61,1.61,1.61,0,0,0,1.61,1.61" transform="translate(0 0)"/><path class="b12e8fdc-90eb-47d3-80ec-052d37e9dc04" d="M74.38,26.36a1.29,1.29,0,0,0,0-2.57,1.29,1.29,0,1,0,0,2.57" transform="translate(0 0)"/><path class="b12e8fdc-90eb-47d3-80ec-052d37e9dc04" d="M79.31,26a.93.93,0,1,0-.93-.93.93.93,0,0,0,.93.93" transform="translate(0 0)"/><path class="b12e8fdc-90eb-47d3-80ec-052d37e9dc04" d="M84.24,25.64a.56.56,0,1,0-.56-.56.56.56,0,0,0,.56.56" transform="translate(0 0)"/><path class="b12e8fdc-90eb-47d3-80ec-052d37e9dc04" d="M89.17,25.24a.17.17,0,0,0,.17-.16.18.18,0,0,0-.17-.17.17.17,0,0,0-.16.17.16.16,0,0,0,.16.16" transform="translate(0 0)"/><path class="b12e8fdc-90eb-47d3-80ec-052d37e9dc04" d="M.42,30.21A.2.2,0,0,0,.63,30a.21.21,0,0,0-.21-.21.2.2,0,0,0-.2.21.2.2,0,0,0,.2.2" transform="translate(0 0)"/><path class="b12e8fdc-90eb-47d3-80ec-052d37e9dc04" d="M5.35,30.62A.61.61,0,0,0,6,30a.62.62,0,0,0-.62-.62.61.61,0,0,0-.61.62.61.61,0,0,0,.61.61" transform="translate(0 0)"/><path class="b12e8fdc-90eb-47d3-80ec-052d37e9dc04" d="M10.28,31a1,1,0,1,0-1-1,1,1,0,0,0,1,1" transform="translate(0 0)"/><path class="b12e8fdc-90eb-47d3-80ec-052d37e9dc04" d="M15.22,31.39a1.38,1.38,0,1,0,0-2.76,1.38,1.38,0,1,0,0,2.76" transform="translate(0 0)"/><path class="b12e8fdc-90eb-47d3-80ec-052d37e9dc04" d="M20.15,31.76A1.75,1.75,0,1,0,18.4,30a1.76,1.76,0,0,0,1.75,1.76" transform="translate(0 0)"/><path class="b12e8fdc-90eb-47d3-80ec-052d37e9dc04" d="M25.08,32.12A2.12,2.12,0,1,0,23,30a2.11,2.11,0,0,0,2.12,2.11" transform="translate(0 0)"/><path class="b12e8fdc-90eb-47d3-80ec-052d37e9dc04" d="M30,32.44A2.44,2.44,0,1,0,27.57,30,2.43,2.43,0,0,0,30,32.44" transform="translate(0 0)"/><path class="b12e8fdc-90eb-47d3-80ec-052d37e9dc04" d="M34.94,32.73A2.72,2.72,0,1,0,32.21,30a2.72,2.72,0,0,0,2.73,2.73" transform="translate(0 0)"/><path class="b12e8fdc-90eb-47d3-80ec-052d37e9dc04" d="M39.87,32.92A2.92,2.92,0,1,0,37,30a2.92,2.92,0,0,0,2.91,2.92" transform="translate(0 0)"/><path class="b12e8fdc-90eb-47d3-80ec-052d37e9dc04" d="M44.8,33a3,3,0,1,0-3-3,3,3,0,0,0,3,3" transform="translate(0 0)"/><path class="b12e8fdc-90eb-47d3-80ec-052d37e9dc04" d="M49.73,33a3,3,0,1,0-3-2.95,2.95,2.95,0,0,0,3,2.95" transform="translate(0 0)"/><path class="b12e8fdc-90eb-47d3-80ec-052d37e9dc04" d="M54.66,32.79A2.79,2.79,0,1,0,51.87,30a2.78,2.78,0,0,0,2.79,2.79" transform="translate(0 0)"/><path class="b12e8fdc-90eb-47d3-80ec-052d37e9dc04" d="M59.59,32.54A2.53,2.53,0,1,0,57.06,30a2.53,2.53,0,0,0,2.53,2.53" transform="translate(0 0)"/><path class="b12e8fdc-90eb-47d3-80ec-052d37e9dc04" d="M64.52,32.23A2.23,2.23,0,1,0,62.29,30a2.23,2.23,0,0,0,2.23,2.23" transform="translate(0 0)"/><path class="b12e8fdc-90eb-47d3-80ec-052d37e9dc04" d="M69.45,31.88A1.88,1.88,0,1,0,67.58,30a1.88,1.88,0,0,0,1.87,1.88" transform="translate(0 0)"/><path class="b12e8fdc-90eb-47d3-80ec-052d37e9dc04" d="M74.38,31.51A1.51,1.51,0,1,0,72.88,30a1.5,1.5,0,0,0,1.5,1.51" transform="translate(0 0)"/><path class="b12e8fdc-90eb-47d3-80ec-052d37e9dc04" d="M79.31,31.14A1.14,1.14,0,1,0,78.18,30a1.13,1.13,0,0,0,1.13,1.13" transform="translate(0 0)"/><path class="b12e8fdc-90eb-47d3-80ec-052d37e9dc04" d="M84.24,30.74A.74.74,0,1,0,83.5,30a.74.74,0,0,0,.74.73" transform="translate(0 0)"/><path class="b12e8fdc-90eb-47d3-80ec-052d37e9dc04" d="M89.17,30.35a.34.34,0,0,0,.34-.34.34.34,0,1,0-.68,0,.34.34,0,0,0,.34.34" transform="translate(0 0)"/><path class="b12e8fdc-90eb-47d3-80ec-052d37e9dc04" d="M.42,35.25a.32.32,0,1,0-.31-.31.31.31,0,0,0,.31.31" transform="translate(0 0)"/><path class="b12e8fdc-90eb-47d3-80ec-052d37e9dc04" d="M5.35,35.67a.74.74,0,1,0-.73-.73.74.74,0,0,0,.73.73" transform="translate(0 0)"/><path class="b12e8fdc-90eb-47d3-80ec-052d37e9dc04" d="M10.28,36.08a1.15,1.15,0,1,0-1.14-1.14,1.14,1.14,0,0,0,1.14,1.14" transform="translate(0 0)"/><path class="b12e8fdc-90eb-47d3-80ec-052d37e9dc04" d="M15.22,36.48a1.55,1.55,0,1,0-1.55-1.54,1.54,1.54,0,0,0,1.55,1.54" transform="translate(0 0)"/><path class="b12e8fdc-90eb-47d3-80ec-052d37e9dc04" d="M20.15,36.89a2,2,0,1,0-2-2,1.95,1.95,0,0,0,2,2" transform="translate(0 0)"/><path class="b12e8fdc-90eb-47d3-80ec-052d37e9dc04" d="M25.08,37.29a2.36,2.36,0,1,0-2.36-2.35,2.35,2.35,0,0,0,2.36,2.35" transform="translate(0 0)"/><path class="b12e8fdc-90eb-47d3-80ec-052d37e9dc04" d="M30,37.66a2.72,2.72,0,1,0-2.72-2.72A2.72,2.72,0,0,0,30,37.66" transform="translate(0 0)"/><path class="b12e8fdc-90eb-47d3-80ec-052d37e9dc04" d="M34.94,38a3.05,3.05,0,1,0-3-3.05,3.06,3.06,0,0,0,3,3.05" transform="translate(0 0)"/><path class="b12e8fdc-90eb-47d3-80ec-052d37e9dc04" d="M39.87,38a3.05,3.05,0,1,0-3-3.05,3.06,3.06,0,0,0,3,3.05" transform="translate(0 0)"/><path class="b12e8fdc-90eb-47d3-80ec-052d37e9dc04" d="M44.8,38a3.05,3.05,0,1,0-3-3.05,3.06,3.06,0,0,0,3,3.05" transform="translate(0 0)"/><path class="b12e8fdc-90eb-47d3-80ec-052d37e9dc04" d="M49.73,38a3.05,3.05,0,1,0-3-3.05,3.06,3.06,0,0,0,3,3.05" transform="translate(0 0)"/><path class="b12e8fdc-90eb-47d3-80ec-052d37e9dc04" d="M54.66,38a3.05,3.05,0,1,0-3-3.05,3.06,3.06,0,0,0,3,3.05" transform="translate(0 0)"/><path class="b12e8fdc-90eb-47d3-80ec-052d37e9dc04" d="M59.59,37.77a2.83,2.83,0,1,0-2.83-2.83,2.83,2.83,0,0,0,2.83,2.83" transform="translate(0 0)"/><path class="b12e8fdc-90eb-47d3-80ec-052d37e9dc04" d="M64.52,37.41A2.48,2.48,0,1,0,62,34.94a2.47,2.47,0,0,0,2.48,2.47" transform="translate(0 0)"/><path class="b12e8fdc-90eb-47d3-80ec-052d37e9dc04" d="M69.45,37a2.1,2.1,0,1,0-2.09-2.09A2.09,2.09,0,0,0,69.45,37" transform="translate(0 0)"/><path class="b12e8fdc-90eb-47d3-80ec-052d37e9dc04" d="M74.38,36.62a1.69,1.69,0,1,0-1.68-1.68,1.68,1.68,0,0,0,1.68,1.68" transform="translate(0 0)"/><path class="b12e8fdc-90eb-47d3-80ec-052d37e9dc04" d="M79.31,36.22A1.29,1.29,0,1,0,78,34.94a1.28,1.28,0,0,0,1.28,1.28" transform="translate(0 0)"/><path class="b12e8fdc-90eb-47d3-80ec-052d37e9dc04" d="M84.24,35.81a.88.88,0,1,0-.87-.87.87.87,0,0,0,.87.87" transform="translate(0 0)"/><path class="b12e8fdc-90eb-47d3-80ec-052d37e9dc04" d="M89.17,35.4a.47.47,0,1,0,0-.93.47.47,0,0,0,0,.93" transform="translate(0 0)"/><path class="b12e8fdc-90eb-47d3-80ec-052d37e9dc04" d="M.42,40.26a.39.39,0,0,0,.4-.39.4.4,0,0,0-.4-.4.39.39,0,0,0-.39.4.38.38,0,0,0,.39.39" transform="translate(0 0)"/><path class="b12e8fdc-90eb-47d3-80ec-052d37e9dc04" d="M5.35,40.69a.82.82,0,1,0-.82-.82.82.82,0,0,0,.82.82" transform="translate(0 0)"/><path class="b12e8fdc-90eb-47d3-80ec-052d37e9dc04" d="M10.28,41.11A1.25,1.25,0,1,0,9,39.87a1.25,1.25,0,0,0,1.24,1.24" transform="translate(0 0)"/><path class="b12e8fdc-90eb-47d3-80ec-052d37e9dc04" d="M15.22,41.53a1.67,1.67,0,1,0-1.67-1.66,1.66,1.66,0,0,0,1.67,1.66" transform="translate(0 0)"/><path class="b12e8fdc-90eb-47d3-80ec-052d37e9dc04" d="M20.15,42a2.09,2.09,0,1,0-2.1-2.09A2.1,2.1,0,0,0,20.15,42" transform="translate(0 0)"/><path class="b12e8fdc-90eb-47d3-80ec-052d37e9dc04" d="M25.08,42.37a2.5,2.5,0,1,0-2.51-2.5,2.5,2.5,0,0,0,2.51,2.5" transform="translate(0 0)"/><path class="b12e8fdc-90eb-47d3-80ec-052d37e9dc04" d="M30,42.78a2.91,2.91,0,1,0-2.92-2.91A2.91,2.91,0,0,0,30,42.78" transform="translate(0 0)"/><path class="b12e8fdc-90eb-47d3-80ec-052d37e9dc04" d="M34.94,42.92a3,3,0,1,0-3-3.05,3.06,3.06,0,0,0,3,3.05" transform="translate(0 0)"/><path class="b12e8fdc-90eb-47d3-80ec-052d37e9dc04" d="M39.87,42.92a3,3,0,1,0-3-3.05,3.06,3.06,0,0,0,3,3.05" transform="translate(0 0)"/><path class="b12e8fdc-90eb-47d3-80ec-052d37e9dc04" d="M44.8,42.92a3,3,0,1,0-3-3.05,3.06,3.06,0,0,0,3,3.05" transform="translate(0 0)"/><path class="b12e8fdc-90eb-47d3-80ec-052d37e9dc04" d="M49.73,42.92a3,3,0,1,0-3-3.05,3.06,3.06,0,0,0,3,3.05" transform="translate(0 0)"/><path class="b12e8fdc-90eb-47d3-80ec-052d37e9dc04" d="M54.66,42.92a3,3,0,1,0-3-3.05,3.06,3.06,0,0,0,3,3.05" transform="translate(0 0)"/><path class="b12e8fdc-90eb-47d3-80ec-052d37e9dc04" d="M59.59,42.92a3,3,0,1,0-3.05-3.05,3.06,3.06,0,0,0,3.05,3.05" transform="translate(0 0)"/><path class="b12e8fdc-90eb-47d3-80ec-052d37e9dc04" d="M64.52,42.5a2.64,2.64,0,1,0-2.64-2.63,2.64,2.64,0,0,0,2.64,2.63" transform="translate(0 0)"/><path class="b12e8fdc-90eb-47d3-80ec-052d37e9dc04" d="M69.45,42.1a2.23,2.23,0,1,0-2.23-2.23,2.23,2.23,0,0,0,2.23,2.23" transform="translate(0 0)"/><path class="b12e8fdc-90eb-47d3-80ec-052d37e9dc04" d="M74.38,41.67a1.81,1.81,0,1,0-1.81-1.8,1.8,1.8,0,0,0,1.81,1.8" transform="translate(0 0)"/><path class="b12e8fdc-90eb-47d3-80ec-052d37e9dc04" d="M79.31,41.25a1.38,1.38,0,1,0-1.38-1.38,1.38,1.38,0,0,0,1.38,1.38" transform="translate(0 0)"/><path class="b12e8fdc-90eb-47d3-80ec-052d37e9dc04" d="M84.24,40.84a1,1,0,1,0-1-1,1,1,0,0,0,1,1" transform="translate(0 0)"/><path class="b12e8fdc-90eb-47d3-80ec-052d37e9dc04" d="M89.17,40.41a.55.55,0,1,0,0-1.09.55.55,0,0,0,0,1.09" transform="translate(0 0)"/><path class="b12e8fdc-90eb-47d3-80ec-052d37e9dc04" d="M.42,45.22A.43.43,0,1,0,0,44.8a.42.42,0,0,0,.42.42" transform="translate(0 0)"/><path class="b12e8fdc-90eb-47d3-80ec-052d37e9dc04" d="M5.35,45.66a.86.86,0,1,0-.86-.86.86.86,0,0,0,.86.86" transform="translate(0 0)"/><path class="b12e8fdc-90eb-47d3-80ec-052d37e9dc04" d="M10.28,46.08A1.29,1.29,0,1,0,9,44.8a1.28,1.28,0,0,0,1.28,1.28" transform="translate(0 0)"/><path class="b12e8fdc-90eb-47d3-80ec-052d37e9dc04" d="M15.22,46.51a1.71,1.71,0,1,0-1.71-1.71,1.71,1.71,0,0,0,1.71,1.71" transform="translate(0 0)"/><path class="b12e8fdc-90eb-47d3-80ec-052d37e9dc04" d="M20.15,46.93A2.14,2.14,0,1,0,18,44.8a2.14,2.14,0,0,0,2.14,2.13" transform="translate(0 0)"/><path class="b12e8fdc-90eb-47d3-80ec-052d37e9dc04" d="M25.08,47.37a2.57,2.57,0,1,0-2.57-2.57,2.57,2.57,0,0,0,2.57,2.57" transform="translate(0 0)"/><path class="b12e8fdc-90eb-47d3-80ec-052d37e9dc04" d="M30,47.79a3,3,0,1,0-3-3,3,3,0,0,0,3,3" transform="translate(0 0)"/><path class="b12e8fdc-90eb-47d3-80ec-052d37e9dc04" d="M34.94,47.85a3.05,3.05,0,1,0-3-3.05,3.06,3.06,0,0,0,3,3.05" transform="translate(0 0)"/><path class="b12e8fdc-90eb-47d3-80ec-052d37e9dc04" d="M39.87,47.85a3.05,3.05,0,1,0-3-3.05,3.06,3.06,0,0,0,3,3.05" transform="translate(0 0)"/><path class="b12e8fdc-90eb-47d3-80ec-052d37e9dc04" d="M44.8,47.85a3.05,3.05,0,1,0-3-3.05,3.06,3.06,0,0,0,3,3.05" transform="translate(0 0)"/><path class="b12e8fdc-90eb-47d3-80ec-052d37e9dc04" d="M49.73,47.85a3.05,3.05,0,1,0-3-3.05,3.06,3.06,0,0,0,3,3.05" transform="translate(0 0)"/><path class="b12e8fdc-90eb-47d3-80ec-052d37e9dc04" d="M54.66,47.85a3.05,3.05,0,1,0-3-3.05,3.06,3.06,0,0,0,3,3.05" transform="translate(0 0)"/><path class="b12e8fdc-90eb-47d3-80ec-052d37e9dc04" d="M59.59,47.85a3.05,3.05,0,1,0-3.05-3.05,3.06,3.06,0,0,0,3.05,3.05" transform="translate(0 0)"/><path class="b12e8fdc-90eb-47d3-80ec-052d37e9dc04" d="M64.52,47.52A2.72,2.72,0,1,0,61.8,44.8a2.72,2.72,0,0,0,2.72,2.72" transform="translate(0 0)"/><path class="b12e8fdc-90eb-47d3-80ec-052d37e9dc04" d="M69.45,47.08a2.29,2.29,0,1,0-2.28-2.28,2.28,2.28,0,0,0,2.28,2.28" transform="translate(0 0)"/><path class="b12e8fdc-90eb-47d3-80ec-052d37e9dc04" d="M74.38,46.66a1.86,1.86,0,1,0-1.86-1.86,1.86,1.86,0,0,0,1.86,1.86" transform="translate(0 0)"/><path class="b12e8fdc-90eb-47d3-80ec-052d37e9dc04" d="M79.31,46.22a1.42,1.42,0,1,0-1.42-1.42,1.42,1.42,0,0,0,1.42,1.42" transform="translate(0 0)"/><path class="b12e8fdc-90eb-47d3-80ec-052d37e9dc04" d="M84.24,45.79a1,1,0,1,0-1-1,1,1,0,0,0,1,1" transform="translate(0 0)"/><path class="b12e8fdc-90eb-47d3-80ec-052d37e9dc04" d="M89.17,45.37a.58.58,0,1,0-.57-.57.58.58,0,0,0,.57.57" transform="translate(0 0)"/><path class="b12e8fdc-90eb-47d3-80ec-052d37e9dc04" d="M.42,50.14a.42.42,0,0,0,.42-.41.42.42,0,0,0-.83,0,.42.42,0,0,0,.41.41" transform="translate(0 0)"/><path class="b12e8fdc-90eb-47d3-80ec-052d37e9dc04" d="M5.35,50.56a.83.83,0,0,0,.84-.83.84.84,0,1,0-1.67,0,.83.83,0,0,0,.83.83" transform="translate(0 0)"/><path class="b12e8fdc-90eb-47d3-80ec-052d37e9dc04" d="M10.28,51A1.26,1.26,0,1,0,9,49.73,1.25,1.25,0,0,0,10.28,51" transform="translate(0 0)"/><path class="b12e8fdc-90eb-47d3-80ec-052d37e9dc04" d="M15.22,51.41a1.68,1.68,0,1,0-1.69-1.68,1.68,1.68,0,0,0,1.69,1.68" transform="translate(0 0)"/><path class="b12e8fdc-90eb-47d3-80ec-052d37e9dc04" d="M20.15,51.85A2.12,2.12,0,1,0,18,49.73a2.12,2.12,0,0,0,2.12,2.12" transform="translate(0 0)"/><path class="b12e8fdc-90eb-47d3-80ec-052d37e9dc04" d="M25.08,52.26a2.53,2.53,0,1,0-2.53-2.53,2.54,2.54,0,0,0,2.53,2.53" transform="translate(0 0)"/><path class="b12e8fdc-90eb-47d3-80ec-052d37e9dc04" d="M30,52.68a3,3,0,1,0-3-3,2.95,2.95,0,0,0,3,3" transform="translate(0 0)"/><path class="b12e8fdc-90eb-47d3-80ec-052d37e9dc04" d="M34.94,52.78a3,3,0,1,0-3-3.05,3.06,3.06,0,0,0,3,3.05" transform="translate(0 0)"/><path class="b12e8fdc-90eb-47d3-80ec-052d37e9dc04" d="M39.87,52.78a3,3,0,1,0-3-3.05,3.06,3.06,0,0,0,3,3.05" transform="translate(0 0)"/><path class="b12e8fdc-90eb-47d3-80ec-052d37e9dc04" d="M44.8,52.78a3,3,0,1,0-3-3.05,3.06,3.06,0,0,0,3,3.05" transform="translate(0 0)"/><path class="b12e8fdc-90eb-47d3-80ec-052d37e9dc04" d="M49.73,52.78a3,3,0,1,0-3-3.05,3.06,3.06,0,0,0,3,3.05" transform="translate(0 0)"/><path class="b12e8fdc-90eb-47d3-80ec-052d37e9dc04" d="M54.66,52.78a3,3,0,1,0-3-3.05,3.06,3.06,0,0,0,3,3.05" transform="translate(0 0)"/><path class="b12e8fdc-90eb-47d3-80ec-052d37e9dc04" d="M59.59,52.78a3,3,0,1,0-3.05-3.05,3.06,3.06,0,0,0,3.05,3.05" transform="translate(0 0)"/><path class="b12e8fdc-90eb-47d3-80ec-052d37e9dc04" d="M64.52,52.41a2.68,2.68,0,1,0-2.68-2.68,2.68,2.68,0,0,0,2.68,2.68" transform="translate(0 0)"/><path class="b12e8fdc-90eb-47d3-80ec-052d37e9dc04" d="M69.45,52a2.26,2.26,0,1,0-2.26-2.25A2.26,2.26,0,0,0,69.45,52" transform="translate(0 0)"/><path class="b12e8fdc-90eb-47d3-80ec-052d37e9dc04" d="M74.38,51.56a1.84,1.84,0,1,0-1.83-1.83,1.83,1.83,0,0,0,1.83,1.83" transform="translate(0 0)"/><path class="b12e8fdc-90eb-47d3-80ec-052d37e9dc04" d="M79.31,51.14a1.41,1.41,0,1,0-1.41-1.41,1.41,1.41,0,0,0,1.41,1.41" transform="translate(0 0)"/><path class="b12e8fdc-90eb-47d3-80ec-052d37e9dc04" d="M84.24,50.71a1,1,0,1,0-1-1,1,1,0,0,0,1,1" transform="translate(0 0)"/><path class="b12e8fdc-90eb-47d3-80ec-052d37e9dc04" d="M89.17,50.29a.56.56,0,1,0-.56-.56.56.56,0,0,0,.56.56" transform="translate(0 0)"/><path class="b12e8fdc-90eb-47d3-80ec-052d37e9dc04" d="M.42,55a.36.36,0,1,0-.35-.35A.36.36,0,0,0,.42,55" transform="translate(0 0)"/><path class="b12e8fdc-90eb-47d3-80ec-052d37e9dc04" d="M5.35,55.44a.78.78,0,1,0,0-1.56.78.78,0,0,0,0,1.56" transform="translate(0 0)"/><path class="b12e8fdc-90eb-47d3-80ec-052d37e9dc04" d="M10.28,55.85a1.19,1.19,0,1,0-1.19-1.19,1.19,1.19,0,0,0,1.19,1.19" transform="translate(0 0)"/><path class="b12e8fdc-90eb-47d3-80ec-052d37e9dc04" d="M15.22,56.26a1.6,1.6,0,1,0-1.6-1.6,1.6,1.6,0,0,0,1.6,1.6" transform="translate(0 0)"/><path class="b12e8fdc-90eb-47d3-80ec-052d37e9dc04" d="M20.15,56.67a2,2,0,1,0-2-2,2,2,0,0,0,2,2" transform="translate(0 0)"/><path class="b12e8fdc-90eb-47d3-80ec-052d37e9dc04" d="M25.08,57.06a2.41,2.41,0,1,0-2.41-2.4,2.39,2.39,0,0,0,2.41,2.4" transform="translate(0 0)"/><path class="b12e8fdc-90eb-47d3-80ec-052d37e9dc04" d="M30,57.45a2.79,2.79,0,1,0-2.79-2.79A2.79,2.79,0,0,0,30,57.45" transform="translate(0 0)"/><path class="b12e8fdc-90eb-47d3-80ec-052d37e9dc04" d="M34.94,57.71a3.05,3.05,0,1,0-3-3.05,3.06,3.06,0,0,0,3,3.05" transform="translate(0 0)"/><path class="b12e8fdc-90eb-47d3-80ec-052d37e9dc04" d="M39.87,57.71a3.05,3.05,0,1,0-3-3.05,3.06,3.06,0,0,0,3,3.05" transform="translate(0 0)"/><path class="b12e8fdc-90eb-47d3-80ec-052d37e9dc04" d="M44.8,57.71a3.05,3.05,0,1,0-3-3.05,3.06,3.06,0,0,0,3,3.05" transform="translate(0 0)"/><path class="b12e8fdc-90eb-47d3-80ec-052d37e9dc04" d="M49.73,57.71a3.05,3.05,0,1,0-3-3.05,3.06,3.06,0,0,0,3,3.05" transform="translate(0 0)"/><path class="b12e8fdc-90eb-47d3-80ec-052d37e9dc04" d="M54.66,57.71a3.05,3.05,0,1,0-3-3.05,3.06,3.06,0,0,0,3,3.05" transform="translate(0 0)"/><path class="b12e8fdc-90eb-47d3-80ec-052d37e9dc04" d="M59.59,57.57a2.91,2.91,0,1,0-2.91-2.91,2.91,2.91,0,0,0,2.91,2.91" transform="translate(0 0)"/><path class="b12e8fdc-90eb-47d3-80ec-052d37e9dc04" d="M64.52,57.19A2.53,2.53,0,1,0,62,54.66a2.53,2.53,0,0,0,2.53,2.53" transform="translate(0 0)"/><path class="b12e8fdc-90eb-47d3-80ec-052d37e9dc04" d="M69.45,56.79a2.13,2.13,0,1,0-2.13-2.13,2.13,2.13,0,0,0,2.13,2.13" transform="translate(0 0)"/><path class="b12e8fdc-90eb-47d3-80ec-052d37e9dc04" d="M74.38,56.39a1.74,1.74,0,1,0-1.74-1.73,1.73,1.73,0,0,0,1.74,1.73" transform="translate(0 0)"/><path class="b12e8fdc-90eb-47d3-80ec-052d37e9dc04" d="M79.31,56A1.33,1.33,0,1,0,78,54.66,1.33,1.33,0,0,0,79.31,56" transform="translate(0 0)"/><path class="b12e8fdc-90eb-47d3-80ec-052d37e9dc04" d="M84.24,55.57a.92.92,0,1,0-.92-.91.92.92,0,0,0,.92.91" transform="translate(0 0)"/><path class="b12e8fdc-90eb-47d3-80ec-052d37e9dc04" d="M89.17,55.15a.49.49,0,1,0-.49-.49.49.49,0,0,0,.49.49" transform="translate(0 0)"/><path class="b12e8fdc-90eb-47d3-80ec-052d37e9dc04" d="M.42,59.83a.25.25,0,1,0-.24-.24.25.25,0,0,0,.24.24" transform="translate(0 0)"/><path class="b12e8fdc-90eb-47d3-80ec-052d37e9dc04" d="M5.35,60.24a.66.66,0,1,0-.65-.65.65.65,0,0,0,.65.65" transform="translate(0 0)"/><path class="b12e8fdc-90eb-47d3-80ec-052d37e9dc04" d="M10.28,60.64a1.06,1.06,0,1,0-1-1,1.05,1.05,0,0,0,1,1" transform="translate(0 0)"/><path class="b12e8fdc-90eb-47d3-80ec-052d37e9dc04" d="M15.22,61a1.45,1.45,0,0,0,0-2.9,1.45,1.45,0,1,0,0,2.9" transform="translate(0 0)"/><path class="b12e8fdc-90eb-47d3-80ec-052d37e9dc04" d="M20.15,61.42a1.83,1.83,0,1,0-1.84-1.83,1.83,1.83,0,0,0,1.84,1.83" transform="translate(0 0)"/><path class="b12e8fdc-90eb-47d3-80ec-052d37e9dc04" d="M25.08,61.79a2.2,2.2,0,1,0-2.21-2.2,2.21,2.21,0,0,0,2.21,2.2" transform="translate(0 0)"/><path class="b12e8fdc-90eb-47d3-80ec-052d37e9dc04" d="M30,62.12a2.53,2.53,0,1,0-2.53-2.53A2.54,2.54,0,0,0,30,62.12" transform="translate(0 0)"/><path class="b12e8fdc-90eb-47d3-80ec-052d37e9dc04" d="M34.94,62.42a2.83,2.83,0,1,0-2.83-2.83,2.83,2.83,0,0,0,2.83,2.83" transform="translate(0 0)"/><path class="b12e8fdc-90eb-47d3-80ec-052d37e9dc04" d="M39.87,62.64a3,3,0,1,0-3-3,3.06,3.06,0,0,0,3,3" transform="translate(0 0)"/><path class="b12e8fdc-90eb-47d3-80ec-052d37e9dc04" d="M44.8,62.64a3,3,0,1,0-3-3,3.06,3.06,0,0,0,3,3" transform="translate(0 0)"/><path class="b12e8fdc-90eb-47d3-80ec-052d37e9dc04" d="M49.73,62.64a3,3,0,1,0-3-3,3.06,3.06,0,0,0,3,3" transform="translate(0 0)"/><path class="b12e8fdc-90eb-47d3-80ec-052d37e9dc04" d="M54.66,62.5a2.91,2.91,0,1,0-2.91-2.91,2.91,2.91,0,0,0,2.91,2.91" transform="translate(0 0)"/><path class="b12e8fdc-90eb-47d3-80ec-052d37e9dc04" d="M59.59,62.23A2.64,2.64,0,1,0,57,59.59a2.65,2.65,0,0,0,2.64,2.64" transform="translate(0 0)"/><path class="b12e8fdc-90eb-47d3-80ec-052d37e9dc04" d="M64.52,61.9a2.31,2.31,0,1,0-2.31-2.31,2.31,2.31,0,0,0,2.31,2.31" transform="translate(0 0)"/><path class="b12e8fdc-90eb-47d3-80ec-052d37e9dc04" d="M69.45,61.54a2,2,0,1,0-2-1.95,2,2,0,0,0,2,1.95" transform="translate(0 0)"/><path class="b12e8fdc-90eb-47d3-80ec-052d37e9dc04" d="M74.38,61.16a1.57,1.57,0,1,0-1.57-1.57,1.57,1.57,0,0,0,1.57,1.57" transform="translate(0 0)"/><path class="b12e8fdc-90eb-47d3-80ec-052d37e9dc04" d="M79.31,60.78a1.19,1.19,0,1,0-1.19-1.19,1.19,1.19,0,0,0,1.19,1.19" transform="translate(0 0)"/><path class="b12e8fdc-90eb-47d3-80ec-052d37e9dc04" d="M84.24,60.38a.79.79,0,1,0-.79-.79.79.79,0,0,0,.79.79" transform="translate(0 0)"/><path class="b12e8fdc-90eb-47d3-80ec-052d37e9dc04" d="M89.17,60a.38.38,0,0,0,.38-.38.38.38,0,1,0-.76,0,.38.38,0,0,0,.38.38" transform="translate(0 0)"/><path class="b12e8fdc-90eb-47d3-80ec-052d37e9dc04" d="M.42,64.61a.09.09,0,0,0,.1-.09.1.1,0,0,0-.1-.1.1.1,0,0,0-.09.1.09.09,0,0,0,.09.09" transform="translate(0 0)"/><path class="b12e8fdc-90eb-47d3-80ec-052d37e9dc04" d="M5.35,65a.49.49,0,1,0-.49-.49.49.49,0,0,0,.49.49" transform="translate(0 0)"/><path class="b12e8fdc-90eb-47d3-80ec-052d37e9dc04" d="M10.28,65.39a.88.88,0,1,0-.87-.87.87.87,0,0,0,.87.87" transform="translate(0 0)"/><path class="b12e8fdc-90eb-47d3-80ec-052d37e9dc04" d="M15.22,65.76A1.25,1.25,0,1,0,14,64.52a1.25,1.25,0,0,0,1.25,1.24" transform="translate(0 0)"/><path class="b12e8fdc-90eb-47d3-80ec-052d37e9dc04" d="M20.15,66.12a1.6,1.6,0,1,0-1.6-1.6,1.6,1.6,0,0,0,1.6,1.6" transform="translate(0 0)"/><path class="b12e8fdc-90eb-47d3-80ec-052d37e9dc04" d="M25.08,66.45a1.93,1.93,0,1,0-1.93-1.93,1.94,1.94,0,0,0,1.93,1.93" transform="translate(0 0)"/><path class="b12e8fdc-90eb-47d3-80ec-052d37e9dc04" d="M30,66.75a2.23,2.23,0,1,0-2.23-2.23A2.22,2.22,0,0,0,30,66.75" transform="translate(0 0)"/><path class="b12e8fdc-90eb-47d3-80ec-052d37e9dc04" d="M34.94,67a2.48,2.48,0,1,0-2.48-2.47A2.48,2.48,0,0,0,34.94,67" transform="translate(0 0)"/><path class="b12e8fdc-90eb-47d3-80ec-052d37e9dc04" d="M39.87,67.16a2.64,2.64,0,1,0-2.64-2.64,2.64,2.64,0,0,0,2.64,2.64" transform="translate(0 0)"/><path class="b12e8fdc-90eb-47d3-80ec-052d37e9dc04" d="M44.8,67.24a2.72,2.72,0,1,0-2.72-2.72,2.72,2.72,0,0,0,2.72,2.72" transform="translate(0 0)"/><path class="b12e8fdc-90eb-47d3-80ec-052d37e9dc04" d="M49.73,67.2a2.68,2.68,0,1,0-2.68-2.68,2.68,2.68,0,0,0,2.68,2.68" transform="translate(0 0)"/><path class="b12e8fdc-90eb-47d3-80ec-052d37e9dc04" d="M54.66,67.05a2.53,2.53,0,1,0-2.53-2.53,2.53,2.53,0,0,0,2.53,2.53" transform="translate(0 0)"/><path class="b12e8fdc-90eb-47d3-80ec-052d37e9dc04" d="M59.59,66.83a2.31,2.31,0,1,0-2.31-2.31,2.31,2.31,0,0,0,2.31,2.31" transform="translate(0 0)"/><path class="b12e8fdc-90eb-47d3-80ec-052d37e9dc04" d="M64.52,66.54a2,2,0,1,0-2-2,2,2,0,0,0,2,2" transform="translate(0 0)"/><path class="b12e8fdc-90eb-47d3-80ec-052d37e9dc04" d="M69.45,66.23a1.71,1.71,0,1,0-1.71-1.71,1.72,1.72,0,0,0,1.71,1.71" transform="translate(0 0)"/><path class="b12e8fdc-90eb-47d3-80ec-052d37e9dc04" d="M74.38,65.89A1.37,1.37,0,1,0,73,64.52a1.38,1.38,0,0,0,1.37,1.37" transform="translate(0 0)"/><path class="b12e8fdc-90eb-47d3-80ec-052d37e9dc04" d="M79.31,65.52a1,1,0,1,0-1-1,1,1,0,0,0,1,1" transform="translate(0 0)"/><path class="b12e8fdc-90eb-47d3-80ec-052d37e9dc04" d="M84.24,65.15a.63.63,0,1,0-.63-.63.63.63,0,0,0,.63.63" transform="translate(0 0)"/><path class="b12e8fdc-90eb-47d3-80ec-052d37e9dc04" d="M89.17,64.75a.23.23,0,1,0,0-.46.23.23,0,0,0,0,.46" transform="translate(0 0)"/><path class="b12e8fdc-90eb-47d3-80ec-052d37e9dc04" d="M5.35,69.75a.3.3,0,1,0-.3-.3.3.3,0,0,0,.3.3" transform="translate(0 0)"/><path class="b12e8fdc-90eb-47d3-80ec-052d37e9dc04" d="M10.28,70.1a.65.65,0,0,0,.66-.65.66.66,0,1,0-1.31,0,.65.65,0,0,0,.65.65" transform="translate(0 0)"/><path class="b12e8fdc-90eb-47d3-80ec-052d37e9dc04" d="M15.22,70.45a1,1,0,1,0-1-1,1,1,0,0,0,1,1" transform="translate(0 0)"/><path class="b12e8fdc-90eb-47d3-80ec-052d37e9dc04" d="M20.15,70.78a1.33,1.33,0,1,0-1.33-1.33,1.33,1.33,0,0,0,1.33,1.33" transform="translate(0 0)"/><path class="b12e8fdc-90eb-47d3-80ec-052d37e9dc04" d="M25.08,71.06a1.61,1.61,0,1,0-1.62-1.61,1.61,1.61,0,0,0,1.62,1.61" transform="translate(0 0)"/><path class="b12e8fdc-90eb-47d3-80ec-052d37e9dc04" d="M30,71.32a1.87,1.87,0,1,0-1.88-1.87A1.87,1.87,0,0,0,30,71.32" transform="translate(0 0)"/><path class="b12e8fdc-90eb-47d3-80ec-052d37e9dc04" d="M34.94,71.54a2.09,2.09,0,1,0-2.09-2.09,2.1,2.1,0,0,0,2.09,2.09" transform="translate(0 0)"/><path class="b12e8fdc-90eb-47d3-80ec-052d37e9dc04" d="M39.87,71.68a2.23,2.23,0,1,0-2.23-2.23,2.22,2.22,0,0,0,2.23,2.23" transform="translate(0 0)"/><path class="b12e8fdc-90eb-47d3-80ec-052d37e9dc04" d="M44.8,71.73a2.28,2.28,0,1,0-2.29-2.28,2.28,2.28,0,0,0,2.29,2.28" transform="translate(0 0)"/><path class="b12e8fdc-90eb-47d3-80ec-052d37e9dc04" d="M49.73,71.7a2.26,2.26,0,1,0-2.26-2.25,2.25,2.25,0,0,0,2.26,2.25" transform="translate(0 0)"/><path class="b12e8fdc-90eb-47d3-80ec-052d37e9dc04" d="M54.66,71.58a2.13,2.13,0,1,0-2.14-2.13,2.13,2.13,0,0,0,2.14,2.13" transform="translate(0 0)"/><path class="b12e8fdc-90eb-47d3-80ec-052d37e9dc04" d="M59.59,71.4a2,2,0,1,0-2-2,2,2,0,0,0,2,2" transform="translate(0 0)"/><path class="b12e8fdc-90eb-47d3-80ec-052d37e9dc04" d="M64.52,71.16a1.71,1.71,0,1,0-1.71-1.71,1.72,1.72,0,0,0,1.71,1.71" transform="translate(0 0)"/><path class="b12e8fdc-90eb-47d3-80ec-052d37e9dc04" d="M69.45,70.87A1.42,1.42,0,1,0,68,69.45a1.43,1.43,0,0,0,1.42,1.42" transform="translate(0 0)"/><path class="b12e8fdc-90eb-47d3-80ec-052d37e9dc04" d="M74.38,70.56a1.11,1.11,0,1,0-1.11-1.11,1.11,1.11,0,0,0,1.11,1.11" transform="translate(0 0)"/><path class="b12e8fdc-90eb-47d3-80ec-052d37e9dc04" d="M79.31,70.23a.78.78,0,1,0-.78-.78.78.78,0,0,0,.78.78" transform="translate(0 0)"/><path class="b12e8fdc-90eb-47d3-80ec-052d37e9dc04" d="M84.24,69.86a.41.41,0,1,0-.41-.41.41.41,0,0,0,.41.41" transform="translate(0 0)"/><path class="b12e8fdc-90eb-47d3-80ec-052d37e9dc04" d="M89.17,69.49a0,0,0,1,0,0-.08,0,0,0,0,0,0,.08,0,0,0,0,0,0,0" transform="translate(0 0)"/><path class="b12e8fdc-90eb-47d3-80ec-052d37e9dc04" d="M5.35,74.43a.06.06,0,0,0,.06-.05.06.06,0,0,0-.06-.06.06.06,0,0,0,0,.06,0,0,0,0,0,0,.05" transform="translate(0 0)"/><path class="b12e8fdc-90eb-47d3-80ec-052d37e9dc04" d="M10.28,74.77a.39.39,0,0,0,.4-.39.4.4,0,1,0-.79,0,.39.39,0,0,0,.39.39" transform="translate(0 0)"/><path class="b12e8fdc-90eb-47d3-80ec-052d37e9dc04" d="M15.22,75.1a.72.72,0,0,0,.72-.72.73.73,0,1,0-.72.72" transform="translate(0 0)"/><path class="b12e8fdc-90eb-47d3-80ec-052d37e9dc04" d="M20.15,75.39a1,1,0,1,0-1-1,1,1,0,0,0,1,1" transform="translate(0 0)"/><path class="b12e8fdc-90eb-47d3-80ec-052d37e9dc04" d="M25.08,75.66a1.29,1.29,0,0,0,0-2.57,1.29,1.29,0,1,0,0,2.57" transform="translate(0 0)"/><path class="b12e8fdc-90eb-47d3-80ec-052d37e9dc04" d="M30,75.88a1.51,1.51,0,0,0,0-3,1.51,1.51,0,1,0,0,3" transform="translate(0 0)"/><path class="b12e8fdc-90eb-47d3-80ec-052d37e9dc04" d="M34.94,76.06a1.68,1.68,0,1,0-1.69-1.68,1.68,1.68,0,0,0,1.69,1.68" transform="translate(0 0)"/><path class="b12e8fdc-90eb-47d3-80ec-052d37e9dc04" d="M39.87,76.18a1.81,1.81,0,1,0-1.81-1.8,1.8,1.8,0,0,0,1.81,1.8" transform="translate(0 0)"/><path class="b12e8fdc-90eb-47d3-80ec-052d37e9dc04" d="M44.8,76.24a1.86,1.86,0,1,0-1.86-1.86,1.86,1.86,0,0,0,1.86,1.86" transform="translate(0 0)"/><path class="b12e8fdc-90eb-47d3-80ec-052d37e9dc04" d="M49.73,76.21a1.83,1.83,0,1,0-1.83-1.83,1.83,1.83,0,0,0,1.83,1.83" transform="translate(0 0)"/><path class="b12e8fdc-90eb-47d3-80ec-052d37e9dc04" d="M54.66,76.12a1.74,1.74,0,1,0-1.74-1.74,1.73,1.73,0,0,0,1.74,1.74" transform="translate(0 0)"/><path class="b12e8fdc-90eb-47d3-80ec-052d37e9dc04" d="M59.59,76A1.57,1.57,0,1,0,58,74.38,1.57,1.57,0,0,0,59.59,76" transform="translate(0 0)"/><path class="b12e8fdc-90eb-47d3-80ec-052d37e9dc04" d="M64.52,75.75a1.37,1.37,0,1,0-1.37-1.37,1.38,1.38,0,0,0,1.37,1.37" transform="translate(0 0)"/><path class="b12e8fdc-90eb-47d3-80ec-052d37e9dc04" d="M69.45,75.49a1.11,1.11,0,1,0-1.11-1.11,1.11,1.11,0,0,0,1.11,1.11" transform="translate(0 0)"/><path class="b12e8fdc-90eb-47d3-80ec-052d37e9dc04" d="M74.38,75.2a.82.82,0,1,0-.82-.82.82.82,0,0,0,.82.82" transform="translate(0 0)"/><path class="b12e8fdc-90eb-47d3-80ec-052d37e9dc04" d="M79.31,74.89a.51.51,0,1,0-.51-.51.51.51,0,0,0,.51.51" transform="translate(0 0)"/><path class="b12e8fdc-90eb-47d3-80ec-052d37e9dc04" d="M84.24,74.54a.16.16,0,0,0,.16-.16.16.16,0,1,0-.32,0,.16.16,0,0,0,.16.16" transform="translate(0 0)"/><path class="b12e8fdc-90eb-47d3-80ec-052d37e9dc04" d="M10.28,79.42a.11.11,0,1,0,0-.22.11.11,0,0,0,0,.22" transform="translate(0 0)"/><path class="b12e8fdc-90eb-47d3-80ec-052d37e9dc04" d="M15.22,79.72a.41.41,0,1,0-.42-.41.41.41,0,0,0,.42.41" transform="translate(0 0)"/><path class="b12e8fdc-90eb-47d3-80ec-052d37e9dc04" d="M20.15,80a.7.7,0,1,0-.7-.7.7.7,0,0,0,.7.7" transform="translate(0 0)"/><path class="b12e8fdc-90eb-47d3-80ec-052d37e9dc04" d="M25.08,80.24a.93.93,0,1,0-.93-.93.93.93,0,0,0,.93.93" transform="translate(0 0)"/><path class="b12e8fdc-90eb-47d3-80ec-052d37e9dc04" d="M30,80.44a1.14,1.14,0,1,0-1.14-1.13A1.13,1.13,0,0,0,30,80.44" transform="translate(0 0)"/><path class="b12e8fdc-90eb-47d3-80ec-052d37e9dc04" d="M34.94,80.59a1.29,1.29,0,0,0,0-2.57,1.29,1.29,0,1,0,0,2.57" transform="translate(0 0)"/><path class="b12e8fdc-90eb-47d3-80ec-052d37e9dc04" d="M39.87,80.69a1.38,1.38,0,1,0-1.38-1.38,1.38,1.38,0,0,0,1.38,1.38" transform="translate(0 0)"/><path class="b12e8fdc-90eb-47d3-80ec-052d37e9dc04" d="M44.8,80.73a1.42,1.42,0,1,0-1.42-1.42,1.43,1.43,0,0,0,1.42,1.42" transform="translate(0 0)"/><path class="b12e8fdc-90eb-47d3-80ec-052d37e9dc04" d="M49.73,80.72a1.41,1.41,0,1,0-1.41-1.41,1.41,1.41,0,0,0,1.41,1.41" transform="translate(0 0)"/><path class="b12e8fdc-90eb-47d3-80ec-052d37e9dc04" d="M54.66,80.64a1.33,1.33,0,1,0-1.33-1.33,1.33,1.33,0,0,0,1.33,1.33" transform="translate(0 0)"/><path class="b12e8fdc-90eb-47d3-80ec-052d37e9dc04" d="M59.59,80.5a1.19,1.19,0,1,0-1.19-1.19,1.19,1.19,0,0,0,1.19,1.19" transform="translate(0 0)"/><path class="b12e8fdc-90eb-47d3-80ec-052d37e9dc04" d="M64.52,80.31a1,1,0,1,0-1-1,1,1,0,0,0,1,1" transform="translate(0 0)"/><path class="b12e8fdc-90eb-47d3-80ec-052d37e9dc04" d="M69.45,80.09a.78.78,0,1,0-.78-.78.78.78,0,0,0,.78.78" transform="translate(0 0)"/><path class="b12e8fdc-90eb-47d3-80ec-052d37e9dc04" d="M74.38,79.82a.51.51,0,1,0-.51-.51.51.51,0,0,0,.51.51" transform="translate(0 0)"/><path class="b12e8fdc-90eb-47d3-80ec-052d37e9dc04" d="M79.31,79.53a.22.22,0,1,0-.22-.22.22.22,0,0,0,.22.22" transform="translate(0 0)"/><path class="b12e8fdc-90eb-47d3-80ec-052d37e9dc04" d="M15.22,84.32a.09.09,0,0,0,.08-.08.08.08,0,0,0-.08-.08.08.08,0,0,0-.09.08.09.09,0,0,0,.09.08" transform="translate(0 0)"/><path class="b12e8fdc-90eb-47d3-80ec-052d37e9dc04" d="M20.15,84.58a.34.34,0,1,0-.35-.34.34.34,0,0,0,.35.34" transform="translate(0 0)"/><path class="b12e8fdc-90eb-47d3-80ec-052d37e9dc04" d="M25.08,84.8a.56.56,0,1,0-.56-.56.56.56,0,0,0,.56.56" transform="translate(0 0)"/><path class="b12e8fdc-90eb-47d3-80ec-052d37e9dc04" d="M30,85a.74.74,0,1,0-.74-.74A.74.74,0,0,0,30,85" transform="translate(0 0)"/><path class="b12e8fdc-90eb-47d3-80ec-052d37e9dc04" d="M34.94,85.11a.88.88,0,0,0,0-1.75.88.88,0,1,0,0,1.75" transform="translate(0 0)"/><path class="b12e8fdc-90eb-47d3-80ec-052d37e9dc04" d="M39.87,85.21a1,1,0,1,0-1-1,1,1,0,0,0,1,1" transform="translate(0 0)"/><path class="b12e8fdc-90eb-47d3-80ec-052d37e9dc04" d="M44.8,85.24a1,1,0,1,0-1-1,1,1,0,0,0,1,1" transform="translate(0 0)"/><path class="b12e8fdc-90eb-47d3-80ec-052d37e9dc04" d="M49.73,85.22a1,1,0,0,0,0-2,1,1,0,1,0,0,2" transform="translate(0 0)"/><path class="b12e8fdc-90eb-47d3-80ec-052d37e9dc04" d="M54.66,85.16a.92.92,0,1,0-.92-.92.92.92,0,0,0,.92.92" transform="translate(0 0)"/><path class="b12e8fdc-90eb-47d3-80ec-052d37e9dc04" d="M59.59,85a.79.79,0,1,0-.79-.79.79.79,0,0,0,.79.79" transform="translate(0 0)"/><path class="b12e8fdc-90eb-47d3-80ec-052d37e9dc04" d="M64.52,84.87a.63.63,0,1,0-.63-.63.63.63,0,0,0,.63.63" transform="translate(0 0)"/><path class="b12e8fdc-90eb-47d3-80ec-052d37e9dc04" d="M69.45,84.65a.41.41,0,1,0-.41-.41.41.41,0,0,0,.41.41" transform="translate(0 0)"/><path class="b12e8fdc-90eb-47d3-80ec-052d37e9dc04" d="M74.38,84.4a.16.16,0,1,0,0-.32.16.16,0,1,0,0,.32" transform="translate(0 0)"/><path class="b12e8fdc-90eb-47d3-80ec-052d37e9dc04" d="M25.08,89.33a.16.16,0,0,0,0-.32.16.16,0,1,0,0,.32" transform="translate(0 0)"/><path class="b12e8fdc-90eb-47d3-80ec-052d37e9dc04" d="M30,89.51a.34.34,0,1,0-.34-.34.34.34,0,0,0,.34.34" transform="translate(0 0)"/><path class="b12e8fdc-90eb-47d3-80ec-052d37e9dc04" d="M34.94,89.64a.47.47,0,0,0,.46-.47.47.47,0,0,0-.93,0,.47.47,0,0,0,.47.47" transform="translate(0 0)"/><path class="b12e8fdc-90eb-47d3-80ec-052d37e9dc04" d="M39.87,89.72a.55.55,0,1,0-.55-.55.55.55,0,0,0,.55.55" transform="translate(0 0)"/><path class="b12e8fdc-90eb-47d3-80ec-052d37e9dc04" d="M44.8,89.75a.58.58,0,0,0,.57-.58.58.58,0,0,0-1.15,0,.58.58,0,0,0,.58.58" transform="translate(0 0)"/><path class="b12e8fdc-90eb-47d3-80ec-052d37e9dc04" d="M49.73,89.73a.56.56,0,1,0-.56-.56.56.56,0,0,0,.56.56" transform="translate(0 0)"/><path class="b12e8fdc-90eb-47d3-80ec-052d37e9dc04" d="M54.66,89.66a.49.49,0,0,0,0-1,.49.49,0,1,0,0,1" transform="translate(0 0)"/><path class="b12e8fdc-90eb-47d3-80ec-052d37e9dc04" d="M59.59,89.55a.38.38,0,1,0-.38-.38.38.38,0,0,0,.38.38" transform="translate(0 0)"/><path class="b12e8fdc-90eb-47d3-80ec-052d37e9dc04" d="M64.52,89.4a.23.23,0,1,0-.23-.23.23.23,0,0,0,.23.23" transform="translate(0 0)"/><path class="b12e8fdc-90eb-47d3-80ec-052d37e9dc04" d="M69.45,89.21a0,0,0,0,0,0-.08,0,0,0,0,0,0,.08,0,0,0,0,0,0,0" transform="translate(0 0)"/></g><polygon class="b12e8fdc-90eb-47d3-80ec-052d37e9dc04" points="17.12 15.55 19.78 57.5 31.75 58.54 39.98 81.64 44.95 59.7 83.67 63.08 91.48 5.11 17.12 15.55"/><polygon class="e56ac702-7f8d-41f8-9f6b-e3190bc00d12" points="23.25 55.59 20.88 18.29 89.44 8.67 82.42 60.76 43.91 57.4 40.43 72.79 34.65 56.59 23.25 55.59"/><polygon class="f15c23e8-a73d-4c87-ac05-439021c7c68e" points="49.11 7.95 57.61 7.95 62.63 20.15 71.73 7.95 80.98 7.95 66.21 25.79 75.02 44.87 66.41 44.87 60.84 31.68 50.7 44.87 41.3 44.87 57.41 25.43 49.11 7.95"/><polygon class="bbe4c924-aebf-4618-860f-fc2d828d554a" points="44.83 2.89 53.33 2.89 58.35 15.1 67.45 2.89 76.7 2.89 61.93 20.73 70.73 39.81 62.13 39.81 56.56 26.63 46.42 39.81 37.02 39.81 53.13 20.37 44.83 2.89"/><polygon class="a49b5883-8eca-4cf1-8a25-4246240a2b8b" points="44.83 2.89 53.33 2.89 58.35 15.1 67.45 2.89 76.7 2.89 61.93 20.73 70.73 39.81 62.13 39.81 56.56 26.63 46.42 39.81 37.02 39.81 53.13 20.37 44.83 2.89"/></g></g></svg>