<svg xmlns="http://www.w3.org/2000/svg" xmlns:xlink="http://www.w3.org/1999/xlink" viewBox="0 0 69.39 66.08"><defs><style>.a23eba19-c828-4869-96ba-95db190e58b1,.b1f1045f-3b91-443a-b49e-836e4cb93e7b{fill:none;}.b3d2a84f-4938-4a41-8d19-1d6080cb3257{clip-path:url(#f6e43c2e-9f46-4b5b-8ccc-92b28fa90ecd);}.bfb1a5d7-c3c1-4d9e-b911-bc71d0240197{fill:#241f21;}.b50ba17a-eefe-42ff-9329-cb72024876e0{fill:#fff;}.f80ce057-6b3f-4b2b-a98b-b27e317ce094{fill:#1d1d1b;}.a9c9d89d-5875-4f8e-b298-a72c83453ec8{fill:#0086b2;}.a23eba19-c828-4869-96ba-95db190e58b1{stroke:#000;stroke-width:0.67px;}</style><clipPath id="f6e43c2e-9f46-4b5b-8ccc-92b28fa90ecd" transform="translate(0 0)"><rect class="b1f1045f-3b91-443a-b49e-836e4cb93e7b" width="69.39" height="66.08"/></clipPath></defs><g id="bd3c0148-c8a5-4ce4-87fb-1ea3d39de4a6" data-name="Livello 2"><g id="f2e79297-ef58-4acd-b783-cfe75a1747c6" data-name="Livello 1"><g class="b3d2a84f-4938-4a41-8d19-1d6080cb3257"><path class="bfb1a5d7-c3c1-4d9e-b911-bc71d0240197" d="M50.93.34a0,0,0,0,1,0,0,0,0,0,0,1,.06,0,0,0,0,0,1,0,0" transform="translate(0 0)"/><path class="bfb1a5d7-c3c1-4d9e-b911-bc71d0240197" d="M47.3.46a.15.15,0,0,1-.15-.15A.15.15,0,0,1,47.3.16a.15.15,0,0,1,.15.15.15.15,0,0,1-.15.15" transform="translate(0 0)"/><path class="bfb1a5d7-c3c1-4d9e-b911-bc71d0240197" d="M43.67.54a.23.23,0,0,1-.23-.23.23.23,0,1,1,.46,0,.23.23,0,0,1-.23.23" transform="translate(0 0)"/><path class="bfb1a5d7-c3c1-4d9e-b911-bc71d0240197" d="M40,.6a.29.29,0,1,1,.29-.29A.29.29,0,0,1,40,.6" transform="translate(0 0)"/><path class="bfb1a5d7-c3c1-4d9e-b911-bc71d0240197" d="M36.41.62A.31.31,0,0,1,36.1.31a.31.31,0,0,1,.62,0,.31.31,0,0,1-.31.31" transform="translate(0 0)"/><path class="bfb1a5d7-c3c1-4d9e-b911-bc71d0240197" d="M32.78.61a.29.29,0,0,1-.3-.3.3.3,0,1,1,.6,0,.29.29,0,0,1-.3.3" transform="translate(0 0)"/><path class="bfb1a5d7-c3c1-4d9e-b911-bc71d0240197" d="M29.15.57a.25.25,0,0,1-.26-.26.26.26,0,0,1,.26-.26.26.26,0,0,1,.26.26.26.26,0,0,1-.26.26" transform="translate(0 0)"/><path class="bfb1a5d7-c3c1-4d9e-b911-bc71d0240197" d="M25.52.49A.18.18,0,1,1,25.7.31a.18.18,0,0,1-.18.18" transform="translate(0 0)"/><path class="bfb1a5d7-c3c1-4d9e-b911-bc71d0240197" d="M21.89.38a.07.07,0,0,1-.07-.07.07.07,0,1,1,.14,0,.07.07,0,0,1-.07.07" transform="translate(0 0)"/><path class="bfb1a5d7-c3c1-4d9e-b911-bc71d0240197" d="M54.56,4.1a.16.16,0,1,1,.16-.16.16.16,0,0,1-.16.16" transform="translate(0 0)"/><path class="bfb1a5d7-c3c1-4d9e-b911-bc71d0240197" d="M50.93,4.25a.31.31,0,1,1,.31-.31.31.31,0,0,1-.31.31" transform="translate(0 0)"/><path class="bfb1a5d7-c3c1-4d9e-b911-bc71d0240197" d="M47.3,4.4a.46.46,0,0,1-.45-.46.45.45,0,0,1,.9,0,.46.46,0,0,1-.45.46" transform="translate(0 0)"/><path class="bfb1a5d7-c3c1-4d9e-b911-bc71d0240197" d="M43.67,4.49a.55.55,0,0,1-.54-.55.54.54,0,1,1,1.08,0,.55.55,0,0,1-.54.55" transform="translate(0 0)"/><path class="bfb1a5d7-c3c1-4d9e-b911-bc71d0240197" d="M40,4.55a.61.61,0,0,1,0-1.21.61.61,0,1,1,0,1.21" transform="translate(0 0)"/><path class="bfb1a5d7-c3c1-4d9e-b911-bc71d0240197" d="M36.41,4.58a.64.64,0,0,1-.63-.64.63.63,0,1,1,1.26,0,.64.64,0,0,1-.63.64" transform="translate(0 0)"/><path class="bfb1a5d7-c3c1-4d9e-b911-bc71d0240197" d="M32.78,4.56a.61.61,0,0,1-.61-.62.61.61,0,1,1,1.22,0,.61.61,0,0,1-.61.62" transform="translate(0 0)"/><path class="bfb1a5d7-c3c1-4d9e-b911-bc71d0240197" d="M29.15,4.51a.56.56,0,0,1-.57-.57.57.57,0,0,1,1.14,0,.56.56,0,0,1-.57.57" transform="translate(0 0)"/><path class="bfb1a5d7-c3c1-4d9e-b911-bc71d0240197" d="M25.52,4.42A.47.47,0,0,1,25,3.94a.48.48,0,1,1,1,0,.47.47,0,0,1-.48.48" transform="translate(0 0)"/><path class="bfb1a5d7-c3c1-4d9e-b911-bc71d0240197" d="M21.89,4.3a.36.36,0,1,1,.36-.36.36.36,0,0,1-.36.36" transform="translate(0 0)"/><path class="bfb1a5d7-c3c1-4d9e-b911-bc71d0240197" d="M18.26,4.16a.22.22,0,1,1,.22-.22.22.22,0,0,1-.22.22" transform="translate(0 0)"/><path class="bfb1a5d7-c3c1-4d9e-b911-bc71d0240197" d="M14.63,4a0,0,0,0,1,0-.08,0,0,0,0,1,0,.08,0,0,0,0,1,0,0" transform="translate(0 0)"/><path class="bfb1a5d7-c3c1-4d9e-b911-bc71d0240197" d="M61.82,7.58h0a0,0,0,0,1,0,0h0" transform="translate(0 0)"/><path class="bfb1a5d7-c3c1-4d9e-b911-bc71d0240197" d="M58.19,7.79a.22.22,0,1,1,.22-.22.22.22,0,0,1-.22.22" transform="translate(0 0)"/><path class="bfb1a5d7-c3c1-4d9e-b911-bc71d0240197" d="M54.56,8a.42.42,0,0,1-.42-.42.43.43,0,1,1,.42.42" transform="translate(0 0)"/><path class="bfb1a5d7-c3c1-4d9e-b911-bc71d0240197" d="M50.93,8.17a.59.59,0,0,1-.59-.6A.58.58,0,0,1,50.93,7a.59.59,0,0,1,.6.59.6.6,0,0,1-.6.6" transform="translate(0 0)"/><path class="bfb1a5d7-c3c1-4d9e-b911-bc71d0240197" d="M47.3,8.31A.74.74,0,1,1,48,7.57a.74.74,0,0,1-.74.74" transform="translate(0 0)"/><path class="bfb1a5d7-c3c1-4d9e-b911-bc71d0240197" d="M43.67,8.42a.84.84,0,0,1-.84-.85.83.83,0,0,1,.84-.84.84.84,0,0,1,.85.84.85.85,0,0,1-.85.85" transform="translate(0 0)"/><path class="bfb1a5d7-c3c1-4d9e-b911-bc71d0240197" d="M40,8.49A.92.92,0,1,1,41,7.57a.92.92,0,0,1-.92.92" transform="translate(0 0)"/><path class="bfb1a5d7-c3c1-4d9e-b911-bc71d0240197" d="M36.41,8.52a.95.95,0,1,1,1-.95.95.95,0,0,1-1,.95" transform="translate(0 0)"/><path class="bfb1a5d7-c3c1-4d9e-b911-bc71d0240197" d="M32.78,8.5a.93.93,0,1,1,.93-.93.93.93,0,0,1-.93.93" transform="translate(0 0)"/><path class="bfb1a5d7-c3c1-4d9e-b911-bc71d0240197" d="M29.15,8.45A.88.88,0,1,1,30,7.57a.88.88,0,0,1-.88.88" transform="translate(0 0)"/><path class="bfb1a5d7-c3c1-4d9e-b911-bc71d0240197" d="M25.52,8.35a.78.78,0,1,1,.78-.78.78.78,0,0,1-.78.78" transform="translate(0 0)"/><path class="bfb1a5d7-c3c1-4d9e-b911-bc71d0240197" d="M21.89,8.22a.65.65,0,1,1,.64-.65.64.64,0,0,1-.64.65" transform="translate(0 0)"/><path class="bfb1a5d7-c3c1-4d9e-b911-bc71d0240197" d="M18.26,8.06a.49.49,0,1,1,.48-.49.48.48,0,0,1-.48.49" transform="translate(0 0)"/><path class="bfb1a5d7-c3c1-4d9e-b911-bc71d0240197" d="M14.63,7.86a.29.29,0,1,1,.29-.29.29.29,0,0,1-.29.29" transform="translate(0 0)"/><path class="bfb1a5d7-c3c1-4d9e-b911-bc71d0240197" d="M11,7.65a.08.08,0,0,1-.08-.08.08.08,0,0,1,.16,0,.08.08,0,0,1-.08.08" transform="translate(0 0)"/><path class="bfb1a5d7-c3c1-4d9e-b911-bc71d0240197" d="M61.82,11.42A.22.22,0,1,1,62,11.2a.22.22,0,0,1-.22.22" transform="translate(0 0)"/><path class="bfb1a5d7-c3c1-4d9e-b911-bc71d0240197" d="M58.19,11.67a.47.47,0,0,1,0-.93.47.47,0,0,1,0,.93" transform="translate(0 0)"/><path class="bfb1a5d7-c3c1-4d9e-b911-bc71d0240197" d="M54.56,11.88a.68.68,0,1,1,.68-.68.68.68,0,0,1-.68.68" transform="translate(0 0)"/><path class="bfb1a5d7-c3c1-4d9e-b911-bc71d0240197" d="M50.93,12.07a.87.87,0,1,1,.87-.87.86.86,0,0,1-.87.87" transform="translate(0 0)"/><path class="bfb1a5d7-c3c1-4d9e-b911-bc71d0240197" d="M47.3,12.22a1,1,0,1,1,1-1,1,1,0,0,1-1,1" transform="translate(0 0)"/><path class="bfb1a5d7-c3c1-4d9e-b911-bc71d0240197" d="M43.67,12.34a1.14,1.14,0,1,1,1.14-1.14,1.14,1.14,0,0,1-1.14,1.14" transform="translate(0 0)"/><path class="bfb1a5d7-c3c1-4d9e-b911-bc71d0240197" d="M40,12.43a1.23,1.23,0,1,1,1.23-1.23A1.23,1.23,0,0,1,40,12.43" transform="translate(0 0)"/><path class="bfb1a5d7-c3c1-4d9e-b911-bc71d0240197" d="M36.41,12.46a1.26,1.26,0,1,1,1.26-1.26,1.26,1.26,0,0,1-1.26,1.26" transform="translate(0 0)"/><path class="bfb1a5d7-c3c1-4d9e-b911-bc71d0240197" d="M32.78,12.44A1.24,1.24,0,1,1,34,11.2a1.24,1.24,0,0,1-1.24,1.24" transform="translate(0 0)"/><path class="bfb1a5d7-c3c1-4d9e-b911-bc71d0240197" d="M29.15,12.38a1.18,1.18,0,1,1,1.18-1.18,1.18,1.18,0,0,1-1.18,1.18" transform="translate(0 0)"/><path class="bfb1a5d7-c3c1-4d9e-b911-bc71d0240197" d="M25.52,12.27a1.07,1.07,0,1,1,1.07-1.07,1.07,1.07,0,0,1-1.07,1.07" transform="translate(0 0)"/><path class="bfb1a5d7-c3c1-4d9e-b911-bc71d0240197" d="M21.89,12.12a.92.92,0,1,1,.92-.92.92.92,0,0,1-.92.92" transform="translate(0 0)"/><path class="bfb1a5d7-c3c1-4d9e-b911-bc71d0240197" d="M18.26,11.94a.74.74,0,1,1,0-1.47.74.74,0,0,1,0,1.47" transform="translate(0 0)"/><path class="bfb1a5d7-c3c1-4d9e-b911-bc71d0240197" d="M14.63,11.74a.54.54,0,1,1,.53-.54.54.54,0,0,1-.53.54" transform="translate(0 0)"/><path class="bfb1a5d7-c3c1-4d9e-b911-bc71d0240197" d="M11,11.5a.29.29,0,0,1-.3-.3.3.3,0,1,1,.6,0,.29.29,0,0,1-.3.3" transform="translate(0 0)"/><path class="bfb1a5d7-c3c1-4d9e-b911-bc71d0240197" d="M7.37,11.26a.06.06,0,0,1-.06-.06.06.06,0,0,1,.12,0,.06.06,0,0,1-.06.06" transform="translate(0 0)"/><path class="bfb1a5d7-c3c1-4d9e-b911-bc71d0240197" d="M65.45,15a.16.16,0,1,1,.16-.16.16.16,0,0,1-.16.16" transform="translate(0 0)"/><path class="bfb1a5d7-c3c1-4d9e-b911-bc71d0240197" d="M61.82,15.25a.42.42,0,0,1-.42-.42.42.42,0,0,1,.42-.42.42.42,0,0,1,.42.42.41.41,0,0,1-.42.42" transform="translate(0 0)"/><path class="bfb1a5d7-c3c1-4d9e-b911-bc71d0240197" d="M58.19,15.51a.68.68,0,1,1,.68-.68.68.68,0,0,1-.68.68" transform="translate(0 0)"/><path class="bfb1a5d7-c3c1-4d9e-b911-bc71d0240197" d="M54.56,15.74a.91.91,0,1,1,.91-.91.9.9,0,0,1-.91.91" transform="translate(0 0)"/><path class="bfb1a5d7-c3c1-4d9e-b911-bc71d0240197" d="M50.93,15.94A1.11,1.11,0,1,1,52,14.83a1.11,1.11,0,0,1-1.11,1.11" transform="translate(0 0)"/><path class="bfb1a5d7-c3c1-4d9e-b911-bc71d0240197" d="M47.3,16.12a1.29,1.29,0,1,1,1.29-1.29,1.29,1.29,0,0,1-1.29,1.29" transform="translate(0 0)"/><path class="bfb1a5d7-c3c1-4d9e-b911-bc71d0240197" d="M43.67,16.27a1.44,1.44,0,1,1,1.44-1.44,1.43,1.43,0,0,1-1.44,1.44" transform="translate(0 0)"/><path class="bfb1a5d7-c3c1-4d9e-b911-bc71d0240197" d="M40,16.37a1.54,1.54,0,1,1,1.54-1.54A1.54,1.54,0,0,1,40,16.37" transform="translate(0 0)"/><path class="bfb1a5d7-c3c1-4d9e-b911-bc71d0240197" d="M36.41,16.4A1.57,1.57,0,1,1,38,14.83a1.57,1.57,0,0,1-1.57,1.57" transform="translate(0 0)"/><path class="bfb1a5d7-c3c1-4d9e-b911-bc71d0240197" d="M32.78,16.39a1.56,1.56,0,1,1,1.56-1.56,1.56,1.56,0,0,1-1.56,1.56" transform="translate(0 0)"/><path class="bfb1a5d7-c3c1-4d9e-b911-bc71d0240197" d="M29.15,16.31a1.48,1.48,0,1,1,1.48-1.48,1.48,1.48,0,0,1-1.48,1.48" transform="translate(0 0)"/><path class="bfb1a5d7-c3c1-4d9e-b911-bc71d0240197" d="M25.52,16.18a1.35,1.35,0,1,1,1.35-1.35,1.35,1.35,0,0,1-1.35,1.35" transform="translate(0 0)"/><path class="bfb1a5d7-c3c1-4d9e-b911-bc71d0240197" d="M21.89,16a1.18,1.18,0,1,1,1.18-1.18A1.18,1.18,0,0,1,21.89,16" transform="translate(0 0)"/><path class="bfb1a5d7-c3c1-4d9e-b911-bc71d0240197" d="M18.26,15.81a1,1,0,1,1,1-1,1,1,0,0,1-1,1" transform="translate(0 0)"/><path class="bfb1a5d7-c3c1-4d9e-b911-bc71d0240197" d="M14.63,15.58a.76.76,0,0,1-.75-.75.75.75,0,0,1,1.5,0,.76.76,0,0,1-.75.75" transform="translate(0 0)"/><path class="bfb1a5d7-c3c1-4d9e-b911-bc71d0240197" d="M11,15.35a.52.52,0,1,1,.51-.52.51.51,0,0,1-.51.52" transform="translate(0 0)"/><path class="bfb1a5d7-c3c1-4d9e-b911-bc71d0240197" d="M7.37,15.08a.25.25,0,1,1,.25-.25.25.25,0,0,1-.25.25" transform="translate(0 0)"/><path class="bfb1a5d7-c3c1-4d9e-b911-bc71d0240197" d="M69.08,18.49a0,0,0,0,1,0,0,0,0,0,1,1,.06,0,0,0,0,0,1,0,0" transform="translate(0 0)"/><path class="bfb1a5d7-c3c1-4d9e-b911-bc71d0240197" d="M65.45,18.77a.31.31,0,0,1-.31-.31.31.31,0,1,1,.62,0,.31.31,0,0,1-.31.31" transform="translate(0 0)"/><path class="bfb1a5d7-c3c1-4d9e-b911-bc71d0240197" d="M61.82,19.06a.59.59,0,0,1-.59-.6.58.58,0,0,1,.59-.59.59.59,0,0,1,.6.59.6.6,0,0,1-.6.6" transform="translate(0 0)"/><path class="bfb1a5d7-c3c1-4d9e-b911-bc71d0240197" d="M58.19,19.33a.87.87,0,1,1,.87-.87.86.86,0,0,1-.87.87" transform="translate(0 0)"/><path class="bfb1a5d7-c3c1-4d9e-b911-bc71d0240197" d="M54.56,19.57a1.11,1.11,0,1,1,1.11-1.11,1.11,1.11,0,0,1-1.11,1.11" transform="translate(0 0)"/><path class="bfb1a5d7-c3c1-4d9e-b911-bc71d0240197" d="M50.93,19.81a1.35,1.35,0,1,1,1.35-1.35,1.35,1.35,0,0,1-1.35,1.35" transform="translate(0 0)"/><path class="bfb1a5d7-c3c1-4d9e-b911-bc71d0240197" d="M47.3,20a1.56,1.56,0,1,1,1.56-1.56A1.56,1.56,0,0,1,47.3,20" transform="translate(0 0)"/><path class="bfb1a5d7-c3c1-4d9e-b911-bc71d0240197" d="M43.67,20.19a1.73,1.73,0,1,1,1.73-1.73,1.72,1.72,0,0,1-1.73,1.73" transform="translate(0 0)"/><path class="bfb1a5d7-c3c1-4d9e-b911-bc71d0240197" d="M40,20.3a1.84,1.84,0,1,1,1.84-1.84A1.84,1.84,0,0,1,40,20.3" transform="translate(0 0)"/><path class="bfb1a5d7-c3c1-4d9e-b911-bc71d0240197" d="M36.41,20.36a1.9,1.9,0,1,1,1.89-1.9,1.9,1.9,0,0,1-1.89,1.9" transform="translate(0 0)"/><path class="bfb1a5d7-c3c1-4d9e-b911-bc71d0240197" d="M32.78,20.32a1.86,1.86,0,1,1,1.86-1.86,1.86,1.86,0,0,1-1.86,1.86" transform="translate(0 0)"/><path class="bfb1a5d7-c3c1-4d9e-b911-bc71d0240197" d="M29.15,20.23a1.77,1.77,0,1,1,1.77-1.77,1.77,1.77,0,0,1-1.77,1.77" transform="translate(0 0)"/><path class="bfb1a5d7-c3c1-4d9e-b911-bc71d0240197" d="M25.52,20.08a1.62,1.62,0,1,1,1.62-1.62,1.62,1.62,0,0,1-1.62,1.62" transform="translate(0 0)"/><path class="bfb1a5d7-c3c1-4d9e-b911-bc71d0240197" d="M21.89,19.88a1.42,1.42,0,1,1,1.42-1.42,1.42,1.42,0,0,1-1.42,1.42" transform="translate(0 0)"/><path class="bfb1a5d7-c3c1-4d9e-b911-bc71d0240197" d="M18.26,19.65a1.19,1.19,0,1,1,1.19-1.19,1.19,1.19,0,0,1-1.19,1.19" transform="translate(0 0)"/><path class="bfb1a5d7-c3c1-4d9e-b911-bc71d0240197" d="M14.63,19.41a.95.95,0,1,1,.95-.95.95.95,0,0,1-.95.95" transform="translate(0 0)"/><path class="bfb1a5d7-c3c1-4d9e-b911-bc71d0240197" d="M11,19.15a.68.68,0,0,1-.68-.69.68.68,0,0,1,1.36,0,.68.68,0,0,1-.68.69" transform="translate(0 0)"/><path class="bfb1a5d7-c3c1-4d9e-b911-bc71d0240197" d="M7.37,18.87a.41.41,0,1,1,.41-.41.41.41,0,0,1-.41.41" transform="translate(0 0)"/><path class="bfb1a5d7-c3c1-4d9e-b911-bc71d0240197" d="M3.74,18.58a.12.12,0,0,1-.12-.12.12.12,0,1,1,.24,0,.12.12,0,0,1-.12.12" transform="translate(0 0)"/><path class="bfb1a5d7-c3c1-4d9e-b911-bc71d0240197" d="M69.08,22.24a.15.15,0,0,1-.15-.15.15.15,0,0,1,.15-.15.15.15,0,0,1,.15.15.14.14,0,0,1-.15.15" transform="translate(0 0)"/><path class="bfb1a5d7-c3c1-4d9e-b911-bc71d0240197" d="M65.45,22.55a.46.46,0,0,1-.45-.46.45.45,0,1,1,.9,0,.46.46,0,0,1-.45.46" transform="translate(0 0)"/><path class="bfb1a5d7-c3c1-4d9e-b911-bc71d0240197" d="M61.82,22.83a.74.74,0,1,1,.74-.74.74.74,0,0,1-.74.74" transform="translate(0 0)"/><path class="bfb1a5d7-c3c1-4d9e-b911-bc71d0240197" d="M58.19,23.11a1,1,0,1,1,1-1,1,1,0,0,1-1,1" transform="translate(0 0)"/><path class="bfb1a5d7-c3c1-4d9e-b911-bc71d0240197" d="M54.56,23.38a1.29,1.29,0,1,1,1.29-1.29,1.29,1.29,0,0,1-1.29,1.29" transform="translate(0 0)"/><path class="bfb1a5d7-c3c1-4d9e-b911-bc71d0240197" d="M50.93,23.65a1.56,1.56,0,1,1,1.56-1.56,1.56,1.56,0,0,1-1.56,1.56" transform="translate(0 0)"/><path class="bfb1a5d7-c3c1-4d9e-b911-bc71d0240197" d="M47.3,23.88a1.79,1.79,0,1,1,1.79-1.79,1.79,1.79,0,0,1-1.79,1.79" transform="translate(0 0)"/><path class="bfb1a5d7-c3c1-4d9e-b911-bc71d0240197" d="M43.67,24.1a2,2,0,1,1,2-2,2,2,0,0,1-2,2" transform="translate(0 0)"/><path class="bfb1a5d7-c3c1-4d9e-b911-bc71d0240197" d="M40,24.24a2.15,2.15,0,1,1,2.14-2.15A2.14,2.14,0,0,1,40,24.24" transform="translate(0 0)"/><path class="bfb1a5d7-c3c1-4d9e-b911-bc71d0240197" d="M36.41,24.3a2.21,2.21,0,1,1,2.21-2.21,2.2,2.2,0,0,1-2.21,2.21" transform="translate(0 0)"/><path class="bfb1a5d7-c3c1-4d9e-b911-bc71d0240197" d="M32.78,24.27A2.18,2.18,0,1,1,35,22.09a2.18,2.18,0,0,1-2.17,2.18" transform="translate(0 0)"/><path class="bfb1a5d7-c3c1-4d9e-b911-bc71d0240197" d="M29.15,24.15a2.06,2.06,0,1,1,2.05-2.06,2,2,0,0,1-2.05,2.06" transform="translate(0 0)"/><path class="bfb1a5d7-c3c1-4d9e-b911-bc71d0240197" d="M25.52,24a1.86,1.86,0,1,1,1.86-1.86A1.86,1.86,0,0,1,25.52,24" transform="translate(0 0)"/><path class="bfb1a5d7-c3c1-4d9e-b911-bc71d0240197" d="M21.89,23.73a1.64,1.64,0,1,1,1.64-1.64,1.63,1.63,0,0,1-1.64,1.64" transform="translate(0 0)"/><path class="bfb1a5d7-c3c1-4d9e-b911-bc71d0240197" d="M18.26,23.47a1.38,1.38,0,1,1,1.38-1.38,1.38,1.38,0,0,1-1.38,1.38" transform="translate(0 0)"/><path class="bfb1a5d7-c3c1-4d9e-b911-bc71d0240197" d="M14.63,23.2a1.11,1.11,0,1,1,1.11-1.11,1.11,1.11,0,0,1-1.11,1.11" transform="translate(0 0)"/><path class="bfb1a5d7-c3c1-4d9e-b911-bc71d0240197" d="M11,22.93a.85.85,0,0,1-.84-.84.84.84,0,0,1,.84-.83.83.83,0,0,1,.83.83.84.84,0,0,1-.83.84" transform="translate(0 0)"/><path class="bfb1a5d7-c3c1-4d9e-b911-bc71d0240197" d="M7.37,22.64a.55.55,0,0,1-.54-.55.54.54,0,0,1,1.08,0,.55.55,0,0,1-.54.55" transform="translate(0 0)"/><path class="bfb1a5d7-c3c1-4d9e-b911-bc71d0240197" d="M3.74,22.34A.25.25,0,1,1,4,22.09a.25.25,0,0,1-.25.25" transform="translate(0 0)"/><path class="bfb1a5d7-c3c1-4d9e-b911-bc71d0240197" d="M69.08,26a.23.23,0,0,1-.23-.23.23.23,0,1,1,.46,0,.23.23,0,0,1-.23.23" transform="translate(0 0)"/><path class="bfb1a5d7-c3c1-4d9e-b911-bc71d0240197" d="M65.45,26.27a.55.55,0,0,1-.54-.55.54.54,0,0,1,.54-.54.55.55,0,0,1,.55.54.55.55,0,0,1-.55.55" transform="translate(0 0)"/><path class="bfb1a5d7-c3c1-4d9e-b911-bc71d0240197" d="M61.82,26.57a.85.85,0,1,1,.85-.85.85.85,0,0,1-.85.85" transform="translate(0 0)"/><path class="bfb1a5d7-c3c1-4d9e-b911-bc71d0240197" d="M58.19,26.86a1.14,1.14,0,1,1,1.14-1.14,1.14,1.14,0,0,1-1.14,1.14" transform="translate(0 0)"/><path class="bfb1a5d7-c3c1-4d9e-b911-bc71d0240197" d="M54.56,27.16A1.44,1.44,0,1,1,56,25.72a1.44,1.44,0,0,1-1.44,1.44" transform="translate(0 0)"/><path class="bfb1a5d7-c3c1-4d9e-b911-bc71d0240197" d="M50.93,27.45a1.73,1.73,0,1,1,1.73-1.73,1.73,1.73,0,0,1-1.73,1.73" transform="translate(0 0)"/><path class="bfb1a5d7-c3c1-4d9e-b911-bc71d0240197" d="M47.3,27.73a2,2,0,1,1,2-2,2,2,0,0,1-2,2" transform="translate(0 0)"/><path class="bfb1a5d7-c3c1-4d9e-b911-bc71d0240197" d="M43.67,28a2.25,2.25,0,1,1,2.24-2.25A2.24,2.24,0,0,1,43.67,28" transform="translate(0 0)"/><path class="bfb1a5d7-c3c1-4d9e-b911-bc71d0240197" d="M40,28a2.25,2.25,0,1,1,2.25-2.25A2.24,2.24,0,0,1,40,28" transform="translate(0 0)"/><path class="bfb1a5d7-c3c1-4d9e-b911-bc71d0240197" d="M36.41,28a2.25,2.25,0,1,1,2.24-2.25A2.25,2.25,0,0,1,36.41,28" transform="translate(0 0)"/><path class="bfb1a5d7-c3c1-4d9e-b911-bc71d0240197" d="M32.78,28A2.25,2.25,0,1,1,35,25.72,2.24,2.24,0,0,1,32.78,28" transform="translate(0 0)"/><path class="bfb1a5d7-c3c1-4d9e-b911-bc71d0240197" d="M29.15,28a2.25,2.25,0,1,1,2.24-2.25A2.25,2.25,0,0,1,29.15,28" transform="translate(0 0)"/><path class="bfb1a5d7-c3c1-4d9e-b911-bc71d0240197" d="M25.52,27.81a2.09,2.09,0,1,1,2.08-2.09,2.09,2.09,0,0,1-2.08,2.09" transform="translate(0 0)"/><path class="bfb1a5d7-c3c1-4d9e-b911-bc71d0240197" d="M21.89,27.55a1.83,1.83,0,1,1,1.82-1.83,1.82,1.82,0,0,1-1.82,1.83" transform="translate(0 0)"/><path class="bfb1a5d7-c3c1-4d9e-b911-bc71d0240197" d="M18.26,27.26a1.54,1.54,0,1,1,1.54-1.54,1.54,1.54,0,0,1-1.54,1.54" transform="translate(0 0)"/><path class="bfb1a5d7-c3c1-4d9e-b911-bc71d0240197" d="M14.63,27a1.24,1.24,0,1,1,1.24-1.24A1.24,1.24,0,0,1,14.63,27" transform="translate(0 0)"/><path class="bfb1a5d7-c3c1-4d9e-b911-bc71d0240197" d="M11,26.67a.95.95,0,1,1,.95-1,.95.95,0,0,1-.95,1" transform="translate(0 0)"/><path class="bfb1a5d7-c3c1-4d9e-b911-bc71d0240197" d="M7.37,26.37A.65.65,0,1,1,8,25.72a.65.65,0,0,1-.65.65" transform="translate(0 0)"/><path class="bfb1a5d7-c3c1-4d9e-b911-bc71d0240197" d="M3.74,26.06a.34.34,0,1,1,.34-.34.34.34,0,0,1-.34.34" transform="translate(0 0)"/><path class="bfb1a5d7-c3c1-4d9e-b911-bc71d0240197" d="M.11,25.75a0,0,0,0,1,0,0,0,0,0,0,1,0,0l0,0a0,0,0,0,1,0,0" transform="translate(0 0)"/><path class="bfb1a5d7-c3c1-4d9e-b911-bc71d0240197" d="M69.08,29.65a.3.3,0,0,1-.29-.3.29.29,0,1,1,.58,0,.3.3,0,0,1-.29.3" transform="translate(0 0)"/><path class="bfb1a5d7-c3c1-4d9e-b911-bc71d0240197" d="M65.45,30a.61.61,0,0,1,0-1.21.61.61,0,1,1,0,1.21" transform="translate(0 0)"/><path class="bfb1a5d7-c3c1-4d9e-b911-bc71d0240197" d="M61.82,30.27a.92.92,0,1,1,.92-.92.92.92,0,0,1-.92.92" transform="translate(0 0)"/><path class="bfb1a5d7-c3c1-4d9e-b911-bc71d0240197" d="M58.19,30.58a1.23,1.23,0,1,1,1.23-1.23,1.23,1.23,0,0,1-1.23,1.23" transform="translate(0 0)"/><path class="bfb1a5d7-c3c1-4d9e-b911-bc71d0240197" d="M54.56,30.89a1.54,1.54,0,1,1,1.54-1.54,1.54,1.54,0,0,1-1.54,1.54" transform="translate(0 0)"/><path class="bfb1a5d7-c3c1-4d9e-b911-bc71d0240197" d="M50.93,31.2a1.85,1.85,0,1,1,1.84-1.85,1.84,1.84,0,0,1-1.84,1.85" transform="translate(0 0)"/><path class="bfb1a5d7-c3c1-4d9e-b911-bc71d0240197" d="M47.3,31.5a2.15,2.15,0,1,1,2.15-2.15A2.14,2.14,0,0,1,47.3,31.5" transform="translate(0 0)"/><path class="bfb1a5d7-c3c1-4d9e-b911-bc71d0240197" d="M43.67,31.6a2.25,2.25,0,1,1,2.24-2.25,2.24,2.24,0,0,1-2.24,2.25" transform="translate(0 0)"/><path class="bfb1a5d7-c3c1-4d9e-b911-bc71d0240197" d="M40,31.6a2.25,2.25,0,1,1,2.25-2.25A2.24,2.24,0,0,1,40,31.6" transform="translate(0 0)"/><path class="bfb1a5d7-c3c1-4d9e-b911-bc71d0240197" d="M36.41,31.6a2.25,2.25,0,1,1,2.24-2.25,2.25,2.25,0,0,1-2.24,2.25" transform="translate(0 0)"/><path class="bfb1a5d7-c3c1-4d9e-b911-bc71d0240197" d="M32.78,31.6A2.25,2.25,0,1,1,35,29.35a2.24,2.24,0,0,1-2.24,2.25" transform="translate(0 0)"/><path class="bfb1a5d7-c3c1-4d9e-b911-bc71d0240197" d="M29.15,31.6a2.25,2.25,0,1,1,2.24-2.25,2.25,2.25,0,0,1-2.24,2.25" transform="translate(0 0)"/><path class="bfb1a5d7-c3c1-4d9e-b911-bc71d0240197" d="M25.52,31.6a2.25,2.25,0,1,1,2.24-2.25,2.25,2.25,0,0,1-2.24,2.25" transform="translate(0 0)"/><path class="bfb1a5d7-c3c1-4d9e-b911-bc71d0240197" d="M21.89,31.29a1.94,1.94,0,1,1,1.94-1.94,1.94,1.94,0,0,1-1.94,1.94" transform="translate(0 0)"/><path class="bfb1a5d7-c3c1-4d9e-b911-bc71d0240197" d="M18.26,31a1.64,1.64,0,1,1,1.64-1.64A1.63,1.63,0,0,1,18.26,31" transform="translate(0 0)"/><path class="bfb1a5d7-c3c1-4d9e-b911-bc71d0240197" d="M14.63,30.68A1.33,1.33,0,1,1,16,29.35a1.33,1.33,0,0,1-1.33,1.33" transform="translate(0 0)"/><path class="bfb1a5d7-c3c1-4d9e-b911-bc71d0240197" d="M11,30.37a1,1,0,1,1,1-1,1,1,0,0,1-1,1" transform="translate(0 0)"/><path class="bfb1a5d7-c3c1-4d9e-b911-bc71d0240197" d="M7.37,30.07a.72.72,0,1,1,.72-.72.72.72,0,0,1-.72.72" transform="translate(0 0)"/><path class="bfb1a5d7-c3c1-4d9e-b911-bc71d0240197" d="M3.74,29.76a.41.41,0,1,1,.4-.41.4.4,0,0,1-.4.41" transform="translate(0 0)"/><path class="bfb1a5d7-c3c1-4d9e-b911-bc71d0240197" d="M.11,29.43A.08.08,0,0,1,0,29.35a.09.09,0,0,1,.08-.08.09.09,0,0,1,.08.08.08.08,0,0,1-.08.08" transform="translate(0 0)"/><path class="bfb1a5d7-c3c1-4d9e-b911-bc71d0240197" d="M69.08,33.3a.32.32,0,1,1,.31-.32.31.31,0,0,1-.31.32" transform="translate(0 0)"/><path class="bfb1a5d7-c3c1-4d9e-b911-bc71d0240197" d="M65.45,33.62a.64.64,0,0,1-.63-.64.63.63,0,0,1,.63-.63.64.64,0,0,1,.64.63.64.64,0,0,1-.64.64" transform="translate(0 0)"/><path class="bfb1a5d7-c3c1-4d9e-b911-bc71d0240197" d="M61.82,33.93a.95.95,0,1,1,1-1,.94.94,0,0,1-1,1" transform="translate(0 0)"/><path class="bfb1a5d7-c3c1-4d9e-b911-bc71d0240197" d="M58.19,34.24A1.26,1.26,0,1,1,59.45,33a1.26,1.26,0,0,1-1.26,1.26" transform="translate(0 0)"/><path class="bfb1a5d7-c3c1-4d9e-b911-bc71d0240197" d="M54.56,34.55A1.57,1.57,0,1,1,56.13,33a1.57,1.57,0,0,1-1.57,1.57" transform="translate(0 0)"/><path class="bfb1a5d7-c3c1-4d9e-b911-bc71d0240197" d="M50.93,34.88A1.9,1.9,0,1,1,52.82,33a1.9,1.9,0,0,1-1.89,1.9" transform="translate(0 0)"/><path class="bfb1a5d7-c3c1-4d9e-b911-bc71d0240197" d="M47.3,35.19A2.21,2.21,0,1,1,49.51,33a2.2,2.2,0,0,1-2.21,2.21" transform="translate(0 0)"/><path class="bfb1a5d7-c3c1-4d9e-b911-bc71d0240197" d="M43.67,35.23A2.25,2.25,0,1,1,45.91,33a2.24,2.24,0,0,1-2.24,2.25" transform="translate(0 0)"/><path class="bfb1a5d7-c3c1-4d9e-b911-bc71d0240197" d="M40,35.23A2.25,2.25,0,1,1,42.29,33,2.24,2.24,0,0,1,40,35.23" transform="translate(0 0)"/><path class="bfb1a5d7-c3c1-4d9e-b911-bc71d0240197" d="M36.41,35.23A2.25,2.25,0,1,1,38.65,33a2.25,2.25,0,0,1-2.24,2.25" transform="translate(0 0)"/><path class="bfb1a5d7-c3c1-4d9e-b911-bc71d0240197" d="M32.78,35.23A2.25,2.25,0,1,1,35,33a2.24,2.24,0,0,1-2.24,2.25" transform="translate(0 0)"/><path class="bfb1a5d7-c3c1-4d9e-b911-bc71d0240197" d="M29.15,35.23A2.25,2.25,0,1,1,31.39,33a2.25,2.25,0,0,1-2.24,2.25" transform="translate(0 0)"/><path class="bfb1a5d7-c3c1-4d9e-b911-bc71d0240197" d="M25.52,35.23A2.25,2.25,0,1,1,27.76,33a2.25,2.25,0,0,1-2.24,2.25" transform="translate(0 0)"/><path class="bfb1a5d7-c3c1-4d9e-b911-bc71d0240197" d="M21.89,35a2,2,0,1,1,2-2,2,2,0,0,1-2,2" transform="translate(0 0)"/><path class="bfb1a5d7-c3c1-4d9e-b911-bc71d0240197" d="M18.26,34.66A1.68,1.68,0,1,1,19.94,33a1.68,1.68,0,0,1-1.68,1.68" transform="translate(0 0)"/><path class="bfb1a5d7-c3c1-4d9e-b911-bc71d0240197" d="M14.63,34.35A1.37,1.37,0,1,1,16,33a1.37,1.37,0,0,1-1.37,1.37" transform="translate(0 0)"/><path class="bfb1a5d7-c3c1-4d9e-b911-bc71d0240197" d="M11,34A1,1,0,1,1,12.05,33,1,1,0,0,1,11,34" transform="translate(0 0)"/><path class="bfb1a5d7-c3c1-4d9e-b911-bc71d0240197" d="M7.37,33.72A.74.74,0,1,1,8.11,33a.74.74,0,0,1-.74.74" transform="translate(0 0)"/><path class="bfb1a5d7-c3c1-4d9e-b911-bc71d0240197" d="M3.74,33.41A.43.43,0,1,1,4.16,33a.42.42,0,0,1-.42.43" transform="translate(0 0)"/><path class="bfb1a5d7-c3c1-4d9e-b911-bc71d0240197" d="M.11,33.09A.1.1,0,0,1,0,33a.11.11,0,0,1,.11-.11A.11.11,0,0,1,.22,33a.1.1,0,0,1-.11.11" transform="translate(0 0)"/><path class="bfb1a5d7-c3c1-4d9e-b911-bc71d0240197" d="M69.08,36.92a.31.31,0,0,1,0-.61.31.31,0,0,1,0,.61" transform="translate(0 0)"/><path class="bfb1a5d7-c3c1-4d9e-b911-bc71d0240197" d="M65.45,37.23a.61.61,0,0,1-.61-.62.61.61,0,0,1,.61-.61.61.61,0,0,1,.62.61.62.62,0,0,1-.62.62" transform="translate(0 0)"/><path class="bfb1a5d7-c3c1-4d9e-b911-bc71d0240197" d="M61.82,37.54a.93.93,0,1,1,.93-.93.92.92,0,0,1-.93.93" transform="translate(0 0)"/><path class="bfb1a5d7-c3c1-4d9e-b911-bc71d0240197" d="M58.19,37.85a1.24,1.24,0,1,1,1.24-1.24,1.24,1.24,0,0,1-1.24,1.24" transform="translate(0 0)"/><path class="bfb1a5d7-c3c1-4d9e-b911-bc71d0240197" d="M54.56,38.17a1.56,1.56,0,1,1,1.56-1.56,1.56,1.56,0,0,1-1.56,1.56" transform="translate(0 0)"/><path class="bfb1a5d7-c3c1-4d9e-b911-bc71d0240197" d="M50.93,38.48a1.87,1.87,0,1,1,1.86-1.87,1.87,1.87,0,0,1-1.86,1.87" transform="translate(0 0)"/><path class="bfb1a5d7-c3c1-4d9e-b911-bc71d0240197" d="M47.3,38.79a2.18,2.18,0,1,1,2.18-2.18,2.18,2.18,0,0,1-2.18,2.18" transform="translate(0 0)"/><path class="bfb1a5d7-c3c1-4d9e-b911-bc71d0240197" d="M43.67,38.86a2.25,2.25,0,1,1,2.24-2.25,2.24,2.24,0,0,1-2.24,2.25" transform="translate(0 0)"/><path class="bfb1a5d7-c3c1-4d9e-b911-bc71d0240197" d="M40,38.86a2.25,2.25,0,1,1,2.25-2.25A2.24,2.24,0,0,1,40,38.86" transform="translate(0 0)"/><path class="bfb1a5d7-c3c1-4d9e-b911-bc71d0240197" d="M36.41,38.86a2.25,2.25,0,1,1,2.24-2.25,2.25,2.25,0,0,1-2.24,2.25" transform="translate(0 0)"/><path class="bfb1a5d7-c3c1-4d9e-b911-bc71d0240197" d="M32.78,38.86A2.25,2.25,0,1,1,35,36.61a2.24,2.24,0,0,1-2.24,2.25" transform="translate(0 0)"/><path class="bfb1a5d7-c3c1-4d9e-b911-bc71d0240197" d="M29.15,38.86a2.25,2.25,0,1,1,2.24-2.25,2.25,2.25,0,0,1-2.24,2.25" transform="translate(0 0)"/><path class="bfb1a5d7-c3c1-4d9e-b911-bc71d0240197" d="M25.52,38.86a2.25,2.25,0,1,1,2.24-2.25,2.25,2.25,0,0,1-2.24,2.25" transform="translate(0 0)"/><path class="bfb1a5d7-c3c1-4d9e-b911-bc71d0240197" d="M21.89,38.59a2,2,0,1,1,2-2,2,2,0,0,1-2,2" transform="translate(0 0)"/><path class="bfb1a5d7-c3c1-4d9e-b911-bc71d0240197" d="M18.26,38.27a1.66,1.66,0,1,1,1.66-1.66,1.66,1.66,0,0,1-1.66,1.66" transform="translate(0 0)"/><path class="bfb1a5d7-c3c1-4d9e-b911-bc71d0240197" d="M14.63,38A1.35,1.35,0,1,1,16,36.61,1.34,1.34,0,0,1,14.63,38" transform="translate(0 0)"/><path class="bfb1a5d7-c3c1-4d9e-b911-bc71d0240197" d="M11,37.65a1,1,0,1,1,1-1,1,1,0,0,1-1,1" transform="translate(0 0)"/><path class="bfb1a5d7-c3c1-4d9e-b911-bc71d0240197" d="M7.37,37.34a.73.73,0,0,1-.72-.73.72.72,0,0,1,.72-.72.73.73,0,0,1,.73.72.73.73,0,0,1-.73.73" transform="translate(0 0)"/><path class="bfb1a5d7-c3c1-4d9e-b911-bc71d0240197" d="M3.74,37a.42.42,0,1,1,.41-.42.41.41,0,0,1-.41.42" transform="translate(0 0)"/><path class="bfb1a5d7-c3c1-4d9e-b911-bc71d0240197" d="M.11,36.7A.08.08,0,0,1,0,36.61a.09.09,0,0,1,.18,0,.08.08,0,0,1-.09.09" transform="translate(0 0)"/><path class="bfb1a5d7-c3c1-4d9e-b911-bc71d0240197" d="M69.08,40.5a.26.26,0,0,1-.26-.26.26.26,0,0,1,.26-.26.26.26,0,0,1,.26.26.25.25,0,0,1-.26.26" transform="translate(0 0)"/><path class="bfb1a5d7-c3c1-4d9e-b911-bc71d0240197" d="M65.45,40.82a.58.58,0,0,1,0-1.15.58.58,0,1,1,0,1.15" transform="translate(0 0)"/><path class="bfb1a5d7-c3c1-4d9e-b911-bc71d0240197" d="M61.82,41.12a.88.88,0,1,1,.88-.88.87.87,0,0,1-.88.88" transform="translate(0 0)"/><path class="bfb1a5d7-c3c1-4d9e-b911-bc71d0240197" d="M58.19,41.42a1.18,1.18,0,1,1,1.18-1.18,1.17,1.17,0,0,1-1.18,1.18" transform="translate(0 0)"/><path class="bfb1a5d7-c3c1-4d9e-b911-bc71d0240197" d="M54.56,41.72A1.48,1.48,0,1,1,56,40.24a1.48,1.48,0,0,1-1.48,1.48" transform="translate(0 0)"/><path class="bfb1a5d7-c3c1-4d9e-b911-bc71d0240197" d="M50.93,42a1.78,1.78,0,1,1,1.77-1.78A1.78,1.78,0,0,1,50.93,42" transform="translate(0 0)"/><path class="bfb1a5d7-c3c1-4d9e-b911-bc71d0240197" d="M47.3,42.3a2.06,2.06,0,1,1,2.06-2.06A2.05,2.05,0,0,1,47.3,42.3" transform="translate(0 0)"/><path class="bfb1a5d7-c3c1-4d9e-b911-bc71d0240197" d="M43.67,42.49a2.25,2.25,0,1,1,2.24-2.25,2.24,2.24,0,0,1-2.24,2.25" transform="translate(0 0)"/><path class="bfb1a5d7-c3c1-4d9e-b911-bc71d0240197" d="M40,42.49a2.25,2.25,0,1,1,2.25-2.25A2.24,2.24,0,0,1,40,42.49" transform="translate(0 0)"/><path class="bfb1a5d7-c3c1-4d9e-b911-bc71d0240197" d="M36.41,42.49a2.25,2.25,0,1,1,2.24-2.25,2.25,2.25,0,0,1-2.24,2.25" transform="translate(0 0)"/><path class="bfb1a5d7-c3c1-4d9e-b911-bc71d0240197" d="M32.78,42.49A2.25,2.25,0,1,1,35,40.24a2.24,2.24,0,0,1-2.24,2.25" transform="translate(0 0)"/><path class="bfb1a5d7-c3c1-4d9e-b911-bc71d0240197" d="M29.15,42.49a2.25,2.25,0,1,1,2.24-2.25,2.25,2.25,0,0,1-2.24,2.25" transform="translate(0 0)"/><path class="bfb1a5d7-c3c1-4d9e-b911-bc71d0240197" d="M25.52,42.39a2.15,2.15,0,1,1,2.14-2.15,2.14,2.14,0,0,1-2.14,2.15" transform="translate(0 0)"/><path class="bfb1a5d7-c3c1-4d9e-b911-bc71d0240197" d="M21.89,42.11a1.87,1.87,0,1,1,1.86-1.87,1.87,1.87,0,0,1-1.86,1.87" transform="translate(0 0)"/><path class="bfb1a5d7-c3c1-4d9e-b911-bc71d0240197" d="M18.26,41.82a1.58,1.58,0,1,1,1.57-1.58,1.57,1.57,0,0,1-1.57,1.58" transform="translate(0 0)"/><path class="bfb1a5d7-c3c1-4d9e-b911-bc71d0240197" d="M14.63,41.52a1.28,1.28,0,1,1,1.28-1.28,1.28,1.28,0,0,1-1.28,1.28" transform="translate(0 0)"/><path class="bfb1a5d7-c3c1-4d9e-b911-bc71d0240197" d="M11,41.22a1,1,0,1,1,0-1.95,1,1,0,0,1,0,1.95" transform="translate(0 0)"/><path class="bfb1a5d7-c3c1-4d9e-b911-bc71d0240197" d="M7.37,40.92A.68.68,0,1,1,8,40.24a.67.67,0,0,1-.67.68" transform="translate(0 0)"/><path class="bfb1a5d7-c3c1-4d9e-b911-bc71d0240197" d="M3.74,40.61a.37.37,0,0,1-.36-.37.36.36,0,1,1,.72,0,.37.37,0,0,1-.36.37" transform="translate(0 0)"/><path class="bfb1a5d7-c3c1-4d9e-b911-bc71d0240197" d="M.11,40.3a.06.06,0,0,1,0-.06.05.05,0,0,1,.05-.05.05.05,0,0,1,.05.05.06.06,0,0,1,0,.06" transform="translate(0 0)"/><path class="bfb1a5d7-c3c1-4d9e-b911-bc71d0240197" d="M69.08,44.05a.18.18,0,1,1,.18-.18.18.18,0,0,1-.18.18" transform="translate(0 0)"/><path class="bfb1a5d7-c3c1-4d9e-b911-bc71d0240197" d="M65.45,44.36a.49.49,0,1,1,.48-.49.48.48,0,0,1-.48.49" transform="translate(0 0)"/><path class="bfb1a5d7-c3c1-4d9e-b911-bc71d0240197" d="M61.82,44.65a.78.78,0,1,1,.78-.78.78.78,0,0,1-.78.78" transform="translate(0 0)"/><path class="bfb1a5d7-c3c1-4d9e-b911-bc71d0240197" d="M58.19,44.94a1.07,1.07,0,1,1,1.07-1.07,1.07,1.07,0,0,1-1.07,1.07" transform="translate(0 0)"/><path class="bfb1a5d7-c3c1-4d9e-b911-bc71d0240197" d="M54.56,45.22a1.35,1.35,0,1,1,1.35-1.35,1.35,1.35,0,0,1-1.35,1.35" transform="translate(0 0)"/><path class="bfb1a5d7-c3c1-4d9e-b911-bc71d0240197" d="M50.93,45.49a1.62,1.62,0,1,1,1.62-1.62,1.62,1.62,0,0,1-1.62,1.62" transform="translate(0 0)"/><path class="bfb1a5d7-c3c1-4d9e-b911-bc71d0240197" d="M47.3,45.74a1.87,1.87,0,1,1,1.86-1.87,1.87,1.87,0,0,1-1.86,1.87" transform="translate(0 0)"/><path class="bfb1a5d7-c3c1-4d9e-b911-bc71d0240197" d="M43.67,46a2.09,2.09,0,1,1,2.08-2.09A2.08,2.08,0,0,1,43.67,46" transform="translate(0 0)"/><path class="bfb1a5d7-c3c1-4d9e-b911-bc71d0240197" d="M40,46.12a2.25,2.25,0,1,1,2.25-2.25A2.24,2.24,0,0,1,40,46.12" transform="translate(0 0)"/><path class="bfb1a5d7-c3c1-4d9e-b911-bc71d0240197" d="M36.41,46.12a2.25,2.25,0,1,1,2.24-2.25,2.25,2.25,0,0,1-2.24,2.25" transform="translate(0 0)"/><path class="bfb1a5d7-c3c1-4d9e-b911-bc71d0240197" d="M32.78,46.12A2.25,2.25,0,1,1,35,43.87a2.24,2.24,0,0,1-2.24,2.25" transform="translate(0 0)"/><path class="bfb1a5d7-c3c1-4d9e-b911-bc71d0240197" d="M29.15,46a2.15,2.15,0,1,1,2.14-2.15A2.14,2.14,0,0,1,29.15,46" transform="translate(0 0)"/><path class="bfb1a5d7-c3c1-4d9e-b911-bc71d0240197" d="M25.52,45.82a1.95,1.95,0,1,1,1.94-2,1.94,1.94,0,0,1-1.94,2" transform="translate(0 0)"/><path class="bfb1a5d7-c3c1-4d9e-b911-bc71d0240197" d="M21.89,45.57a1.7,1.7,0,1,1,1.7-1.7,1.7,1.7,0,0,1-1.7,1.7" transform="translate(0 0)"/><path class="bfb1a5d7-c3c1-4d9e-b911-bc71d0240197" d="M18.26,45.31a1.44,1.44,0,1,1,1.44-1.44,1.43,1.43,0,0,1-1.44,1.44" transform="translate(0 0)"/><path class="bfb1a5d7-c3c1-4d9e-b911-bc71d0240197" d="M14.63,45a1.16,1.16,0,1,1,1.16-1.16A1.16,1.16,0,0,1,14.63,45" transform="translate(0 0)"/><path class="bfb1a5d7-c3c1-4d9e-b911-bc71d0240197" d="M11,44.75A.88.88,0,1,1,11,43a.88.88,0,0,1,0,1.75" transform="translate(0 0)"/><path class="bfb1a5d7-c3c1-4d9e-b911-bc71d0240197" d="M7.37,44.46A.59.59,0,1,1,8,43.87a.58.58,0,0,1-.58.59" transform="translate(0 0)"/><path class="bfb1a5d7-c3c1-4d9e-b911-bc71d0240197" d="M3.74,44.16a.29.29,0,0,1,0-.57.29.29,0,0,1,0,.57" transform="translate(0 0)"/><path class="bfb1a5d7-c3c1-4d9e-b911-bc71d0240197" d="M69.08,47.58A.08.08,0,0,1,69,47.5a.07.07,0,0,1,.14,0,.08.08,0,0,1-.07.08" transform="translate(0 0)"/><path class="bfb1a5d7-c3c1-4d9e-b911-bc71d0240197" d="M65.45,47.87a.37.37,0,1,1,.36-.37.36.36,0,0,1-.36.37" transform="translate(0 0)"/><path class="bfb1a5d7-c3c1-4d9e-b911-bc71d0240197" d="M61.82,48.15a.65.65,0,0,1,0-1.29.65.65,0,0,1,0,1.29" transform="translate(0 0)"/><path class="bfb1a5d7-c3c1-4d9e-b911-bc71d0240197" d="M58.19,48.42a.92.92,0,1,1,.92-.92.92.92,0,0,1-.92.92" transform="translate(0 0)"/><path class="bfb1a5d7-c3c1-4d9e-b911-bc71d0240197" d="M54.56,48.68a1.18,1.18,0,1,1,1.18-1.18,1.17,1.17,0,0,1-1.18,1.18" transform="translate(0 0)"/><path class="bfb1a5d7-c3c1-4d9e-b911-bc71d0240197" d="M50.93,48.92a1.42,1.42,0,1,1,1.42-1.42,1.42,1.42,0,0,1-1.42,1.42" transform="translate(0 0)"/><path class="bfb1a5d7-c3c1-4d9e-b911-bc71d0240197" d="M47.3,49.15a1.65,1.65,0,1,1,1.64-1.65,1.64,1.64,0,0,1-1.64,1.65" transform="translate(0 0)"/><path class="bfb1a5d7-c3c1-4d9e-b911-bc71d0240197" d="M43.67,49.33a1.83,1.83,0,1,1,1.82-1.83,1.82,1.82,0,0,1-1.82,1.83" transform="translate(0 0)"/><path class="bfb1a5d7-c3c1-4d9e-b911-bc71d0240197" d="M40,49.45a1.95,1.95,0,1,1,2-2,1.94,1.94,0,0,1-2,2" transform="translate(0 0)"/><path class="bfb1a5d7-c3c1-4d9e-b911-bc71d0240197" d="M36.41,49.51a2,2,0,1,1,2-2,2,2,0,0,1-2,2" transform="translate(0 0)"/><path class="bfb1a5d7-c3c1-4d9e-b911-bc71d0240197" d="M32.78,49.48a2,2,0,1,1,2-2,2,2,0,0,1-2,2" transform="translate(0 0)"/><path class="bfb1a5d7-c3c1-4d9e-b911-bc71d0240197" d="M29.15,49.37A1.87,1.87,0,1,1,31,47.5a1.87,1.87,0,0,1-1.86,1.87" transform="translate(0 0)"/><path class="bfb1a5d7-c3c1-4d9e-b911-bc71d0240197" d="M25.52,49.21a1.71,1.71,0,1,1,1.7-1.71,1.71,1.71,0,0,1-1.7,1.71" transform="translate(0 0)"/><path class="bfb1a5d7-c3c1-4d9e-b911-bc71d0240197" d="M21.89,49a1.49,1.49,0,1,1,1.49-1.5A1.5,1.5,0,0,1,21.89,49" transform="translate(0 0)"/><path class="bfb1a5d7-c3c1-4d9e-b911-bc71d0240197" d="M18.26,48.76a1.26,1.26,0,1,1,1.26-1.26,1.26,1.26,0,0,1-1.26,1.26" transform="translate(0 0)"/><path class="bfb1a5d7-c3c1-4d9e-b911-bc71d0240197" d="M14.63,48.51a1,1,0,1,1,1-1,1,1,0,0,1-1,1" transform="translate(0 0)"/><path class="bfb1a5d7-c3c1-4d9e-b911-bc71d0240197" d="M11,48.24a.74.74,0,1,1,.73-.74.74.74,0,0,1-.73.74" transform="translate(0 0)"/><path class="bfb1a5d7-c3c1-4d9e-b911-bc71d0240197" d="M7.37,48a.47.47,0,1,1,.46-.47.46.46,0,0,1-.46.47" transform="translate(0 0)"/><path class="bfb1a5d7-c3c1-4d9e-b911-bc71d0240197" d="M3.74,47.68a.17.17,0,0,1-.17-.18.17.17,0,0,1,.17-.17.18.18,0,0,1,.17.17.18.18,0,0,1-.17.18" transform="translate(0 0)"/><path class="bfb1a5d7-c3c1-4d9e-b911-bc71d0240197" d="M65.45,51.36a.22.22,0,0,1-.22-.23.22.22,0,0,1,.22-.22.22.22,0,0,1,.22.22.22.22,0,0,1-.22.23" transform="translate(0 0)"/><path class="bfb1a5d7-c3c1-4d9e-b911-bc71d0240197" d="M61.82,51.62a.49.49,0,1,1,.48-.49.48.48,0,0,1-.48.49" transform="translate(0 0)"/><path class="bfb1a5d7-c3c1-4d9e-b911-bc71d0240197" d="M58.19,51.87a.74.74,0,1,1,.74-.74.74.74,0,0,1-.74.74" transform="translate(0 0)"/><path class="bfb1a5d7-c3c1-4d9e-b911-bc71d0240197" d="M54.56,52.11a1,1,0,1,1,1-1,1,1,0,0,1-1,1" transform="translate(0 0)"/><path class="bfb1a5d7-c3c1-4d9e-b911-bc71d0240197" d="M50.93,52.32a1.19,1.19,0,1,1,1.19-1.19,1.19,1.19,0,0,1-1.19,1.19" transform="translate(0 0)"/><path class="bfb1a5d7-c3c1-4d9e-b911-bc71d0240197" d="M47.3,52.51a1.38,1.38,0,1,1,1.38-1.38,1.38,1.38,0,0,1-1.38,1.38" transform="translate(0 0)"/><path class="bfb1a5d7-c3c1-4d9e-b911-bc71d0240197" d="M43.67,52.67a1.54,1.54,0,1,1,1.54-1.54,1.53,1.53,0,0,1-1.54,1.54" transform="translate(0 0)"/><path class="bfb1a5d7-c3c1-4d9e-b911-bc71d0240197" d="M40,52.78a1.65,1.65,0,1,1,1.64-1.65A1.64,1.64,0,0,1,40,52.78" transform="translate(0 0)"/><path class="bfb1a5d7-c3c1-4d9e-b911-bc71d0240197" d="M36.41,52.82a1.69,1.69,0,1,1,1.68-1.69,1.69,1.69,0,0,1-1.68,1.69" transform="translate(0 0)"/><path class="bfb1a5d7-c3c1-4d9e-b911-bc71d0240197" d="M32.78,52.8a1.67,1.67,0,1,1,1.66-1.67,1.66,1.66,0,0,1-1.66,1.67" transform="translate(0 0)"/><path class="bfb1a5d7-c3c1-4d9e-b911-bc71d0240197" d="M29.15,52.71a1.58,1.58,0,1,1,1.57-1.58,1.57,1.57,0,0,1-1.57,1.58" transform="translate(0 0)"/><path class="bfb1a5d7-c3c1-4d9e-b911-bc71d0240197" d="M25.52,52.57A1.44,1.44,0,1,1,27,51.13a1.43,1.43,0,0,1-1.44,1.44" transform="translate(0 0)"/><path class="bfb1a5d7-c3c1-4d9e-b911-bc71d0240197" d="M21.89,52.39a1.26,1.26,0,1,1,1.26-1.26,1.25,1.25,0,0,1-1.26,1.26" transform="translate(0 0)"/><path class="bfb1a5d7-c3c1-4d9e-b911-bc71d0240197" d="M18.26,52.18a1,1,0,1,1,1-1,1,1,0,0,1-1,1" transform="translate(0 0)"/><path class="bfb1a5d7-c3c1-4d9e-b911-bc71d0240197" d="M14.63,52a.82.82,0,0,1-.82-.82.82.82,0,0,1,.82-.81.81.81,0,0,1,.81.81.82.82,0,0,1-.81.82" transform="translate(0 0)"/><path class="bfb1a5d7-c3c1-4d9e-b911-bc71d0240197" d="M11,51.71a.58.58,0,1,1,.57-.58.58.58,0,0,1-.57.58" transform="translate(0 0)"/><path class="bfb1a5d7-c3c1-4d9e-b911-bc71d0240197" d="M7.37,51.44a.31.31,0,1,1,.3-.31.3.3,0,0,1-.3.31" transform="translate(0 0)"/><path class="bfb1a5d7-c3c1-4d9e-b911-bc71d0240197" d="M3.74,51.17s0,0,0,0,0,0,0,0,0,0,0,0,0,0,0,0" transform="translate(0 0)"/><path class="bfb1a5d7-c3c1-4d9e-b911-bc71d0240197" d="M65.45,54.81a0,0,0,0,1,0-.05s0,0,0,0,0,0,0,0a0,0,0,0,1,0,.05" transform="translate(0 0)"/><path class="bfb1a5d7-c3c1-4d9e-b911-bc71d0240197" d="M61.82,55.06a.3.3,0,1,1,.29-.3.29.29,0,0,1-.29.3" transform="translate(0 0)"/><path class="bfb1a5d7-c3c1-4d9e-b911-bc71d0240197" d="M58.19,55.3a.54.54,0,1,1,.54-.54.54.54,0,0,1-.54.54" transform="translate(0 0)"/><path class="bfb1a5d7-c3c1-4d9e-b911-bc71d0240197" d="M54.56,55.51a.75.75,0,1,1,.75-.75.75.75,0,0,1-.75.75" transform="translate(0 0)"/><path class="bfb1a5d7-c3c1-4d9e-b911-bc71d0240197" d="M50.93,55.71a.95.95,0,1,1,1-1,.94.94,0,0,1-1,1" transform="translate(0 0)"/><path class="bfb1a5d7-c3c1-4d9e-b911-bc71d0240197" d="M47.3,55.87a1.11,1.11,0,1,1,1.11-1.11,1.1,1.1,0,0,1-1.11,1.11" transform="translate(0 0)"/><path class="bfb1a5d7-c3c1-4d9e-b911-bc71d0240197" d="M43.67,56a1.24,1.24,0,1,1,1.24-1.24A1.24,1.24,0,0,1,43.67,56" transform="translate(0 0)"/><path class="bfb1a5d7-c3c1-4d9e-b911-bc71d0240197" d="M40,56.09a1.33,1.33,0,1,1,1.33-1.33A1.33,1.33,0,0,1,40,56.09" transform="translate(0 0)"/><path class="bfb1a5d7-c3c1-4d9e-b911-bc71d0240197" d="M36.41,56.13a1.37,1.37,0,1,1,1.37-1.37,1.37,1.37,0,0,1-1.37,1.37" transform="translate(0 0)"/><path class="bfb1a5d7-c3c1-4d9e-b911-bc71d0240197" d="M32.78,56.11a1.35,1.35,0,1,1,1.35-1.35,1.35,1.35,0,0,1-1.35,1.35" transform="translate(0 0)"/><path class="bfb1a5d7-c3c1-4d9e-b911-bc71d0240197" d="M29.15,56a1.28,1.28,0,1,1,1.28-1.28A1.28,1.28,0,0,1,29.15,56" transform="translate(0 0)"/><path class="bfb1a5d7-c3c1-4d9e-b911-bc71d0240197" d="M25.52,55.92a1.16,1.16,0,1,1,1.16-1.16,1.16,1.16,0,0,1-1.16,1.16" transform="translate(0 0)"/><path class="bfb1a5d7-c3c1-4d9e-b911-bc71d0240197" d="M21.89,55.77a1,1,0,1,1,1-1,1,1,0,0,1-1,1" transform="translate(0 0)"/><path class="bfb1a5d7-c3c1-4d9e-b911-bc71d0240197" d="M18.26,55.58a.82.82,0,1,1,0-1.63.82.82,0,0,1,0,1.63" transform="translate(0 0)"/><path class="bfb1a5d7-c3c1-4d9e-b911-bc71d0240197" d="M14.63,55.37a.61.61,0,1,1,.6-.61.6.6,0,0,1-.6.61" transform="translate(0 0)"/><path class="bfb1a5d7-c3c1-4d9e-b911-bc71d0240197" d="M11,55.14a.38.38,0,0,1,0-.75.38.38,0,0,1,0,.75" transform="translate(0 0)"/><path class="bfb1a5d7-c3c1-4d9e-b911-bc71d0240197" d="M7.37,54.89a.12.12,0,0,1-.12-.13.12.12,0,0,1,.24,0,.12.12,0,0,1-.12.13" transform="translate(0 0)"/><path class="bfb1a5d7-c3c1-4d9e-b911-bc71d0240197" d="M61.82,58.48a.09.09,0,0,1-.08-.09.09.09,0,0,1,.08-.08.08.08,0,0,1,.08.08.08.08,0,0,1-.08.09" transform="translate(0 0)"/><path class="bfb1a5d7-c3c1-4d9e-b911-bc71d0240197" d="M58.19,58.7a.31.31,0,0,1,0-.61.31.31,0,0,1,0,.61" transform="translate(0 0)"/><path class="bfb1a5d7-c3c1-4d9e-b911-bc71d0240197" d="M54.56,58.91a.52.52,0,1,1,.52-.52.51.51,0,0,1-.52.52" transform="translate(0 0)"/><path class="bfb1a5d7-c3c1-4d9e-b911-bc71d0240197" d="M50.93,59.08a.69.69,0,1,1,.69-.69.69.69,0,0,1-.69.69" transform="translate(0 0)"/><path class="bfb1a5d7-c3c1-4d9e-b911-bc71d0240197" d="M47.3,59.23a.84.84,0,1,1,.84-.84.84.84,0,0,1-.84.84" transform="translate(0 0)"/><path class="bfb1a5d7-c3c1-4d9e-b911-bc71d0240197" d="M43.67,59.34a.95.95,0,1,1,.95-1,.95.95,0,0,1-.95,1" transform="translate(0 0)"/><path class="bfb1a5d7-c3c1-4d9e-b911-bc71d0240197" d="M40,59.41a1,1,0,1,1,1-1,1,1,0,0,1-1,1" transform="translate(0 0)"/><path class="bfb1a5d7-c3c1-4d9e-b911-bc71d0240197" d="M36.41,59.44a1,1,0,1,1,1.05-1,1,1,0,0,1-1.05,1" transform="translate(0 0)"/><path class="bfb1a5d7-c3c1-4d9e-b911-bc71d0240197" d="M32.78,59.43a1,1,0,1,1,1-1,1,1,0,0,1-1,1" transform="translate(0 0)"/><path class="bfb1a5d7-c3c1-4d9e-b911-bc71d0240197" d="M29.15,59.37a1,1,0,1,1,1-1,1,1,0,0,1-1,1" transform="translate(0 0)"/><path class="bfb1a5d7-c3c1-4d9e-b911-bc71d0240197" d="M25.52,59.27a.88.88,0,1,1,0-1.75.88.88,0,0,1,0,1.75" transform="translate(0 0)"/><path class="bfb1a5d7-c3c1-4d9e-b911-bc71d0240197" d="M21.89,59.13a.74.74,0,1,1,0-1.47.74.74,0,0,1,0,1.47" transform="translate(0 0)"/><path class="bfb1a5d7-c3c1-4d9e-b911-bc71d0240197" d="M18.26,59a.58.58,0,1,1,.57-.58.58.58,0,0,1-.57.58" transform="translate(0 0)"/><path class="bfb1a5d7-c3c1-4d9e-b911-bc71d0240197" d="M14.63,58.77a.38.38,0,1,1,.37-.38.38.38,0,0,1-.37.38" transform="translate(0 0)"/><path class="bfb1a5d7-c3c1-4d9e-b911-bc71d0240197" d="M11,58.56a.17.17,0,0,1-.16-.17.16.16,0,0,1,.32,0,.17.17,0,0,1-.16.17" transform="translate(0 0)"/><path class="bfb1a5d7-c3c1-4d9e-b911-bc71d0240197" d="M58.19,62.09a.06.06,0,0,1-.06-.06.06.06,0,0,1,.06-.06.05.05,0,0,1,.06.06.06.06,0,0,1-.06.06" transform="translate(0 0)"/><path class="bfb1a5d7-c3c1-4d9e-b911-bc71d0240197" d="M54.56,62.28a.26.26,0,1,1,.25-.25.25.25,0,0,1-.25.25" transform="translate(0 0)"/><path class="bfb1a5d7-c3c1-4d9e-b911-bc71d0240197" d="M50.93,62.44a.42.42,0,1,1,.41-.41.41.41,0,0,1-.41.41" transform="translate(0 0)"/><path class="bfb1a5d7-c3c1-4d9e-b911-bc71d0240197" d="M47.3,62.57a.55.55,0,1,1,.54-.54.54.54,0,0,1-.54.54" transform="translate(0 0)"/><path class="bfb1a5d7-c3c1-4d9e-b911-bc71d0240197" d="M43.67,62.67a.65.65,0,1,1,.64-.64.64.64,0,0,1-.64.64" transform="translate(0 0)"/><path class="bfb1a5d7-c3c1-4d9e-b911-bc71d0240197" d="M40,62.74a.72.72,0,1,1,.72-.71.71.71,0,0,1-.72.71" transform="translate(0 0)"/><path class="bfb1a5d7-c3c1-4d9e-b911-bc71d0240197" d="M36.41,62.76a.74.74,0,1,1,.73-.73.73.73,0,0,1-.73.73" transform="translate(0 0)"/><path class="bfb1a5d7-c3c1-4d9e-b911-bc71d0240197" d="M32.78,62.75a.73.73,0,0,1-.73-.72.73.73,0,0,1,.73-.73.73.73,0,0,1,.72.73.72.72,0,0,1-.72.72" transform="translate(0 0)"/><path class="bfb1a5d7-c3c1-4d9e-b911-bc71d0240197" d="M29.15,62.7a.68.68,0,0,1,0-1.35.68.68,0,1,1,0,1.35" transform="translate(0 0)"/><path class="bfb1a5d7-c3c1-4d9e-b911-bc71d0240197" d="M25.52,62.61A.59.59,0,1,1,26.1,62a.58.58,0,0,1-.58.58" transform="translate(0 0)"/><path class="bfb1a5d7-c3c1-4d9e-b911-bc71d0240197" d="M21.89,62.49a.47.47,0,1,1,.46-.46.46.46,0,0,1-.46.46" transform="translate(0 0)"/><path class="bfb1a5d7-c3c1-4d9e-b911-bc71d0240197" d="M18.26,62.33a.31.31,0,1,1,.3-.3.3.3,0,0,1-.3.3" transform="translate(0 0)"/><path class="bfb1a5d7-c3c1-4d9e-b911-bc71d0240197" d="M14.63,62.15a.12.12,0,0,1-.12-.12.12.12,0,1,1,.24,0,.12.12,0,0,1-.12.12" transform="translate(0 0)"/><path class="bfb1a5d7-c3c1-4d9e-b911-bc71d0240197" d="M50.93,65.78a.13.13,0,0,1-.12-.13.12.12,0,0,1,.12-.11.11.11,0,0,1,.12.11.12.12,0,0,1-.12.13" transform="translate(0 0)"/><path class="bfb1a5d7-c3c1-4d9e-b911-bc71d0240197" d="M47.3,65.91a.26.26,0,1,1,.25-.26.26.26,0,0,1-.25.26" transform="translate(0 0)"/><path class="bfb1a5d7-c3c1-4d9e-b911-bc71d0240197" d="M43.67,66a.35.35,0,1,1,.34-.35.35.35,0,0,1-.34.35" transform="translate(0 0)"/><path class="bfb1a5d7-c3c1-4d9e-b911-bc71d0240197" d="M40,66.06a.41.41,0,1,1,.4-.41.4.4,0,0,1-.4.41" transform="translate(0 0)"/><path class="bfb1a5d7-c3c1-4d9e-b911-bc71d0240197" d="M36.41,66.08a.43.43,0,1,1,.42-.42.42.42,0,0,1-.42.42" transform="translate(0 0)"/><path class="bfb1a5d7-c3c1-4d9e-b911-bc71d0240197" d="M32.78,66.07a.42.42,0,1,1,.41-.42.41.41,0,0,1-.41.42" transform="translate(0 0)"/><path class="bfb1a5d7-c3c1-4d9e-b911-bc71d0240197" d="M29.15,66a.37.37,0,1,1,.36-.37.36.36,0,0,1-.36.37" transform="translate(0 0)"/><path class="bfb1a5d7-c3c1-4d9e-b911-bc71d0240197" d="M25.52,65.94a.29.29,0,0,1,0-.57.29.29,0,0,1,0,.57" transform="translate(0 0)"/><path class="bfb1a5d7-c3c1-4d9e-b911-bc71d0240197" d="M21.89,65.83a.18.18,0,0,1-.17-.18.17.17,0,1,1,.34,0,.18.18,0,0,1-.17.18" transform="translate(0 0)"/><path class="bfb1a5d7-c3c1-4d9e-b911-bc71d0240197" d="M18.26,65.69s0,0,0,0,0,0,0,0,0,0,0,0,0,0,0,0" transform="translate(0 0)"/><path class="bfb1a5d7-c3c1-4d9e-b911-bc71d0240197" d="M59.68,5.76,13.2,8.45A6.16,6.16,0,0,0,7.42,15L8.9,38.47a6.79,6.79,0,0,0,6.57,6.24l12.94.16-1.12,2.37,5.81-.43L29,51.1h6.94L27.7,61.58l21-15.11H40.64L41.85,45l16.1.2a6.43,6.43,0,0,0,6.45-6.1l1.19-27.56a5.48,5.48,0,0,0-5.91-5.81" transform="translate(0 0)"/><path class="b50ba17a-eefe-42ff-9329-cb72024876e0" d="M59,7,16.43,9.48A6.15,6.15,0,0,0,10.65,16l1.26,19.9a6.78,6.78,0,0,0,6.57,6.25l13.43.16-1.33,2.81,6.9-.52-4.33,4.54h6.6l-4.41,5.59L46.14,47h-6.9l3.83-4.52,14.37.17a6.44,6.44,0,0,0,6.45-6.1l1-23.7A5.48,5.48,0,0,0,59,7" transform="translate(0 0)"/></g><polygon class="f80ce057-6b3f-4b2b-a98b-b27e317ce094" points="33.05 22.74 31.16 31.55 22.17 31.55 24 22.74 33.05 22.74"/><polygon class="f80ce057-6b3f-4b2b-a98b-b27e317ce094" points="46.81 22.74 44.93 31.55 35.94 31.55 37.77 22.74 46.81 22.74"/><polygon class="f80ce057-6b3f-4b2b-a98b-b27e317ce094" points="60.58 22.74 58.69 31.55 49.7 31.55 51.54 22.74 60.58 22.74"/><polygon class="a9c9d89d-5875-4f8e-b298-a72c83453ec8" points="30.38 20.87 28.49 29.68 19.5 29.68 21.33 20.87 30.38 20.87"/><polygon class="a23eba19-c828-4869-96ba-95db190e58b1" points="30.38 20.87 28.49 29.68 19.5 29.68 21.33 20.87 30.38 20.87"/><polygon class="a9c9d89d-5875-4f8e-b298-a72c83453ec8" points="44.14 20.87 42.25 29.68 33.27 29.68 35.1 20.87 44.14 20.87"/><polygon class="a23eba19-c828-4869-96ba-95db190e58b1" points="44.14 20.87 42.25 29.68 33.27 29.68 35.1 20.87 44.14 20.87"/><polygon class="a9c9d89d-5875-4f8e-b298-a72c83453ec8" points="57.91 20.87 56.02 29.68 47.03 29.68 48.86 20.87 57.91 20.87"/><polygon class="a23eba19-c828-4869-96ba-95db190e58b1" points="57.91 20.87 56.02 29.68 47.03 29.68 48.86 20.87 57.91 20.87"/></g></g></svg>