<svg xmlns="http://www.w3.org/2000/svg" xmlns:xlink="http://www.w3.org/1999/xlink" viewBox="0 0 1369.66 137.24"><defs><style>.a17b334b-92a5-4375-aedf-3b7cd1b07445{fill:none;}.aff74441-ac78-4f9d-a838-56cc288ad4bb{fill:#969696;}.fa842be4-df54-4747-8092-f40efde14520{clip-path:url(#f33b2ce8-a46b-40e6-8f8c-1a737063db2a);}.a055e588-7cbb-410b-b76a-0258096faa6a{fill:url(#f6ce283e-9eef-45df-82da-42dac7419287);}</style><clipPath id="f33b2ce8-a46b-40e6-8f8c-1a737063db2a"><path class="a17b334b-92a5-4375-aedf-3b7cd1b07445" d="M698.71,128.59h24.85V96.81ZM926.88,71.87l-19.51,56.72h39l7.44-23.51H996.4l7.84,23.51h39.18l-2-5.91L976.25,75.39H961.42l2.8-8.74-7.66-5.59Zm31.44-11.48L964.7,65l2.53-7.88ZM757.89,52.84,733.4,84.18h34.75V52.84Zm93.59,56.85,11.14,18.9h43.81l-31.14-48.2a41.2,41.2,0,0,0,13.4-8.34L871.05,49.47Zm76-39.68,27.57-10L935.76,46Zm54.17-18.09,7.1,23.47h-9.9l61.71,44.79-27-79.87Zm-110-4.23,18.16,23.24c6.81-7.06,10-16.35,10-26.73,0-13.91-5.62-25-16.58-32.2ZM684.56,3V105.92L718,3Zm35.05,0L684.56,110.87v17.72h12.21l26.79-34.26V84.18h7.9L756,52.84H723.56V34.75h36.5L756.72,3Zm38.63,0,3.32,31.74h19V3Zm31.24,0V128.59h14.44L817.12,3Zm38.78,30.14h10.86c14.46,0,19.69,4.42,19.69,13.86,0,10.25-4.83,14.67-16.88,16.07l-13.67.21ZM818.66,3,805.45,128.59h23.62V91.39l11-1,10.33,17.52L869.92,48,834.77,3Zm18.05,0,33.78,43.23,11.39-35.07C873.14,5.91,861.28,3,846.35,3ZM950.57,3,936.32,44.44l20.5,14.9,11-4,7.67-24,5.76,19.11,31.86-11.59L1001,3ZM1177.1,128.59h39.58V3H1177.1ZM1233.91,3V128.59h88V96.24H1273.5V3Zm96.17,125.58h39.58V3h-39.58Zm-281-101.2c-6.81,10.36-10.47,23.45-10.47,38.9,0,42.4,27.93,65.3,69.92,65.3,20.9,0,38.78-4.42,52.65-11.45V54.44h-63.9V84.79H1126V97.44c-4,1.61-10.85,2.42-16.28,2.42-22.3,0-31.74-12.06-31.74-34.36,0-19.09,12.26-32.35,32.55-32.35,11.85,0,23.11,3,36.17,10.25l12.25-32.55C1149.4,5.34,1135.68,2,1122.43.7Zm1.51-2.18L1118.83.39c-3.39-.26-6.73-.39-9.93-.39-26.32,0-46.48,9-58.34,25.23"/></clipPath><linearGradient id="f6ce283e-9eef-45df-82da-42dac7419287" x1="572.29" y1="-890.23" x2="576.06" y2="-890.23" gradientTransform="translate(-103152.2 161589.21) scale(181.44)" gradientUnits="userSpaceOnUse"><stop offset="0" stop-color="#a4bfe5"/><stop offset="1" stop-color="#969696"/></linearGradient></defs><g id="e281314f-584b-406f-842d-dc0fa6b83aa1" data-name="Livello 2"><g id="e2d2ce0f-a5d2-4777-a066-5036cb3c0127" data-name="Livello 1"><g id="a4aabce7-b848-40b0-aa93-fb1b1ed8ef66" data-name="b35a7e74-e01e-42d0-b63d-2fc35bc20d11"><g id="b2773687-e120-4c9e-83ad-8c49440c7d4e" data-name="edd67f9d-7db1-44f3-99ac-bd11a1f44cfc"><path class="aff74441-ac78-4f9d-a838-56cc288ad4bb" d="M632.31,52.91h-14.6v75.4h14.6ZM592.37,90.79c0,15.92-9.42,27-23.77,27-14.84,0-24.13-11.11-24.13-27.51,0-16,9.29-26.9,23.64-26.9,14.72,0,24.26,10.85,24.26,27.38m14.71-.48c0-24.73-16.41-39.21-38.6-39.21S529.63,67.6,529.63,90.76c0,24.73,16.41,39.33,38.72,39.33s38.73-16.53,38.73-39.81m-124.67-.42V65.21h9.49c10.62,0,16.41,3.75,16.41,11.58,0,8.21-5.79,12.31-15,12.79Zm.12,11.59,10.86-.73,16.77,27.63H526.9l-19.76-30.8c10.26-3.5,16.29-11,16.29-21.72,0-14-10-22.92-29.2-22.92H467.82v75.4h14.71ZM456.9,128.31V115.86H420V96.7h30.28V84.27H420V65.33H456.9V52.91H405.47v75.4ZM353.57,89.86V65.21h9.53c10.62,0,16.41,3.75,16.41,11.58,0,8.21-5.79,12.31-15,12.79Zm.12,11.59,10.86-.73,16.77,27.63h16.77L378.3,97.55c10.26-3.5,16.29-11,16.29-21.72,0-14-10-22.92-29.2-22.92H339v75.4h14.72ZM328,128.35V115.86H291.11V96.7h30.27V84.27H291.11V65.33H328V52.91H276.63v75.4ZM254,78.65c0,9-5.67,13.63-16.89,13.87l-9.41.24V65.21h8.93q17.37,0,17.37,13.4m14.72-.49c0-14.71-10.26-25.21-31.13-25.21H213.18v75.4H227.9v-23.4l8.57-.13c20.39-.12,32.21-9.16,32.21-26.66M199.46,98.39V52.91H184.9V98.39c0,13-5.79,18.82-16.41,18.82-11.7,0-17.13-6.87-17.13-19.42V52.91H136.6V99.72c0,19.66,12.07,30.4,31.37,30.4,20.15,0,31.49-11.1,31.49-31.73M98.9,117.69c-9.17,0-16.89-3-24-7.23l-3.38,12.66c7.24,4.35,17,7,27.15,7,17.73,0,28.71-9.77,28.71-23.53,0-14.47-11.7-19.42-23-22.68-10.5-2.77-17.13-5.18-17.13-11.34,0-5.19,3.85-8.92,12.66-8.92,7.24,0,15.44,2.53,22.2,6.51l3.62-12.43a50.07,50.07,0,0,0-26-6.63c-16.89,0-27,8.81-27,22.32,0,14.72,12.42,19.78,23.4,22.68s16.79,5.31,16.79,11.58-5.79,10-14,10M45.24,84.76l-4.7,16.89H22.32L26.9,84.76Zm-28.83.36L12,101.28H0v10.26H9.29l-6.87,25.7H12.9l6.88-25.7H38l-6.87,25.7h10.5l6.87-25.7H65.15V101.28h-14l4.34-16.16H67.55V74.86H58.26l6.52-24H54.28l-6.5,24H29.56l6.51-24H25.58l-6.39,24H2.42V85.12Z"/><g class="fa842be4-df54-4747-8092-f40efde14520"><rect class="a055e588-7cbb-410b-b76a-0258096faa6a" x="684.56" width="685.1" height="131.61"/></g></g></g></g></g></svg>