<svg xmlns="http://www.w3.org/2000/svg" xmlns:xlink="http://www.w3.org/1999/xlink" viewBox="0 0 685.1 232.22"><defs><style>.bad445c3-eccb-4f48-9067-e178a8069029{fill:none;}.bec7cd86-9e5a-4fd5-9438-60fc73f9f6a7{fill:#969696;}.ac526f82-16e4-46cb-9e09-af50145cd80b{clip-path:url(#bebafa9e-2a42-4acf-b8ed-8474c3b2a67a);}.b4061a72-db9f-4a79-ba2a-567a34055c3b{fill:url(#eefe852f-3355-4cac-9832-3f1c8d20b4d1);}</style><clipPath id="bebafa9e-2a42-4acf-b8ed-8474c3b2a67a"><path class="bad445c3-eccb-4f48-9067-e178a8069029" d="M14.15,229.2H39V197.42Zm228.17-56.72L222.81,229.2h39l7.44-23.51h42.59l7.84,23.51h39.18l-2-5.91L291.69,176H276.86l2.8-8.74L272,161.67ZM273.76,161l6.38,4.64,2.53-7.88ZM73.33,153.45,48.84,184.79H83.59V153.45Zm93.59,56.85,11.14,18.9h43.81L190.73,181a41.2,41.2,0,0,0,13.4-8.34l-17.64-22.58Zm76-39.68,27.57-10-19.29-14Zm54.17-18.09,7.1,23.47h-9.9L356,220.79l-27-79.87Zm-110-4.23,18.16,23.24c6.81-7.06,10-16.35,10-26.73,0-13.91-5.62-25-16.58-32.2ZM0,103.62V206.53L33.44,103.62Zm35.05,0L0,211.48V229.2H12.21L39,194.94V184.79h7.9l24.49-31.34H39V135.36H75.5l-3.34-31.74Zm38.63,0L77,135.36H96V103.62Zm31.24,0V229.2h14.44l13.2-125.58Zm38.78,30.14h10.86c14.46,0,19.69,4.42,19.69,13.86,0,10.25-4.83,14.67-16.88,16.07l-13.67.21Zm-9.6-30.14L120.89,229.2h23.62V192l11.05-1,10.33,17.52,19.47-59.93-35.15-45Zm18.05,0,33.78,43.23,11.39-35.07c-8.74-5.26-20.6-8.16-35.53-8.16Zm113.86,0-14.25,41.43,20.5,14.9,11-4,7.67-24,5.76,19.11,31.86-11.59-12.1-35.85ZM492.54,229.2h39.58V103.62H492.54Zm56.81-125.58V229.2h88V196.85H588.94V103.62ZM645.52,229.2H685.1V103.62H645.52ZM364.49,128C357.68,138.36,354,151.45,354,166.9c0,42.4,27.93,65.3,69.92,65.3,20.9,0,38.78-4.42,52.65-11.45v-65.7h-63.9V185.4h28.73v12.65c-4,1.61-10.85,2.42-16.28,2.42-22.3,0-31.74-12.06-31.74-34.36,0-19.09,12.26-32.35,32.55-32.35,11.85,0,23.11,3,36.17,10.25l12.25-32.55c-9.53-5.51-23.25-8.81-36.5-10.15Zm1.51-2.18L434.27,101c-3.39-.26-6.73-.39-9.93-.39-26.32,0-46.48,9-58.34,25.23"/></clipPath><linearGradient id="eefe852f-3355-4cac-9832-3f1c8d20b4d1" x1="-112.27" y1="-789.62" x2="-108.5" y2="-789.62" gradientTransform="translate(20369.8 143435.14) scale(181.44)" gradientUnits="userSpaceOnUse"><stop offset="0" stop-color="#a4bfe5"/><stop offset="1" stop-color="#969696"/></linearGradient></defs><g id="a1595877-ee06-4ae6-bced-12c66c71cc8a" data-name="Livello 2"><g id="a229e992-fa7b-497f-ae74-e40598925e4f" data-name="Livello 1"><g id="a8609bc8-41ef-4894-a2ec-0f33b48c509c" data-name="b35a7e74-e01e-42d0-b63d-2fc35bc20d11"><g id="b230000c-8795-4282-924f-c79b9ef1ad1d" data-name="edd67f9d-7db1-44f3-99ac-bd11a1f44cfc"><path class="bec7cd86-9e5a-4fd5-9438-60fc73f9f6a7" d="M684.41,2.05h-14.6v75.4h14.6ZM644.47,39.93c0,15.92-9.42,27-23.77,27-14.84,0-24.13-11.11-24.13-27.51,0-16,9.29-26.9,23.64-26.9,14.72,0,24.26,10.85,24.26,27.38m14.71-.48c0-24.73-16.41-39.21-38.6-39.21S581.73,16.74,581.73,39.9c0,24.73,16.41,39.33,38.72,39.33s38.73-16.53,38.73-39.81M534.51,39V14.35H544c10.62,0,16.41,3.75,16.41,11.58,0,8.21-5.79,12.31-15,12.79Zm.12,11.59,10.86-.73,16.77,27.63H579l-19.76-30.8c10.26-3.5,16.29-11,16.29-21.72,0-14-10-22.92-29.2-22.92H519.92v75.4h14.71ZM509,77.45V65H472.05V45.84h30.28V33.41H472.05V14.47H509V2.05H457.57v75.4ZM405.67,39V14.35h9.53c10.62,0,16.41,3.75,16.41,11.58,0,8.21-5.79,12.31-15,12.79Zm.12,11.59,10.86-.73,16.77,27.63h16.77L430.4,46.69c10.26-3.5,16.29-11,16.29-21.72,0-14-10-22.92-29.2-22.92H391.07v75.4h14.72Zm-25.67,26.9V65H343.21V45.84h30.27V33.41H343.21V14.47h36.91V2.05H328.73v75.4Zm-74.06-49.7c0,9-5.67,13.63-16.89,13.87l-9.41.24V14.35h8.93q17.37,0,17.37,13.4m14.72-.49c0-14.71-10.26-25.21-31.13-25.21H265.28v75.4H280V54.05l8.57-.13c20.39-.12,32.21-9.16,32.21-26.66M251.56,47.53V2.05H237V47.53c0,13-5.79,18.82-16.41,18.82-11.7,0-17.13-6.87-17.13-19.42V2.05H188.7V48.86c0,19.66,12.07,30.4,31.37,30.4,20.15,0,31.49-11.1,31.49-31.73M151,66.83c-9.17,0-16.89-3-24-7.23l-3.38,12.66c7.24,4.35,17,7,27.15,7,17.73,0,28.71-9.77,28.71-23.53,0-14.47-11.7-19.42-23-22.68-10.5-2.77-17.13-5.18-17.13-11.34,0-5.19,3.85-8.92,12.66-8.92,7.24,0,15.44,2.53,22.2,6.51l3.62-12.43a50.26,50.26,0,0,0-26-6.63c-16.89,0-27,8.81-27,22.32,0,14.72,12.42,19.78,23.4,22.68S165,50.55,165,56.82s-5.79,10-14,10M97.34,33.9l-4.7,16.89H74.42L79,33.9Zm-28.83.36L64.05,50.42H52.1V60.68h9.29l-6.87,25.7H65l6.88-25.7H90.1l-6.87,25.7h10.5l6.87-25.7h16.65V50.42h-14l4.34-16.16h12.06V24h-9.29l6.52-24h-10.5l-6.5,24H81.66L88.17,0H77.68L71.29,24H54.52V34.26Z"/><g class="ac526f82-16e4-46cb-9e09-af50145cd80b"><rect class="b4061a72-db9f-4a79-ba2a-567a34055c3b" y="100.61" width="685.1" height="131.61"/></g></g></g></g></g></svg>