<svg xmlns="http://www.w3.org/2000/svg" viewBox="0 0 94.52 86.93"><defs><style>.b447dea0-c6b0-4bd1-b533-cec25cf4d367{fill:none;}.b7192cbd-ed51-4fed-b914-5f2228b6dab6{fill:#2b2b2a;}.eee1d07d-e740-4944-9c7f-7b37daffe677{fill:#fff;}</style></defs><g id="aa045623-2b75-47a7-8e6d-171a4e82d1bb" data-name="Livello 2"><g id="a350965d-ad53-4f57-b677-859acf2dc5df" data-name="bf3b521c-f4f7-4f0c-b9df-40a1b157efef"><path class="b447dea0-c6b0-4bd1-b533-cec25cf4d367" d="M94.52,54.22c-.18.05-.2,0-.21-.18l.21.18"/><path class="b7192cbd-ed51-4fed-b914-5f2228b6dab6" d="M61.43,50.35a2,2,0,0,0-.43-.28,3.38,3.38,0,0,1-1.2-.77c-.37-.36-.76-.71-1.12-1.08a10,10,0,0,0-1-.95,1.69,1.69,0,0,1-.32-.27,3.59,3.59,0,0,0-.51-.52,8.22,8.22,0,0,1-1.27-1c-.23-.22-.45-.45-.68-.66s-.57-.52-.87-.76a4.57,4.57,0,0,0-.62-.39s-.1,0-.12-.07c-.21-.31-.56-.46-.82-.71l-.61-.57c-.34-.32-.83-.45-1.09-.87a.11.11,0,0,1-.09-.05c-.37-.29-.76-.56-1.11-.87s-.5-.5-.76-.73l-1.57-1.36c-.4-.36-.8-.73-1.18-1.11s-.85-.88-1.3-1.27-1.24-1-1.78-1.53c-.19-.2-.39-.38-.59-.56-.74-.62-1.48-1.24-2.2-1.87-.42-.36-.81-.76-1.23-1.12s-1-.86-1.57-1.29l-1.09-.82c-.19-.15-.35-.34-.53-.51s-.61-.55-.92-.81a6.36,6.36,0,0,0-.77-.6,14.69,14.69,0,0,1-1.4-1.06c-.36-.28-.57-.7-.95-1a2.88,2.88,0,0,1-.39-.3,5.47,5.47,0,0,0-.65-.54,3.39,3.39,0,0,1-1-1.1c-.09-.13-.17-.28-.27-.41-.23-.31-.46-.61-.7-.91a1.19,1.19,0,0,0-.18-.15.47.47,0,0,0-.09.1,1,1,0,0,0,0,.24,6.62,6.62,0,0,1-.64,1.59c-.24.48-.55.93-.83,1.39a5,5,0,0,1-1,1.28,1.07,1.07,0,0,1-.47.22c-.31.06-.54-.15-.45-.4a.92.92,0,0,1,.38-.56,1.52,1.52,0,0,0,.52-.55,7.09,7.09,0,0,1,.58-.95,6.66,6.66,0,0,0,.89-1.74c.16-.44.27-.9.44-1.33a1,1,0,0,0,0-.85.51.51,0,0,1,.06-.6.84.84,0,0,0,.17-.79c-.07-.35-.12-.71-.19-1.07a2.56,2.56,0,0,0-.1-.54,3.79,3.79,0,0,0-.26-.87,5.25,5.25,0,0,1-.23-.84,6.77,6.77,0,0,0-.41-1c-.33-.59-.69-1.16-1.06-1.73a3.25,3.25,0,0,0-.56-.76c-.51-.46-1-.94-1.54-1.38a5.35,5.35,0,0,0-1.31-.8,13.77,13.77,0,0,0-2.78-1,1.53,1.53,0,0,1-.37-.08,2.52,2.52,0,0,0-1.2-.25,8.33,8.33,0,0,0-1.58,0c-.64.09-1.26.27-1.89.42-.44.1-.89.2-1.33.32a4.4,4.4,0,0,0-1.64.61c-.12.08-.23.14-.24.31a.35.35,0,0,0,.26.33,7.14,7.14,0,0,1,.7.34c.72.44,1.42.9,2.14,1.34a3.74,3.74,0,0,0,.73.34,5.68,5.68,0,0,1,1.17.55l1.12.67,1.28.79a9.27,9.27,0,0,1,.92.51c.26.17.47.43.72.62s.26.57.55.73v.17a4,4,0,0,1,0,.49,2.35,2.35,0,0,1-.1.58c-.19.41-.42.8-.62,1.21a1.94,1.94,0,0,0-.15.36A6.67,6.67,0,0,1,19,20.88c-.46.56-.91,1.12-1.34,1.71q-.29.33-.54.69a3.54,3.54,0,0,1-.86.91,3.18,3.18,0,0,1-1.46.66,1,1,0,0,0-.32.12c-.27.14-.41.09-.57-.18a1.71,1.71,0,0,0-.4-.48c-.26-.19-.57-.32-.84-.5-.45-.3-.89-.62-1.33-.93a.63.63,0,0,0-.2-.13,2.08,2.08,0,0,1-.82-.46l-1.15-.87-.26-.18a8,8,0,0,1-.85-.52,13.72,13.72,0,0,0-1.58-1.17c-.23-.13-.43-.31-.65-.46s-.5-.07-.51.17a3,3,0,0,0,0,.84,3.56,3.56,0,0,0,.46,1.06c.27.43.46.91.69,1.37a1.74,1.74,0,0,0,.1.19,3.25,3.25,0,0,1,.67,1.17A3.58,3.58,0,0,0,7.77,25c.05.08.1.16.14.24a1.34,1.34,0,0,1,.2.59,1.08,1.08,0,0,0,.27.68c.17.2.33.4.5.59a5.51,5.51,0,0,1,.5.57,2.79,2.79,0,0,0,.58.61L11,29.32c.11.11.19.25.3.34a6.81,6.81,0,0,0,2.24,1.23,9.1,9.1,0,0,0,2.37.5,8.62,8.62,0,0,1,1,.15c.69.08,1.34.36,2,.38.18,0,.31,0,.43-.16a.28.28,0,0,1,.38-.09.77.77,0,0,0,.54.07.69.69,0,0,1,.5.11,2,2,0,0,0,.54.25c.3.09.61.15.92.23l.7.23a2.87,2.87,0,0,1,.78.52c.87.67,1.77,1.32,2.64,2s1.48,1.19,2.22,1.77c.43.34.88.63,1.3,1s.57.59.87.87.54.47.82.7l.21.19c.2.18.38.38.59.55l1.14.89,1.28,1c.36.3.74.58,1.1.88s.83.79,1.27,1.15c.66.53,1.35,1,2,1.53s1.16.88,1.73,1.34c.26.2.51.44.76.67s.33.35.51.52L43.8,49.6c.36.33.7.67,1.07,1,.59.49,1.2,1,1.8,1.42l.35.29,1.49,1.18.31.28c.55.47,1.1.94,1.64,1.42a13.73,13.73,0,0,0,1.47,1.26,12,12,0,0,1,1.37,1.1,1.62,1.62,0,0,1,.62.87,3.19,3.19,0,0,0,.19.67,4.45,4.45,0,0,0,.45.79,2.93,2.93,0,0,1,.43.91c.14.44.33.87.43,1.33.16.76.37,1.5.53,2.26s.25,1.55.41,2.32a11.18,11.18,0,0,0,.4,1.24c.08.22.19.42.28.64.23.54.44,1.09.67,1.62a11.81,11.81,0,0,0,1.48,2.25c.33.41.68.8,1.05,1.18.1.12.24.22.35.34a13.48,13.48,0,0,0,1,1A14.77,14.77,0,0,0,63,76a9.32,9.32,0,0,0,2.78,1.4c.23.07.46.17.7.22a14.4,14.4,0,0,0,6.59-.33A6.55,6.55,0,0,1,74.22,77a12.51,12.51,0,0,0,1.6-.41,1.24,1.24,0,0,0-.52-.47c-.47-.24-1-.46-1.41-.72l-1.61-1c-.9-.61-1.78-1.23-2.67-1.85a17.8,17.8,0,0,0-1.67-1.1c-.42-.26-.83-.54-1.22-.83a1.17,1.17,0,0,0-.71-.28.45.45,0,0,1-.25-.09,2.26,2.26,0,0,1-.73-1,2.51,2.51,0,0,1,0-1.58c.08-.47.19-.94.31-1.41.07-.28.17-.55.27-.83a7.09,7.09,0,0,1,.38-1A15.4,15.4,0,0,1,66.78,63a9.2,9.2,0,0,1,.68-1.07,14.26,14.26,0,0,1,1.11-1.45,13.73,13.73,0,0,1,1.27-1.26,4.36,4.36,0,0,1,1.39-.71.17.17,0,0,1,.1,0,1,1,0,0,0,.86-.33c.19-.18.27-.18.5,0s.7.46,1,.69.93.6,1.4.88L77,60.84l.57.34c.39.25.79.49,1.18.75s.74.53,1.11.79l1.36.94a4.74,4.74,0,0,1,.75.44,8.24,8.24,0,0,0,.85.55h.24A3.82,3.82,0,0,0,83,64a2.72,2.72,0,0,1-.09-.56,14.25,14.25,0,0,0,0-1.47v-.53a.67.67,0,0,0,0-.2c-.07-.26-.15-.52-.23-.77-.13-.42-.26-.83-.41-1.24a6.22,6.22,0,0,0-.29-.64,6.32,6.32,0,0,0-.76-1.25c-.38-.49-.78-1-1.17-1.44v-.06c-.14-.19-.28-.38-.41-.58a4.92,4.92,0,0,0-.69-.68,11.1,11.1,0,0,0-1.28-1.1,16.76,16.76,0,0,0-2-1.26c-.46-.24-.95-.46-1.41-.71a5.65,5.65,0,0,0-1.39-.45c-.35-.09-.73-.11-1.06-.23a11.74,11.74,0,0,0-2.41-.5c-.77-.11-1.55-.16-2.34-.2a8.92,8.92,0,0,0-1.16.08c-.47,0-1,.09-1.43.12h-.74c-.08,0-.19,0-.22.07-.2.39-.56.41-.93.42a5,5,0,0,0-1.47.44H61l-.6.54c-.19.18-.39.36-.6.53a1.53,1.53,0,0,0-.53.6.69.69,0,0,1-.8.35c-.19-.07-.24-.17-.22-.38a1,1,0,0,1,.49-.74c.34-.29.7-.55,1-.86a3.71,3.71,0,0,1,.86-.66c.28-.15.57-.26,1-.44ZM52.9,58.91c.12-.44.1-.47-.27-.79-.62-.53-1.31-1-2-1.48a4.68,4.68,0,0,1-.56-.53,4.82,4.82,0,0,0-1-.92c-.28-.17-.47-.46-.73-.65-.51-.37-.89-.86-1.4-1.22-.36-.26-.69-.56-1-.83a.67.67,0,0,0-.21-.13,1.47,1.47,0,0,1-.7-.55.15.15,0,0,0-.1-.09,2.2,2.2,0,0,1-1-.75c-.38-.46-.88-.78-1.25-1.25a5.06,5.06,0,0,0-.72-.67l-.63-.6s-.07-.1-.12-.13c-.54-.41-1.08-.82-1.61-1.24l-.83-.64c-.39-.31-.8-.61-1.19-.93l-.93-.78a4,4,0,0,0-.46-.38,6,6,0,0,1-1.08-1,2.42,2.42,0,0,0-.43-.36,10.14,10.14,0,0,1-1.25-1c-.62-.63-1.39-1.06-2-1.65a10,10,0,0,1-1.28-1.15A6.12,6.12,0,0,0,29,38.12l-1.31-1c-.33-.26-.68-.5-1-.75s-.81-.59-1.21-.89c-.23-.18-.44-.39-.66-.58l-.7-.54c-.25-.2-.51-.38-.77-.55s-.52-.25-.78-.37a2.56,2.56,0,0,0-.43-.17,11.29,11.29,0,0,0-1.5-.46,2.85,2.85,0,0,0-1.42,0,1,1,0,0,1-.35,0l-.56-.07-.75-.14-2.43-.37a4.28,4.28,0,0,1-1.69-.44.46.46,0,0,0-.23-.06L13,31.68a8.93,8.93,0,0,0-1.26-.58,5.22,5.22,0,0,1-.68-.43,5.77,5.77,0,0,1-.42-.44c-.48-.48-1-.95-1.44-1.44s-.65-.76-1-1.14A1.54,1.54,0,0,0,8,27.46a2.1,2.1,0,0,1-.7-1.37.93.93,0,0,0-.19-.43,4.93,4.93,0,0,1-.62-1.18A2.3,2.3,0,0,0,6,23.43,1.75,1.75,0,0,1,5.69,23c-.18-.33-.36-.65-.52-1-.07-.13-.08-.29-.14-.42a5.1,5.1,0,0,1-.28-.48,5.59,5.59,0,0,1-.23-.87,4.57,4.57,0,0,1,0-.74,1.07,1.07,0,0,1,.64-1c.24-.11.47-.3.76-.21.08,0,.17,0,.22.1a8.06,8.06,0,0,0,1.18.91c.8.58,1.61,1.14,2.42,1.7l1.74,1.18,2.2,1.45.78.48a.58.58,0,0,0,.62.06,2.25,2.25,0,0,0,.79-.58,3.78,3.78,0,0,1,.49-.49,3.55,3.55,0,0,0,.52-.64,11.55,11.55,0,0,1,1.36-1.75,6.8,6.8,0,0,0,1-1.65c.17-.38.39-.74.59-1.12,0,0,.08-.08.08-.11a3.24,3.24,0,0,1,.21-.77.44.44,0,0,0-.08-.25c-.12-.17-.24-.33-.05-.57-.4-.32-.77-.65-1.17-.92a7.44,7.44,0,0,0-1-.52c-.35-.18-.41-.27-.62-.39a9.56,9.56,0,0,1-1-.58c-.7-.46-1.48-.75-2.21-1.15-.4-.22-.77-.5-1.17-.71a6.25,6.25,0,0,1-1.23-.71.4.4,0,0,0-.29-.12.83.83,0,0,1-.68-.41,3.46,3.46,0,0,0-.35-.4.34.34,0,0,1,0-.48.2.2,0,0,1,.1-.08,7,7,0,0,1,1.52-.88,5.7,5.7,0,0,1,1.45-.46,6.63,6.63,0,0,0,1-.24,12.61,12.61,0,0,1,1.36-.29,5.52,5.52,0,0,0,.68-.15,4.59,4.59,0,0,1,1.23-.11,6.71,6.71,0,0,1,1.94.25c.36.15.77.2,1.15.32A13.42,13.42,0,0,1,23.37,9.3a6.52,6.52,0,0,1,1.82,1.36c.2.23.43.43.65.65.59.59.93,1.38,1.47,2,.18.57.56,1,.74,1.63s.37,1.18.51,1.79.3,1.16.39,1.75a5.08,5.08,0,0,1,0,1.65.74.74,0,0,0,.15.62,19,19,0,0,1,1.11,1.55,8.17,8.17,0,0,0,1.9,1.81,11.8,11.8,0,0,1,1,1l.28.25.29.21,1.3,1,1.86,1.6c.3.26.62.51.92.76l1.55,1.24.36.33L41.43,32c.38.32.74.65,1.11,1,.81.72,1.61,1.46,2.45,2.15s1.5,1.45,2.28,2.15c.38.33.76.66,1.13,1a15.16,15.16,0,0,1,1.39,1.24,11.8,11.8,0,0,0,1.22,1c.55.42,1.12.82,1.64,1.27s1.35,1.08,2,1.64,1,.92,1.51,1.36.76.62,1.15.93l.23.2a5.67,5.67,0,0,0,1.05.9,3.07,3.07,0,0,1,.93.9,1.55,1.55,0,0,0,.3.33c.21.21.42.41.65.6a8,8,0,0,0,.73.53c.18.12.38.18.56.29a.57.57,0,0,0,.49.09.42.42,0,0,1,.27,0,2.25,2.25,0,0,0,1,.07,4.71,4.71,0,0,1,.92,0h.42a16.72,16.72,0,0,1,2.83-.12c1.16.06,2.29.28,3.42.45a1.16,1.16,0,0,1,.31.07,8.94,8.94,0,0,0,1.36.31A5.19,5.19,0,0,1,74.6,51c.59.3,1.17.61,1.76.9a12.75,12.75,0,0,1,2.34,1.6c.26.21.52.43.77.66a8.2,8.2,0,0,1,.68.75c.55.7,1.11,1.39,1.62,2.12a5.39,5.39,0,0,1,1,1.76.08.08,0,0,0,0,.07,8.25,8.25,0,0,1,.88,3c.08.45,0,.91.09,1.37s.14,1,.19,1.57a2,2,0,0,1,0,.69.7.7,0,0,1-.92.33l-.08,0c-.28-.21-.6-.37-.9-.56l-.24-.14-1.35-.88-.75-.53c-.52-.36-1-.72-1.57-1.07a11.93,11.93,0,0,0-1.53-.92,17.94,17.94,0,0,1-1.61-1,1.19,1.19,0,0,0-.22-.12,2.52,2.52,0,0,1-.59-.36c-.26-.19-.56-.33-.84-.51a2.26,2.26,0,0,0-.65-.38.8.8,0,0,0-.37-.06,8.33,8.33,0,0,0-1.1.25,1.62,1.62,0,0,0-.54.31,9.45,9.45,0,0,0-1.79,1.84,25.43,25.43,0,0,0-2,3.12,3.35,3.35,0,0,0-.25.62,10.33,10.33,0,0,0-.53,2,9.06,9.06,0,0,1-.13.91,4.09,4.09,0,0,0,0,.7.17.17,0,0,0,.07.12,2.59,2.59,0,0,1,.46.3,12.1,12.1,0,0,1,1,.77,3.28,3.28,0,0,0,.71.51L70,71.86l.88.58c.33.22.65.46,1,.69l.42.32c.42.29.83.6,1.27.87s.94.52,1.42.78l1,.52.72.37a.36.36,0,0,1,.21.46.42.42,0,0,1-.09.14,2.27,2.27,0,0,0-.6.87c-.16.34-.33.41-.71.32a1.22,1.22,0,0,0-.27,0l-2,.38c-.32.06-.64.16-1,.22s-1,.18-1.49.27a10.6,10.6,0,0,1-2.25.09,17.76,17.76,0,0,1-2.3-.24c-.23-.06-.45-.14-.67-.22-.45-.14-.9-.27-1.34-.43a4.27,4.27,0,0,1-.51-.3c-.45-.27-.91-.53-1.35-.82a10.44,10.44,0,0,1-2.06-1.68c-.48-.56-1-1-1.5-1.62a8.1,8.1,0,0,1-1.38-1.86c-.17-.41-.45-.79-.66-1.19-.09-.18-.13-.38-.2-.56-.25-.6-.54-1.2-.76-1.81a11.22,11.22,0,0,1-.33-1.39,1.67,1.67,0,0,0-.08-.3c-.09-.61-.17-1.21-.27-1.81a2.38,2.38,0,0,0-.15-.5c-.11-.51-.22-1-.36-1.51s-.34-.84-.44-1.28a2.88,2.88,0,0,0-.4-.85c-.3-.45-.56-.92-.85-1.41Z"/><path class="b7192cbd-ed51-4fed-b914-5f2228b6dab6" d="M10.93,34.82a.7.7,0,0,1-.68.13c-.16-.1-.29-.23-.44-.34s-.46-.37-.7-.53a8.73,8.73,0,0,1-1.33-1A10.43,10.43,0,0,1,6,30.86L5.4,29.8c-.11-.19-.21-.39-.31-.59-.44-.9-.91-1.8-1.32-2.71-.32-.7-.56-1.44-.86-2.15-.17-.42-.35-.84-.56-1.24-.09-.2-.18-.37,0-.56a.42.42,0,0,1,.47-.16.55.55,0,0,1,.46.37c.17.54.41,1,.57,1.59a3.5,3.5,0,0,1,.36,1.19.17.17,0,0,0,.06.12,1.2,1.2,0,0,1,.27.48c.25.55.53,1.09.8,1.64.19.39.35.79.55,1.17a7.67,7.67,0,0,0,.53.91c.45.71.94,1.4,1.46,2.07a11,11,0,0,0,1.41,1.32c.38.33.81.61,1.22.9.14.1.3.17.44.28s.16.26,0,.42Z"/><path class="b7192cbd-ed51-4fed-b914-5f2228b6dab6" d="M79.93,80.83c.16.49,0,.84-.46.92a8.14,8.14,0,0,0-.92.23c-.84.21-1.67.46-2.52.63a13.1,13.1,0,0,1-1.65.13,12.18,12.18,0,0,1-1.48,0,14.31,14.31,0,0,1-3.26-.52l-1.9-.64-1.68-.52a1.59,1.59,0,0,0-.64-.13.44.44,0,0,1-.43-.32.4.4,0,0,1,.13-.48c.16-.13.33-.26.54-.15a25,25,0,0,0,2.56.89c.44.16.88.33,1.33.47a15.08,15.08,0,0,0,4.12.64,16,16,0,0,0,3-.29c.5-.1,1-.26,1.49-.4l1.28-.41a1.17,1.17,0,0,0,.48-.07Z"/><path class="b7192cbd-ed51-4fed-b914-5f2228b6dab6" d="M27,3.1a.93.93,0,0,1,.16.18c.12.17.12.26,0,.4a.91.91,0,0,1-.24.2.36.36,0,0,1-.42,0,11.65,11.65,0,0,0-2.15-1.33l-1.49-.79a4,4,0,0,0-.79-.31c-.56-.16-1.12-.31-1.69-.45A8,8,0,0,0,17.88.76,21.29,21.29,0,0,0,15.25,1a3.84,3.84,0,0,0-.89.28.38.38,0,0,1-.5-.16.17.17,0,0,1,0,0,.65.65,0,0,1,.29-.56L14.4.47l2-.3A11.47,11.47,0,0,1,19.91.11a15.3,15.3,0,0,1,1.75.41,11.47,11.47,0,0,1,1.5.5,14.08,14.08,0,0,1,1.46.71c.46.25.79.4,1.17.63L27,3.12Z"/><path class="b7192cbd-ed51-4fed-b914-5f2228b6dab6" d="M88.76,54.48a.59.59,0,0,1,.77,0c.61.63,1.1,1.34,1.65,2a20.23,20.23,0,0,1,1.48,2.17,5.52,5.52,0,0,1,.38.9,12.35,12.35,0,0,1,.73,3.18,12.72,12.72,0,0,0,.16,1.61,5.14,5.14,0,0,0,.14.86c.05.29,0,.42-.29.5h-.35a.3.3,0,0,1-.34-.36A8.28,8.28,0,0,0,93,64c-.06-.38,0-.77-.08-1.15s-.1-.77-.17-1.14-.22-.89-.31-1.34a5.94,5.94,0,0,0-.6-1.42,11.79,11.79,0,0,0-1.17-1.77,10.36,10.36,0,0,0-1.52-1.78,5.17,5.17,0,0,1-.5-.55c-.1-.11-.06-.25.1-.44Z"/><path class="b7192cbd-ed51-4fed-b914-5f2228b6dab6" d="M4,34.73A7.79,7.79,0,0,1,2.9,33.36c-.6-1-1.22-2-1.75-3a8.55,8.55,0,0,1-.92-2.9c-.06-.66-.15-1.31-.22-2v-.63a.39.39,0,0,1,.31-.46.28.28,0,0,1,.13,0c.36,0,.5.1.52.42A12.9,12.9,0,0,0,1.1,27,6.26,6.26,0,0,0,1.57,29c.19.43.35.87.57,1.28.35.64.74,1.25,1.11,1.87.24.41.49.83.75,1.23a2.67,2.67,0,0,0,.93.9c.26.15.29.24.2.44a.37.37,0,0,1-.13.15.82.82,0,0,1-1-.15Z"/><path class="b7192cbd-ed51-4fed-b914-5f2228b6dab6" d="M90.43,64.59l-.43.25c-.13,0-.28.1-.4,0s-.3-.31-.21-.49a1.78,1.78,0,0,0,.07-.79,7.91,7.91,0,0,0-.06-1.19c-.06-.4-.06-.55-.1-.83a7.8,7.8,0,0,0-.79-2.31c-.41-.85-.84-1.69-1.29-2.53a3.5,3.5,0,0,0-.87-1.14,3.62,3.62,0,0,1-.36-.42.26.26,0,0,1,0-.33.52.52,0,0,1,.7-.23.49.49,0,0,1,.14.11,8.89,8.89,0,0,1,1.1,1.41,32.6,32.6,0,0,1,1.54,3c.22.47.42,1,.6,1.46a4.15,4.15,0,0,1,.19.93c.06.5.1,1,.13,1.51s0,1,0,1.57Z"/><path class="b7192cbd-ed51-4fed-b914-5f2228b6dab6" d="M64.77,84.85l-.34-.21a.43.43,0,0,1-.24-.56.31.31,0,0,1,.1-.15.45.45,0,0,1,.63-.11s0,0,0,.05A7.15,7.15,0,0,0,67,85.12a10.67,10.67,0,0,0,2.67.73c.73.1,1.47.17,2.21.2a5.57,5.57,0,0,0,2.39-.32h.17c.15,0,.31,0,.36.15a.53.53,0,0,1,0,.39.79.79,0,0,1-.57.42c-.76.06-1.52.18-2.28.24-.33,0-.67-.07-1-.08a17.31,17.31,0,0,1-3.13-.5,12.3,12.3,0,0,1-1.68-.68c-.38-.17-.75-.38-1.12-.57a2.76,2.76,0,0,1-.25-.21Z"/><path class="b7192cbd-ed51-4fed-b914-5f2228b6dab6" d="M13.2,4.84A1.53,1.53,0,0,1,14,4.43a7.66,7.66,0,0,1,1.79-.09c.54,0,1.08,0,1.62-.08a7,7,0,0,1,2.2-.08c1.14.21,2.27.47,3.41.71h.14a.29.29,0,0,1,.15.39l0,0a2.67,2.67,0,0,1-.36.31c-.15.12-.28,0-.43,0a4.38,4.38,0,0,0-.71-.19c-.67-.16-1.34-.35-2-.46a5.3,5.3,0,0,0-2.1,0A10,10,0,0,1,16,5.11H14.87a2.11,2.11,0,0,0-1.08.23l-.16.08c-.24.11-.28.1-.42-.07a.35.35,0,0,1,0-.5l0,0Z"/><path class="eee1d07d-e740-4944-9c7f-7b37daffe677" d="M61.43,50.35c-.38.17-.67.29-1,.44a3.71,3.71,0,0,0-.86.66c-.32.31-.68.57-1,.86a1,1,0,0,0-.49.74.31.31,0,0,0,.22.38h0a.69.69,0,0,0,.8-.35,1.53,1.53,0,0,1,.53-.6c.21-.17.41-.35.6-.53l.6-.54h.06A5,5,0,0,1,62.41,51c.37,0,.73,0,.93-.42a1.44,1.44,0,0,1,.22-.07h.74c.48,0,1-.08,1.43-.12a8.92,8.92,0,0,1,1.16-.08,16.54,16.54,0,0,1,2.34.2,11.74,11.74,0,0,1,2.41.5c.33.12.71.14,1.06.23a5.86,5.86,0,0,1,1.4.45c.45.25.94.47,1.4.71a15.66,15.66,0,0,1,2,1.27,11,11,0,0,1,1.28,1.09,4.92,4.92,0,0,1,.69.68l.41.58v.06c.39.48.79,1,1.17,1.44a6.32,6.32,0,0,1,.76,1.25c.1.22.22.42.3.64.14.41.27.82.4,1.24.08.25.16.51.23.77a.67.67,0,0,1,0,.2v.53a14.25,14.25,0,0,0,.05,1.47,3.78,3.78,0,0,0,.08.56,4.53,4.53,0,0,0,.12.65h-.24a8.1,8.1,0,0,1-.84-.55,6.49,6.49,0,0,0-.76-.44l-1.36-.94-1.11-.79c-.39-.26-.79-.5-1.18-.75L76.93,61,75.11,59.8c-.47-.29-.93-.59-1.39-.89l-1.06-.69c-.23-.14-.31-.14-.5,0a1,1,0,0,1-.86.33h-.1a4.36,4.36,0,0,0-1.39.71,13.73,13.73,0,0,0-1.27,1.26A14.26,14.26,0,0,0,67.43,62,9.2,9.2,0,0,0,66.75,63c-.28.47-.55,1-.79,1.44s-.26.66-.38,1-.2.55-.27.83c-.12.47-.23.94-.31,1.41a2.51,2.51,0,0,0,0,1.58,2.38,2.38,0,0,0,.72,1,.54.54,0,0,0,.26.09,1.17,1.17,0,0,1,.71.28c.39.29.8.57,1.22.83a19.9,19.9,0,0,1,1.67,1.09c.89.63,1.77,1.26,2.67,1.87.53.35,1.06.7,1.61,1s.94.48,1.4.72a1.12,1.12,0,0,1,.53.48,12.47,12.47,0,0,1-1.6.4,6.55,6.55,0,0,0-1.17.23,17.33,17.33,0,0,1-3.58.56,16.71,16.71,0,0,1-3-.23c-.24-.05-.47-.15-.71-.22A9,9,0,0,1,63,76c-.47-.33-1-.65-1.39-1a13.48,13.48,0,0,1-1-1c-.11-.12-.24-.22-.36-.34a9.93,9.93,0,0,1-1-1.18,11.9,11.9,0,0,1-1.48-2.24c-.23-.54-.44-1.09-.67-1.63-.09-.22-.2-.42-.28-.64a11.18,11.18,0,0,1-.4-1.24c-.16-.77-.26-1.55-.41-2.32s-.37-1.51-.53-2.26c-.1-.46-.29-.89-.43-1.33a2.93,2.93,0,0,0-.43-.91,4.45,4.45,0,0,1-.45-.79,2.66,2.66,0,0,1-.18-.67,1.67,1.67,0,0,0-.63-.87,10.4,10.4,0,0,0-1.38-1.1,14.67,14.67,0,0,1-1.46-1.26c-.54-.48-1.09-1-1.64-1.42l-.31-.28L47,52.33,46.69,52c-.6-.47-1.21-.93-1.8-1.42a14.12,14.12,0,0,1-1.07-1L42.2,48.16c-.18-.17-.33-.36-.51-.52s-.5-.47-.76-.68c-.57-.45-1.15-.88-1.73-1.33s-1.36-1-2-1.53c-.44-.36-.84-.77-1.27-1.15s-.74-.58-1.1-.88l-1.28-1-1.14-.89c-.21-.17-.39-.37-.59-.55l-.21-.19c-.28-.23-.56-.46-.83-.7s-.55-.61-.87-.87-.86-.64-1.29-1c-.74-.58-1.47-1.19-2.22-1.77s-1.77-1.33-2.64-2a2.87,2.87,0,0,0-.78-.52l-.7-.23c-.31-.08-.62-.14-.92-.23a2.5,2.5,0,0,1-.55-.25.67.67,0,0,0-.49-.11.77.77,0,0,1-.54-.07.28.28,0,0,0-.38.09c-.12.17-.25.16-.43.15-.68-.09-1.34-.22-2-.37-.33,0-.67-.12-1-.15a9,9,0,0,1-2.36-.5,7,7,0,0,1-2.23-1.23,3.28,3.28,0,0,1-.31-.34L10,28.29a2.79,2.79,0,0,1-.58-.61,4.7,4.7,0,0,0-.51-.57l-.49-.59a1.13,1.13,0,0,1-.27-.68,1.34,1.34,0,0,0-.2-.59c0-.08-.09-.16-.14-.24a3.61,3.61,0,0,1-.53-1.1,3,3,0,0,0-.66-1.17,1.74,1.74,0,0,1-.1-.19c-.23-.46-.42-.94-.68-1.37a2.7,2.7,0,0,1-.51-1.9c0-.24.3-.32.51-.17a7.59,7.59,0,0,0,.65.46,13.72,13.72,0,0,1,1.58,1.17,8,8,0,0,0,.85.52l.26.18,1.15.87a2.08,2.08,0,0,0,.82.46.63.63,0,0,1,.2.13c.44.31.88.63,1.33.92.27.19.58.32.84.51a1.71,1.71,0,0,1,.4.48c.16.27.3.32.57.18a1,1,0,0,1,.32-.12,3.18,3.18,0,0,0,1.46-.66,3.54,3.54,0,0,0,.86-.91q.25-.36.54-.69c.42-.59.88-1.15,1.34-1.71A6.67,6.67,0,0,0,20.12,19a1.44,1.44,0,0,1,.15-.36c.21-.41.43-.8.62-1.21a2.35,2.35,0,0,0,.1-.58,4,4,0,0,0,0-.49v-.17c-.29-.16-.3-.53-.55-.73s-.46-.45-.72-.62a9.27,9.27,0,0,0-.92-.51l-1.28-.79-1.12-.67a5.2,5.2,0,0,0-1.17-.55,3.77,3.77,0,0,1-.73-.35c-.72-.43-1.42-.89-2.14-1.33-.22-.13-.46-.22-.7-.34s-.27-.14-.26-.33.12-.23.25-.31A4.36,4.36,0,0,1,13.28,9l1.33-.32c.63-.15,1.25-.33,1.89-.42a8.33,8.33,0,0,1,1.58,0,2.52,2.52,0,0,1,1.2.25,1.53,1.53,0,0,0,.37.08,13.77,13.77,0,0,1,2.78,1,5.35,5.35,0,0,1,1.31.8c.54.43,1,.92,1.54,1.38a3.25,3.25,0,0,1,.56.76c.37.57.73,1.14,1.06,1.73a8.05,8.05,0,0,1,.41,1,5.25,5.25,0,0,0,.23.84,4.36,4.36,0,0,1,.26.87,3.41,3.41,0,0,0,.1.54c.07.36.12.72.19,1.07a.84.84,0,0,1-.17.79.51.51,0,0,0-.06.6,1,1,0,0,1,0,.85c-.17.43-.28.89-.44,1.33a6.66,6.66,0,0,1-.89,1.74,7.09,7.09,0,0,0-.58.95,1.52,1.52,0,0,1-.52.55.92.92,0,0,0-.38.56c-.09.25.14.46.45.4A1.07,1.07,0,0,0,26,26.1a5.39,5.39,0,0,0,1-1.28c.28-.46.59-.91.83-1.39a5.74,5.74,0,0,0,.63-1.59l.06-.24s.05,0,.09-.1a1.19,1.19,0,0,1,.18.15c.24.3.47.6.7.91.1.13.18.28.27.41a3.54,3.54,0,0,0,1,1.11,5.38,5.38,0,0,1,.65.53,2.88,2.88,0,0,0,.39.3c.38.26.59.69.95,1A13,13,0,0,0,34.11,27a6.33,6.33,0,0,1,.78.61c.31.26.62.54.92.81s.34.36.53.51l1.09.82c.53.42,1.06.85,1.57,1.29s.81.76,1.23,1.12c.72.63,1.46,1.24,2.2,1.87.2.18.4.36.58.55.56.57,1.2,1,1.79,1.54s.86.85,1.3,1.27.78.75,1.18,1.11l1.57,1.36c.26.23.49.51.76.73l1.11.87s.07,0,.09,0c.26.42.75.55,1.09.87l.61.57c.26.25.61.4.82.71a.16.16,0,0,1,.12.06,5.93,5.93,0,0,1,.62.4c.3.24.58.5.87.76s.45.44.68.66a8.22,8.22,0,0,0,1.27,1,2.85,2.85,0,0,1,.51.53,2.78,2.78,0,0,0,.32.26,7.46,7.46,0,0,1,1,1c.36.38.75.71,1.12,1.07a3.12,3.12,0,0,0,1.2.78,2,2,0,0,1,.43.28Z"/></g></g></svg>