<svg xmlns="http://www.w3.org/2000/svg" viewBox="0 0 57.28 79.4"><defs><style>.bfd36adf-ae09-4cd7-b8cd-0bac4a9a6974{fill:#2b2b2a;}.b9385b2a-7bab-4170-b169-55c44f3080c8{fill:#fff;}</style></defs><g id="a845c7d1-8a3c-453e-b39b-2e1e3de0b30e" data-name="Livello 2"><g id="f0b4171f-42ac-4c45-9bae-697dd0df75f9" data-name="bf3b521c-f4f7-4f0c-b9df-40a1b157efef"><path class="bfd36adf-ae09-4cd7-b8cd-0bac4a9a6974" d="M52.79,56.29a.56.56,0,0,1,.05.08l.8-.88c.15-.17.28-.35.43-.52a7.38,7.38,0,0,0,1.2-2.09,13.83,13.83,0,0,0,.57-2v-.83c.06-.49.06-1,.13-1.47A4.83,4.83,0,0,0,55.91,47c-.08-.49-.3-1-.4-1.46a6.65,6.65,0,0,0-.58-1.73,12.13,12.13,0,0,0-.75-1.43c-.4-.56-.7-1.17-1.12-1.71A6.44,6.44,0,0,0,52,39.43a9.69,9.69,0,0,0-1.74-1,10,10,0,0,0-3-.71,6.54,6.54,0,0,0-1.4-.06,4.18,4.18,0,0,0-1,0,7.55,7.55,0,0,1-.94.12c-.41.06-.82.19-1.24.22a18.13,18.13,0,0,0-1.93.34A.63.63,0,0,1,40,38a4,4,0,0,1-.32-1,1,1,0,0,0-.26-.48,3.75,3.75,0,0,1-.86-1.23,3.32,3.32,0,0,0-.24-.59Q38,34,37.56,33.34c-.19-.33-.41-.63-.6-1a.49.49,0,0,0-.39-.29c-.43,0-.52-.37-.27-.73.08-.15.16-.31.23-.47s.16-.37.26-.54.24-.34.34-.53c.26-.48.5-1,.76-1.47s.42-1,.65-1.5.43-1.19.64-1.79a1.75,1.75,0,0,1,.11-.48,12.36,12.36,0,0,0,.51-2.4c.05-.44.1-.88.13-1.33A12.07,12.07,0,0,0,40,19.39c0-.93-.15-1.86-.23-2.79,0-.21-.09-.42-.09-.63a15.27,15.27,0,0,0-.23-2.44c-.07-.38-.09-.77-.19-1.14-.18-.62-.41-1.22-.62-1.83a.8.8,0,0,0-.08-.16A6.62,6.62,0,0,1,38,9.07c-.22-.67-.51-1.31-.7-2A10.81,10.81,0,0,0,36.37,5a11.7,11.7,0,0,0-1.84-2.57c-.27-.27-.53-.56-.8-.84s-.35-.31-.5-.49a.8.8,0,0,0-.46-.3.35.35,0,0,1-.15-.07A1.38,1.38,0,0,0,31.47.55a8.56,8.56,0,0,1-1,.24,1.14,1.14,0,0,0-.68.4c-.16.18-.35.34-.53.51a4.57,4.57,0,0,0-.45.43,6.79,6.79,0,0,0-.5.81,11.36,11.36,0,0,0-.83,1.85c0,.11-.1.21-.14.32a3.62,3.62,0,0,0-.13.35,2.12,2.12,0,0,1-.13.54,1.67,1.67,0,0,0-.08.3,2.45,2.45,0,0,1-.15.93.66.66,0,0,0,0,.28v.87c0,.29-.07.57-.09.86a3.62,3.62,0,0,0,0,.93c.08.58.14,1.16.22,1.73.11.79.25,1.57.35,2.36a2.47,2.47,0,0,0,.17.7c.26.65.53,1.28.8,1.92s.39,1,.58,1.51.4,1,.56,1.44a13.39,13.39,0,0,0,.83,2c.4.73.67,1.53,1.13,2.22v.1c.1.19.19.37.3.55s.38.58.56.88a2.94,2.94,0,0,0,.25.46,5.85,5.85,0,0,1,.63.93,1.51,1.51,0,0,0,.15.28.62.62,0,0,1,0,.73,2.77,2.77,0,0,0-.57,1v.09c-.32.61-.63,1.23-.94,1.85a.44.44,0,0,1-.09.33,10.12,10.12,0,0,0-.61,1.18,2.75,2.75,0,0,0-.37,1,2.7,2.7,0,0,1-.14.4L30,35.07a.23.23,0,0,1-.08.2c-.12.25-.24.5-.35.76-.2.47-.39.95-.59,1.43a2.59,2.59,0,0,0-.29.71,3.09,3.09,0,0,1-.23.77,2.06,2.06,0,0,0-.21.48,4.69,4.69,0,0,1-.53,1.36.76.76,0,0,0-.11.33,8.46,8.46,0,0,1-.23,1.22,4.2,4.2,0,0,1-.2.85c-.09.48-.17,1-.25,1.45s-.19.82-.23,1.24a12.51,12.51,0,0,1,0,1.5v.1c.06.25.14.49.2.74a15.51,15.51,0,0,1,.45,2.13,1.43,1.43,0,0,0,.09.41c.15.54.32,1.08.46,1.62a9.52,9.52,0,0,0,1,2.32c.33.56.74,1.07,1.12,1.61a3.27,3.27,0,0,0,.35.48c.37.35.75.68,1.13,1,.2.19.44.34.63.55a6.25,6.25,0,0,0,1.67,1.53,16.22,16.22,0,0,0,1.78.73,17.47,17.47,0,0,0,2.77.67c.84.16,1.7.2,2.55.29a1,1,0,0,0,.24,0,6.82,6.82,0,0,0,.88-.26A7.83,7.83,0,0,1,43.17,61c.54-.12,1.07-.28,1.59-.44s1-.38,1.46-.54a2.53,2.53,0,0,0,.85-.47c.23-.2.42-.45.65-.64.46-.37.93-.71,1.4-1.07a.83.83,0,0,0,.23-.3.34.34,0,0,1,.31-.2,1,1,0,0,0,.61-.21.32.32,0,0,1,.39,0,.47.47,0,0,1,.36.46.67.67,0,0,0,0,.2c.17.39.32.78.51,1.16s.41.71.62,1.06.44.73.64,1.12.25.63.42.92a1.47,1.47,0,0,1,.1.22c.18.37.35.74.56,1.08a2.89,2.89,0,0,1,.48,1,.58.58,0,0,0,.06.17c.12.35.24.7.35,1.06s.12.52.22.77a3.41,3.41,0,0,1,.29,1,3.52,3.52,0,0,0,.11.62c0,.21.14.37.17.56a9.84,9.84,0,0,1,.22,1.8,2.3,2.3,0,0,1-.13,1.16v.13a3.89,3.89,0,0,1-.51,1.62c-.06.09-.1.19-.15.28s-.24.46-.37.68-.36.42-.51.66a3.94,3.94,0,0,1-.81.82,1.62,1.62,0,0,0-.32.32,1.56,1.56,0,0,1-1,.68.66.66,0,0,0-.33.12.67.67,0,0,1-.39.1,1.58,1.58,0,0,0-.71.17,2.21,2.21,0,0,1-1.71.12c-.61-.19-1.19-.43-1.79-.65-.06,0-.11-.06-.16-.06-.36,0-.57-.24-.83-.43a1.43,1.43,0,0,1,.65-1,1.76,1.76,0,0,0,.84-1,7.7,7.7,0,0,0,.23-2.19,1,1,0,0,0,0-.25c-.07-.31-.13-.62-.23-.92a4.72,4.72,0,0,0-.39-1,3.6,3.6,0,0,0-1.6-1.44,2.15,2.15,0,0,0-1-.16,1.49,1.49,0,0,0-.76.27l-.34.19c-.27.15-.56.29-.82.47a3.68,3.68,0,0,0-.54.5,3.41,3.41,0,0,0-.91,1.19A3.75,3.75,0,0,0,41,73.19a6.65,6.65,0,0,1,.23.76,3.75,3.75,0,0,0,1,1.84,6.24,6.24,0,0,0,.84.7,11.21,11.21,0,0,0,1.15.91l.71.38a4.39,4.39,0,0,0,2.17.73l.87-.05h2.11A3.57,3.57,0,0,0,52,77.79c.52-.38,1.07-.72,1.56-1.13s.75-.78,1.15-1.14A4.34,4.34,0,0,0,56,73.3c.06-.24.09-.51.16-.75a8.25,8.25,0,0,0,.26-2.75v-.74a5,5,0,0,0-.28-2A3,3,0,0,1,55.92,66a3.22,3.22,0,0,0-.2-1.34c-.27-.58-.45-1.2-.72-1.79-.13-.3-.37-.56-.52-.86-.31-.63-.59-1.28-.88-1.92s-.55-1.22-.84-1.82a2,2,0,0,0-.34-.51,2.14,2.14,0,0,0-.39-.28V57.1a1.17,1.17,0,0,1,0-.57l.75-.14m.41.69a3.75,3.75,0,0,0,.24.36,2.62,2.62,0,0,1,.51.83,4.24,4.24,0,0,0,.5,1.13,4.7,4.7,0,0,1,.35.83,8.56,8.56,0,0,0,.44,1.09c.21.32.41.66.59,1a3,3,0,0,1,.19.41c.22.67.54,1.3.78,2a1.35,1.35,0,0,1,0,.49,4.39,4.39,0,0,0,.27,1.68,4.32,4.32,0,0,1,.22,1.18v2.33a9.5,9.5,0,0,1-.07,1.19A12.14,12.14,0,0,1,56.94,73a11.89,11.89,0,0,1-.47,1.54A4.67,4.67,0,0,1,55.35,76c-.42.41-.81.84-1.23,1.26a4.23,4.23,0,0,1-.41.33l-.52.35a9.77,9.77,0,0,0-1,.68,4.53,4.53,0,0,1-1.22.52,3.61,3.61,0,0,1-1.49.19,13.1,13.1,0,0,0-2.17,0,3.29,3.29,0,0,1-1.7-.21,7,7,0,0,1-1.23-.6,5.79,5.79,0,0,0-.64-.36,5.78,5.78,0,0,1-1.14-.88,9.73,9.73,0,0,0-.79-.65,5.79,5.79,0,0,1-.91-1.07,4.5,4.5,0,0,1-.45-1c-.16-.37-.24-.75-.37-1.12A2.78,2.78,0,0,1,40,72.41a9.77,9.77,0,0,1,.26-1.62A2.66,2.66,0,0,1,41,69.5a5.91,5.91,0,0,1,.9-.83,4.05,4.05,0,0,1,1-.69,4.07,4.07,0,0,0,.65-.35,1.74,1.74,0,0,1,.83-.24,3.35,3.35,0,0,1,2.43.72A4,4,0,0,1,48,69.64a6.59,6.59,0,0,1,.54,2,3.8,3.8,0,0,1,0,1.71,2.29,2.29,0,0,1-.2,1,1.75,1.75,0,0,1-.72,1.08,3.7,3.7,0,0,0-.46.42c.09.18.26.21.42.26.43.14.87.27,1.3.43a1.88,1.88,0,0,0,1.24,0c.27-.09.55-.14.82-.23s.7-.24,1-.36a1,1,0,0,0,.2-.15l1-1a4.78,4.78,0,0,0,1-1.44,5.36,5.36,0,0,0,.57-1.69c0-.39.07-.79.09-1.18a9,9,0,0,0-.52-3.08c-.11-.34-.18-.7-.28-1-.2-.62-.39-1.25-.62-1.86-.13-.34-.37-.63-.53-1-.34-.69-.64-1.4-1-2.1-.12-.27-.28-.52-.41-.77s-.35-.64-.52-1l-.62-1.12a2.76,2.76,0,0,0-.76,0A2.2,2.2,0,0,0,49,59a.09.09,0,0,1-.07.08,9.07,9.07,0,0,0-1,.86,3.14,3.14,0,0,0-.51.39,2,2,0,0,1-.82.44L45,61.36c-.15.06-.32.09-.47.14a8.4,8.4,0,0,1-1.55.33,2.59,2.59,0,0,0-.67.2,5.23,5.23,0,0,1-2.39.2,9.22,9.22,0,0,1-1.43-.15c-.32,0-.62-.14-.93-.2l-1.76-.37-.48-.19h-.13A7.58,7.58,0,0,1,33,60.48a5.92,5.92,0,0,1-1.67-1.27,10.66,10.66,0,0,0-.88-.76c-.36-.32-.72-.63-1.07-1a4.92,4.92,0,0,1-.41-.52A17.46,17.46,0,0,1,27.66,55a8.66,8.66,0,0,1-.8-1.72c-.1-.28-.16-.58-.25-.87s-.23-.69-.3-1c-.14-.64-.24-1.29-.37-1.93-.08-.39-.19-.77-.28-1.16a3,3,0,0,1-.11-1.45v-.14a8.41,8.41,0,0,1,.27-2.23c.16-.68.3-1.37.45-2.06.06-.3.09-.6.17-.89s.23-.69.34-1,.18-.53.26-.8v-.16a4.73,4.73,0,0,0,.47-1.32c.06-.23.17-.44.25-.66a4.7,4.7,0,0,1,.29-.82,8.35,8.35,0,0,0,.43-1c.17-.35.31-.61.46-.91.4-.85.62-1.77,1.08-2.6.06-.1.06-.25.11-.36s.17-.33.25-.5.22-.43.32-.65a21.57,21.57,0,0,1,1.24-2.56.84.84,0,0,0,0-.84c-.1-.19-.23-.38-.34-.57a20.75,20.75,0,0,1-1.3-2.17c-.18-.42-.44-.8-.65-1.2-.08-.15-.14-.3-.21-.45-.23-.47-.49-.94-.68-1.43s-.33-1-.48-1.43a.19.19,0,0,0-.05-.16,10.44,10.44,0,0,1-.8-2,9.63,9.63,0,0,0-.5-1.19c-.22-.44-.33-.91-.56-1.34A4.72,4.72,0,0,1,26.09,14c-.17-.9-.34-1.8-.48-2.7a7.44,7.44,0,0,1,0-2A9.29,9.29,0,0,1,25.67,8a1,1,0,0,1,0-.25,3.42,3.42,0,0,0,.09-.63A5.37,5.37,0,0,1,26,5.88c.06-.37.29-.68.36-1a5,5,0,0,1,.5-1.23A13.73,13.73,0,0,1,27.69,2a2.69,2.69,0,0,1,.66-.8l.51-.31s.09-.06.1-.1c.17-.4.55-.43.9-.52a7.45,7.45,0,0,1,.82-.17,1.05,1.05,0,0,0,.24-.06,1.24,1.24,0,0,1,.89,0A4,4,0,0,1,33.1.55a.25.25,0,0,1,.17.11c.29.45.8.67,1.13,1.07s.77.79,1.11,1.22.61.86.88,1.31a8.72,8.72,0,0,1,.54,1c.24.48.48,1,.67,1.45.29.74.53,1.5.81,2.24a8.08,8.08,0,0,0,.53,1.25,5.87,5.87,0,0,1,.42,1c.16.44.31.88.46,1.32,0,.1,0,.2.07.3.1.61.21,1.21.28,1.81v1.86a11.85,11.85,0,0,1,.18,1.88,1.21,1.21,0,0,0,0,.38,6.66,6.66,0,0,1,0,2.09,5,5,0,0,1-.06.94,10.59,10.59,0,0,1-.23,1.77c-.16.53-.24,1.09-.38,1.63-.08.29-.17.58-.28.87-.21.59-.43,1.18-.65,1.77-.06.17-.14.34-.22.51s-.29.62-.45.92l-.42.81a10.46,10.46,0,0,1-.54.93.65.65,0,0,0,0,.73,9.33,9.33,0,0,0,.77,1.38c.19.25.3.57.47.85a6.28,6.28,0,0,1,.58,1.23,3.47,3.47,0,0,0,.7,1,2.78,2.78,0,0,1,.5.76c.08.19.16.38.26.57a.32.32,0,0,0,.46.18,8.63,8.63,0,0,1,1.89-.35c.33-.06.67-.13,1-.17a15.11,15.11,0,0,1,1.51-.1,16.48,16.48,0,0,1,1.72.06,8.23,8.23,0,0,1,1.91.34H49c.55,0,1,.38,1.54.41a.3.3,0,0,1,.19.1c.32.28.75.4,1.1.66s.47.26.71.38c0,0,.11.06.13.1a9.68,9.68,0,0,0,1,1.22c.08.11.14.24.21.36.35.59.71,1.18,1,1.77.17.3.3.61.44.92a.17.17,0,0,0,.06.16,3.11,3.11,0,0,1,.52,1.5v.2c.32.33.25.79.4,1.18a3.71,3.71,0,0,1,.13,1c0,.29.06.58.07.87a1.15,1.15,0,0,1,0,.37,2.4,2.4,0,0,0-.07,1,1.7,1.7,0,0,1,0,.45,4.2,4.2,0,0,0-.08.62,2.82,2.82,0,0,1-.13.76c-.08.24-.13.5-.19.75a2.11,2.11,0,0,1-.19.55,2.8,2.8,0,0,0-.2.64,1,1,0,0,1-.1.29,3.52,3.52,0,0,0-.56,1c0,.09-.14.15-.2.23-.34.44-.66.89-1,1.32a2.65,2.65,0,0,1-.88.82"/><path class="bfd36adf-ae09-4cd7-b8cd-0bac4a9a6974" d="M13.14,9.37a.37.37,0,0,0-.37.23,1.62,1.62,0,0,1-.1.18c-.52.58-.82,1.31-1.33,1.89a12.5,12.5,0,0,0-1,1.49l-.13.17a4.8,4.8,0,0,0-.36.52c-.2.38-.36.78-.57,1.16a.84.84,0,0,0,0,1c.07.1,0,.3.06.43s.14.26.19.4.13.43.22.63c.29.61.56,1.23.91,1.82a9.26,9.26,0,0,1,.76,1.77,6.74,6.74,0,0,0,.38,1.15c.19.31.2.7.47,1s.09.34-.1.45a1.06,1.06,0,0,1-.39.13.87.87,0,0,0-.71.7,5,5,0,0,0-.23,1.67,1.13,1.13,0,0,0,.35.78c.15.14.26.15.47,0s.43-.2.63-.32a1.66,1.66,0,0,0,.77-.92,3.77,3.77,0,0,0,.19-1,2,2,0,0,0-.07-.82c-.25-.66-.53-1.31-.77-2a13.43,13.43,0,0,1-.55-1.62,6,6,0,0,0-.15-.61c-.2-.46-.41-.91-.62-1.37l-.4-.78a.36.36,0,0,1,0-.4,7.69,7.69,0,0,0,.39-.69,6.1,6.1,0,0,1,.77-1.3,6.37,6.37,0,0,0,.53-.75c.22-.39.42-.81.61-1.22.1-.22.2-.42.46-.43s.52-.07.67.23a.6.6,0,0,0,.19.16.23.23,0,0,1,.11.3c-.11.23,0,.44,0,.65a3.08,3.08,0,0,0,.17.68c.06.23.11.52.17.79s.2.78.29,1.18a2.62,2.62,0,0,0,.12.54c.22.47.48.93.73,1.4a.48.48,0,0,1,0,.37.85.85,0,0,1-.47.44.9.9,0,0,0-.52.89,1.26,1.26,0,0,0,.77,1,.35.35,0,0,0,.37,0c.13-.08.26-.16.38-.25A1.39,1.39,0,0,0,17,20a11.92,11.92,0,0,0-.39-1.45,12.87,12.87,0,0,1-.74-2.08.24.24,0,0,0-.07-.2c-.23-.73-.45-1.46-.68-2.19-.12-.38-.24-.76-.37-1.13-.22-.61-.45-1.21-.68-1.81a5.18,5.18,0,0,0-1-1.81m.39,5c-.24.34-.44.62-.63.91a5.7,5.7,0,0,1-.39.58,6.64,6.64,0,0,0-.79,1.4.32.32,0,0,0,0,.27,4.66,4.66,0,0,0,.26.61,10.48,10.48,0,0,1,.74,1.8c.18.64.44,1.26.68,1.88.15.39.32.77.48,1.16,0,.1.1.21.15.31.15.32.41.61.25,1a.66.66,0,0,0,0,.28v.2a7,7,0,0,1-.49,1.46,2.62,2.62,0,0,1-.9.82c-.15.09-.28.22-.43.29a3.69,3.69,0,0,1-1,.48,1,1,0,0,1-.91-.23,1.9,1.9,0,0,1-.63-1.37,6.78,6.78,0,0,1,.3-2,1.39,1.39,0,0,1,.58-.73c.49-.33.45-.27.27-.77-.26-.72-.5-1.44-.77-2.16-.13-.35-.33-.67-.49-1s-.36-.79-.55-1.18-.46-.94-.68-1.42a.67.67,0,0,1,0-.2v-.16c-.22-.19-.26-.49-.39-.73a.57.57,0,0,1,.06-.69c.14-.25.27-.51.39-.77.31-.51.64-1,1-1.51s.59-.9.89-1.34.7-1,1-1.55c.17-.25.32-.52.5-.77a2.5,2.5,0,0,1,.32-.33,2.62,2.62,0,0,0,.22-.25.64.64,0,0,1,.83-.36.61.61,0,0,1,.31.26.7.7,0,0,0,.14.16,3.33,3.33,0,0,1,1,1.59c.11.26.22.54.32.81s.28.78.43,1.17a4.12,4.12,0,0,0,.23.58,10.48,10.48,0,0,1,.46,1.44,4.14,4.14,0,0,0,.19.49l.45,1.5a.57.57,0,0,0,.06.31,5.52,5.52,0,0,0,.18.53c.07.2.15.41.23.61s.14.29.21.44l.14.32c.05.11.21.47.29.71a2.7,2.7,0,0,1,.08.41,2,2,0,0,1-.44,1.61,2.87,2.87,0,0,1-1.36.94,1.4,1.4,0,0,1-.78.1,1.82,1.82,0,0,1-1-.72,3.12,3.12,0,0,1-.46-.91.94.94,0,0,1,0-.41,1.61,1.61,0,0,1,.6-1c.3-.25.29-.33.15-.7A15.4,15.4,0,0,1,13.89,16c-.08-.42-.14-.85-.22-1.27a2.29,2.29,0,0,0-.12-.37"/><path class="bfd36adf-ae09-4cd7-b8cd-0bac4a9a6974" d="M1.16,30.68a6,6,0,0,1,.3.56c.23.54.44,1.08.68,1.62a6.06,6.06,0,0,0,.72,1.44,2.55,2.55,0,0,1,.33.52c.14.31.22.64.35,1s.26.62.39.93.14.45.23.67c.19.47.4.94.59,1.42a13.17,13.17,0,0,1,.87,2.09.2.2,0,0,0,.08.12.62.62,0,0,1,.09.32A2.68,2.68,0,0,0,6,42c.12.2.25.39.39.58a.52.52,0,0,1-.13.72l-.13.07c-.65.23-1.34.4-1.66,1.12v0a2.33,2.33,0,0,0-.31.5,1.55,1.55,0,0,0,.12,1.28,5.06,5.06,0,0,0,.55.76.89.89,0,0,0,1,.31l.41-.11a2.36,2.36,0,0,1,.51-.12,1.8,1.8,0,0,0,1.27-.85,2.17,2.17,0,0,0,.32-1.49,2.8,2.8,0,0,0-.46-1.37,18.46,18.46,0,0,1-1-1.86V41.5c-.29-.66-.59-1.32-.9-2-.22-.45-.49-.88-.67-1.35-.23-.64-.51-1.26-.78-1.88a5.77,5.77,0,0,1-.27-.56,1.53,1.53,0,0,0-.51-.85.42.42,0,0,1-.17-.57.46.46,0,0,1,.17-.17l.46-.33c.08,0,.21,0,.24.09s.3.17.47.19a4.35,4.35,0,0,0,.52.06,7.49,7.49,0,0,0,1.16,0,1,1,0,0,0,1-.77l-.25-.06a4.38,4.38,0,0,1-1.68-.62,7.38,7.38,0,0,1-1.13-.95A5.21,5.21,0,0,0,2.42,30.5a2.33,2.33,0,0,0-1.2.1v.07M5.1,35c.2.48.36.89.53,1.3s.38.9.59,1.35.51,1,.76,1.57.56,1.23.85,1.83c.12.25.26.48.39.71a1.36,1.36,0,0,1,.29.7c0,.07.09.17.15.23a2.49,2.49,0,0,1,.57,1.4,7.23,7.23,0,0,1,0,1.74,1.3,1.3,0,0,1-.23.57,4.51,4.51,0,0,1-.48.6c-.16.16-.34.28-.5.44a2.75,2.75,0,0,1-1.56.67c-.35.07-.7.16-1.06.22a.87.87,0,0,1-.84-.31c-.25-.27-.51-.52-.74-.8a1.75,1.75,0,0,1-.28-.52,8.64,8.64,0,0,1-.26-1,.86.86,0,0,1,0-.45,6.79,6.79,0,0,1,1-1.68A3,3,0,0,1,5.09,43l.15-.08c.29-.17.3-.18.17-.5-.28-.69-.58-1.38-.87-2.07a.88.88,0,0,0-.1-.3c0-.1-.25-.47-.37-.72a14.56,14.56,0,0,1-.81-1.75c-.29-.81-.69-1.58-1-2.39s-.63-1.31-.94-2c-.14-.3-.25-.61-.38-.91-.2-.48-.4-.95-.62-1.42a1.21,1.21,0,0,0-.21-.28c-.14-.16-.15-.29,0-.43s.34-.36.63-.31a.38.38,0,0,0,.21,0,5.32,5.32,0,0,1,1.48-.29,1.61,1.61,0,0,1,.68.13c.5.23,1,.48,1.47.76a3.66,3.66,0,0,1,.63.55,5,5,0,0,0,1.58,1.2,2.9,2.9,0,0,0,1.64.27c.48-.1.63.25.58.6a.16.16,0,0,1-.08.14,3.91,3.91,0,0,0-.72.85,3.15,3.15,0,0,1-.72.59,4.44,4.44,0,0,1-.72.27A2.6,2.6,0,0,1,5.63,35,3,3,0,0,0,5,35"/><path class="b9385b2a-7bab-4170-b169-55c44f3080c8" d="M44,42.07a0,0,0,0,0,0,0,2.25,2.25,0,0,0-.44.14,1.58,1.58,0,0,0-.39.24.28.28,0,0,0-.1.38.47.47,0,0,0,.1.1,6.55,6.55,0,0,1,1.13,1.39,14.49,14.49,0,0,1,1.13,2.09,2.29,2.29,0,0,0,.1.23c.38.56.76,1.12,1.12,1.7s.52.94.77,1.41.4.87.63,1.29c.47.84,1,1.66,1.45,2.49a3.71,3.71,0,0,1,.27.65,2.68,2.68,0,0,0,.45.83.34.34,0,0,0,.43.16c.27-.12.62-.08.78-.48a8.55,8.55,0,0,1,.67-1.18,2.26,2.26,0,0,0,.26-.62,9.88,9.88,0,0,0,.15-1.32,13.57,13.57,0,0,0,0-1.43,11.73,11.73,0,0,0-.12-1.33,6.72,6.72,0,0,0-.16-1c-.13-.52-.3-1-.46-1.53-.11-.31-.23-.63-.36-.94s-.2-.32-.27-.49A5.09,5.09,0,0,0,50,43.17c-.21-.21-.47-.35-.67-.55a2.41,2.41,0,0,0-.79-.42,3.34,3.34,0,0,0-1.21-.2h-1.9a2.9,2.9,0,0,0-.59.09l-.76.07M36.17,9.56c-.11-.25-.23-.53-.36-.8s-.26-.55-.4-.82a2.89,2.89,0,0,0-1.36-1.36,7.1,7.1,0,0,1-1-.59,2.86,2.86,0,0,0-1.64-.55.86.86,0,0,0-.92.53c0,.06-.09.1-.12.16a10.21,10.21,0,0,0-.68,1.15,12.6,12.6,0,0,0-.88,3,3,3,0,0,1-.16.57q-.12.57-.21,1.14a6.36,6.36,0,0,0-.06.87,5.1,5.1,0,0,0,.27,1.55,3.58,3.58,0,0,1,.16.56,3.83,3.83,0,0,0,.33,1.33,4.29,4.29,0,0,1,.23.63c.14.39.27.79.4,1.19a2,2,0,0,1,0,.25A8.59,8.59,0,0,0,30.7,21c.22.38.4.79.63,1.17a6.36,6.36,0,0,1,.88,1.86.7.7,0,0,0,.08.2c.21.43.42.86.62,1.29a3.52,3.52,0,0,1,.17.39.53.53,0,0,0,.23.24,4.26,4.26,0,0,0,1,.22.57.57,0,0,0,.24-.11c.25-.16.31-.46.49-.67a4,4,0,0,0,.61-1.33c.23-.71.52-1.4.74-2.13.27-.89.48-1.8.72-2.7a12.83,12.83,0,0,0,.32-1.73,11.15,11.15,0,0,0,.19-1.63c0-.8-.06-1.59-.1-2.38a1.77,1.77,0,0,0,0-.46c-.1-.4-.23-.81-.36-1.21-.08-.23-.19-.45-.27-.68a3.08,3.08,0,0,0-.48-1,.5.5,0,0,1-.09-.23,3,3,0,0,0-.15-.65M39.54,39.2,38.72,38a.72.72,0,0,1-.14-.24c-.08-.42-.41-.7-.6-1.06a17.11,17.11,0,0,0-1-1.61c0-.05-.08-.09-.11-.14a2.48,2.48,0,0,1-.5-1,.47.47,0,0,0-.35-.4.6.6,0,0,1-.34-.07.42.42,0,0,0-.45.1,2.59,2.59,0,0,0-.7,1c-.32.53-.6,1.08-.93,1.62s-.86,1.31-1.25,2A24.56,24.56,0,0,0,31,40.79c-.31.67-.53,1.37-.8,2.05a14.23,14.23,0,0,0-.53,1.42,4,4,0,0,0-.28,1.08A14.35,14.35,0,0,1,29.25,47a12.51,12.51,0,0,0,.11,2.8c0,.42.15.83.19,1.24a6,6,0,0,0,.79,2.24,9.76,9.76,0,0,0,1.12,1.52c.6.71,1.24,1.39,1.87,2.06a6.88,6.88,0,0,0,.77.66c.16.13.33.23.49.34.4.28.8.58,1.21.84a15.15,15.15,0,0,0,1.39.75,5.72,5.72,0,0,0,1.15.45,8.44,8.44,0,0,0,2.13.09h.46a4,4,0,0,0,1.29-.09c.61-.13,1.21-.29,1.81-.44l.24-.07.76-.28a.72.72,0,0,1,.61,0,.58.58,0,0,0,.59-.1c.15-.12.32-.21.47-.32l.61-.47,1.09-.93a.44.44,0,0,1,.16-.06,1,1,0,0,0,.62-.49,1.1,1.1,0,0,1,.29-.38.51.51,0,0,0,.22-.61A2.93,2.93,0,0,0,49,54.57c-.34-.5-.7-1-1-1.46l-.78-1.2a1.58,1.58,0,0,1-.15-.24c-.23-.42-.47-.84-.68-1.27a8.23,8.23,0,0,1-.62-1.22,1.57,1.57,0,0,0-.28-.44c0-.08-.11-.15-.15-.23a4.8,4.8,0,0,0-.76-1.22,1.58,1.58,0,0,1-.15-.24c-.19-.35-.38-.72-.58-1.07a7.06,7.06,0,0,1-.42-.73,4.47,4.47,0,0,0-.57-1,1,1,0,0,1-.22-.46.48.48,0,0,0-.48-.48h-.31c-.1,0-.18-.05-.24,0a7.1,7.1,0,0,0-.91.64c-.23.19-.41.46-.63.66a2.76,2.76,0,0,0-.85,1.22A9.83,9.83,0,0,0,38.81,47a16.21,16.21,0,0,0-.17,2.31,2.83,2.83,0,0,0,.07.77,20.26,20.26,0,0,0,.73,2.75,1.49,1.49,0,0,0,.18.3c.06.1.16.18.21.28A6.5,6.5,0,0,0,41,54.8c.09.1.15.22.27.39a1.58,1.58,0,0,0-.43-.1.86.86,0,0,1-.72-.3c-.11-.09-.19-.21-.3-.29-.63-.42-1.27-.82-1.88-1.28a4.75,4.75,0,0,1-1-.95,6.55,6.55,0,0,1-.6-1.18,5,5,0,0,0-.44-1,2,2,0,0,1-.22-.44,5.63,5.63,0,0,1-.27-1.73,15,15,0,0,1,0-1.64v-1a3.42,3.42,0,0,1,.16-.72A8.79,8.79,0,0,1,36,43a13.57,13.57,0,0,1,.75-1.42,7,7,0,0,1,.6-.83c.28-.31.6-.59.9-.88a.46.46,0,0,1,.58-.19c.33.13.43,0,.64-.33M52.79,56.29l-.75.14c-.06.23-.13.4,0,.58s0,.21,0,.37a2.14,2.14,0,0,1,.39.28,2,2,0,0,1,.34.51c.29.6.56,1.21.84,1.82s.57,1.28.88,1.91c.15.31.39.56.52.87.26.59.45,1.21.72,1.79a3.39,3.39,0,0,1,.21,1.34A3.22,3.22,0,0,0,56.15,67a5,5,0,0,1,.28,2v.74a8.25,8.25,0,0,1-.26,2.75c-.07.25-.1.51-.16.76a4.46,4.46,0,0,1-1.3,2.21c-.4.36-.74.79-1.15,1.14s-1,.75-1.56,1.13a3.57,3.57,0,0,1-1.94.67H48l-.88,0a4.39,4.39,0,0,1-2.17-.73l-.71-.38a11.21,11.21,0,0,1-1.15-.91,4.73,4.73,0,0,1-.84-.7,3.75,3.75,0,0,1-1-1.84,6.65,6.65,0,0,0-.23-.76,3.75,3.75,0,0,1,.21-2.47,3.41,3.41,0,0,1,.91-1.19,3.68,3.68,0,0,1,.54-.5c.26-.18.55-.32.82-.47l.33-.09a1.5,1.5,0,0,1,.77-.28,2.15,2.15,0,0,1,1,.16,3.6,3.6,0,0,1,1.6,1.44,4.72,4.72,0,0,1,.39,1c.1.3.16.62.23.92a1,1,0,0,1,0,.25,7.35,7.35,0,0,1-.22,2.19,1.73,1.73,0,0,1-.84,1,1.43,1.43,0,0,0-.65,1c.26.19.47.44.83.43a.44.44,0,0,1,.16.06c.59.22,1.18.46,1.79.65a2.3,2.3,0,0,0,1.71-.12,1.89,1.89,0,0,1,.7-.17.63.63,0,0,0,.4-.1.93.93,0,0,1,.33-.12,1.56,1.56,0,0,0,1-.68,1.62,1.62,0,0,1,.32-.32,3.66,3.66,0,0,0,.8-.82c.16-.24.37-.43.52-.67s.26-.44.37-.67.09-.19.15-.28a3.89,3.89,0,0,0,.51-1.62v-.13a2.09,2.09,0,0,0,.12-1.16,9,9,0,0,0-.21-1.8A2.39,2.39,0,0,0,55.4,68a4.14,4.14,0,0,1-.1-.63,3.5,3.5,0,0,0-.3-1c-.1-.25-.14-.52-.22-.77s-.23-.71-.35-1.06a.58.58,0,0,1-.06-.17,2.72,2.72,0,0,0-.48-1c-.21-.35-.37-.73-.56-1.09a1.47,1.47,0,0,0-.1-.22,7.78,7.78,0,0,1-.42-.93c-.18-.38-.43-.74-.64-1.11s-.44-.7-.62-1.06-.34-.77-.5-1.16a.42.42,0,0,1-.06-.19.48.48,0,0,0-.36-.47.32.32,0,0,0-.39,0,1.08,1.08,0,0,1-.62.21.33.33,0,0,0-.3.2.78.78,0,0,1-.24.3c-.45.36-.93.7-1.39,1.07-.23.19-.42.44-.65.64a2.53,2.53,0,0,1-.85.47c-.49.16-1,.38-1.46.53s-1.06.33-1.59.45a7.83,7.83,0,0,0-1.16.28,8.7,8.7,0,0,1-.87.26h-.25c-.85-.09-1.71-.13-2.55-.29a17.47,17.47,0,0,1-2.77-.67,16.22,16.22,0,0,1-1.78-.73,6.47,6.47,0,0,1-1.85-1.43,8.11,8.11,0,0,0-.64-.55l-1.12-1a3.27,3.27,0,0,1-.35-.48c-.36-.53-.7-1.08-1-1.64a9.52,9.52,0,0,1-1-2.32c-.15-.54-.31-1.08-.46-1.61a1.58,1.58,0,0,1-.09-.42,15.51,15.51,0,0,0-.45-2.13c-.06-.25-.14-.5-.2-.74v-.1a12.51,12.51,0,0,0,0-1.5,6.86,6.86,0,0,1,.23-1.25c.08-.42.16-1,.25-1.44.06-.28.15-.56.2-.85a10.09,10.09,0,0,0,.23-1.22.76.76,0,0,1,.11-.33,4.72,4.72,0,0,0,.54-1.36,1.68,1.68,0,0,1,.2-.48,3.09,3.09,0,0,0,.23-.77,2.59,2.59,0,0,1,.29-.71c.2-.48.39-1,.59-1.43.11-.26.23-.51.35-.77a.21.21,0,0,1,.08-.19l.58-1.24a2.7,2.7,0,0,0,.14-.4,3,3,0,0,1,.37-1,9.71,9.71,0,0,1,.61-1.15c.07-.08,0-.23.09-.33.3-.62.62-1.24.94-1.85V29.1a2.77,2.77,0,0,1,.57-1,.62.62,0,0,0,0-.73,1.08,1.08,0,0,1-.15-.28,5.85,5.85,0,0,0-.63-.93,2.94,2.94,0,0,1-.25-.46c-.18-.29-.38-.58-.56-.88s-.2-.36-.3-.55v-.1c-.46-.69-.73-1.49-1.13-2.21a14,14,0,0,1-.83-2.05c-.16-.49-.37-1-.56-1.44s-.38-1-.58-1.51-.54-1.27-.8-1.91a2.54,2.54,0,0,1-.17-.71c-.09-.79-.24-1.57-.35-2.35-.08-.58-.14-1.16-.22-1.74a3.62,3.62,0,0,1,0-.93c0-.29.09-.57.09-.86V7.59a.66.66,0,0,1,0-.28,2.45,2.45,0,0,0,.15-.93A1.57,1.57,0,0,1,27,6.07a2.16,2.16,0,0,1,.13-.53,2.2,2.2,0,0,1,.13-.35c.05-.12.1-.21.14-.32A11.36,11.36,0,0,1,28.21,3a6.79,6.79,0,0,1,.5-.81,4.57,4.57,0,0,1,.45-.43c.18-.17.36-.33.53-.51a1,1,0,0,1,.68-.4,8.56,8.56,0,0,0,1-.24,1.38,1.38,0,0,1,1.15.19.35.35,0,0,0,.15.07.8.8,0,0,1,.46.3c.15.18.34.32.5.49l.8.85a11.64,11.64,0,0,1,1.84,2.56,10.81,10.81,0,0,1,.9,2.06c.19.67.48,1.31.7,2a6.62,6.62,0,0,0,.6,1.33.8.8,0,0,1,.08.16c.21.61.44,1.21.62,1.83.1.37.12.76.19,1.14a18.15,18.15,0,0,1,.23,2.44c0,.21.07.42.09.63.08.93.18,1.86.23,2.79A14.66,14.66,0,0,1,39.84,21a11.82,11.82,0,0,1-.14,1.32,12.36,12.36,0,0,1-.51,2.4,1.6,1.6,0,0,1-.11.48c-.21.6-.38,1.22-.64,1.79s-.38,1-.65,1.51-.5,1-.76,1.46c-.1.19-.24.35-.34.53s-.17.36-.26.53a5.24,5.24,0,0,1-.23.48c-.25.36-.16.68.27.73a.49.49,0,0,1,.39.29c.19.32.41.62.6,1s.51.89.75,1.35a5.89,5.89,0,0,1,.24.58,3.42,3.42,0,0,0,.86,1.23,1.16,1.16,0,0,1,.26.49,3.54,3.54,0,0,0,.32,1,.63.63,0,0,0,.76.35,18.13,18.13,0,0,1,1.93-.34,8.7,8.7,0,0,0,1.24-.22,7.55,7.55,0,0,0,.94-.12,4.18,4.18,0,0,1,1,0,6.48,6.48,0,0,1,1.39.06,10,10,0,0,1,3,.71,9.2,9.2,0,0,1,1.75,1A6.44,6.44,0,0,1,53,40.72c.42.54.72,1.15,1.12,1.71a12.13,12.13,0,0,1,.75,1.43,7.12,7.12,0,0,1,.58,1.74c.1.49.31,1,.4,1.45a5.43,5.43,0,0,1,.06,1.61c-.07.48-.07,1-.13,1.47V51A9.33,9.33,0,0,1,54,55c-.15.17-.28.35-.43.52l-.8.88a.56.56,0,0,0-.05-.08"/><path class="b9385b2a-7bab-4170-b169-55c44f3080c8" d="M13.14,9.37a5.14,5.14,0,0,1,1,1.8c.23.61.46,1.21.68,1.82.13.37.25.75.37,1.14.23.72.45,1.45.68,2.18,0,.07.05.13.07.2a12.87,12.87,0,0,0,.74,2.08A11.92,11.92,0,0,1,17.07,20a1.39,1.39,0,0,1-.54,1.13,3.11,3.11,0,0,1-.38.25.35.35,0,0,1-.37,0,1.26,1.26,0,0,1-.77-1,.9.9,0,0,1,.52-.89.85.85,0,0,0,.47-.44.48.48,0,0,0,0-.37c-.25-.47-.51-.93-.73-1.4a2.62,2.62,0,0,1-.12-.54c-.1-.4-.2-.79-.29-1.19s-.11-.52-.17-.78-.12-.45-.17-.68-.16-.42,0-.65a.23.23,0,0,0-.11-.3.6.6,0,0,1-.19-.16c-.15-.3-.43-.25-.67-.23s-.36.21-.46.43c-.19.41-.39.83-.61,1.22a6.37,6.37,0,0,1-.53.75,6,6,0,0,0-.77,1.29,4.8,4.8,0,0,1-.39.7.36.36,0,0,0,0,.4c.14.26.27.52.4.79.21.45.42.9.61,1.36a4.21,4.21,0,0,1,.16.61A15.38,15.38,0,0,0,12.5,22c.25.66.53,1.31.78,2a2,2,0,0,1,.07.82,3.77,3.77,0,0,1-.19,1,1.66,1.66,0,0,1-.77.92c-.2.12-.42.22-.63.32a.4.4,0,0,1-.47,0,1.17,1.17,0,0,1-.35-.78,5,5,0,0,1,.23-1.67.86.86,0,0,1,.71-.7,1.44,1.44,0,0,0,.4-.13c.18-.11.24-.31.09-.45a8.19,8.19,0,0,1-.47-1,6.74,6.74,0,0,1-.38-1.15,10.26,10.26,0,0,0-.76-1.77c-.35-.59-.62-1.2-.91-1.82-.09-.2-.13-.43-.22-.63a3.31,3.31,0,0,1-.19-.4c0-.14,0-.33-.06-.43a.84.84,0,0,1,0-1c.21-.38.37-.78.57-1.16a4.8,4.8,0,0,1,.36-.52l.13-.17a12.5,12.5,0,0,1,1-1.49c.51-.58.81-1.31,1.33-1.89a1.62,1.62,0,0,0,.1-.18.37.37,0,0,1,.37-.23"/><path class="b9385b2a-7bab-4170-b169-55c44f3080c8" d="M1.16,30.68v-.07a2.33,2.33,0,0,1,1.2-.1,5.21,5.21,0,0,1,2.15,1.23,7.38,7.38,0,0,0,1.13.95,4.38,4.38,0,0,0,1.68.62l.25.06a1,1,0,0,1-1,.77,7.49,7.49,0,0,1-1.16,0H4.89a.46.46,0,0,1-.47-.2c-.12-.2-.16-.06-.25-.09l-.45.33a.41.41,0,0,0-.17.57.46.46,0,0,0,.17.17,1.53,1.53,0,0,1,.51.85,5.77,5.77,0,0,0,.27.56c.27.62.55,1.24.78,1.87.18.48.45.91.67,1.36.32.65.6,1.31.91,2a.29.29,0,0,0,0,.13,18.46,18.46,0,0,0,1,1.86,2.84,2.84,0,0,1,.46,1.38A2.15,2.15,0,0,1,8,46.41a1.8,1.8,0,0,1-1.27.85,2.36,2.36,0,0,0-.51.12l-.41.11a.89.89,0,0,1-1-.31,5.06,5.06,0,0,1-.55-.76,1.55,1.55,0,0,1-.12-1.28,2.8,2.8,0,0,1,.31-.5v0c.32-.72,1-.89,1.65-1.12a.52.52,0,0,0,.35-.63.8.8,0,0,0-.08-.16c-.14-.19-.27-.38-.39-.58a2.62,2.62,0,0,1-.19-.73A.71.71,0,0,0,5.66,41a.2.2,0,0,1-.08-.12,13.17,13.17,0,0,0-.87-2.09c-.19-.48-.4-1-.6-1.42C4,37.18,4,37,3.89,36.73s-.27-.62-.39-.93-.21-.64-.35-1a2.62,2.62,0,0,0-.33-.53,5.49,5.49,0,0,1-.72-1.43c-.24-.54-.45-1.09-.68-1.62-.09-.19-.2-.37-.3-.56"/><path class="bfd36adf-ae09-4cd7-b8cd-0bac4a9a6974" d="M35.65,34.61a.86.86,0,0,0-.37.43c-.14.26-.29.53-.45.78s-.22.3-.32.46-.22.63-.53.81v.1a4.7,4.7,0,0,1-.28.48c-.1.16-.33.51-.48.77a5.17,5.17,0,0,1-.29.52,9.22,9.22,0,0,0-1,1.92c-.07.16-.18.31-.24.47-.14.41-.27.82-.4,1.23a1.19,1.19,0,0,1-.14.4c0,.13-.25.55-.36.83a8.9,8.9,0,0,0-.48,1.75v1.21a7.45,7.45,0,0,0,0,1.25c0,.74.12,1.46.19,2.19,0,.19.08.37.09.55a4.4,4.4,0,0,0,.72,2.07A9.62,9.62,0,0,0,32,53.9c.26.33.56.62.84.94s.68.8,1,1.19a3.8,3.8,0,0,0,.47.42l1,.71a9.86,9.86,0,0,0,1,.69c.61.36,1.25.67,1.88,1a3.25,3.25,0,0,0,1.19.29,8.34,8.34,0,0,0,1,0A9.94,9.94,0,0,0,42,59.06a4.24,4.24,0,0,0,.61-.17c.48-.09,1-.2,1.43-.33a13.21,13.21,0,0,1,1.87-.5,1.64,1.64,0,0,0,.67-.27c.23-.15.41-.38.63-.55a5.63,5.63,0,0,1,1-.74,1.66,1.66,0,0,0,.8-.91c-.07-.11-.15-.22-.21-.33s-.27-.49-.42-.73-.26-.27-.36-.43c-.29-.47-.57-1-.87-1.44s-.42-.62-.6-.94c-.45-.83-.88-1.66-1.33-2.48a14.22,14.22,0,0,0-1-1.63c-.25-.35-.45-.76-.67-1.14s-.5-.85-.76-1.26a3.21,3.21,0,0,1-.64-1.31L42,43.84a.89.89,0,0,0-.41.28,8.3,8.3,0,0,1-.84.94,1.64,1.64,0,0,0-.45.56c0,.06-.07.13-.11.18a3.6,3.6,0,0,0-.58,1.68c-.07.56,0,1.13-.1,1.7a.74.74,0,0,0,0,.21,9.52,9.52,0,0,1,.25,1.51c0,.05.05.1.06.16l.09.49a.45.45,0,0,0,0,.23c.23.34.23.8.55,1.09,0,.39.41.55.62.82s.63.65.93,1a2.44,2.44,0,0,1,.42.59c.18.35,0,.56-.34.6a5.74,5.74,0,0,1-1.55-.21,2.33,2.33,0,0,1-.9-.46c-.12-.1-.2-.23-.32-.32-.6-.45-1.21-.88-1.82-1.32a4.8,4.8,0,0,1-.52-.36,5.61,5.61,0,0,1-1.23-2c-.17-.4-.31-.81-.5-1.2a3.56,3.56,0,0,1-.33-1c0-.31-.13-.62-.16-.93a6.91,6.91,0,0,1,0-.91,3.38,3.38,0,0,1,.06-.77,5.9,5.9,0,0,1,.08-1.57c.13-.47.17-1,.31-1.44a9.16,9.16,0,0,1,1-2.26,6.1,6.1,0,0,1,.9-1.25c.42-.39.83-.8,1.24-1.21a.54.54,0,0,0-.07-.13l-.72-1.16a2.87,2.87,0,0,0-.26-.49,8,8,0,0,1-.87-1.35l-.61-1m3.89,4.58c-.21.38-.31.45-.64.33a.46.46,0,0,0-.58.19c-.3.29-.62.57-.9.88a7,7,0,0,0-.6.83,14.69,14.69,0,0,0-.74,1.42,8.07,8.07,0,0,0-.44,1.6,4.19,4.19,0,0,0-.16.72v1a15,15,0,0,0,0,1.64A5.36,5.36,0,0,0,36,49.48a2,2,0,0,0,.21.44,5,5,0,0,1,.44,1,6.55,6.55,0,0,0,.6,1.18,5,5,0,0,0,1,.95c.61.46,1.25.86,1.88,1.28l.3.29a.86.86,0,0,0,.72.3,1.58,1.58,0,0,1,.43.1,2.7,2.7,0,0,0-.27-.39,6.25,6.25,0,0,1-1.48-1.33L39.58,53a1.49,1.49,0,0,1-.18-.3A20.26,20.26,0,0,1,38.67,50a3.3,3.3,0,0,1-.07-.77,16.21,16.21,0,0,1,.17-2.31,9.83,9.83,0,0,1,.44-1.18,2.76,2.76,0,0,1,.85-1.22c.22-.2.4-.47.63-.66a7.1,7.1,0,0,1,.91-.64h.52a.5.5,0,0,1,.52.48h0a.88.88,0,0,0,.21.46,3.81,3.81,0,0,1,.57,1c.11.26.29.48.42.73s.39.72.58,1.07a1.58,1.58,0,0,0,.15.24,4.8,4.8,0,0,1,.76,1.22c0,.08.1.15.15.23a1.57,1.57,0,0,1,.28.44,7.37,7.37,0,0,0,.62,1.22c.21.43.45.85.68,1.27a1.58,1.58,0,0,0,.15.24c.26.4.51.8.78,1.2l1,1.46a3.06,3.06,0,0,1,.66,1.13.51.51,0,0,1-.22.61,1.1,1.1,0,0,0-.29.38,1,1,0,0,1-.61.49.36.36,0,0,0-.17.07l-1.09.92c-.2.16-.4.32-.61.47s-.32.2-.47.32a.55.55,0,0,1-.59.09.72.72,0,0,0-.61,0l-.76.28-.24.07c-.6.15-1.2.31-1.81.44a4,4,0,0,1-1.29.09,3.53,3.53,0,0,0-.46,0,8.44,8.44,0,0,1-2.13-.09,5.72,5.72,0,0,1-1.15-.45c-.47-.23-.94-.48-1.39-.75S35,58,34.55,57.68c-.16-.11-.33-.21-.49-.34a6.88,6.88,0,0,1-.77-.66c-.64-.67-1.27-1.35-1.87-2.06A9.76,9.76,0,0,1,30.3,53.1a6,6,0,0,1-.79-2.24c0-.41-.15-.83-.19-1.24a12.51,12.51,0,0,1-.11-2.8,14.35,14.35,0,0,0,.12-1.61,4.48,4.48,0,0,1,.28-1.09,14.06,14.06,0,0,1,.53-1.41c.27-.68.49-1.38.8-2.05.4-.89.89-1.73,1.37-2.58.39-.68.85-1.32,1.25-2s.6-1.09.94-1.62a2.4,2.4,0,0,1,.69-1,.42.42,0,0,1,.45-.1.6.6,0,0,1,.34.07.47.47,0,0,1,.35.4,2.48,2.48,0,0,0,.5,1,1.36,1.36,0,0,1,.11.14c.33.53.68,1.05,1,1.61.19.36.52.64.6,1.06,0,.09.09.16.14.24l.82,1.19"/><path class="bfd36adf-ae09-4cd7-b8cd-0bac4a9a6974" d="M35.58,10.37a8,8,0,0,0-.84-2.12A3,3,0,0,0,33.6,7.09c-.33-.17-.63-.39-1-.58a4.42,4.42,0,0,0-.68-.36.6.6,0,0,0-.79.24A6.75,6.75,0,0,0,30.2,8a12.89,12.89,0,0,0-.41,1.38,4.21,4.21,0,0,0-.12.71c-.09.47-.2.94-.33,1.4a9.43,9.43,0,0,0-.2,1.06,1.4,1.4,0,0,0,.07.86v.17a13.52,13.52,0,0,0,.5,2.25,11.08,11.08,0,0,1,.57,1.8,1.78,1.78,0,0,0,.14.36,3,3,0,0,1,.11.32c.07.31.1.63.19.93a5.68,5.68,0,0,0,.68,1.58c.28.43.5.9.74,1.36l.12.29a.43.43,0,0,0,.13.28,1.81,1.81,0,0,1,.42.84,4,4,0,0,0,.57,1.12.46.46,0,0,1,.16.35.9.9,0,0,0,.22.46c.08.12.19.11.33,0a2.29,2.29,0,0,0,.56-.87,9.83,9.83,0,0,0,.52-1.26c.15-.42.26-.85.38-1.27a4.45,4.45,0,0,0,.24-.7c.1-.74.41-1.43.49-2.19a12.52,12.52,0,0,1,.38-1.82,7.8,7.8,0,0,0,.14-1.67c0-.65-.09-1.3-.13-2a7.12,7.12,0,0,0-.61-2.22c-.2-.49-.43-1-.54-1.22m.59-.87c.06.24.1.45.15.65a.5.5,0,0,0,.09.23,3.08,3.08,0,0,1,.48,1c.08.23.19.45.27.68.13.4.26.81.36,1.21a1.69,1.69,0,0,1,0,.45c0,.8.11,1.59.1,2.39a9.93,9.93,0,0,1-.19,1.63,12.83,12.83,0,0,1-.32,1.73c-.24.9-.45,1.81-.72,2.7-.22.73-.51,1.42-.74,2.13A3.83,3.83,0,0,1,35,25.55c-.18.21-.24.51-.49.67-.08.05-.17.12-.24.11a4.26,4.26,0,0,1-1-.22.53.53,0,0,1-.23-.24,1.08,1.08,0,0,0-.16-.39l-.63-1.29a.7.7,0,0,1-.08-.2,6.36,6.36,0,0,0-.88-1.86c-.23-.38-.41-.79-.63-1.17a8.85,8.85,0,0,1-.85-2.59A1.89,1.89,0,0,0,29.7,18c-.13-.4-.26-.8-.4-1.2a4.62,4.62,0,0,0-.23-.62,3.83,3.83,0,0,1-.33-1.33,3.58,3.58,0,0,0-.16-.56,5.1,5.1,0,0,1-.27-1.55,6.36,6.36,0,0,1,.06-.87q.09-.57.21-1.14a4,4,0,0,1,.16-.57,12.6,12.6,0,0,1,.88-3A10.21,10.21,0,0,1,30.3,6c0-.06.09-.1.12-.16a.86.86,0,0,1,.92-.53A2.72,2.72,0,0,1,33,5.9a7.1,7.1,0,0,0,1,.59,2.87,2.87,0,0,1,1.37,1.36c.14.27.27.54.4.82l.36.8"/><path class="bfd36adf-ae09-4cd7-b8cd-0bac4a9a6974" d="M50.79,54.12a1.46,1.46,0,0,0,.51-.64,3.52,3.52,0,0,0,.41-1.77V50.9a10.71,10.71,0,0,0-.32-2.82,19.14,19.14,0,0,0-.58-2,6,6,0,0,0-.44-1,7.22,7.22,0,0,0-.57-.93,7.38,7.38,0,0,0-.76-.82.93.93,0,0,0-.39-.29,5.32,5.32,0,0,0-1.25-.31,13.82,13.82,0,0,0-1.82,0,4,4,0,0,1-.69.07,2.45,2.45,0,0,0-.66.1c.23.33.45.62.64.92.38.59.78,1.17,1.11,1.78a8,8,0,0,0,.64,1.19c.23.29.43.6.64.91.06.09.12.2.18.3s.14.29.22.43c.18.36.37.71.54,1.06s.43.94.67,1.39c.14.28.34.53.5.8a12.25,12.25,0,0,1,1,1.81,3.92,3.92,0,0,0,.45.62M44,42.07,44.8,42c.2,0,.4-.09.59-.09h1.9a3.34,3.34,0,0,1,1.21.2,2.15,2.15,0,0,1,.79.42c.2.2.46.34.67.55a5.09,5.09,0,0,1,1.17,1.73c.07.17.19.32.27.49s.25.63.36.94c.16.51.33,1,.46,1.53a6.72,6.72,0,0,1,.16,1c0,.44.09.88.12,1.33a13.57,13.57,0,0,1,0,1.43,9.88,9.88,0,0,1-.15,1.32,2.26,2.26,0,0,1-.26.62,9.17,9.17,0,0,0-.67,1.18c-.16.4-.51.36-.78.48a.34.34,0,0,1-.43-.16,2.68,2.68,0,0,1-.45-.83,3.71,3.71,0,0,0-.27-.65c-.48-.83-1-1.65-1.45-2.49-.23-.42-.42-.86-.63-1.29a12.13,12.13,0,0,0-.77-1.41c-.28-.41-.74-1.14-1.12-1.7a2.29,2.29,0,0,1-.1-.23,13.53,13.53,0,0,0-1.13-2A6.54,6.54,0,0,0,43.2,43a.29.29,0,0,1-.1-.39.43.43,0,0,1,.1-.09,1.58,1.58,0,0,1,.39-.24,2.25,2.25,0,0,1,.44-.14,0,0,0,0,1,0,0"/></g></g></svg>