<svg xmlns="http://www.w3.org/2000/svg" viewBox="0 0 72.18 50.71"><defs><style>.b0674f78-ffad-45c3-ad9d-75f5ed05a114{fill:#2b2b2a;}.f5fc85cb-3a49-4515-885e-4764f8c335b1{fill:#fff;}</style></defs><g id="f850cb3f-2637-402c-bc21-f47c414ff122" data-name="Livello 2"><g id="ae165360-5b0c-420a-b8c0-b3146f23fedd" data-name="bf3b521c-f4f7-4f0c-b9df-40a1b157efef"><path class="b0674f78-ffad-45c3-ad9d-75f5ed05a114" d="M40.73,12.17h0a.54.54,0,0,1-.24.23,3.56,3.56,0,0,0-.46.49c-.07.1-.13.32-.07.39a.56.56,0,0,1,.06.53.5.5,0,0,0,.2.55,1,1,0,0,1,.21.42,10.16,10.16,0,0,0,.33,1.07,2.55,2.55,0,0,0,.2.48,5.14,5.14,0,0,0,.29.51c.18.28.38.54.57.81l0,0a1.59,1.59,0,0,0,.6.9.3.3,0,0,1,.12.17c0,.15.07.32.13.47a.37.37,0,0,0,.15.2,1.17,1.17,0,0,0,.7.2,7.31,7.31,0,0,0,.8,0,.72.72,0,0,0,.66-.5c.07-.2.17-.38.25-.57s0-.08.08-.13a2.84,2.84,0,0,0,.08-.39.9.9,0,0,0-.18-.9,1.83,1.83,0,0,1-.23-.38L44.67,16l-.15-.27a5.7,5.7,0,0,1-.68-1.07c-.24-.56-.53-1.09-.8-1.62l-.1-.07-.42-.63a.41.41,0,0,0-.18-.19,4.81,4.81,0,0,0-.73-.17.64.64,0,0,0-.63.18l-.14.11ZM63.6,8.92a.56.56,0,0,0,.09.58A2.66,2.66,0,0,1,64,10c.06.1.06.25.13.34a1,1,0,0,1,0,.81,1.85,1.85,0,0,1-.87,1.09.2.2,0,0,0-.05.21l.4,1.18a.31.31,0,0,0,.19.13,4.61,4.61,0,0,0,.53,0,1.21,1.21,0,0,0,.38,0A1.55,1.55,0,0,1,66,14a1.1,1.1,0,0,1,.33,1.29l-.23.34a1.56,1.56,0,0,1-.49.59.28.28,0,0,0-.12.38l0,0a6.19,6.19,0,0,1,.28.58c.13.28.26.58.41.86a2.2,2.2,0,0,0,.33.41c.16.18.34.08.51,0h0a2.94,2.94,0,0,0,1.09-.47,1.58,1.58,0,0,1,.46-.25.71.71,0,0,0,.2,0l.66-.32c.22-.09.15,0,.22-.05l.61-.32.82-.39a.91.91,0,0,1,.22-.11.51.51,0,0,0,.35-.52,3,3,0,0,0-.73-1.58.49.49,0,0,1-.11-.2.32.32,0,0,0-.23-.26A5,5,0,0,0,70,13.9a7.45,7.45,0,0,1-1.16-.06.76.76,0,0,0-.26-.06c-.19,0-.27-.11-.35-.24s-.21-.6-.55-.73h0c0-.24-.14-.49.08-.7s.34-.32.49-.49l.62-.71.19-.27c0-.08.11-.17,0-.28s-.26-.54-.41-.8a.47.47,0,0,0-.59-.24l-.4.06-1,.1a.42.42,0,0,1-.22,0c-.25-.14-.51-.28-.78-.4a1,1,0,0,1-.54-.66A1.87,1.87,0,0,0,65,8.07c-.12-.19-.21,0-.32,0l-.19,0a.64.64,0,0,0-.18.06c-.25.12-.5.23-.75.37a2.31,2.31,0,0,0-.24.2l0,0,.17,0Zm-7.15-3h0l-.73.36-.59.26a.39.39,0,0,0-.11.06c-.26.15-.52.32-.78.44l-.94.41c-.31.13-.61.29-.92.42s-.52.21-.79.32-.74.33-1.1.46a9.23,9.23,0,0,0-1.07.48,1.84,1.84,0,0,1-.51.19l0,.06-.68.36L48,9.87c0,.06-.15.09-.22.13l-1.19.49c-.39.17-.5.21-.75.33a5.51,5.51,0,0,0-.76.4c-.21.14-.4.31-.6.47s-.44.28-.65.43-.14.21,0,.34a2.71,2.71,0,0,1,.21.37c.05.1.07.21.13.31l.21.38a7.68,7.68,0,0,0,.48,1,2.73,2.73,0,0,1,.51.93l.2.13a1.27,1.27,0,0,1,.16.33,2.82,2.82,0,0,0,.21.38.19.19,0,0,0,.19.05,7.12,7.12,0,0,0,.86-.36l1.25-.64c.19-.08.4-.13.6-.22s.4-.24.62-.33c.45-.2.92-.38,1.37-.57l1.59-.69A8.53,8.53,0,0,1,53.2,13a4.16,4.16,0,0,0,.47-.24c.14-.07.29-.09.42-.16L55.33,12c.33-.15.68-.29,1-.46.49-.25,1-.54,1.44-.78,0-.07.19-.06.25-.12A4.49,4.49,0,0,1,59.23,10a8.18,8.18,0,0,0,1.38-.71,6.28,6.28,0,0,1,.81-.43,7.23,7.23,0,0,0,.84-.51,3,3,0,0,1,1.21-.71,1.8,1.8,0,0,0,.38-.16.07.07,0,0,0,0,0c0-.15.17-.16.28-.17s.5-.14.52-.45h0c.07-.19.47-.34.61-.2s.12.18.24.16a1.07,1.07,0,0,0,.3-.09c.42-.22.83-.43,1.24-.66l.78-.45c.26-.15.48-.32.74-.45a.81.81,0,0,0,.52-.47,2.36,2.36,0,0,0,.26-.93,3.11,3.11,0,0,0-.49-1.53A3.11,3.11,0,0,0,67.58.9a.48.48,0,0,0-.16-.12c-.26,0-.52.06-.79,0A.9.9,0,0,0,66,1c-.26.13-.56.22-.82.36-.53.27-1,.56-1.57.85s-.95.56-1.46.86c-.83.44-1.67.87-2.51,1.29-.41.21-.84.39-1.26.58s-.57.24-.84.38-.74.41-1.1.61ZM39.61,14.82c-.12-.16-.2-.3-.3-.42a.5.5,0,0,0-.19-.13,3.1,3.1,0,0,1-.53-.1,9.82,9.82,0,0,1-.94-.4c-.42-.19-.81-.42-1.21-.64a7.29,7.29,0,0,0-.74-.37c-.48-.19-1-.35-1.46-.54l-1.44-.56a1.53,1.53,0,0,0-.27-.11,5.61,5.61,0,0,0-.67-.45c-.4-.2-.81-.36-1.22-.54a8.06,8.06,0,0,1-.83-.37,3.62,3.62,0,0,0-1-.47c-.33-.08-.66-.15-1-.2a15.39,15.39,0,0,1-1.63-.38c-.35-.07-.7-.18-1-.25a1.4,1.4,0,0,0-.41-.06c-.39,0-.77.11-1.15.15l-1.09.14c-.34,0-.69.07-1,.08A6.45,6.45,0,0,0,20,9.47L19,9.7c-.32.06-.67,0-.92.31a.18.18,0,0,1-.13.06c-.08,0-.17.09-.25.14a10.36,10.36,0,0,1-.92.52,3.69,3.69,0,0,0-1.15.67,4.93,4.93,0,0,1-.73.63,5.56,5.56,0,0,0-1.31,1.34l-1,1.48a7.15,7.15,0,0,0-.49.73q-.15.36-.27.72a1.33,1.33,0,0,1-.13.35,4.07,4.07,0,0,0-.39,1,5.75,5.75,0,0,0-.2.71c0,.19-.06.4-.08.59a1.11,1.11,0,0,1,0,.19l-.12.66,0,.08a.79.79,0,0,1,0,.22s-.06.09,0,.15a2.87,2.87,0,0,1,.24.82c0,.09.08.18.1.28s.09.52.14.78l.06.26c0,.16,0,.32.07.48s.12.31.15.46a1.49,1.49,0,0,0,.4.79,2.46,2.46,0,0,1,.22.39l.06.14.3.41c.09.06.12.17.18.26l.77,1a5.7,5.7,0,0,0,.42.43,2.17,2.17,0,0,1,.44.36,1.12,1.12,0,0,0,.64.49.54.54,0,0,1,.16.1,1.35,1.35,0,0,0,1.14.42.21.21,0,0,1,.14.1.57.57,0,0,1,.06.59s-.09.13,0,.19,0,.16,0,.22a.3.3,0,0,0-.1.31,4,4,0,0,1,0,.49l0,.61a3.4,3.4,0,0,1,.1,1,.76.76,0,0,0,0,.15l.06.48a1.75,1.75,0,0,0,.43,1.14,1.14,1.14,0,0,1,.1.19,4.2,4.2,0,0,1,.36.7h0a13.53,13.53,0,0,1,.78,1.19,13.94,13.94,0,0,0,.89,1.28,3.44,3.44,0,0,0,.41.44,6,6,0,0,1,.54.46,2,2,0,0,0,.69.59,1.61,1.61,0,0,1,.3.21,5.82,5.82,0,0,0,.66.44.72.72,0,0,1,.42.52l.16.11.53.25a2.66,2.66,0,0,0,.55.23l.59.18a3.5,3.5,0,0,0,.46.14l.73.16a2.82,2.82,0,0,0,1.29.16.18.18,0,0,1,.09.06,2.37,2.37,0,0,0,.46.11,3.65,3.65,0,0,0,1.14-.06,1.15,1.15,0,0,1,.37,0h.21c.29-.07.58-.16.87-.25a4.05,4.05,0,0,0,.47-.12c.33-.13.65-.26,1-.41a3,3,0,0,0,.67-.4c.41-.35.84-.64,1.29-1,.05-.07.17-.06.24-.11l.71-.61.16-.24.74-.77,0-.07a.3.3,0,0,0,.23-.34.52.52,0,0,1,.16-.44,4.69,4.69,0,0,0,.42-.47l.49-.72.37-.54c.12-.19.15-.52.43-.64l.06-.09c.13-.19.19-.43.32-.63s.1-.55.37-.7h0c.08-.29.15-.57.23-.85s.16-.33.2-.5.12-.49.19-.72l.1-.15a1.21,1.21,0,0,0,.17-.39c0-.16.07-.09,0-.17a8.16,8.16,0,0,0,.34-.81,4,4,0,0,1,.32-1,1.16,1.16,0,0,0,.08-.32,5.69,5.69,0,0,1,.18-.68c.08-.22.14-.54.23-.8.15-.44.24-.89.37-1.34.08-.26.11-.52.17-.79s.06-.28.09-.43.09-.35.13-.53,0-.39.06-.58.11-.61.18-.89.2-.73.32-1.08a2.59,2.59,0,0,1,.32-.47c.14-.21.28-.43.16-.68s-.32-.65-.53-1a1.45,1.45,0,0,0-.17-.18.44.44,0,0,1-.08-.11,6.37,6.37,0,0,0-.45-.86,4.89,4.89,0,0,1-.66-1.07l-.34-1Zm2.6,5.33a1.29,1.29,0,0,0-.38.75.42.42,0,0,1,0,.15c-.11.41-.25.8-.34,1.21a6.6,6.6,0,0,0-.22,1.33c0,.45-.24.83-.27,1.25a2.53,2.53,0,0,1-.12.36c-.14.53-.26,1-.41,1.59-.1.34-.22.65-.32,1s-.19.69-.28,1-.15.37-.22.56c-.27.69-.55,1.37-.75,2.08a10.93,10.93,0,0,1-.55,1.44c-.21.41-.39.83-.62,1.25s-.51.75-.76,1.12l-.07.11-.65,1.07a.21.21,0,0,0,0,.06.59.59,0,0,1-.32.47l-.91.83c-.3.28-.4.43-.6.64a5.29,5.29,0,0,1-.41.41,3.27,3.27,0,0,1-.5.32l-.12.08L32,40.2a6.65,6.65,0,0,0-.63.39,3,3,0,0,1-1.18.61,6.35,6.35,0,0,1-1.56.38c-.42,0-.84.07-1.26.08a9.39,9.39,0,0,1-1.09,0c-.32,0-.64,0-1-.1s-.61-.17-.91-.24l-.51,0-.12-.08-.12-.08-1.3-.56c-.41-.18-.81-.37-1.19-.57a.26.26,0,0,1-.13-.19.51.51,0,0,0-.27-.43L20,38.76a3.76,3.76,0,0,1-.35-.34,4.74,4.74,0,0,1-.77-.65,4.94,4.94,0,0,1-.69-.76c-.24-.33-.42-.69-.64-1s-.36-.54-.56-.8a8.15,8.15,0,0,1-.86-1.45,11.89,11.89,0,0,1-.41-1.28c0-.09,0-.2,0-.29-.06-.55-.13-1.09-.19-1.64a4.51,4.51,0,0,1,0-.52c0-.26,0-.5,0-.75a.21.21,0,0,1,0-.06c.09-.13,0-.25-.13-.31s-.58-.27-.85-.43a4.36,4.36,0,0,1-.67-.45c-.33-.29-.63-.59-.93-.9s-.3-.36-.44-.54-.34-.41-.49-.62l-.9-1.31c-.09-.14-.17-.32-.27-.47a1.76,1.76,0,0,1-.26-.8l-.15-.78-.16-.84-.3-1.34a1,1,0,0,1-.05-.33c.08-.64.15-1.28.25-1.92a3.83,3.83,0,0,1,.22-.65.51.51,0,0,0,.09-.13,3.26,3.26,0,0,1,.25-.68,7.8,7.8,0,0,0,.37-1c.15-.27.31-.6.49-.88s.56-.82.81-1.2a7,7,0,0,1,.72-.94,3.11,3.11,0,0,1,.25-.38,5.69,5.69,0,0,1,1.07-.89,1.58,1.58,0,0,0,.22-.23c.36-.29.69-.6,1.06-.86A3.07,3.07,0,0,1,16.3,10c.27-.11.53-.22.8-.36l.66-.38A2.4,2.4,0,0,1,18.22,9a1.92,1.92,0,0,1,.63-.14,2.38,2.38,0,0,0,1-.19,3.07,3.07,0,0,1,.52-.14,4.5,4.5,0,0,1,.6-.17c.23,0,.45,0,.68,0l.38,0,.4,0a3.71,3.71,0,0,0,.58,0,5.89,5.89,0,0,0,.71-.13c.22-.05.43-.14.65-.18a1.63,1.63,0,0,1,.54,0,4,4,0,0,1,.89.23,4,4,0,0,0,.78.17c.28.08.55.21.83.28s.47.07.71.09a4.71,4.71,0,0,1,.52.09,6.87,6.87,0,0,1,.87.21,1.85,1.85,0,0,1,.34.23,4.94,4.94,0,0,0,.76.39l.58.28,1.42.68,1,.49c.27.12.56.21.85.32.51.2,1,.4,1.52.62a10.83,10.83,0,0,1,1,.52l.16.1a1.79,1.79,0,0,0,.28.2l.79.32.62.22c.12.09.25,0,.25-.23a1.73,1.73,0,0,1,.35-.9,7.66,7.66,0,0,1,.57-.57,3.44,3.44,0,0,1,.83-.58,1,1,0,0,1,.61-.17l.25,0s.16,0,.21,0,.36.08.53.17a1,1,0,0,1,.36.24c.18.11.25.16.46,0l.2-.08s.09,0,0-.08c.14-.2.35-.24.5-.41a1.83,1.83,0,0,1,.36-.26l.12-.18a.83.83,0,0,1,.08-.12,11.34,11.34,0,0,0,1.16-.57h0l1-.33A1.61,1.61,0,0,0,47,9.24a.52.52,0,0,1,.25-.14,3.9,3.9,0,0,0,.93-.42c.15-.07.32-.07.47-.14s.45-.21.67-.32L49.67,8l.74-.3.34-.19c.12,0,.28-.08.41-.14l.46-.17A9,9,0,0,1,53,6.62a7.58,7.58,0,0,0,.86-.42l.31-.14c.1-.06.34-.23.53-.33s.62-.26.93-.42a3.17,3.17,0,0,0,.58-.4,2.49,2.49,0,0,1,.33-.16c.37-.17.74-.31,1.09-.47.18-.08.34-.21.51-.3a1.66,1.66,0,0,1,.37-.14c.16-.07.35-.12.51-.2a1.88,1.88,0,0,0,.42-.27,3,3,0,0,1,1-.5,2.47,2.47,0,0,0,.53-.29,2.1,2.1,0,0,1,.7-.39A1,1,0,0,0,62.16,2c.24-.18.56-.2.74-.46a.34.34,0,0,1,.19-.09.66.66,0,0,0,.47-.26A1.3,1.3,0,0,1,63.82,1l.23-.14.44-.2A6.9,6.9,0,0,0,65.56.18a1.44,1.44,0,0,1,.9-.16,7.87,7.87,0,0,1,1,0,.54.54,0,0,1,.35.23,2,2,0,0,0,.73.5.34.34,0,0,1,.16.1,2.55,2.55,0,0,0,.63.85,1.58,1.58,0,0,1,.24.39,3.53,3.53,0,0,1,.28.79,3.87,3.87,0,0,1,.06,1.79,4.33,4.33,0,0,1-.21.54.94.94,0,0,1-.15.32,3.19,3.19,0,0,1-1.13.75,4,4,0,0,0-1,.59c-.11.17-.39.17-.59.27l-1,.46a.2.2,0,0,0-.08.12.72.72,0,0,0,.55.75c.15,0,.27.18.44,0h0a1.5,1.5,0,0,0,1-.05,1.88,1.88,0,0,1,.53,0l.15,0a.4.4,0,0,1,.56.09l0,.08.6,1.19.36.63a.46.46,0,0,1,0,.59,2.43,2.43,0,0,1-.41.5,6.27,6.27,0,0,0-.84.94.3.3,0,0,0,0,.41h0a.68.68,0,0,0,.38.16c.29,0,.59,0,.88,0a1,1,0,0,1,.25.07l.21.06s.1,0,.11,0a1.17,1.17,0,0,0,.39.07c.13,0,.15,0,.15.11s.3.2.24.42a.24.24,0,0,0,.1.18.31.31,0,0,1,.18.25c.07.31.34.51.44.8a4.49,4.49,0,0,1,.17.68.09.09,0,0,0,0,.12.86.86,0,0,1,0,.81A2,2,0,0,0,72,17c-.08.25-.32.31-.5.43s-.34.23-.52.33a6.81,6.81,0,0,1-.71.34l-.81.32c-.25.12-.32.17-.48.25a.1.1,0,0,1-.07,0,.58.58,0,0,0-.49.15,5.92,5.92,0,0,1-1.15.51c-.42.17-.85.3-1.28.45a.3.3,0,0,1-.33-.22c-.12-.42-.5-.71-.62-1.11s-.37-.47-.41-.75a.61.61,0,0,0-.29-.49.57.57,0,0,1-.11-.81h0l.56-.83c.08-.11.2-.19.29-.3a.87.87,0,0,0,.16-.23s0-.17-.06-.18a.93.93,0,0,0-.39-.15H63.47l-.12,0c-.21.15-.38,0-.55-.08s-.09-.06-.09-.12l-.46-1.52a.36.36,0,0,0-.11-.16,1.21,1.21,0,0,1-.32-.77.38.38,0,0,1,.24-.36l.78-.47a.47.47,0,0,0,.23-.56c-.1-.18-.2-.35-.31-.52l-.39-.63c-.08-.12-.19,0-.27,0-.46.26-.9.54-1.36.8L59.37,11c-.2.1-.43.15-.62.25s-.45.28-.68.4c-.56.31-1.15.61-1.73.91-.29.15-.57.32-.87.46l-1,.5c-.17.08-.35.11-.52.19a3.87,3.87,0,0,0-.41.21c-.27.15-.55.31-.83.45-.59.25-1.17.49-1.73.76-.35.15-.68.34-1.06.49a9.7,9.7,0,0,0-.93.41c-.36.15-.73.3-1.09.47s-.67.36-1,.53l-.49.27a.91.91,0,0,0-.36.85,1.55,1.55,0,0,1-.12.47c-.07.26-.16.51-.25.76a2.27,2.27,0,0,1-.27.48l-.32.48a1,1,0,0,1-.55.32,3.11,3.11,0,0,1-.75.14,2,2,0,0,1-.35,0l-.59-.09-.25,0a.59.59,0,0,1-.51-.34Z"/><path class="b0674f78-ffad-45c3-ad9d-75f5ed05a114" d="M1.1,26.58a1.42,1.42,0,0,0,.22.28l.32.22a4,4,0,0,0,1.57,1.06c.12.08.3.05.44.09a4.94,4.94,0,0,0,.51.2l1.52.49c.12.08.23,0,.25-.19A.38.38,0,0,1,6,28.6c.07-.13.13-.26.19-.4.14-.58.27-1.16.4-1.75a4.49,4.49,0,0,0,.12-1.27c0-.37-.08-.75-.12-1.13a1.06,1.06,0,0,0-.3-.66c-.23-.24-.44-.11-.54.18s-.17.55-.24.83a1.21,1.21,0,0,0-.08.75.51.51,0,0,1-.19.64l-.07.11s0,.33-.2.42a.56.56,0,0,1-.75-.06,1.12,1.12,0,0,0-.72-.3.16.16,0,0,1-.18-.14.15.15,0,0,1,0-.07.11.11,0,0,0-.06-.11,2.61,2.61,0,0,0-.43-.24,3,3,0,0,0-.64-.2,2.28,2.28,0,0,0-.58-.05.28.28,0,0,0-.31.22l-.12.18c-.11.32-.31.63-.11,1Zm6-3.61A3.11,3.11,0,0,1,7.52,24a10.78,10.78,0,0,1,.06,1.39,5.77,5.77,0,0,1,0,.72c-.07.36-.16.71-.24,1s-.18.7-.26,1a6.05,6.05,0,0,0-.2.73,2.78,2.78,0,0,1-.47,1,.62.62,0,0,1-.36.18c-.37.1-.57-.22-.84-.36a4,4,0,0,0-.74-.38c-.28-.07-.68-.26-1-.38l-.14,0a2.22,2.22,0,0,1-1.16-.43l-.64-.43A4.88,4.88,0,0,1,1,27.62l-.13-.09a1,1,0,0,1-.57-.71,3.11,3.11,0,0,0-.2-.41c-.12-.2,0-.38,0-.58s.16-.45.24-.67a1.26,1.26,0,0,1,.64-.7,2.6,2.6,0,0,1,1.43-.17,2.67,2.67,0,0,1,1.07.33,5.39,5.39,0,0,1,.63.43l.11.07c.14.1.23.05.22-.12A2,2,0,0,1,4.66,24a4.15,4.15,0,0,0,.25-.85.76.76,0,0,1,.5-.58,1.47,1.47,0,0,1,.94-.16,1,1,0,0,1,.29.1,2.28,2.28,0,0,1,.55.44Z"/><path class="b0674f78-ffad-45c3-ad9d-75f5ed05a114" d="M23.27,47.18c.22.15.18.36.11.58s-.25.06-.37.1h-.14a.71.71,0,0,1-.25-.06L22,47.39a2.27,2.27,0,0,0-1.58-.13,1,1,0,0,0-.62.54,1,1,0,0,0,0,1,1.58,1.58,0,0,0,.7.47,6.81,6.81,0,0,0,1.52.58,2.5,2.5,0,0,0,1.7-.15l.05,0,.32,0c.3,0,.33-.17.3-.45a10.13,10.13,0,0,1,0-1.18l0-.33a4.58,4.58,0,0,0-.08-1A10.4,10.4,0,0,1,24,45.39a2.33,2.33,0,0,0-.21-.74,10.42,10.42,0,0,0-.61-1,.78.78,0,0,0-.26-.17,2.17,2.17,0,0,0-.15.35,4.11,4.11,0,0,0-.08.6,1.14,1.14,0,0,0,0,.45c.12.4.28.8.4,1.19a1.87,1.87,0,0,0,.2.4.35.35,0,0,1,.08.41,2.27,2.27,0,0,1-.18.25Zm2,.72c0,.18,0,.31,0,.44s0,.21,0,.32l0,1.36a.36.36,0,0,1-.33.37.65.65,0,0,1-.47,0c-.15-.12-.08-.06-.17,0a17.08,17.08,0,0,1-1.89.38,3.75,3.75,0,0,1-1.52-.26l-1-.46-.3-.13a2.44,2.44,0,0,1-.87-.85,1.21,1.21,0,0,1-.14-.93c0-.06,0-.12,0-.17A2,2,0,0,1,20,46.56a2.62,2.62,0,0,1,.79-.14,2.31,2.31,0,0,1,1.1.16.5.5,0,0,0,.34,0s.08-.12.06-.18c-.16-.49-.34-1-.51-1.49a1.6,1.6,0,0,1,0-.92c.07-.26.1-.56.16-.83a.61.61,0,0,1,.43-.51,1.6,1.6,0,0,1,.71-.13.72.72,0,0,1,.57.25A13.19,13.19,0,0,1,24.4,44c.11.2.3.38.26.65s.11.23.13.35a2.41,2.41,0,0,0,.12.65c.05.09,0,.24,0,.34s.13.34.17.5.09.69.13,1l.06.35Z"/><path class="b0674f78-ffad-45c3-ad9d-75f5ed05a114" d="M48.75,30.78h0c-.1-.22-.21-.44-.33-.65s-.26-.73-.58-.93h0L47,28.1a3.37,3.37,0,0,1-.28-.38.77.77,0,0,0-.49-.33c-.09-.06-.16,0-.11.16l.05.31a1.66,1.66,0,0,0,.32.88l.26.32a1.15,1.15,0,0,0,.27.27.38.38,0,0,1,.25.3,1.08,1.08,0,0,0,.17.54l0,0a.6.6,0,0,1-.68.47h0a2,2,0,0,0-.62-.26,1.5,1.5,0,0,0-1.29,0,1.29,1.29,0,0,0-.64,1.06.22.22,0,0,0,.15.24,1.73,1.73,0,0,0,.55.2,5.67,5.67,0,0,1,1.06.41,3.46,3.46,0,0,0,1.18.33,1,1,0,0,0,.42-.06c.39-.12.76-.27,1.16-.42a1.08,1.08,0,0,1,.4,0c.13,0,.15,0,.1-.15l-.36-1.25ZM50,32.73a.42.42,0,0,1-.47,0s-.12,0-.16,0a1,1,0,0,1-.68.26.8.8,0,0,0-.34.07c-.3.11-.61.24-.91.33a.94.94,0,0,1-.44.05,9.2,9.2,0,0,1-1.17-.19c-.36-.11-.69-.3-1-.43l-.48-.2-.61-.21a2.86,2.86,0,0,0-.41-.15c-.07-.05-.11-.07-.11-.15a7.34,7.34,0,0,1,.05-.81A1.79,1.79,0,0,1,44,30a.21.21,0,0,0,0-.06,1.77,1.77,0,0,1,1.19-.51,3,3,0,0,1,.42-.05c.15,0,.13-.07.1-.14L45.65,29a3.87,3.87,0,0,1-.25-.55,4,4,0,0,1-.19-.92,2.74,2.74,0,0,1,.17-.74.49.49,0,0,1,.14-.21,1,1,0,0,1,.24-.16.28.28,0,0,1,.15,0c.35.09.71.17,1,.27a.87.87,0,0,1,.42.28,3.09,3.09,0,0,0,.6.7.77.77,0,0,1,.12.28l0,.09c.17.23.38.45.53.67s.3.48.44.71a3.39,3.39,0,0,1,.34.53,10.44,10.44,0,0,1,.51,1.31,2.87,2.87,0,0,0,.33.9c.08.11-.05.37-.2.47a.18.18,0,0,0,0,.07Z"/><path class="b0674f78-ffad-45c3-ad9d-75f5ed05a114" d="M13.67,41.73a1.64,1.64,0,0,0-.81-.81c-.07-.05-.15,0-.17.08a4,4,0,0,0-.09.48c0,.34,0,.67,0,1a1.21,1.21,0,0,0,.12.45.47.47,0,0,1-.08.58.15.15,0,0,0-.06.09c.07.39-.34.5-.61.38l-.26-.08-.31,0a2.09,2.09,0,0,0-.66,0,7.77,7.77,0,0,0-.92.33.66.66,0,0,0-.41.76.2.2,0,0,1,0,.15.88.88,0,0,0,.14.72,2.24,2.24,0,0,0,1,.9,2.73,2.73,0,0,0,.58.14c.28,0,.57,0,.85.06a4.66,4.66,0,0,0,1.86.05.3.3,0,0,0,.28-.29c0-.12.06-.23.08-.34.06-.29.15-.55.18-.83s0-.64,0-1a.33.33,0,0,0,0-.14c-.1-.49-.2-1-.32-1.48,0-.18-.13-.36-.18-.54s-.17-.55-.21-.7ZM8.76,46.15l0-.23A3,3,0,0,0,8.51,45a.77.77,0,0,1,0-.52A1.39,1.39,0,0,1,9,43.76a1.87,1.87,0,0,1,.8-.36l.91-.26a1.62,1.62,0,0,1,.95.06.24.24,0,0,0,.23,0,.43.43,0,0,0,0-.25s0-.1,0-.15A4.9,4.9,0,0,1,11.7,41a1.17,1.17,0,0,1,.81-.94,1.15,1.15,0,0,1,.92.15,1.66,1.66,0,0,1,.32.22,4.53,4.53,0,0,1,.47.5,1.14,1.14,0,0,1,.32.6c.12.43.32.83.46,1.25a4.62,4.62,0,0,1,.11.63,7.58,7.58,0,0,1,.13.81,5.32,5.32,0,0,1,0,.89c0,.25,0,.5,0,.75a.74.74,0,0,1,0,.25A4.26,4.26,0,0,0,15,47.12a.49.49,0,0,1-.42.43c-.12,0-.25.09-.36.12a1.2,1.2,0,0,1-.38,0l-.7,0a3.4,3.4,0,0,1-.9,0,5.86,5.86,0,0,0-.75-.13c-.33,0-.67,0-1-.08a2.22,2.22,0,0,1-1.12-.64l-.67-.64h0Z"/><path class="f5fc85cb-3a49-4515-885e-4764f8c335b1" d="M22,34.1h0l.22.15A5,5,0,0,0,23,35a6.23,6.23,0,0,1,.62.51l.39.26a3.4,3.4,0,0,0,1,.39l1.28.15a2.33,2.33,0,0,0,.53.07c.38,0,.76-.11,1.15-.17s.59-.09.89-.16a5.73,5.73,0,0,0,.7-.23,2.62,2.62,0,0,0,.64-.34c.22-.2.44-.42.65-.65a2.48,2.48,0,0,1,.49-.48,2.33,2.33,0,0,0,.22-.19,3.16,3.16,0,0,0,.18-.27c.07-.09.29-.28.41-.44s.38-.56.56-.83l.56-.83.17-.25c.19-.29.32-.6.49-.88a9.7,9.7,0,0,0,.66-1.52L34.92,28,35.31,27a.64.64,0,0,0,0-.2c.1-.3.2-.59.28-.89s.16-.59.25-.89.15-.45.23-.67l.3-.86c.11-.28.19-.44.27-.68.16-.45.28-.91.44-1.35a3.44,3.44,0,0,0,.21-.76,1.42,1.42,0,0,1,.16-.45l.07-.11.18-.71a3.52,3.52,0,0,1,.24-.78,1.19,1.19,0,0,0,.06-.7,7.08,7.08,0,0,0-.17-.77l0-.11-.28-.24-.77-.52-.08-.05-.5-.1a8.41,8.41,0,0,1-1.48-.36.13.13,0,0,0-.09-.06,3.26,3.26,0,0,1-.94-.25c-.23-.06-.43-.17-.65-.23L32.1,15l-.19-.13a.16.16,0,0,0-.08-.06,3.73,3.73,0,0,1-1.26-.41c-.25-.09-.47-.32-.79-.15l-.08-.05a6.24,6.24,0,0,0-.78-.3,10.62,10.62,0,0,0-1.12-.24c-.47-.06-.85-.41-1.35-.36a.31.31,0,0,1-.09-.07l-.79-.3a.89.89,0,0,0-.39-.12,2.71,2.71,0,0,1-1.09-.17,4.74,4.74,0,0,0-.75-.15c-.26,0-.52,0-.79,0a.11.11,0,0,0-.08,0c0,.08-.13.08-.22,0l-.42,0c-.13,0,0,0-.08,0s-.29.11-.45.12a2.17,2.17,0,0,0-1,.15l-.14,0-.59.11c-.2.05-.27.09-.41.12a1.49,1.49,0,0,0-.71.23,5.28,5.28,0,0,1-.82.5,3,3,0,0,0-.91.82l-.63.93c-.07.11-.09.26-.16.38a4.6,4.6,0,0,0-.55,1,2.69,2.69,0,0,0-.25.74c-.07.49-.1,1-.13,1.49a7,7,0,0,0,0,1,4.51,4.51,0,0,0,.12.72,5.75,5.75,0,0,0,.26.87,9.21,9.21,0,0,0,.56,1.08,1,1,0,0,0,.19.22,2.76,2.76,0,0,0,.7.86,7.19,7.19,0,0,0,1,.82,5.5,5.5,0,0,1,.5.34l.4.27.14.1.52.35c.17.11.21,0,.31.09a2.07,2.07,0,0,0,.62.29,2.26,2.26,0,0,1,.44.22c.26.1.29.2.18.46s-.18.25,0,.42a.19.19,0,0,1,0,.1,5.87,5.87,0,0,1-.16,1.39c-.09.4-.17.81-.22,1.21a2.24,2.24,0,0,0,.05.63,7.07,7.07,0,0,0,.11,1,6.83,6.83,0,0,0,.48,1.26,2.32,2.32,0,0,0,.55.76,2.25,2.25,0,0,1,.3.39ZM39.61,14.7l.34,1a4.76,4.76,0,0,0,.49,1.16,5.92,5.92,0,0,1,.44.87l.11.07a1.54,1.54,0,0,1,.17.19c.17.31.34.63.54,1s0,.47-.17.68a3,3,0,0,0-.32.47c-.12.35-.23.71-.32,1.08s-.13.59-.18.89,0,.39-.06.58-.08.36-.13.53-.05.29-.09.44-.09.53-.17.78c-.13.45-.22.91-.37,1.34-.09.27-.15.54-.24.81a6,6,0,0,0-.17.67,2,2,0,0,1-.08.33,3.75,3.75,0,0,0-.32,1,8.16,8.16,0,0,1-.34.81.29.29,0,0,0,0,.17c0,.08-.11.26-.17.39a1.07,1.07,0,0,1-.1.15c-.07.23-.11.48-.19.72s-.14.33-.2.5-.15.56-.23.85h0c-.27.15-.24.48-.37.7a5.35,5.35,0,0,0-.32.63l-.06.09c-.26.14-.29.42-.43.64l-.37.54-.49.72a4.69,4.69,0,0,1-.42.47.54.54,0,0,0-.16.45.32.32,0,0,1-.23.34l0,.06-.71.73-.17.25-.71.61c0,.06-.17,0-.23.1-.44.33-.88.62-1.3,1a2.83,2.83,0,0,1-.67.4c-.31.15-.64.28-1,.41a3.59,3.59,0,0,1-.47.12l-.87.25h-.21a.77.77,0,0,0-.37,0,3.65,3.65,0,0,1-1.14.06,2.37,2.37,0,0,1-.46-.11.22.22,0,0,0-.09-.07,2.59,2.59,0,0,1-1.29-.16c-.24-.05-.49-.09-.73-.15s-.3-.1-.46-.14l-.59-.18c-.19-.07-.36-.15-.54-.23l-.54-.25-.16-.11a.66.66,0,0,0-.42-.52,4.18,4.18,0,0,1-.65-.45,1.21,1.21,0,0,0-.3-.2,1.91,1.91,0,0,1-.7-.59c-.15-.17-.36-.3-.53-.47a3.42,3.42,0,0,1-.42-.43,13.83,13.83,0,0,1-.88-1.28c-.23-.42-.53-.8-.79-1.19h0a4.73,4.73,0,0,0-.36-.71c-.05,0-.05-.14-.09-.18a1.71,1.71,0,0,1-.44-1.14l-.06-.49a.61.61,0,0,1,0-.14,3.39,3.39,0,0,0-.09-1l0-.61a2,2,0,0,0,0-.49.35.35,0,0,1,.11-.32.16.16,0,0,0,0-.21c-.06-.09,0-.13,0-.19s0-.4-.06-.59a.18.18,0,0,0-.14-.1,1.38,1.38,0,0,1-1.14-.42.54.54,0,0,0-.16-.1,1.11,1.11,0,0,1-.63-.49,2.54,2.54,0,0,0-.45-.36,2.4,2.4,0,0,1-.41-.43l-.78-1c-.08-.06-.11-.18-.17-.26l-.31-.41-.06-.14a1.87,1.87,0,0,0-.22-.39,1.57,1.57,0,0,1-.4-.79c0-.15-.11-.3-.14-.46s0-.32-.08-.48L11.37,22c0-.27-.08-.53-.13-.79s-.09-.18-.11-.28a2.9,2.9,0,0,0-.24-.81s0-.11,0-.16a1.49,1.49,0,0,0,0-.21v-.08L11,19a1.25,1.25,0,0,0,0-.19,5.93,5.93,0,0,1,.07-.59,5.75,5.75,0,0,1,.2-.71,3.61,3.61,0,0,1,.4-1,1.45,1.45,0,0,0,.12-.35q.12-.36.27-.72a7.25,7.25,0,0,1,.5-.73l1-1.48a5.69,5.69,0,0,1,1.09-1.21,4.34,4.34,0,0,0,.73-.63,3.9,3.9,0,0,1,1.15-.67,8.26,8.26,0,0,0,.92-.51c.05-.08.16-.1.25-.15s.1,0,.12-.06a1.56,1.56,0,0,1,.92-.3l1-.24a6.57,6.57,0,0,1,1.39-.27,8.76,8.76,0,0,0,1-.09c.36,0,.73-.07,1.09-.13s.77-.12,1.15-.16a1.41,1.41,0,0,1,.41.07,9.2,9.2,0,0,0,1.05.24,14.7,14.7,0,0,0,1.62.39,8.85,8.85,0,0,1,1,.2,3.68,3.68,0,0,1,1,.47,4.55,4.55,0,0,0,.84.37c.28.12.82.34,1.22.54a6.88,6.88,0,0,1,.66.44.51.51,0,0,0,.27.12l1.44.56,1.47.53c.25.11.49.25.73.38a9.33,9.33,0,0,0,1.21.64,9.82,9.82,0,0,0,.94.4,4.51,4.51,0,0,0,.53.1.5.5,0,0,1,.19.13c.13.08.18.25.3.42Z"/><path class="f5fc85cb-3a49-4515-885e-4764f8c335b1" d="M56.38,5.92c.37-.2.73-.42,1.1-.61s.57-.26.84-.39.85-.36,1.26-.57c.84-.43,1.69-.86,2.52-1.3.49-.27,1-.55,1.47-.85s1-.59,1.55-.86c.26-.13.56-.22.82-.36a1,1,0,0,1,.59-.17c.27,0,.53-.05.79,0l.17.11A3.23,3.23,0,0,1,68.8,2.17a3.1,3.1,0,0,1,.48,1.54,2.25,2.25,0,0,1-.25.92.84.84,0,0,1-.53.48c-.25.13-.49.3-.73.45s-.52.3-.79.44l-1.23.67c-.09,0-.21,0-.3.08s-.19,0-.24-.16-.55,0-.61.21h0a.51.51,0,0,1-.53.46c-.11,0-.24,0-.28.16a.08.08,0,0,1,0,.06,2.5,2.5,0,0,1-.38.15,3.28,3.28,0,0,0-1.21.71,7.23,7.23,0,0,1-.84.51,7.82,7.82,0,0,0-.81.43,8.18,8.18,0,0,1-1.38.71,5.11,5.11,0,0,0-1.21.67.85.85,0,0,1-.25.13c-.48.26-1,.55-1.44.78-.32.17-.67.3-1,.46L54,12.65c-.13.07-.28.09-.42.15a4.23,4.23,0,0,1-.47.25,6.84,6.84,0,0,0-.85.44c-.53.24-1.07.49-1.58.69s-.93.37-1.38.57c-.22.08-.41.23-.62.33s-.41.13-.6.22l-1.25.64a8.7,8.7,0,0,1-.86.36.25.25,0,0,1-.19-.05l-.21-.39a3.18,3.18,0,0,0-.16-.32.34.34,0,0,0-.2-.14,2.86,2.86,0,0,0-.51-.92,9.4,9.4,0,0,1-.48-1L44,13.14c-.06-.1-.08-.21-.13-.3a2.22,2.22,0,0,0-.21-.37c-.09-.14-.1-.24,0-.34s.43-.28.65-.44.39-.32.6-.47a6.86,6.86,0,0,1,.76-.4c.24-.12.5-.22.75-.33L47.64,10c0-.06.15-.09.22-.13l.22-.1.68-.36.05-.07a1.55,1.55,0,0,0,.51-.18,10.43,10.43,0,0,1,1.08-.48c.37-.17.74-.34,1.09-.47s.53-.2.79-.31.61-.3.92-.43l.94-.4c.3-.15.52-.29.78-.44l.06-.1.6-.26.73-.35h.07Z"/><path class="f5fc85cb-3a49-4515-885e-4764f8c335b1" d="M63.46,8.82l-.17,0,0,0a2.43,2.43,0,0,1,.25-.2c.25-.14.49-.25.74-.37a.6.6,0,0,1,.19-.06l.19,0c.11,0,.17-.26.32-.05a1.87,1.87,0,0,1,.15.32,1,1,0,0,0,.54.66,5.74,5.74,0,0,1,.78.4.41.41,0,0,0,.22,0l1-.1.4-.06a.46.46,0,0,1,.58.24c.15.26.28.54.42.8s.07.2-.06.28-.12.18-.18.27a7,7,0,0,1-.62.71l-.49.49c-.17.15-.13.46-.08.7h0c.33.13.35.5.54.73.12.08.17.25.36.24a.82.82,0,0,1,.26.06,7.45,7.45,0,0,0,1.16.06,4.86,4.86,0,0,1,.55.11.32.32,0,0,1,.24.26.31.31,0,0,0,.11.19A3.14,3.14,0,0,1,71.59,16a.52.52,0,0,1-.36.52l-.21.1-.83.4-.61.31s-.14,0-.21,0-.44.23-.67.33l-.2,0a1.53,1.53,0,0,0-.45.25,3.11,3.11,0,0,1-1.09.47h0c-.17.05-.35.16-.51,0a2.25,2.25,0,0,1-.34-.41c-.15-.28-.27-.58-.4-.86a6.27,6.27,0,0,0-.29-.58.28.28,0,0,1,0-.39l0,0a1.5,1.5,0,0,0,.5-.59l.22-.34A1.09,1.09,0,0,0,65.9,14a1.53,1.53,0,0,0-1.24-.28,1.7,1.7,0,0,1-.39,0,4.41,4.41,0,0,1-.52,0,.23.23,0,0,1-.18-.13l-.41-1.18a.14.14,0,0,1,.06-.21,1.89,1.89,0,0,0,.87-1.09,1,1,0,0,0,0-.81c-.09-.06-.07-.24-.13-.34a3.46,3.46,0,0,0-.29-.45.54.54,0,0,1-.09-.58Z"/><path class="f5fc85cb-3a49-4515-885e-4764f8c335b1" d="M40.73,12.17a.41.41,0,0,0,.14-.12.64.64,0,0,1,.63-.17,5.93,5.93,0,0,1,.73.16.49.49,0,0,1,.18.2l.42.63.1.07c.28.53.56,1.06.8,1.61a6.76,6.76,0,0,0,.68,1.08l.15.27.36.75a2.3,2.3,0,0,0,.23.37.92.92,0,0,1,.18.91l-.08.39a.57.57,0,0,1-.08.13,3.17,3.17,0,0,0-.25.56.72.72,0,0,1-.66.51c-.27,0-.54,0-.8,0a1.17,1.17,0,0,1-.7-.2.35.35,0,0,1-.14-.2,4.19,4.19,0,0,1-.14-.47.34.34,0,0,0-.11-.17,1.54,1.54,0,0,1-.6-.9l-.05,0c-.2-.26-.39-.53-.57-.8a3.2,3.2,0,0,1-.29-.51,3.06,3.06,0,0,1-.22-.49c-.12-.34-.21-.7-.32-1.06a.84.84,0,0,0-.21-.42.47.47,0,0,1-.2-.55.53.53,0,0,0-.06-.53c-.08-.05,0-.29.07-.4a5.22,5.22,0,0,1,.46-.48,2.83,2.83,0,0,1,.25-.24h0Z"/><path class="f5fc85cb-3a49-4515-885e-4764f8c335b1" d="M1.1,26.58c-.2-.37,0-.68.1-1a.94.94,0,0,0,.12-.18.3.3,0,0,1,.32-.22,2.78,2.78,0,0,1,.58.06,3,3,0,0,1,.64.2,2.55,2.55,0,0,1,.43.23.14.14,0,0,1,.06.11.16.16,0,0,0,.09.21.22.22,0,0,0,.08,0,1.08,1.08,0,0,1,.72.31.56.56,0,0,0,.75.06c.17-.09.17-.26.19-.42s0-.12.08-.11a.51.51,0,0,0,.19-.64,1.32,1.32,0,0,1,.08-.76c.07-.27.16-.56.24-.82s.29-.43.54-.18a1,1,0,0,1,.3.66c0,.38.1.75.12,1.13a4.49,4.49,0,0,1-.12,1.27c-.13.59-.26,1.17-.4,1.74a3,3,0,0,1-.2.4.38.38,0,0,0-.09.13.21.21,0,0,1-.25.19l-1.5-.45-.52-.21c-.17-.05-.29,0-.43-.08a4.26,4.26,0,0,1-1.58-1.07l-.32-.22a2.09,2.09,0,0,1-.22-.28Z"/><path class="f5fc85cb-3a49-4515-885e-4764f8c335b1" d="M23.27,47.18l.18-.25c.1-.15,0-.28-.08-.41a1.74,1.74,0,0,1-.2-.41c-.14-.39-.29-.79-.4-1.19a1.09,1.09,0,0,1,0-.44,4.11,4.11,0,0,1,.08-.6,2.17,2.17,0,0,1,.15-.35l.26.17a10.27,10.27,0,0,1,.61,1,2.47,2.47,0,0,1,.21.75c.08.45.18.9.3,1.34a4.59,4.59,0,0,1,.1,1l0,.34c0,.39,0,.78,0,1.18s0,.43-.3.44a1.65,1.65,0,0,0-.32.06l-.06,0a2.43,2.43,0,0,1-1.7.14,6.29,6.29,0,0,1-1.51-.58,1.41,1.41,0,0,1-.7-.47.91.91,0,0,1,0-1,1,1,0,0,1,.61-.53,2.26,2.26,0,0,1,1.58.12l.64.43.24.06.1-.06c.12,0,.3.1.37-.1a.48.48,0,0,0-.1-.58Z"/><path class="f5fc85cb-3a49-4515-885e-4764f8c335b1" d="M48.75,30.78,49.11,32c0,.1,0,.15-.1.16a.9.9,0,0,0-.4,0c-.38.12-.75.26-1.16.42a.85.85,0,0,1-.42,0,3.55,3.55,0,0,1-1.19-.31,6.28,6.28,0,0,0-1-.42,3.73,3.73,0,0,1-.56-.2.22.22,0,0,1-.15-.24,1.29,1.29,0,0,1,.64-1.06,1.51,1.51,0,0,1,1.28,0c.22.06.42.17.63.25a.58.58,0,0,0,.71-.41s0,0,0,0l0,0a1,1,0,0,1-.16-.54A.45.45,0,0,0,47,29.3,1.33,1.33,0,0,1,46.7,29l-.26-.32a1.6,1.6,0,0,1-.31-.89l-.06-.3c0-.11,0-.17.11-.16a.79.79,0,0,1,.49.33c.08.13.19.25.28.37l.8,1.1h0c.35.23.42.63.58.92a4.07,4.07,0,0,1,.33.66h0Z"/><path class="f5fc85cb-3a49-4515-885e-4764f8c335b1" d="M13.67,41.73l.2.71a4.76,4.76,0,0,1,.19.53c.12.49.21,1,.31,1.48a.38.38,0,0,1,0,.15c0,.32,0,.63,0,.95a8.27,8.27,0,0,1-.19.83,1.13,1.13,0,0,0-.08.34.29.29,0,0,1-.28.29,4.86,4.86,0,0,1-1.86,0c-.27-.05-.56,0-.84-.06a2.41,2.41,0,0,1-.59-.14,2.1,2.1,0,0,1-.92-.92.88.88,0,0,1-.14-.72.17.17,0,0,0,0-.14.64.64,0,0,1,.41-.76,7.69,7.69,0,0,1,.91-.34,2.92,2.92,0,0,1,.66,0l.31.06A.79.79,0,0,1,12,44c.28.12.69,0,.61-.39a.7.7,0,0,1,.06-.09.46.46,0,0,0,.07-.58,1.41,1.41,0,0,1-.11-.45,8.35,8.35,0,0,1,0-1,2.64,2.64,0,0,1,.08-.49c.05-.07.08-.11.18-.07a1.62,1.62,0,0,1,.8.81Z"/><path class="b0674f78-ffad-45c3-ad9d-75f5ed05a114" d="M22.19,33.06h0l.17.18.34.37.17.2.71.61a4.94,4.94,0,0,0,.44.36,5.83,5.83,0,0,0,.72.32,2.73,2.73,0,0,0,.57.19c.21,0,.42.05.63.08s.6.09.91.12a1.15,1.15,0,0,0,.75-.11h.08l1.15-.18A2,2,0,0,0,30,34.5c.12-.15.23-.29.36-.43s.46-.43.69-.66a1.81,1.81,0,0,0,.19-.29,5.14,5.14,0,0,1,.37-.54,2.42,2.42,0,0,0,.72-1.06.41.41,0,0,1,.07-.11,4.63,4.63,0,0,0,.5-.58,3.87,3.87,0,0,0,.33-.64c.16-.38.32-.78.47-1.17s.33-.81.48-1.21.39-1,.57-1.55.24-.92.37-1.38a5.44,5.44,0,0,1,.19-.57c.06-.19.19-.49.27-.73.13-.41.25-.82.38-1.23s.23-.66.33-1,.18-.68.3-1A14.72,14.72,0,0,1,37,18.91a3.75,3.75,0,0,0,.17-.47.82.82,0,0,0-.17-.87,2,2,0,0,0-1-.52l-.32-.1c-.44-.12-.9-.21-1.35-.33s-.89-.3-1.35-.43-.61-.13-.91-.2l-.68-.18a3,3,0,0,1-.39-.16l-.85-.34a4,4,0,0,0-.58-.2c-.26-.07-.55-.11-.84-.17l-.06,0-.72-.23c-.5-.14-1-.26-1.49-.4a9.82,9.82,0,0,0-1.67-.45l-1.29-.27a1.82,1.82,0,0,0-.77-.05,8.77,8.77,0,0,1-1.14.1c-.27,0-.56,0-.83.08l-1.17.22a4.49,4.49,0,0,0-2.64,1.54l-.07.12-.26.37-.21.32a6.21,6.21,0,0,0-.42.81,2.62,2.62,0,0,0-.19.46c0,.19-.07.38-.1.58s-.09.56-.11.85,0,.44,0,.66a2.75,2.75,0,0,0,.17,1.14l.39.8a1.28,1.28,0,0,0,.11.24c.09.18.19.37.29.54l.21.14c.31.31.6.65.92,1s.63.49.94.74l.25.17.51.34A3.27,3.27,0,0,0,20,25l1.12.49.15,0a.5.5,0,0,1,.4.53c0,.06,0,.19,0,.28l0,.67a.74.74,0,0,1-.12.52.11.11,0,0,0,0,.12,2.24,2.24,0,0,1-.08.85,3.72,3.72,0,0,0-.18.94c0,.25-.06.51-.08.77a1,1,0,0,0,.06.35,1.4,1.4,0,0,1,.06.28,2.38,2.38,0,0,0,.36,1.45c.16.24.34.45.5.68Zm-.3.91a2.72,2.72,0,0,0-.31-.38,2.73,2.73,0,0,1-.55-.76,6.38,6.38,0,0,1-.47-1.26,5.91,5.91,0,0,1-.12-1,2.72,2.72,0,0,1,0-.64c.05-.4.13-.8.22-1.2a5.39,5.39,0,0,0,.15-1.39.3.3,0,0,0,0-.1c-.16-.11-.06-.29,0-.42a.32.32,0,0,0-.18-.46,1.88,1.88,0,0,0-.45-.22,2.37,2.37,0,0,1-.62-.3c-.09-.06-.22,0-.31-.09s-.34-.23-.51-.35l-.14-.09L18.13,25a3.39,3.39,0,0,0-.5-.34,7.24,7.24,0,0,1-1-.82A3.14,3.14,0,0,1,15.9,23a.37.37,0,0,1-.18-.22,11.2,11.2,0,0,1-.56-1.09,5.27,5.27,0,0,1-.25-.86,3,3,0,0,1-.12-.73c0-.33,0-.67,0-1,0-.51.07-1,.15-1.5a2.55,2.55,0,0,1,.25-.75c.16-.33.37-.64.54-1,.08-.12.09-.28.16-.38l.63-.93a2.75,2.75,0,0,1,.91-.82,6.36,6.36,0,0,0,.83-.51c.22-.18.47-.15.7-.22l.41-.12L20,12.8c.21,0,.1,0,.14,0a2.48,2.48,0,0,1,1-.15c.16,0,.33,0,.45-.11a.15.15,0,0,1,.09,0c.13,0,.27,0,.41,0a.19.19,0,0,0,.23-.06.07.07,0,0,1,.08,0c.26,0,.53,0,.79,0a6.08,6.08,0,0,1,.74.16,2.71,2.71,0,0,0,1.09.17.89.89,0,0,1,.39.12l.79.3.1.06c.49,0,.87.3,1.34.37a7,7,0,0,1,1.12.24,6.58,6.58,0,0,1,.78.29l.08.06c.31-.15.54.06.8.15a3.91,3.91,0,0,0,1.25.41.16.16,0,0,1,.08.06l.19.13c.31.07.63.13,1,.22s.41.17.63.23a3.1,3.1,0,0,0,1,.25.2.2,0,0,1,.09.06,7.61,7.61,0,0,0,1.48.36l.51.1.09.06.76.52a1.55,1.55,0,0,1,.27.24l0,.11a7.08,7.08,0,0,1,.17.77,1.12,1.12,0,0,1-.06.7,3.09,3.09,0,0,0-.23.77c-.07.23-.12.48-.18.71a.83.83,0,0,0-.08.12,1.42,1.42,0,0,0-.16.45,2.47,2.47,0,0,1-.21.75c-.15.45-.28.91-.44,1.36-.08.22-.18.44-.26.67l-.31.86c-.09.29-.16.46-.22.68s-.16.59-.25.88-.19.6-.28.9a1.06,1.06,0,0,1,0,.19L34.75,28q-.21.54-.42,1.11a8.22,8.22,0,0,1-.66,1.52c-.19.28-.32.59-.48.88L33,31.8l-.56.83-.56.83a4,4,0,0,1-.4.45,1.35,1.35,0,0,0-.18.27,1.28,1.28,0,0,1-.23.19l-.49.48c-.21.23-.42.45-.65.66a2.71,2.71,0,0,1-.63.33,4.52,4.52,0,0,1-.71.23,8.72,8.72,0,0,1-.89.16c-.29,0-.76.14-1.15.17a2.22,2.22,0,0,1-.51-.06l-1.29-.16a3.17,3.17,0,0,1-1-.39l-.39-.26A6.23,6.23,0,0,0,22.8,35a4,4,0,0,1-.77-.77l-.22-.15h0Z"/></g></g></svg>