<svg xmlns="http://www.w3.org/2000/svg" viewBox="0 0 62.05 79.73"><defs><style>.b98619ef-1708-4872-9c38-e85d8fc67263{fill:#2b2b2a;}.e8b94d60-bb14-418e-8ca5-3c9442334071{fill:#fff;}</style></defs><g id="f28e36bb-fdea-4e5f-822c-9236f465894b" data-name="Livello 2"><g id="adf38dee-b063-4022-a5c2-89030dd66548" data-name="bf3b521c-f4f7-4f0c-b9df-40a1b157efef"><path class="b98619ef-1708-4872-9c38-e85d8fc67263" d="M54.24,67.22l.44.55.1.12c.17.16.33.32.51.46a.52.52,0,0,0,.31.08.3.3,0,0,1,.08-.2.82.82,0,0,0,.07-.3.52.52,0,0,0-.07-.27c-.15-.23-.31-.45-.47-.66s-.14-.11-.19-.17-.28-.43-.44-.62a6.51,6.51,0,0,0-.51-.54c-.15-.16-.27-.33-.41-.5l-.55-.65L53,64.43a1.5,1.5,0,0,0-.44-.56c-.12-.13-.2-.3-.32-.43-.25-.3-.52-.59-.77-.88-.07-.08-.12-.17-.2-.25s-.37-.35-.54-.54a2.5,2.5,0,0,1-.21-.35v-.06l-.48-.46L50,60.82a1.55,1.55,0,0,0-.51-.68h0c-.11-.33-.45-.46-.61-.75a2.51,2.51,0,0,0-.33-.4l-.67-.84c-.19-.24-.35-.5-.53-.74a4.88,4.88,0,0,0-.48-.51c-.16-.17-.09-.15-.15-.21s-.3-.34-.47-.5-.43-.4-.63-.61-.24-.32-.38-.47a3.28,3.28,0,0,0-.54-.64,3.31,3.31,0,0,1-.41-.5c-.21-.25-.44-.48-.64-.73L43,52.48A.16.16,0,0,0,43,52.4l-.5-.33h0l-.42-.54-.3-.37-.06-.08a2.52,2.52,0,0,0-.44-.64v-.15s0-.11,0-.13c-.23-.13-.22-.4-.34-.6s-.14-.33-.26-.39a1.53,1.53,0,0,1-.4-.44c-.13-.16-.27-.3-.4-.46l-.39-.52a1,1,0,0,0-.23-.24c-.21-.11-.28-.32-.4-.49s-.23-.36-.36-.54a.22.22,0,0,0-.16,0c0,.08-.1.22-.06.27.23.32.49.62.74.93a1.22,1.22,0,0,1,.17.29c.06.1.11.2.18.3s.3.45.46.67.26.32.39.49l.26.33.41.54,1,1.2c.12.15.23.31.35.45s.24.24.34.37l.91,1.2c.25.31.51.62.77.92s.65.75,1,1.12c.17.18.35.36.51.55l.62.78c.24.32.5.63.75,1s.28.35.43.52c.3.35.62.69.92,1s.71.9,1.08,1.35c.18.23.41.43.6.65a6,6,0,0,1,.36.52c.19.25.39.48.57.73s.34.52.51.78c0,.06.1.11.15.17l.17.24.57.87.58.81.32.42c.18.23.37.45.49.61l.61.68M14.84,22c.07.12.14.16.25.05s.35-.38.53-.55.4-.32.59-.49.22-.23.34-.32c.28-.21.58-.4.85-.62s.5-.43.75-.64l.74-.59,1-.73v-.1a.44.44,0,0,0-.16-.06c-.14,0-.36,0-.43-.1s-.42-.2-.6-.34a.19.19,0,0,0-.09-.05l-.94-.25h-.22a4.63,4.63,0,0,1-.49-.09c-.17,0-.45-.05-.68-.06a3.11,3.11,0,0,0-1.07.3.24.24,0,0,0-.09.06,4.14,4.14,0,0,0-.5.44,6,6,0,0,0-.49.71,1.93,1.93,0,0,0-.22,1.08A4.35,4.35,0,0,0,14.16,21a4.71,4.71,0,0,0,.35.62h0c.1.15.2.3.29.46m7.59-7.88c-.31-.28-.65-.55-1-.81a2.56,2.56,0,0,1-.48-.33c-.18-.22-.48-.25-.65-.46a.19.19,0,0,0-.18-.06,1.86,1.86,0,0,1-.6-.17h-.72L18,12.12H16.94a1.58,1.58,0,0,0-1.06.2,4.43,4.43,0,0,1-.85.48c-.09,0-.22,0-.31.08a4.81,4.81,0,0,0-1.13.77,5.17,5.17,0,0,1-.53.39c-.18.15-.35.32-.53.48l-.65.56c-.24.2-.49.38-.72.59a.93.93,0,0,0-.21.27,7.4,7.4,0,0,1-1,1.48,5.48,5.48,0,0,0-.84,1.37,4.08,4.08,0,0,0-.19,1.43,2.54,2.54,0,0,0,.25.81,5.91,5.91,0,0,0,.71,1.28,1.34,1.34,0,0,1,.23.4c.19.36.35.73.57,1.07a2.07,2.07,0,0,0,.62.78h0c.1.16.18.17.33,0,.41-.36.81-.73,1.23-1.08.24-.18.48-.35.73-.51a1.63,1.63,0,0,0,.29-.23c.12-.11.11-.22,0-.35l-.2-.33s0-.1-.08-.11-.2-.17-.24-.3c-.16-.46-.35-.91-.47-1.37a3.24,3.24,0,0,1,0-.88,6.51,6.51,0,0,1,.13-.77,1.77,1.77,0,0,1,.18-.45c.23-.31.29-.73.67-.95.16-.1.25-.31.41-.43s.59-.36.89-.53a2.64,2.64,0,0,1,.38-.18A2.12,2.12,0,0,0,16,16a5.1,5.1,0,0,1,1.46,0,1.31,1.31,0,0,1,.28.09,4.22,4.22,0,0,1,1,.27c.38.2.77.36,1.16.53a9.11,9.11,0,0,0,.87.32.33.33,0,0,0,.24,0c.21-.15.42-.32.62-.48a1.54,1.54,0,0,0,.29-.21c.36-.33.71-.68,1.08-1a2.52,2.52,0,0,1,.49-.25l.2-.06c-.48-.44-.91-.86-1.37-1.27M41.15,43.86c-.33.28-.67.54-1,.83s-.45.19-.55.45c0,.08-.15.14-.24.19-.26.12-.28.21-.14.44s.29.49.45.72.18.17.26.26l.54.65c0,.07.13.12.19.19a4.14,4.14,0,0,1,.44.5,2.67,2.67,0,0,1,.25.43,9.42,9.42,0,0,0,.59,1,12.3,12.3,0,0,0,.74,1c.28.35.58.68.89,1s.83.84,1.23,1.28c.21.23.38.5.57.75s.2.23.29.35.3.41.47.6.38.36.56.55l.8.87c.21.24.43.48.64.73a2,2,0,0,1,.25.34h0a7.36,7.36,0,0,1,.69.79c.16.18.29.39.45.58s.5.6.74.91.5.64.75,1a3.89,3.89,0,0,0,.51.59l.64.71c.23.25.46.49.68.76s.29.42.45.62l.77.93,1.16,1.42c.07.08.15.15.22.24.46.58.92,1.15,1.36,1.73a.75.75,0,0,1,.19.4.73.73,0,0,1-.47.63.69.69,0,0,0-.19.19,1.73,1.73,0,0,0-.26.57c0,.07-.15.13-.24.15a.72.72,0,0,1-.72-.22.23.23,0,0,0-.12-.06c-.33,0-.49-.23-.67-.42l-.58-.64h0c-.14-.36-.47-.55-.7-.83s-.23-.24-.34-.37-.07-.18-.13-.25c-.19-.23-.41-.45-.6-.68s-.21-.32-.33-.47l-.52-.68a1.87,1.87,0,0,1-.15-.32,3.29,3.29,0,0,0-.65-.88c-.09-.12-.13-.28-.21-.4-.24-.33-.5-.65-.74-1s-.38-.58-.59-.84c-.37-.45-.77-.88-1.15-1.31l-.54-.64c-.1-.11-.18-.24-.27-.36a1,1,0,0,0-.19-.17,1.75,1.75,0,0,1-.23-.24,9.47,9.47,0,0,0-.8-1c-.28-.28-.39-.65-.67-.92a3.74,3.74,0,0,1-.41-.46c-.13-.15-.48-.58-.73-.86-.1-.13-.25-.22-.35-.35l-1-1.17c-.1-.12-.26-.2-.24-.39a.06.06,0,0,0,0-.06,1.31,1.31,0,0,1-.4-.5,2.49,2.49,0,0,0-.43-.54c-.14-.15-.3-.29-.43-.45s-.22-.33-.34-.5l-.71-.93c-.13-.18-.24-.38-.36-.56a1.56,1.56,0,0,0-.19-.23l-.29-.42c-.1-.14-.42-.54-.61-.82L38.29,48c-.07-.13-.17-.24-.25-.37s-.28-.39-.41-.59-.15-.18-.27-.1-.53.34-.78.52-.45.34-.67.51-.22.18-.34.26l-.63.4a.2.2,0,0,0-.09.25l0,0,.21.26c.18.2.38.38.54.58s.35.54.54.8L37,51.78c.14.2.29.4.45.59s.17.11.22.19a1.78,1.78,0,0,0,1.1.58h.14a3.19,3.19,0,0,0,.85.25,1.27,1.27,0,0,1,.36.12c.12,0,.1.06.15.05.36,0,.59.24.89.35a2.73,2.73,0,0,1,.66.39l.1.12.32.29c.26.21.29.54.44.81A2.72,2.72,0,0,1,43,56.83c0,.61,0,1.23.06,1.85a4.18,4.18,0,0,0,.11.79,1.13,1.13,0,0,0,.24.36c.18.24.36.47.55.69a4.29,4.29,0,0,0,.39.38,1.27,1.27,0,0,1,.22.25c.18.23.34.47.52.7s.46.53.68.8a5.58,5.58,0,0,1,.33.45l.48.58a3.63,3.63,0,0,0,1.19.75,1.52,1.52,0,0,0,.54.16,5.17,5.17,0,0,1,1.45.38,1.9,1.9,0,0,1,.83.62c.18.22.43.39.62.61a1.13,1.13,0,0,1,.26.45c.16.51.31,1,.45,1.54a.51.51,0,0,1,0,.3,2.26,2.26,0,0,0,.08,1,3.52,3.52,0,0,0,.23.86,6.77,6.77,0,0,0,.64,1.15,4.24,4.24,0,0,0,.83.81,11,11,0,0,0,1.24.81c.25.15.53.24.78.38a5.2,5.2,0,0,0,.92.3,2.12,2.12,0,0,0,1.49,0h.19a1.67,1.67,0,0,0,1-.7,1.5,1.5,0,0,1,.27-.29l1.09-1a.74.74,0,0,0,.22-.28,5.53,5.53,0,0,0,.31-.86,2.18,2.18,0,0,0,0-.51c0-.25-.18-.4-.22-.61a5.6,5.6,0,0,0-.12-.59,1.46,1.46,0,0,0-.16-.44c-.13-.26-.29-.51-.44-.76a8.13,8.13,0,0,1-.51-.91c-.1-.28-.36-.48-.37-.8h0l-.61-.77c0-.07-.14-.12-.17-.19a3.2,3.2,0,0,0-.72-.88,1.71,1.71,0,0,1-.11-.14,2.16,2.16,0,0,0-.69-.84,1.89,1.89,0,0,1-.32-.37s0-.08-.06-.1a5.47,5.47,0,0,1-.92-1c-.4-.43-.73-.92-1.1-1.37s-.69-.88-1-1.34-.45-.78-.73-1.13a9.31,9.31,0,0,0-.74-.92,6.31,6.31,0,0,1-.59-.84,7,7,0,0,0-.44-.67,6.15,6.15,0,0,0-.64-.61l-.06-.08a4.59,4.59,0,0,0-.36-.41,5.31,5.31,0,0,1-.54-.71l-.41-.58c-.15-.21-.29-.41-.45-.61s-.33-.38-.5-.57l-.55-.69-.54-.65a1.61,1.61,0,0,1-.21-.3,1.53,1.53,0,0,0-.42-.56c-.15-.14-.26-.34-.4-.5s-.39-.4-.57-.6l-.42-.47c-.09-.11-.2-.21-.29-.32l-.38-.43c-.16-.18-.33-.36-.47-.55s-.23-.36-.34-.55-.31-.51-.46-.76a5.32,5.32,0,0,0-.38-.58,6.23,6.23,0,0,0-.51-.52c-.17-.17-.08-.12-.13-.17l-.74-.79a3.73,3.73,0,0,1-.34.35m-4.44-21.1a1.12,1.12,0,0,0-.2-.17l-.84-.83c-.39-.39-.78-.78-1.16-1.18-.16-.17-.28-.37-.44-.55l-.66-.74L33.11,19l-.72-.82c-.1-.11-.22-.19-.33-.29l-.28-.25c-.21-.19-.42-.38-.64-.55l-.68-.5-.4-.29-.54-.4a3.43,3.43,0,0,0-.92-.56,6.62,6.62,0,0,0-1-.37,8.35,8.35,0,0,0-1-.17h-1c-.07,0-.15.08-.21.14-.21.25-.41.5-.6.77s-.22.3-.43.33h-.21a1.91,1.91,0,0,0-.33.06,5,5,0,0,0-.58.35l-1,.85c-.24.2-.48.4-.73.58s-.54.3-.8.46-.78.53-1.17.81-.55.41-.82.62l-.62.5c-.22.16-.46.29-.67.45s-.39.33-.58.5-.38.31-.56.48l-.7.7c-.08.08-.16.15-.23.23a1.77,1.77,0,0,0-.16.22.68.68,0,0,1-.54.44,1.59,1.59,0,0,0-.43.26,10.07,10.07,0,0,0-1,.76l-.71.65a1.65,1.65,0,0,1-.32.26,2.43,2.43,0,0,0-.65.87c-.09.15-.2.28-.28.43a4.91,4.91,0,0,0-.28.62c-.08.22-.13.45-.19.68v.12l-.18,1.16a2.44,2.44,0,0,1-.12.42,3.53,3.53,0,0,0,0,.46c0,.38.09.76.16,1.13a4.58,4.58,0,0,0,.25.82,3.61,3.61,0,0,0,.77,1,3.42,3.42,0,0,1,.42.52,4.36,4.36,0,0,1,.41.46,1.54,1.54,0,0,1,.17.34l.15.27L14,36c.21.25.46.48.67.73l.75.91.18.2c.08.08.18.13.21.27s.18.16.27.25.35.39.52.59.51.58.77.86h.19c.25-.16.49-.33.73-.51s.48-.33.7-.51l1.06-.86c.2-.16.42-.32.62-.49s.46-.4.68-.62l1.34-1.31a9.17,9.17,0,0,0,.82-.83,6.66,6.66,0,0,1,.94-.82c.46-.36.94-.7,1.41-1.05l1.31-1,.8-.59c.38-.28.75-.59,1.13-.87.22-.17.47-.31.7-.47l.89-.64.75-.54.24-.2.9-.7,1.13-.89c.33-.26.67-.5,1-.74.12-.08.24-.16.37-.23s.09-.05.11-.09a5.54,5.54,0,0,1,.71-.57l.73-.67.46-.38a.53.53,0,0,0,.1-.12c.1-.17.19-.36.31-.57l-.74-.9m.42,2.76c-.18.15-.34.32-.52.48s-.45.36-.65.56a4.73,4.73,0,0,1-1,.64c-.18.12-.34.27-.51.4s-.5.38-.74.58-.33.29-.51.42l-.59.41-.12.1-.29.23c-.14.12-.25.26-.39.37a2.46,2.46,0,0,1-.41.28l-.5.3a4,4,0,0,0-.6.41,2,2,0,0,1-.68.5,4.88,4.88,0,0,0-.58.34s-.11.07-.12.11a1.35,1.35,0,0,1-.3.33,7.62,7.62,0,0,0-1.17.88,1.12,1.12,0,0,1-.24.19l-.6.44-.86.6c-.18.14-.35.29-.53.42a1.49,1.49,0,0,1-.3.18l-.19.14-.52.5-.79.74c-.41.42-.81.85-1.23,1.27-.17.17-.38.32-.56.48l-.93.82c-.22.19-.46.37-.68.57s-.29.29-.45.42a4.59,4.59,0,0,1-.51.35l-.22.11c-.23.18-.47.36-.69.55a.23.23,0,0,0,0,.31l0,0c.35.41.69.82,1,1.24.22.25.42.52.64.78s.49.51.71.79a5.72,5.72,0,0,1,.48.65l.22.3.57.69c.14.18.26.37.39.56l.44.55c.23.26.47.5.7.74l.33.39c.24.27.46.55.71.81a3,3,0,0,0,.4.32h0l.48.48c.13.11.26.22.4.32s.55.34.84.49.41.19.62.28.53.27.81.37a5,5,0,0,0,.74.18,2.17,2.17,0,0,0,.51,0,2.51,2.51,0,0,0,.67-.15,8.37,8.37,0,0,0,1-.48c.32-.18.62-.39.93-.59l.75-.5c.31-.21.62-.41.92-.64.09-.06.12-.2.18-.31a.33.33,0,0,1,.35.1.34.34,0,0,0,.2-.09l.47-.33.32-.23c.53-.3.92-.79,1.43-1.13l.35-.23c.06,0,.14-.09.16-.15a.38.38,0,0,1,.29-.23,1.29,1.29,0,0,0,.61-.38c.25-.23.51-.44.77-.65l.94-.79c.21-.16.43-.32.63-.49s.44-.4.65-.6.52-.56.81-.81a2.4,2.4,0,0,1,.46-.27,2.79,2.79,0,0,0,.76-.65c.17-.2.35-.38.53-.56s.41-.41.6-.64.37-.51.55-.77.39-.56.56-.86a2.58,2.58,0,0,0,.34-1,2,2,0,0,1,.08-.69c0-.13.09-.25.14-.37a.31.31,0,0,0,0-.23l-.37-1c-.1-.28-.17-.56-.28-.83a5.16,5.16,0,0,0-.7-1.36c-.2-.25-.35-.53-.54-.79,0-.08-.15-.12-.2-.2a3.17,3.17,0,0,1-.23-.36l-.11-.18c-.17-.2-.34-.4-.5-.61l-.49-.65c-.16-.22-.36-.55-.56-.81a4.84,4.84,0,0,0-.46-.5c-.16-.17-.06,0-.06-.05,0-.31-.34-.46-.44-.73a1.23,1.23,0,0,0-.23-.28c-.17-.21-.34-.41-.5-.63a4.12,4.12,0,0,1-.29-.5l-.25-.32L39,25.7a.24.24,0,0,0-.06-.09l-.51-.54-.09-.18c0-.1-.09-.14-.19-.08l-.48.27h0c-.21.17-.42.33-.62.51M33.79,49.7l-.48.3-.63.42-.7.5c-.16.11-.32.19-.48.28l-.51.33a2.15,2.15,0,0,1-.48.3,3.38,3.38,0,0,1-.48.11,1,1,0,0,0-.29.11.29.29,0,0,1-.37,0l-.18-.1a.68.68,0,0,0-.48-.11,2.3,2.3,0,0,1-.74,0,4.66,4.66,0,0,1-.61-.26c-.2-.09-.41-.15-.61-.23a1.23,1.23,0,0,1-.38-.19,1.17,1.17,0,0,0-.52-.32,1.27,1.27,0,0,1-.54-.31A.82.82,0,0,0,25,50.3a2.72,2.72,0,0,1-.8-.55,12.89,12.89,0,0,1-1-1.1,4.79,4.79,0,0,0-.49-.52c-.12-.14-.22-.3-.35-.44a6.92,6.92,0,0,1-.82-.89,4.83,4.83,0,0,1-.66-1.06.29.29,0,0,0-.12-.15c-.09-.08-.22-.13-.29-.23L20,44.61l-.18-.22-.57-.68-.47-.54c-.08-.09-.18-.16-.26-.25s-.13-.2-.21-.29-.25-.25-.36-.39a2.59,2.59,0,0,0-.75-.76.86.86,0,0,1-.29-.31c-.06-.11-.07-.25-.13-.36a1.69,1.69,0,0,0-.28-.38,1.27,1.27,0,0,0-.25-.21l-.45-.49-.08-.13-.26-.33c-.07-.08-.17-.13-.24-.22l-.64-.75L14.32,38c0-.07-.09-.16-.15-.23s-.31-.35-.48-.52a2.37,2.37,0,0,0-.47-.48c-.17-.1-.28-.32-.42-.48l-.42-.53c-.11-.13-.26-.23-.35-.36s-.29-.56-.48-.8a10.62,10.62,0,0,0-1-1.26c-.11-.1-.17-.24-.28-.33a2.41,2.41,0,0,1-.6-1.15,6.27,6.27,0,0,1-.22-1.13,1.06,1.06,0,0,1,0-.66V30a5.18,5.18,0,0,1,.09-.78c0-.26.14-.67.18-1a5.64,5.64,0,0,1,.37-1.41l.09-.23c.08-.16.16-.32.25-.47s.18-.19.25-.3a.68.68,0,0,0-.09-.6,2.88,2.88,0,0,1-.39-.46c-.24-.38-.44-.78-.67-1.18l-.45-.76c-.19-.33-.4-.66-.58-1a5.62,5.62,0,0,1-.3-.71A2.3,2.3,0,0,1,8,20a2.18,2.18,0,0,0,0-.51,1.79,1.79,0,0,1,.17-.94c.08-.19.16-.39.25-.58a3.26,3.26,0,0,1,.24-.4c.06-.1.18-.17.22-.27a8.55,8.55,0,0,1,.8-1,2.92,2.92,0,0,0,.4-.59,2.85,2.85,0,0,1,.82-1c.3-.23.61-.45.89-.7a4.08,4.08,0,0,1,.63-.54,5.89,5.89,0,0,0,.84-.65,1.21,1.21,0,0,0,.23-.22,1.32,1.32,0,0,1,.71-.47,4.72,4.72,0,0,0,.56-.24l.45-.27.22-.16h.08l.3-.14a3.16,3.16,0,0,1,.59-.2c.23,0,.46,0,.68,0h.75a3,3,0,0,1,.89,0,4.91,4.91,0,0,0,.84.14,1.88,1.88,0,0,1,.9.29c.21.16.46.27.68.43s.56.44.83.66l.5.44a6,6,0,0,0,.49.39c.21.14.31.43.53.43l.77.79c.13-.14.3-.24.35-.38a.34.34,0,0,1,.4-.25.17.17,0,0,0,.1,0c.2,0,.39-.1.59-.12a2.81,2.81,0,0,1,.58,0h.87a4.8,4.8,0,0,1,1.25.26l.2.05c.21.11.42.21.62.34q.66.4,1.29.84c.35.26.67.55,1,.81a6.58,6.58,0,0,1,1.28,1l.24.3c.26.28.54.54.79.83l.57.68c.19.22.49.62.75.9s.62.61.92.92.66.69,1,1a5.27,5.27,0,0,1,.7.78,6.31,6.31,0,0,1,.86,1l.1.08A1,1,0,0,1,39,24c.14.19.26.4.41.59.27.36.57.72.85,1.08.13.17.22.36.35.53.28.36.57.7.85,1.06s.32.46.48.69c.28.4.56.81.85,1.2.16.22.34.41.51.62s.4.47.59.71l.32.45c.19.26.4.5.57.76l.7,1.1a2.68,2.68,0,0,1,.47.86,1.9,1.9,0,0,0,.15.5c.05.17.09.25.13.38a5.41,5.41,0,0,0,.19.69,2.87,2.87,0,0,1,.28,1.22.65.65,0,0,1-.07.41,3.11,3.11,0,0,0-.34.94,1.79,1.79,0,0,1-.2.59,8.11,8.11,0,0,1-.54.89,4.73,4.73,0,0,1-.67,1,4.16,4.16,0,0,0-.32.39l-.69.79c-.09.09-.2.16-.29.25s-.2.24-.32.34-.48.43-.73.63a.22.22,0,0,1-.12,0h-.12v.14c.31.36.63.72.93,1.09s.45.55.67.84a2.64,2.64,0,0,1,.3.5,3.43,3.43,0,0,1,.24.33c.17.25.31.53.5.77a3.19,3.19,0,0,0,.72.83,1.09,1.09,0,0,1,.23.25c.18.22.33.45.52.66a2.38,2.38,0,0,1,.53.61,2.73,2.73,0,0,0,.35.47c.16.19.33.36.48.55.34.41.66.83,1,1.24l.28.35.28.36.71.94.1.15c.3.36.58.73.88,1.09.13.15.26.3.4.44A7.53,7.53,0,0,1,52,55c.32.42.61.87.93,1.3s.48.59.71.9.35.53.52.8.21.34.32.5.43.6.66.89l1.15,1.47h0l.54.58c.09.1.17.21.26.3l.55.58.52.56.47.61c.22.26.43.53.65.8.06.08.14.14.19.22l.43.6a1.52,1.52,0,0,1,.39.64,1.92,1.92,0,0,0,.18.31c.11.17.21.34.31.52s.1.21.16.32a2,2,0,0,1,.26.39,4.05,4.05,0,0,0,.43.92,1.32,1.32,0,0,1,.16.51,5.23,5.23,0,0,0,.12.54,2,2,0,0,1,0,1.67,2.2,2.2,0,0,0-.17.45,1.84,1.84,0,0,1-.87,1.22,3.58,3.58,0,0,0-.68.61,5,5,0,0,1-1.09,1.07,2.39,2.39,0,0,1-.52.29,4.78,4.78,0,0,1-.85.2,6.2,6.2,0,0,1-.62.06h-.23a1.87,1.87,0,0,1-.73-.15,1.29,1.29,0,0,0-.35-.1c-.23-.07-.47-.11-.69-.2a2.9,2.9,0,0,1-.48-.27l-1-.63a6.68,6.68,0,0,1-.67-.41c-.24-.2-.42-.45-.67-.64a4,4,0,0,1-.49-.66,1.16,1.16,0,0,1-.16-.21c-.11-.23-.21-.46-.3-.7a3.65,3.65,0,0,1-.22-.66c-.07-.37-.1-.74-.14-1.11a5.75,5.75,0,0,0-.06-.73,2.38,2.38,0,0,0-.15-.52c0-.11-.11-.21-.14-.32a1.54,1.54,0,0,0-.72-1,.3.3,0,0,1-.07-.08,1,1,0,0,0-.26-.25c-.1-.06-.48-.32-.73-.46a1.84,1.84,0,0,0-.42-.08c-.29,0-.59-.1-.88-.17a2.83,2.83,0,0,1-.55-.21,3.68,3.68,0,0,1-.45-.28l-.24-.19a.44.44,0,0,0-.19-.1c-.25,0-.38-.25-.51-.41s-.2-.4-.4-.53a.11.11,0,0,0-.06-.09c-.16-.24-.31-.49-.48-.72s-.38-.47-.57-.7a.25.25,0,0,0,0-.07l-.53-.48-.08-.11c0-.08-.11-.15-.16-.22s-.18-.23-.28-.34-.32-.5-.62-.62c0-.26-.06-.51-.08-.78s0-.47,0-.71,0-.53,0-.8A2.84,2.84,0,0,0,42.19,57a1.94,1.94,0,0,0-.12-.53,2.47,2.47,0,0,0-.17-.42.33.33,0,0,0-.07-.16,2,2,0,0,0-1-.67.14.14,0,0,1-.09,0c-.2-.17-.37-.38-.67-.34H40l-1.19-.42h-.23a1.42,1.42,0,0,1-.88-.28h-.12a.45.45,0,0,1-.49-.33c0-.07-.08-.12-.13-.17s-.11-.07-.14-.12l-.63-.89c-.14-.22-.29-.45-.44-.66a.31.31,0,0,0-.09-.11l-.31-.48-.14-.25L35,50.79c-.08-.12-.15-.24-.24-.35s-.41-.43-.64-.66l-.16.09"/><path class="b98619ef-1708-4872-9c38-e85d8fc67263" d="M12.34,48.57c-.2.16-.38.33-.58.51l-.46.43A4.27,4.27,0,0,0,11,50a3.06,3.06,0,0,0-.22,2.3,2.09,2.09,0,0,0,.53.91,3.09,3.09,0,0,0,1,.76c.13,0,.23.16.35.19a6.48,6.48,0,0,0,.85.19c.38.05.77.08,1.15.1a2.22,2.22,0,0,0,.63,0,9,9,0,0,0,1.06-.22,8.58,8.58,0,0,0,1-.38c.08,0,.12-.16.2-.22l.68-.53a4.52,4.52,0,0,0,1.67-2.71.85.85,0,0,0-.33-.75,8.82,8.82,0,0,0-.84-.77,6.43,6.43,0,0,0-1.57-1.1,3.71,3.71,0,0,0-.88-.25c-.42-.08-.84-.15-1.27-.19a1.86,1.86,0,0,0-.57.07,5.87,5.87,0,0,0-1.36.6H13l-.74.55m8,.51a.42.42,0,0,1,.11.16c.12.32.24.65.34,1a.41.41,0,0,1,0,.22,3.76,3.76,0,0,1-.1.66,3.15,3.15,0,0,1-.26.84,3.54,3.54,0,0,1-1.09,1.53v.07a2.71,2.71,0,0,1-.79.64l-.09.12a1.38,1.38,0,0,1-.37.35,8.89,8.89,0,0,1-1.15.46,7.31,7.31,0,0,1-1.32.34,5.06,5.06,0,0,1-1.1,0,7.18,7.18,0,0,1-1.22-.18A3.26,3.26,0,0,1,12.11,55l-.36-.24c-.16-.11-.32-.21-.47-.33a5.72,5.72,0,0,1-1-1.14v-.06a1,1,0,0,0,0-.24,4,4,0,0,1-.15-.45,5.88,5.88,0,0,1-.14-.73,8.34,8.34,0,0,1,0-1,4.06,4.06,0,0,1,.25-.84,3.82,3.82,0,0,1,.44-.91,8.39,8.39,0,0,1,.86-.93c.2-.2.42-.39.63-.59l.16-.11a6.59,6.59,0,0,0,.75-.38,4.79,4.79,0,0,1,1-.47,3.29,3.29,0,0,1,1.32-.13h.33a6.69,6.69,0,0,0,.75.16A3.68,3.68,0,0,1,17.7,47a.46.46,0,0,1,.16.11l.16.09a4.06,4.06,0,0,1,.51.26c.12.08.18.24.29.33s.49.34.72.53.62.33.72.71l.09.11h0"/><path class="b98619ef-1708-4872-9c38-e85d8fc67263" d="M33,73.89a2.17,2.17,0,0,0-.3.68c-.07.35-.12.7-.16,1.06a1,1,0,0,0,.09.41c.17.41.38.8.55,1.21a1.24,1.24,0,0,0,.55.7,6.79,6.79,0,0,0,.94.37l.66.21a3,3,0,0,0,.42,0H36c.36,0,.72.09,1.08.12.11,0,.22-.06.33-.07h.33c.32,0,.64-.11,1-.14a1.51,1.51,0,0,0,.76-.34,1.27,1.27,0,0,1,.76-.32.71.71,0,0,0,.32-.14c.19-.11.4-.22.58-.35a2.11,2.11,0,0,0,.38-.35c.11-.11.2-.23.3-.34s.34-.37.5-.56a.76.76,0,0,0,.14-.62,6.67,6.67,0,0,0-.13-1,1.06,1.06,0,0,0-.5-.82,8.79,8.79,0,0,1-1-.7,4.15,4.15,0,0,0-.56-.46c-.29-.14-.52-.4-.87-.44s-.43-.13-.65-.13a11.34,11.34,0,0,0-1.45.12c-.45.06-1.08.14-1.6.25a3.67,3.67,0,0,0-1,.33,10.9,10.9,0,0,0-1,.55l-.15.12h0a7.82,7.82,0,0,0-.55.6m-.25,4.23c-.17-.34-.34-.68-.49-1a4.36,4.36,0,0,1-.28-.79,5,5,0,0,1-.09-1.09,3.81,3.81,0,0,1,.12-.95,3,3,0,0,1,.42-1,4.19,4.19,0,0,1,.61-.65,11.26,11.26,0,0,1,1.15-.8,5.22,5.22,0,0,1,1.44-.49l.49-.11h.31l1-.18h.43a11,11,0,0,1,1.15,0,2.81,2.81,0,0,1,1.34.53l.48.32.32.21c.3.21.59.43.9.64a1.24,1.24,0,0,1,.2.1,2.06,2.06,0,0,1,.61.82,4.34,4.34,0,0,1,.24.72V75a3,3,0,0,1,0,1.27,1.75,1.75,0,0,1-.44.88c-.26.26-.5.54-.75.81a1.7,1.7,0,0,1-.35.36c-.22.15-.47.26-.7.39s-.54.32-.82.45a4,4,0,0,0-.45.16,3.56,3.56,0,0,1-.49.19,1.56,1.56,0,0,1-.61.09l-1.75.1a7.14,7.14,0,0,1-2.37-.39c-.1,0-.19-.09-.29-.12A2.23,2.23,0,0,1,33,78.54c-.07-.1-.14-.2-.2-.3"/><path class="b98619ef-1708-4872-9c38-e85d8fc67263" d="M7.52,0,7.17.12A1,1,0,0,0,7.4.7c.19.19.34.42.51.62s.34.41.5.62.13.27.22.38c.46.61.94,1.22,1.42,1.82l.87,1.17,1.41,2c.15.21.33.4.48.61s.36.53.55.79a2.33,2.33,0,0,0,.35.38c.17.21.34.4.52.59a2.06,2.06,0,0,0,.56.38c.21.08.41-.08.58-.2s.1-.35,0-.48c-.29-.25-.57-.52-.84-.79S14.19,8.2,14,8l-.69-.93-.86-1.14c-.29-.37-.56-.76-.85-1.13-.15-.2-.32-.38-.48-.58s-.4-.56-.61-.83-.4-.55-.61-.82-.32-.3-.46-.47-.2-.29-.29-.44S9.05,1.51,9,1.43A3.72,3.72,0,0,0,8.58,1C8.34.74,8.18.44,7.85.31c-.13,0-.21-.2-.29-.28"/><path class="b98619ef-1708-4872-9c38-e85d8fc67263" d="M.19,8.9c.25.22.5.44.73.68a5.1,5.1,0,0,1,.56.67,6.07,6.07,0,0,0,.59.65c.15.14.27.31.41.46l.64.65.54.57a12.87,12.87,0,0,1,.94,1c.3.37.44.58.67.86l.2.19c.19.19.38.38.55.57s0,.15.08.21c.19.24.41.46.59.71a.3.3,0,0,0,.33.1,1.14,1.14,0,0,0,.36-.15c.27-.2.18-.46,0-.67H7.31l-.52-.63L6.14,14l-.58-.67c-.18-.21-.36-.41-.55-.61s-.35-.35-.52-.54L3.38,11c-.23-.24-.48-.47-.71-.73s-.55-.67-.85-1a3,3,0,0,0-.75-.66.6.6,0,0,0-.53-.14H.43a.42.42,0,0,0-.43.2v.08L.21,9h0"/><path class="b98619ef-1708-4872-9c38-e85d8fc67263" d="M4.42,7.46c.24.25.49.5.71.77s.41.58.63.86L6,9.36l.1.1.44.57.17.24a10.07,10.07,0,0,1,.93,1.14c0,.11.16.18.23.28.21.34.41.68.63,1s.26.51.6.51a.82.82,0,0,0,.54-.34.39.39,0,0,0,0-.3c-.32-.47-.65-.94-1-1.4s-.51-.68-.77-1-.36-.39-.52-.59l-.66-.86h0c-.48-.39-.76-1-1.2-1.38a.76.76,0,0,0-.17-.13A1.06,1.06,0,0,1,5.15,7a.49.49,0,0,0-.61-.26l-.33.1V7a4.31,4.31,0,0,0,.24.46h0"/><path class="b98619ef-1708-4872-9c38-e85d8fc67263" d="M17.35,8.53l-1-1.41-.63-.92c-.18-.28-.36-.56-.55-.84a3.16,3.16,0,0,0-.38-.43c-.12-.15-.3-.4-.47-.58s-.45-.5-.69-.74a2.12,2.12,0,0,0-.51-.38c-.1,0-.26,0-.39,0a.09.09,0,0,0,0,.07.8.8,0,0,0,.13.5c.19.22.34.48.51.71l.28.37c.23.28.46.54.67.82s.32.47.48.71.26.37.38.56.35.55.53.81.45.59.68.88v.08a1,1,0,0,0,.57.61h.1a1.26,1.26,0,0,0,.34-.13c.13-.08.23-.19.14-.36l-.18-.4h0"/><path class="b98619ef-1708-4872-9c38-e85d8fc67263" d="M31.18,64.11a.47.47,0,0,0,.08.38c.3.44.71.79,1,1.23.11.17.2.34.32.5s.21.25.31.38.08.08.09.13c0,.31.29.48.45.72s.33.49.48.74.21.39.33.58a.68.68,0,0,0,.21.17.82.82,0,0,0,.82-.17.36.36,0,0,0,0-.51c-.23-.27-.46-.54-.67-.83s-.51-.77-.76-1.15c-.12-.17-.21-.36-.33-.52a3,3,0,0,0-.84-.85h0a2.27,2.27,0,0,0-.44-.49c-.2-.13-.36-.36-.66-.3h-.34"/><path class="b98619ef-1708-4872-9c38-e85d8fc67263" d="M7.85,41.32c.49.6,1,1.14,1.38,1.71s.7,1,1,1.52a.29.29,0,0,1,0,.13c0,.1,0,.21.14.24a.07.07,0,0,1,.06.07c0,.25.26.31.38.47s0,0,.06,0a1.13,1.13,0,0,0,.6-.2.39.39,0,0,0,0-.46c-.16-.28-.31-.56-.47-.83s-.19-.22-.27-.35-.13-.28-.22-.41-.21-.25-.31-.38a12.23,12.23,0,0,0-.87-1c-.15-.17-.27-.4-.54-.44a1.44,1.44,0,0,0-.14-.15,3.15,3.15,0,0,0-.52-.35.45.45,0,0,0-.35,0c-.11.05,0,.13,0,.19v.18"/><path class="b98619ef-1708-4872-9c38-e85d8fc67263" d="M12.57,43.45c.3-.28.16-.52-.07-.69a3.09,3.09,0,0,1-.48-.54c-.26-.39-.49-.8-.74-1.2l-.44-.72a6,6,0,0,0-.44-.67,1.57,1.57,0,0,0-.43-.38.33.33,0,0,0-.4,0,.92.92,0,0,1-.25.09c-.06,0-.16.06-.16.1a.5.5,0,0,0,.08.2,4.38,4.38,0,0,1,.52.62,8,8,0,0,1,.49.91c.08.14.17.27.25.4.19.33.36.67.56,1s.42.62.64.92a.55.55,0,0,0,.61.16l.3-.12"/><path class="b98619ef-1708-4872-9c38-e85d8fc67263" d="M31.61,67.14c-.18-.17-.27-.13-.33.1s.14.23.19.33v.08a5.5,5.5,0,0,1,.85,1.19,3.64,3.64,0,0,1,.39.76,1.27,1.27,0,0,1,.14.53c0,.2.16.28.27.36a.67.67,0,0,0,.88-.07c.12-.08.16-.4,0-.49s-.21-.37-.32-.55a6.79,6.79,0,0,0-.6-1c-.2-.25-.39-.52-.58-.79a1,1,0,0,0-.48-.37H32a.22.22,0,0,0-.3-.07.23.23,0,0,0-.07.07"/><path class="e8b94d60-bb14-418e-8ca5-3c9442334071" d="M34.74,44c.24-.19.46-.39.69-.58l.42-.34c.08-.08.15-.18.23-.26s.28-.26.43-.38l.35-.23a.32.32,0,0,1,.1-.07c.22,0,.35-.22.54-.31a1.34,1.34,0,0,0,.55-.63,1,1,0,0,0,.14-.22,1,1,0,0,0,0-1c-.08-.17-.28-.28-.43-.42l-.37-.36-.25-.24a4.26,4.26,0,0,1-.42-.43l-.15-.37a2.87,2.87,0,0,0-.54-.75c-.2-.24-.4-.49-.58-.75s-.2-.26-.31-.38a.38.38,0,0,0-.49,0,1.08,1.08,0,0,1-.59.15c-.08,0-.18.1-.26.17l-.49.42c-.12.09-.26.17-.38.27s-.36.35-.57.51-.5.31-.74.47l-.89.6c-.2.14-.25.13-.38-.08s-.21-.29-.29-.45-.11-.3-.16-.45a3,3,0,0,1-.18-.71,1.12,1.12,0,0,1,.12-.74v-.06c0-.27.2-.33.42-.35h.08a2.48,2.48,0,0,1,1.25-.44h.14a.37.37,0,0,0,.49-.13.58.58,0,0,0,.14-.66.43.43,0,0,0-.49-.21,3.64,3.64,0,0,1-.66,0h-.13l-1.2.51a1,1,0,0,0-.52.33A3.58,3.58,0,0,0,28.77,37a2.63,2.63,0,0,0,.06.39.43.43,0,0,1,0,.16.53.53,0,0,0,.08.44c.07.1,0,.27.08.39s.19.44.29.65a.8.8,0,0,1,.08.16c.06.12.07.27.22.34s0,.09,0,.13.11.17.15.25a.15.15,0,0,1,0,.13,1,1,0,0,0,0,.48,3.75,3.75,0,0,0,.83,1.24,3,3,0,0,0,.49.51c.26.17.36.45.55.67a10.08,10.08,0,0,1,.67.92,1,1,0,0,0,.69.53.09.09,0,0,1,.07.06.51.51,0,0,0,.68.22.47.47,0,0,0,.15-.13c.25-.18.53-.37.79-.57m3-18.83.49-.27c.1-.06.15,0,.19.07l.09.19.51.54a.24.24,0,0,1,.06.09l.43.57.25.32c.1.17.18.35.29.5s.34.42.5.63a.77.77,0,0,1,.23.28c.1.27.4.42.44.73l.06.05a5.14,5.14,0,0,1,.46.5c.14.18.37.55.56.81s.32.44.49.65l.5.61a1.62,1.62,0,0,1,.1.18c.08.12.15.25.24.36s.15.13.2.2c.19.26.34.54.54.79A5,5,0,0,1,45,34.25c.12.27.19.55.29.83s.26.66.37,1a.31.31,0,0,1,0,.23c-.05.12-.1.24-.14.37s-.06.46-.08.69a2.38,2.38,0,0,1-.34,1c-.17.3-.37.58-.56.86s-.35.52-.55.77-.4.43-.6.64-.36.37-.53.56a2.79,2.79,0,0,1-.76.65,2.48,2.48,0,0,0-.47.27c-.28.25-.53.54-.8.81s-.43.41-.65.6-.42.33-.63.5l-.94.78c-.26.22-.52.42-.77.65a1.29,1.29,0,0,1-.61.38.38.38,0,0,0-.29.23c0,.06-.1.11-.16.15l-.35.23c-.51.34-.9.83-1.44,1.13-.11.07-.2.15-.31.23l-.47.33a.34.34,0,0,1-.2.09.32.32,0,0,0-.36.21c-.06.11-.09.24-.18.31-.3.23-.62.43-.92.64l-.75.5c-.31.2-.61.42-.93.59a8.37,8.37,0,0,1-1,.48,2.44,2.44,0,0,1-.66.15,2.17,2.17,0,0,1-.51,0,5,5,0,0,1-.74-.18c-.28-.1-.54-.25-.81-.37s-.42-.17-.62-.28l-.84-.49c-.14-.1-.27-.21-.4-.32s-.32-.32-.48-.48h0a3,3,0,0,1-.4-.32c-.25-.26-.47-.54-.71-.82l-.33-.37c-.23-.25-.47-.5-.69-.75s-.3-.36-.45-.55-.25-.38-.39-.56l-.57-.69-.22-.3c-.16-.22-.3-.45-.47-.65s-.48-.53-.72-.79l-.64-.78c-.34-.42-.68-.83-1-1.24a.23.23,0,0,1,0-.31l0,0c.22-.19.46-.37.69-.55l.22-.11a4.59,4.59,0,0,0,.51-.35c.16-.13.3-.29.45-.42l.68-.57.93-.81c.19-.17.39-.32.56-.49.42-.42.82-.85,1.23-1.27.26-.26.53-.49.79-.74l.52-.5.19-.14a1.49,1.49,0,0,0,.3-.18l.54-.42.85-.6.6-.44a1.12,1.12,0,0,0,.24-.19,7.62,7.62,0,0,1,1.17-.88c.12-.09.26-.15.3-.33s.08-.08.12-.11a4.88,4.88,0,0,1,.58-.34,2,2,0,0,0,.68-.5,3.36,3.36,0,0,1,.6-.41c.16-.11.33-.2.5-.3a2.46,2.46,0,0,0,.41-.28c.14-.11.26-.25.39-.37l.29-.23.12-.1.59-.41c.18-.13.34-.29.51-.42l.74-.58c.24-.19.33-.28.51-.4a4.73,4.73,0,0,0,1-.64c.19-.21.43-.37.64-.56s.34-.33.52-.48l.62-.51h0"/><path class="e8b94d60-bb14-418e-8ca5-3c9442334071" d="M23.75,32.54c.2-.2.38-.43.6-.62a6.65,6.65,0,0,1,.56-.36l.48-.34L25.7,31h0c.12-.3.46-.29.68-.46s.45-.31.67-.47a3.63,3.63,0,0,0,1.07-1.3,1.44,1.44,0,0,0,.12-1,1.16,1.16,0,0,0-.34-.53,10.86,10.86,0,0,1-1.24-1.54,1.42,1.42,0,0,0-.25-.3c-.2-.21-.41-.41-.59-.64s-.32-.49-.48-.73l-.25-.38a.38.38,0,0,0-.55,0l0,0c-.13.18-.23.19-.35,0a2,2,0,0,0-.44-.47,6.81,6.81,0,0,0-.88-.6,4.09,4.09,0,0,0-.83-.36,1.8,1.8,0,0,0-.52-.13,4.7,4.7,0,0,0-1.06,0,3.55,3.55,0,0,0-1,.28.93.93,0,0,0-.38.43,4.67,4.67,0,0,0-.42,1.69,1.66,1.66,0,0,0,.18.93c.09.11.08.29.13.44a4.34,4.34,0,0,0,.2.5c0,.1.16.16.22.25a4.2,4.2,0,0,1,.43.74.82.82,0,0,1-.06.49,1.36,1.36,0,0,0,0,.89,2,2,0,0,0,.82,1.09,2.07,2.07,0,0,1,.4.44l.29.29.07.07a2.59,2.59,0,0,0,.19.33c.13.17.28.33.43.49s.34.33.5.51a3,3,0,0,1,.36.52c.24.4.47.38.83.14l.06,0m13.4-8.17a.25.25,0,0,1-.11.12c-.14.13-.3.25-.45.38l-.74.67c-.22.21-.52.32-.7.57l-.11.09-.37.23c-.34.24-.68.48-1,.74l-1.13.89-.9.7-.24.2-.76.54-.88.64c-.23.16-.47.3-.7.47s-.75.59-1.13.87l-.8.58-1.31,1c-.47.35-1,.69-1.41,1.05a6.66,6.66,0,0,0-.94.82,9.17,9.17,0,0,1-.82.83l-1.34,1.31c-.22.22-.45.42-.68.62s-.42.33-.62.49-.7.58-1.06.86-.46.35-.7.51-.48.35-.73.51h-.19c-.26-.28-.51-.58-.77-.86s-.34-.4-.52-.59-.24-.15-.27-.25a.9.9,0,0,0-.21-.27l-.18-.2L14.57,37c-.21-.24-.46-.47-.67-.72-.41-.49-.81-1-1.22-1.5l-.15-.27a1.54,1.54,0,0,0-.17-.34A4.36,4.36,0,0,0,12,33.7a3.42,3.42,0,0,0-.42-.52,3.61,3.61,0,0,1-.77-1,4.58,4.58,0,0,1-.25-.82c-.07-.37-.12-.75-.16-1.13a3.53,3.53,0,0,1,0-.46,2.88,2.88,0,0,1,.11-.42c.07-.39.13-.77.19-1.16v-.12c.06-.23.11-.46.19-.68s.18-.42.28-.62.19-.28.28-.43a2.58,2.58,0,0,1,.66-.87,2.66,2.66,0,0,0,.31-.26c.23-.21.46-.45.71-.65s.7-.51,1-.76a1.59,1.59,0,0,1,.43-.26.68.68,0,0,0,.54-.44,1.77,1.77,0,0,1,.16-.22l.22-.23.71-.7c.18-.17.37-.32.56-.48s.38-.34.58-.5.45-.29.67-.45l.62-.5c.27-.22.54-.42.82-.62s.77-.55,1.17-.81.54-.29.8-.46a8.07,8.07,0,0,0,.73-.58l1-.85a5,5,0,0,1,.58-.35l.34-.06h.2a.63.63,0,0,0,.43-.33c.19-.27.4-.52.6-.76.06-.07.14-.15.21-.15a4.86,4.86,0,0,1,.54,0h.19a1.4,1.4,0,0,1,.29,0,8.35,8.35,0,0,1,1,.17,8.49,8.49,0,0,1,1,.36,3.88,3.88,0,0,1,.91.57l.54.4.4.29c.23.16.46.32.68.5l.65.55.27.25c.11.1.23.18.33.29l.72.82.25.29c.22.24.45.49.66.74s.28.38.44.55c.38.4.77.79,1.16,1.18l.84.83a1.12,1.12,0,0,1,.2.17l.74.9c-.12.21-.21.4-.31.57"/><path class="e8b94d60-bb14-418e-8ca5-3c9442334071" d="M41.5,43.65a3.73,3.73,0,0,1-.34.35c-.33.28-.67.54-1,.83-.17.15-.44.19-.54.45,0,.08-.15.14-.24.19-.25.12-.28.21-.14.44s.29.49.45.72.18.17.26.26l.54.65c0,.07.13.12.19.19a4.14,4.14,0,0,1,.44.5,2.67,2.67,0,0,1,.25.43,11.49,11.49,0,0,0,.59,1c.21.29.47.7.73,1s.59.68.9,1,.83.84,1.23,1.28c.21.23.38.5.57.75s.2.23.29.35.3.41.47.6.38.36.57.55l.79.87c.21.24.43.48.64.73a2.73,2.73,0,0,1,.25.34h0a7.27,7.27,0,0,1,.68.79c.16.18.29.39.45.58s.5.6.74.91l.75,1c.16.2.34.4.51.59l.64.71c.23.25.46.49.68.76s.29.42.45.62l.77.93,1.16,1.41c.07.09.16.16.22.25.46.58.92,1.15,1.36,1.73a.75.75,0,0,1,.19.4.73.73,0,0,1-.47.63.66.66,0,0,0-.18.19,1.5,1.5,0,0,0-.27.57c0,.07-.15.13-.24.15a.72.72,0,0,1-.72-.22.23.23,0,0,0-.12-.06c-.32,0-.49-.22-.67-.42s-.39-.42-.58-.64h0c-.14-.36-.47-.55-.7-.83s-.24-.24-.34-.37-.07-.18-.12-.25c-.2-.23-.42-.45-.61-.68s-.21-.32-.33-.47l-.52-.68a1.87,1.87,0,0,1-.15-.32,3.29,3.29,0,0,0-.65-.88c-.09-.12-.12-.28-.21-.4-.24-.33-.5-.65-.74-1s-.38-.58-.59-.84c-.37-.45-.77-.88-1.15-1.31l-.54-.64c-.1-.11-.18-.24-.27-.36a1,1,0,0,0-.19-.17,1.75,1.75,0,0,1-.23-.24,9.47,9.47,0,0,0-.8-1c-.28-.28-.4-.65-.67-.92l-.41-.46-.72-.86c-.11-.13-.26-.23-.36-.35l-1-1.17c-.1-.12-.27-.2-.24-.39a.06.06,0,0,0,0-.06,1.31,1.31,0,0,1-.4-.5,2.49,2.49,0,0,0-.43-.54c-.14-.15-.3-.29-.43-.45s-.22-.33-.34-.5l-.71-.93c-.13-.18-.23-.38-.36-.56a2.77,2.77,0,0,0-.19-.23l-.29-.42c-.1-.14-.42-.54-.61-.81-.07-.09-.09-.21-.15-.3s-.17-.24-.25-.37-.28-.39-.41-.59-.15-.18-.27-.1-.53.34-.78.52-.45.34-.67.51-.22.18-.34.26l-.63.4a.2.2,0,0,0,0,.27l0,0a2.56,2.56,0,0,0,.2.26c.18.2.38.38.54.58s.35.54.54.8l.86,1.23c.14.2.29.4.45.59s.17.11.22.19a1.65,1.65,0,0,0,1.1.57l.14,0a2.86,2.86,0,0,0,.85.25,1.27,1.27,0,0,1,.36.12c.12,0,.1.06.15.05.36,0,.59.24.89.35a2.73,2.73,0,0,1,.66.39.67.67,0,0,0,.1.12l.33.29c.25.21.28.54.44.81a3,3,0,0,1,.3,1.31c0,.61,0,1.23.06,1.85a4.18,4.18,0,0,0,.11.79,1.13,1.13,0,0,0,.24.36c.18.24.36.47.55.69a4.29,4.29,0,0,0,.39.38,1.27,1.27,0,0,1,.22.25c.18.23.34.47.52.7s.46.53.68.8a5.58,5.58,0,0,1,.33.45l.48.58a3.67,3.67,0,0,0,1.2.75,1.47,1.47,0,0,0,.53.16,5.17,5.17,0,0,1,1.45.38,1.9,1.9,0,0,1,.83.62c.18.22.43.39.62.61a1.13,1.13,0,0,1,.26.45c.16.51.3,1,.45,1.54a.51.51,0,0,1,0,.3,2.26,2.26,0,0,0,.08,1,3.52,3.52,0,0,0,.23.86A6.77,6.77,0,0,0,53,71.68a4.3,4.3,0,0,0,.83.82,13.74,13.74,0,0,0,1.24.8c.24.15.53.24.78.38a5.2,5.2,0,0,0,.92.3,2.12,2.12,0,0,0,1.49,0h.19a1.67,1.67,0,0,0,1-.7,1.5,1.5,0,0,1,.27-.29l1.09-1a.74.74,0,0,0,.22-.28,5.53,5.53,0,0,0,.31-.86,2.17,2.17,0,0,0,0-.51c0-.25-.18-.4-.22-.61a5.6,5.6,0,0,0-.12-.59,1.46,1.46,0,0,0-.16-.44c-.13-.26-.29-.51-.44-.76a8.13,8.13,0,0,1-.51-.91c-.1-.28-.36-.48-.37-.8h0c-.21-.25-.41-.51-.61-.77,0-.07-.14-.12-.17-.19a3.2,3.2,0,0,0-.72-.88.76.76,0,0,1-.11-.14,2.16,2.16,0,0,0-.69-.84,1.89,1.89,0,0,1-.32-.37s0-.08-.06-.1a5.52,5.52,0,0,1-.93-1c-.39-.43-.72-.92-1.09-1.37s-.69-.89-1-1.34-.45-.78-.73-1.13a9.31,9.31,0,0,0-.74-.92,7.4,7.4,0,0,1-.59-.84,3.69,3.69,0,0,0-.44-.67,6.15,6.15,0,0,0-.64-.61L50.57,55a2.86,2.86,0,0,0-.37-.41,6.24,6.24,0,0,1-.53-.71l-.41-.58c-.15-.21-.29-.41-.45-.61s-.33-.38-.5-.57l-.55-.69-.54-.65a1.61,1.61,0,0,1-.21-.3,1.59,1.59,0,0,0-.41-.56c-.14-.16-.28-.32-.41-.5s-.38-.4-.57-.6l-.42-.47c-.09-.11-.2-.21-.29-.32l-.38-.43c-.16-.18-.33-.36-.47-.55s-.23-.36-.34-.55-.3-.51-.46-.76-.24-.4-.38-.58a6.23,6.23,0,0,0-.51-.52c-.17-.17-.08-.12-.13-.17l-.74-.79"/><path class="e8b94d60-bb14-418e-8ca5-3c9442334071" d="M23.66,15.36c-.47-.44-.91-.87-1.37-1.27-.31-.28-.65-.55-1-.81-.15-.12-.36-.19-.47-.33s-.48-.25-.65-.46a.29.29,0,0,0-.18-.07,1.58,1.58,0,0,1-.59-.16h-.73L18,12.12h-1.1a1.53,1.53,0,0,0-1,.2,4.43,4.43,0,0,1-.85.48c-.09,0-.21,0-.3.08a5.08,5.08,0,0,0-1.14.77,5.17,5.17,0,0,1-.53.39c-.18.15-.35.32-.53.48l-.65.56-.72.58a1.46,1.46,0,0,0-.21.28,8.18,8.18,0,0,1-1,1.48,5.52,5.52,0,0,0-.85,1.37A4,4,0,0,0,9,20.28a2.35,2.35,0,0,0,.24.82,6.56,6.56,0,0,0,.71,1.27,1.6,1.6,0,0,1,.23.4c.19.36.35.73.57,1.07a2.12,2.12,0,0,0,.62.77v.05c.1.16.18.17.33,0,.4-.36.8-.73,1.22-1.08.23-.19.49-.33.74-.51l.29-.22c.12-.12.1-.23,0-.36l-.2-.33s0-.1-.08-.11-.2-.17-.24-.3c-.16-.46-.35-.91-.47-1.38a3.17,3.17,0,0,1,0-.87,5,5,0,0,1,.13-.77,1.77,1.77,0,0,1,.18-.45c.23-.31.29-.73.67-1,.16-.1.25-.32.41-.43s.59-.37.89-.53a2.64,2.64,0,0,1,.38-.18,2.12,2.12,0,0,0,.41-.08,5.1,5.1,0,0,1,1.46.06.9.9,0,0,1,.28.08,4.22,4.22,0,0,1,1,.27c.38.2.77.37,1.16.53s.58.22.87.32a.3.3,0,0,0,.23,0c.22-.15.43-.32.63-.48a1.94,1.94,0,0,0,.29-.21c.36-.33.71-.68,1.08-1a3.33,3.33,0,0,1,.5-.25l.19-.06"/><path class="e8b94d60-bb14-418e-8ca5-3c9442334071" d="M53.63,66.49l.61.68.44.55.1.12c.17.16.33.32.51.46a.6.6,0,0,0,.31.08.3.3,0,0,1,.08-.2.82.82,0,0,0,.07-.3.44.44,0,0,0-.07-.27c-.15-.23-.31-.45-.47-.66s-.14-.11-.19-.17-.28-.43-.44-.62-.34-.36-.51-.55-.27-.32-.41-.49l-.55-.64-.08-.1a1.5,1.5,0,0,0-.44-.56c-.12-.13-.2-.29-.32-.43-.25-.3-.52-.58-.77-.88-.07-.08-.12-.17-.2-.25s-.37-.35-.54-.54a1.94,1.94,0,0,1-.21-.34v-.07l-.48-.46a.7.7,0,0,1-.06-.09,1.53,1.53,0,0,0-.51-.67h0c-.11-.33-.45-.47-.61-.75a2.51,2.51,0,0,0-.33-.4l-.67-.84c-.19-.24-.35-.5-.53-.74a4.88,4.88,0,0,0-.48-.51c-.16-.17-.09-.15-.15-.21s-.31-.34-.47-.5-.43-.4-.63-.61-.24-.32-.38-.47a3.28,3.28,0,0,0-.54-.64,3.31,3.31,0,0,1-.41-.5c-.21-.25-.44-.48-.64-.73L43,52.43,43,52.35l-.5-.33h0l-.42-.54-.3-.37L41.7,51a2.52,2.52,0,0,0-.44-.64v-.15c0-.05,0-.11,0-.13-.23-.13-.22-.4-.34-.6s-.14-.33-.26-.39a1.94,1.94,0,0,1-.4-.44c-.12-.15-.27-.31-.4-.46l-.39-.52a.72.72,0,0,0-.23-.23c-.21-.12-.28-.33-.4-.5s-.23-.36-.36-.54h-.15s-.11.22-.07.27c.23.32.5.62.74.93a1.22,1.22,0,0,1,.17.29l.18.3c.15.23.3.45.46.67l.39.49.26.33.41.54,1,1.2c.12.15.23.31.35.45s.24.24.34.37l.91,1.2c.25.31.51.62.77.92s.65.75,1,1.12c.17.18.35.36.51.55l.61.78.76.95c.14.17.28.35.43.52.31.35.62.69.92,1s.71.9,1.07,1.34c.19.24.42.44.61.66a6,6,0,0,1,.36.52c.19.25.39.48.57.73s.34.52.51.78l.15.17.17.24.57.87.58.81.32.42c.18.23.37.45.49.61"/><path class="e8b94d60-bb14-418e-8ca5-3c9442334071" d="M13.08,48l-.74.55c-.2.16-.39.33-.57.5s-.33.28-.47.44A4.27,4.27,0,0,0,11,50a3.06,3.06,0,0,0-.22,2.3,2.09,2.09,0,0,0,.53.91,3.09,3.09,0,0,0,1,.76c.13,0,.23.16.35.19a5.15,5.15,0,0,0,.85.18,11.45,11.45,0,0,0,1.15.11,3.31,3.31,0,0,0,.63,0c.36-.07.71-.13,1.06-.23a8.58,8.58,0,0,0,1-.38c.08,0,.12-.16.2-.22l.68-.53a4.06,4.06,0,0,0,1.28-1.54,4.88,4.88,0,0,0,.39-1.17.84.84,0,0,0-.32-.75c-.28-.26-.55-.54-.85-.77a6.43,6.43,0,0,0-1.57-1.1,3.71,3.71,0,0,0-.88-.25c-.42-.08-.84-.15-1.27-.19a1.86,1.86,0,0,0-.57.07,5.87,5.87,0,0,0-1.36.6H13"/><path class="e8b94d60-bb14-418e-8ca5-3c9442334071" d="M33.61,73.3a5.12,5.12,0,0,0-.55.59,2.17,2.17,0,0,0-.3.68c-.07.35-.12.7-.16,1.06a1,1,0,0,0,.09.41c.17.4.38.8.54,1.21a1.34,1.34,0,0,0,.56.7,6.79,6.79,0,0,0,.94.37l.66.21a1.21,1.21,0,0,1,.42,0h.26c.36,0,.72.09,1.08.12.11,0,.22-.06.33-.07h.33c.32,0,.64-.11,1-.14a1.51,1.51,0,0,0,.76-.34,1.27,1.27,0,0,1,.76-.32.73.73,0,0,0,.32-.15,5.51,5.51,0,0,0,.58-.34,2.11,2.11,0,0,0,.38-.35c.11-.1.2-.23.3-.34s.34-.37.5-.56a.76.76,0,0,0,.14-.62,6.67,6.67,0,0,0-.13-1,1,1,0,0,0-.5-.82,8.79,8.79,0,0,1-1-.7,4.15,4.15,0,0,0-.56-.46c-.29-.14-.52-.4-.87-.44a3.55,3.55,0,0,0-.65-.12,14.36,14.36,0,0,0-1.45.11c-.54.06-1.08.14-1.6.25a4.51,4.51,0,0,0-1,.33,10.9,10.9,0,0,0-1,.55.79.79,0,0,0-.15.12h0"/><path class="b98619ef-1708-4872-9c38-e85d8fc67263" d="M35.76,41.85a1.57,1.57,0,0,1,.25-.2l1-.58c.08,0,.18-.08.23-.15.17-.23.1-.43-.16-.58a1.52,1.52,0,0,1-.26-.25s0-.05-.07-.08l-.44-.41-.1-.17a.26.26,0,0,0-.2-.26c-.14,0-.07-.07-.09-.12a3.76,3.76,0,0,0-.23-.55,3.21,3.21,0,0,0-.42-.49c-.1-.12-.18-.25-.28-.37s-.19-.21-.36-.13a.49.49,0,0,1-.24,0,1.13,1.13,0,0,0-.67.29l-1.15.87a4.32,4.32,0,0,1-.53.4,2.59,2.59,0,0,1-.59.32,1,1,0,0,0-.61.64.44.44,0,0,0,.06.37c.23.3.5.56.75.84s.56.68.85,1l.49.59c.17.21.33.42.49.64s.1.1.21.05a6.38,6.38,0,0,0,1.36-.92l.74-.78M33.15,44.4a.09.09,0,0,0-.07-.06,1,1,0,0,1-.69-.53,7.53,7.53,0,0,0-.68-.92c-.18-.22-.28-.5-.54-.67a3,3,0,0,1-.49-.51,3.75,3.75,0,0,1-.83-1.24,1,1,0,0,1,0-.48.15.15,0,0,0,0-.13l-.14-.25s0-.11-.06-.13-.16-.22-.22-.34a1.09,1.09,0,0,1-.08-.16c-.1-.21-.2-.43-.29-.65s0-.29-.09-.39a.67.67,0,0,1-.08-.44.22.22,0,0,0,0-.16,2.63,2.63,0,0,1-.06-.39,3.58,3.58,0,0,1,.59-1.57,1,1,0,0,1,.52-.33l1.2-.51h.13a3.64,3.64,0,0,0,.66,0,.42.42,0,0,1,.49.21.58.58,0,0,1-.14.66.37.37,0,0,1-.49.13h-.14A2.48,2.48,0,0,0,30.4,36h-.08c-.23,0-.41.08-.42.35v.06a1.12,1.12,0,0,0-.12.74,3,3,0,0,0,.18.71c.05.15.1.3.16.45s.2.3.29.45.18.22.38.08l.89-.6c.24-.16.51-.3.74-.47s.38-.35.57-.51a4.28,4.28,0,0,1,.38-.27l.49-.42c.08-.07.18-.18.27-.17a1,1,0,0,0,.58-.15.38.38,0,0,1,.49,0c.11.12.21.25.31.38s.38.51.58.75a2.87,2.87,0,0,1,.54.75c0,.13.1.25.16.37a3.35,3.35,0,0,0,.41.43l.25.24.37.36c.15.14.35.25.43.42a1,1,0,0,1,0,1,1,1,0,0,1-.14.22,1.34,1.34,0,0,1-.55.63c-.19.09-.32.28-.54.31l-.1.07-.35.23c-.15.12-.29.25-.43.38a3.31,3.31,0,0,0-.23.26c-.08.08-.28.23-.42.34s-.45.39-.69.58l-.79.57a.5.5,0,0,1-.7.07,1,1,0,0,1-.13-.16"/><path class="b98619ef-1708-4872-9c38-e85d8fc67263" d="M23.22,24.9c.12-.11.23-.23.34-.35s0-.23-.09-.31L23,23.79a.36.36,0,0,0-.12-.08,2.53,2.53,0,0,1-.89-.43h-.08a5.57,5.57,0,0,0-1-.22,2.27,2.27,0,0,0-1.06.16.56.56,0,0,0-.27.6v.08c-.11.17,0,.34-.06.51a3,3,0,0,0,.15.73,6.66,6.66,0,0,0,.64,1.21,2.18,2.18,0,0,0,.26.34h.15l.33-.26a1.76,1.76,0,0,1,.51-.26,1.27,1.27,0,0,0,.49-.25,2,2,0,0,0,.32-.25h0l.81-.73m3.3,2.32-.06-.09a.59.59,0,0,0-.33-.42c-.06,0-.09-.12-.13-.18l-.8-1.09c-.05-.07-.14-.11-.2-.18a.56.56,0,0,1-.11-.2.24.24,0,0,0-.31-.13l-.06,0-.92.79-.55.43-.54.48a.85.85,0,0,1-.48.24,1,1,0,0,0-.46.18c-.3.24-.59.5-.87.77a.39.39,0,0,0-.05.28,1.52,1.52,0,0,0,.58.86c.15.13.26.29.4.43a6.2,6.2,0,0,1,.42.46c.13.16.47.62.73.91a6.64,6.64,0,0,0,.63.56h.11l.7-.5a.2.2,0,0,0,.15-.07l.89-.62a6,6,0,0,1,.8-.51,2.28,2.28,0,0,0,.75-.55c.18-.19.34-.39.51-.59a.19.19,0,0,0,0-.28h0c-.09-.14-.18-.29-.26-.44l-.55-.6m-3.66,5.23a3,3,0,0,0-.36-.52c-.16-.18-.34-.33-.5-.51s-.3-.32-.43-.49a2.59,2.59,0,0,1-.19-.33l-.07-.07L21,30.22a2.07,2.07,0,0,0-.4-.44,2,2,0,0,1-.82-1.09,1.36,1.36,0,0,1,0-.89.82.82,0,0,0,.06-.49,4.2,4.2,0,0,0-.43-.74c-.06-.09-.17-.15-.22-.25s-.14-.33-.2-.5a.54.54,0,0,0-.13-.44,1.66,1.66,0,0,1-.18-.93,4.67,4.67,0,0,1,.42-1.69,1.06,1.06,0,0,1,.38-.43,3.55,3.55,0,0,1,1-.28,4.7,4.7,0,0,1,1.06,0,1.8,1.8,0,0,1,.52.13,3.87,3.87,0,0,1,.84.33,6.81,6.81,0,0,1,.88.6,2,2,0,0,1,.44.47c.12.2.22.19.35,0a.4.4,0,0,1,.56,0v0l.25.38c.16.24.3.5.48.73s.39.43.59.64a1.42,1.42,0,0,1,.25.3A10.86,10.86,0,0,0,28,27.17a1.16,1.16,0,0,1,.34.53,1.44,1.44,0,0,1-.12,1A3.63,3.63,0,0,1,27.12,30c-.22.16-.46.3-.67.47s-.56.16-.68.46h0l-.31.22-.48.34a6.65,6.65,0,0,0-.56.36c-.22.19-.4.42-.6.62l-.06.05c-.36.24-.59.26-.83-.14"/><path class="e8b94d60-bb14-418e-8ca5-3c9442334071" d="M35,42.63l.74-.78a1.57,1.57,0,0,1,.25-.2l1-.58c.08,0,.18-.08.23-.15.17-.23.1-.43-.16-.59a1.18,1.18,0,0,1-.26-.24s0-.05-.07-.08l-.44-.42a.51.51,0,0,1-.09-.16.27.27,0,0,0-.21-.26c-.14,0-.07-.08-.09-.12a3.76,3.76,0,0,0-.23-.55,3.21,3.21,0,0,0-.42-.49c-.1-.12-.18-.25-.28-.37s-.19-.21-.36-.13a.49.49,0,0,1-.24,0,1.13,1.13,0,0,0-.67.29l-1.15.87a4.32,4.32,0,0,1-.53.4,2.59,2.59,0,0,1-.59.32,1.15,1.15,0,0,0-.62.64.44.44,0,0,0,.07.37c.23.3.51.56.75.84s.56.68.85,1l.49.59.49.63c.06.09.1.11.21.06a6.64,6.64,0,0,0,1.36-.92"/><path class="e8b94d60-bb14-418e-8ca5-3c9442334071" d="M27.07,27.82l-.55-.6-.06-.09a.59.59,0,0,0-.33-.42c-.06,0-.09-.12-.13-.18l-.8-1.09c-.05-.07-.14-.11-.2-.18a.56.56,0,0,1-.11-.2.23.23,0,0,0-.29-.14l-.08,0c-.31.25-.62.52-.92.78l-.58.47-.54.49a.94.94,0,0,1-.48.23,1.12,1.12,0,0,0-.46.17,10.7,10.7,0,0,0-.87.79.37.37,0,0,0-.05.27,1.57,1.57,0,0,0,.58.86c.15.13.26.29.4.43a6.2,6.2,0,0,1,.42.46c.13.16.47.63.73.91a6.64,6.64,0,0,0,.63.56h.11l.7-.5a.2.2,0,0,0,.15-.07l.89-.62a6,6,0,0,1,.8-.51,2.28,2.28,0,0,0,.75-.55c.18-.19.34-.39.51-.59a.19.19,0,0,0,0-.28h0c-.11-.15-.18-.33-.25-.44"/><path class="e8b94d60-bb14-418e-8ca5-3c9442334071" d="M22.41,25.63l.81-.73c.12-.11.23-.23.34-.35s0-.23-.1-.31-.3-.31-.45-.45-.07-.07-.12-.08a2.53,2.53,0,0,1-.89-.43h-.08a5.57,5.57,0,0,0-1-.22,2.27,2.27,0,0,0-1.06.16.56.56,0,0,0-.27.6v.08c-.11.16,0,.34,0,.51a2.55,2.55,0,0,0,.14.73,6.66,6.66,0,0,0,.64,1.21,1.46,1.46,0,0,0,.26.34h.15l.33-.26a1.54,1.54,0,0,1,.51-.26,1.27,1.27,0,0,0,.49-.25,1.61,1.61,0,0,0,.32-.25h0"/></g></g></svg>