<svg xmlns="http://www.w3.org/2000/svg" viewBox="0 0 77.32 60.74"><defs><style>.a9b7d984-a19e-44d5-82d3-4d1b6d5bfad2{fill:#2b2b2a;}.a83dfea1-f7f6-443b-8182-5b2b194c959c{fill:#fff;}</style></defs><g id="a4579d1c-800a-43db-b61b-85848280b2cc" data-name="Livello 2"><g id="e3ee0378-d626-4215-9004-6c08849d01f2" data-name="bf3b521c-f4f7-4f0c-b9df-40a1b157efef"><path class="a9b7d984-a19e-44d5-82d3-4d1b6d5bfad2" d="M29.52,42.76a.84.84,0,0,0-.25-.46.72.72,0,0,1-.2-.31c-.12-.3-.22-.6-.33-.91a.6.6,0,0,1-.06-.19,3.32,3.32,0,0,0-.56-1.07c-.09-.16-.27-.29-.33-.49a.09.09,0,0,0-.05-.08,3.8,3.8,0,0,1-.9-1.09l-.31-.54c-.07-.11-.14-.21-.2-.32a4.61,4.61,0,0,0-.7-1,1.52,1.52,0,0,1-.4-.67,1.57,1.57,0,0,0-.47-.79.2.2,0,0,1-.08-.1c-.32-.51-.64-1-.95-1.53-.13-.21-.33-.3-.49-.13s-.65.29-.93.53-.49.15-.71.37a2.46,2.46,0,0,1-1,.55,3.68,3.68,0,0,0-.63.31,3.84,3.84,0,0,1-1,.53,2.34,2.34,0,0,0-.47.25c-.08,0-.14.12-.21.15a4,4,0,0,0-1.14.6,2.47,2.47,0,0,1-.27.21.41.41,0,0,0-.28.15,4.92,4.92,0,0,0-.37.56.19.19,0,0,0,0,.15,3.76,3.76,0,0,0,.32.55c.2.29.43.57.64.86a5.61,5.61,0,0,1,.49.71c.19.35.34.73.5,1.1.05.11.06.24.12.35s.21.33.3.5c.22.43.39.87.64,1.27a6.37,6.37,0,0,0,.67,1.09,5.14,5.14,0,0,1,.56.92l.42.61c.09.12.18.24.26.37a5.7,5.7,0,0,0,.37.69,4.33,4.33,0,0,1,.57.78.15.15,0,0,0,.13,0l.41-.19a2.11,2.11,0,0,0,.34-.16c.27-.16.53-.34.8-.49l.88-.46c.07,0,.13-.11.21-.15.42-.25.85-.49,1.28-.73l.82-.51a5.81,5.81,0,0,0,.61-.4c.3-.22.57-.5.88-.71s.75-.44,1.14-.67M67.36,4.53h0l-.14-.16L66.05,3.23c-.42-.39-.86-.77-1.29-1.16a5.14,5.14,0,0,0-1.36-.79,3.66,3.66,0,0,0-.73-.16c-.2,0-.39-.13-.6,0a1.81,1.81,0,0,1-.81.27h0l-.48.26-.65.43c-.17.1-.33.21-.51.3s-.35.15-.52.25l-1.23.71-.37.2c-.19.11-.38.25-.58.36s-.45.21-.67.33a2.81,2.81,0,0,0-.55.41,3.44,3.44,0,0,1-1.1.7,2.46,2.46,0,0,0-.69.44h-.08c-.1.06-.21.11-.31.18l-.72.52a.91.91,0,0,1-.23.17,5.34,5.34,0,0,0-1.16.66c-.09,0-.16.13-.25.18a1.79,1.79,0,0,1-.58.37,1.48,1.48,0,0,0-.52.29l-.47.29c-.2.12-.4.24-.58.37a6.88,6.88,0,0,1-.78.55c-.32.18-.62.39-.92.59-.09.06-.15.19-.23.21s-.25.29-.41.4,0,0,0,.08c.07.25-.12.45-.16.68s-.11.49-.14.74v.33a7.9,7.9,0,0,1-.15,1.19c-.13.45.08.89,0,1.33h0a1.51,1.51,0,0,0,0,.47,2.42,2.42,0,0,1-.21,1c-.06.2-.11.39-.15.59a2.8,2.8,0,0,1-.12.63c-.05.21-.16.37-.22.56a7.46,7.46,0,0,1-.23.73c-.1.23-.28.58-.43.86,0,.05-.09.13-.14.13a2.14,2.14,0,0,0-.77.34,3.67,3.67,0,0,0-.61.42l-.11.08c-.23.15-.48.22-.7.39a5,5,0,0,1-.71.4l-.33.13c-.18.11-.35.24-.53.36s-.48.27-.7.42c-.42.26-.82.53-1.23.81-.14.09-.26.2-.39.28a2.76,2.76,0,0,1-.44.25l-.55.25a3.9,3.9,0,0,0-.35.19,2.55,2.55,0,0,0-.52.33,1.65,1.65,0,0,1-.68.46,1.72,1.72,0,0,0-.43.21,7.69,7.69,0,0,1-1.22.75c-.24.11-.47.23-.7.36a3.45,3.45,0,0,1-.87.55l-.06.05c-.16.11-.32.24-.5.35a10.62,10.62,0,0,0-1.18.68c-.29.23-.68.31-.92.61h0c-.19.1-.39.19-.57.3l-.63.38-.2.16a6,6,0,0,1-.59.44,6.31,6.31,0,0,0-1,.6,2.17,2.17,0,0,1-.57.33c-.15.07-.32.09-.4.26a.28.28,0,0,1-.1.09c-.3.17-.6.33-.89.52-.14.09-.25.23-.39.34a.94.94,0,0,1-.28.21c-.17.07-.22.16-.13.33.26.43.53.85.79,1.27s.45.69.66,1a3.47,3.47,0,0,0,.59,1,5,5,0,0,1,.4.65c.13.2.29.39.41.6a3.79,3.79,0,0,0,.8,1.18,1.56,1.56,0,0,1,.16.2c.1.15.18.32.28.47a11.85,11.85,0,0,1,.75,1,9.73,9.73,0,0,1,.48,1.27,1.55,1.55,0,0,0,.57.9c.19.13.38.23.6.09a1.83,1.83,0,0,0,.28-.23c.27-.16.55-.3.82-.47l1.23-.76c.22-.13.46-.22.69-.35s.46-.3.7-.44.36-.2.55-.29.42-.18.61-.3c.47-.27.91-.56,1.38-.83s1-.56,1.45-.84l1.74-1,.17-.13.38-.3c.24-.16.5-.31.76-.47l.59-.35c.26-.13.52-.25.77-.39a4.91,4.91,0,0,0,.55-.38c.23-.15.44-.32.67-.46l.81-.49.42-.27L46,33l.44-.23.54-.3.84-.49.53-.34A10,10,0,0,0,49.59,31a4.39,4.39,0,0,1,.85-.47c.42-.2.86-.37,1.29-.56a.74.74,0,0,1,.73.09,1.37,1.37,0,0,0,.32.16l.88.22,1.12.35.9.29.62.22.47.2a12.55,12.55,0,0,1,1.55.68,2.3,2.3,0,0,0,.6.27c.35.1.71.16,1.06.24a1.57,1.57,0,0,0,1-.1l.58-.22,1-.39a2.77,2.77,0,0,0,.55-.33l1.38-.71c.31-.16.6-.34.91-.5l1.34-.67c.44-.23.9-.5,1.34-.76s1.13-.69,1.67-1.06A13.53,13.53,0,0,0,70.9,27c.18-.15.36-.3.54-.43s.36-.2.53-.31a3.78,3.78,0,0,1,.83-.53c.1,0,.19-.12.29-.16l1.16-.47a4.16,4.16,0,0,0,.47-.24c.22-.13.45-.28.67-.43l.44-.3a.16.16,0,0,0,0-.08,3.31,3.31,0,0,1,.14-.41,2.09,2.09,0,0,0,.34-1.34h0v-.58a2.71,2.71,0,0,1-.11-.51A6.25,6.25,0,0,0,76,19.88a11.42,11.42,0,0,0-.63-1.78,4.84,4.84,0,0,1-.31-1,10.47,10.47,0,0,1-.5-1.46,3.39,3.39,0,0,0-.17-.51c-.06-.18-.12-.36-.2-.54s-.25-.34-.35-.53c-.28-.47-.53-1-.8-1.42L72.7,12c-.14-.24-.3-.46-.43-.7l-.37-.69L71.54,10a1.76,1.76,0,0,0-.24-.42,4,4,0,0,1-.73-1,1.5,1.5,0,0,0-.19-.32l-.74-.93c-.2-.27-.39-.54-.59-.8l-.65-.85c-.22-.28-.43-.53-.65-.78l-.32-.36M23.86,31.42c.19.11.31-.07.45-.15.31-.18.6-.41.9-.61l1-.62,1-.64c.24-.15.51-.28.75-.45l.74-.55.17-.08c.28-.17.55-.36.83-.52l1-.57,1.18-.71.93-.56c.31-.19.61-.41.92-.59s.75-.4,1.12-.6c.15-.09.28-.21.43-.3s.46-.22.69-.35a1.55,1.55,0,0,0,.46-.31A5.61,5.61,0,0,1,37.81,23c.22-.12.46-.21.67-.34s.69-.48,1-.72a5.69,5.69,0,0,1,.78-.53c.66-.38,1.33-.73,2-1.1.23-.13.43-.29.64-.43a1.31,1.31,0,0,1,.28-.15,8.13,8.13,0,0,0,.87-.57,1.72,1.72,0,0,0,.57-.85c.15-.56.28-1.14.48-1.68a4.91,4.91,0,0,0,.29-1.26V14a8,8,0,0,1,.11-1.07,5,5,0,0,1,.06-.69c.06-.23,0-.55.09-.82a1.3,1.3,0,0,0,0-.62.28.28,0,0,1,0-.25c.18-.3.38-.59.57-.89l.05-.08.4-.23c.44-.28.88-.54,1.31-.83A8.07,8.07,0,0,0,48.71,8h.09l.72-.44c.13-.07.27-.12.39-.2.56-.34,1.11-.69,1.66-1l1.35-.9L53.5,5c.29-.18.56-.39.85-.57L55,4.05c.23-.14.39-.27.6-.38s.6-.3.88-.46.61-.39.91-.58a2,2,0,0,1,.25-.14,3.28,3.28,0,0,0,.84-.5c.26-.15.54-.26.8-.41s.57-.35.86-.54l.51-.33.63-.39a4.26,4.26,0,0,1,.5-.32.4.4,0,0,1,.28.07.44.44,0,0,0,.4.08h.3a4.1,4.1,0,0,1,.69.1,4.93,4.93,0,0,1,.77.36c.27.14.51.31.77.45a.31.31,0,0,0,.19,0c.23,0,.37,0,.45.21a1.76,1.76,0,0,0,.66.79c.41.34.81.7,1.19,1.08a7.12,7.12,0,0,1,1.12,1.33,7.65,7.65,0,0,0,.69.9c.35.46.68.93,1,1.38.14.18.34.32.48.51s.37.51.55.78.25.46.39.67.17.17.23.26l.69,1.22,1,1.72c.13.22.28.44.4.66s.21.47.33.7.21.35.31.53a7.84,7.84,0,0,1,.45.86c.27.68.5,1.37.73,2.05.06.17.08.36.13.53s.17.44.25.67c.16.4.31.8.46,1.19a.16.16,0,0,0,0,.14,2.49,2.49,0,0,1,.26.91l.18,1.37c0,.3.09.6.11.91a2.13,2.13,0,0,1-.19,1,.66.66,0,0,0,0,.48,1.19,1.19,0,0,1,.07.49.27.27,0,0,1-.23.27c-.27,0-.44.24-.65.37a5,5,0,0,0-.46.35l-.12.06a2.19,2.19,0,0,0-.5.27,5.34,5.34,0,0,1-.82.43l-.65.28a.33.33,0,0,1-.12.06,2.19,2.19,0,0,0-.9.45l-.65.43a2.61,2.61,0,0,0-.24.22,4.89,4.89,0,0,0-.55.45,4.63,4.63,0,0,1-.93.72c-.08.06-.15.14-.22.2a1,1,0,0,1-.21.15l-.41.18-.17.11c-.23.15-.46.32-.7.46s-.31.09-.44.17-.38.25-.55.38l-.11.08-1,.45c-.49.26-1,.54-1.44.8l-.6.28-.55.32-.46.24-.85.45-.38.17-.78.28a9.16,9.16,0,0,1-1.31.61.41.41,0,0,1-.42-.24c-.06-.16-.15-.18-.31-.17a1.1,1.1,0,0,1-.47-.1,9.47,9.47,0,0,1-1-.4c-.24-.1-.45-.25-.68-.36s-.49-.2-.73-.31l-.71-.29-.51-.17c-.38-.12-.75-.27-1.13-.38s-.51-.11-.77-.17a.33.33,0,0,1-.14,0,1.41,1.41,0,0,0-.6-.19h-.35a.17.17,0,0,1-.14,0c-.1-.06-.19-.19-.29-.19a1.26,1.26,0,0,0-.51.11c-.42.2-.83.41-1.24.63-.19.1-.36.23-.55.34s-.27.11-.4.18-.41.2-.61.32-.57.38-.87.55-.58.31-.87.46a5.2,5.2,0,0,0-.51.27l-.52.36a2.19,2.19,0,0,1-.37.25,10.62,10.62,0,0,0-1.28.81c-.24.17-.48.32-.73.47l-1.53.9a8.53,8.53,0,0,1-.76.46,1,1,0,0,0-.31.26,1.35,1.35,0,0,1-.42.2l-1,.62c-.1.06-.22.11-.32.18a7,7,0,0,1-.94.49c-.22.11-.42.27-.63.39l-.5.29-.44.28c-.3.18-.62.33-.92.52s-.46.2-.68.36a9.32,9.32,0,0,1-1,.62c-.23.14-.44.3-.67.44s-.45.24-.67.36l-.83.52a2.35,2.35,0,0,1-.57.33,1.53,1.53,0,0,0-.62.44.82.82,0,0,1-.26.23c-.14.07-.25.19-.46.1s-.34,0-.5.13a2.84,2.84,0,0,0-.56.33,5,5,0,0,0-.79.65,2.32,2.32,0,0,1-.63.4c-.2.13-.4.26-.61.38l-.68.39-.57.35-1.25.7c-.21.11-.43.19-.63.32a1.74,1.74,0,0,0-.32.28c-.19.19-.36.4-.56.58a1.11,1.11,0,0,1-.34.18l-.19.09a.37.37,0,0,1-.49-.11,4,4,0,0,1-.55-.85c-.16-.22-.32-.45-.5-.66s-.4-.57-.59-.87l-.54-.81L19.44,45c-.23-.36-.47-.72-.69-1.09-.12-.18-.21-.38-.32-.58s-.18-.2-.21-.32a6.69,6.69,0,0,0-.46-.93c-.17-.35-.33-.71-.49-1.06-.05-.13-.07-.27-.13-.4a7.3,7.3,0,0,0-.37-.66c-.13-.21-.28-.42-.43-.62l-.78-1a.12.12,0,0,0-.07-.11c-.07,0-.13-.19-.18-.29s-.08-.27-.15-.4c-.2-.42.06-.7.28-1a.17.17,0,0,1,.1-.06.37.37,0,0,0,.31-.3c.07-.29.35-.34.55-.47l.76-.51a.24.24,0,0,1,.11-.06,1.47,1.47,0,0,0,.4-.14,13.81,13.81,0,0,1,1.64-.8,3.72,3.72,0,0,1,.48-.27,10.74,10.74,0,0,0,1.74-1c.17-.11.34-.24.52-.34s.32-.14.48-.22a10.54,10.54,0,0,0,1-.59c.1-.07.15-.22.24-.35"/><path class="a9b7d984-a19e-44d5-82d3-4d1b6d5bfad2" d="M2,36.22a1.55,1.55,0,0,1,0,.43,2.3,2.3,0,0,1-.34.66,2,2,0,0,0-.43.85,1.33,1.33,0,0,1-.12.4c-.06.19-.12.38-.16.57A6.31,6.31,0,0,0,.79,40a7.88,7.88,0,0,0,0,1.19,13.41,13.41,0,0,0,.12,1.41,4.55,4.55,0,0,0,.09.73L1.45,46a15.26,15.26,0,0,0,.26,1.53,9.3,9.3,0,0,0,.52,1.36,15.59,15.59,0,0,0,.67,1.42c.4.76.79,1.53,1.22,2.27A10.15,10.15,0,0,0,5,53.91a9.29,9.29,0,0,0,1.51,1.56,6.46,6.46,0,0,0,1,.7c.71.42,1.43.82,2.16,1.22.48.26,1,.5,1.47.74s.71.3,1.07.45c.62.26,1.24.52,1.87.76a3.45,3.45,0,0,0,.77.18l1.09.22a.45.45,0,0,1,.22.5.69.69,0,0,1-.12.29.51.51,0,0,1-.69.13l-.51-.15a6.52,6.52,0,0,1-.87-.22c-.38-.13-.74-.31-1.12-.46L12,59.5l-.52-.21-1.05-.46-.71-.38L8.87,58l-1-.54c-.18-.1-.36-.17-.53-.28-.33-.21-.67-.41-1-.65a4,4,0,0,1-1-.89c0-.07-.14-.1-.2-.17a11.06,11.06,0,0,1-1-1.19c-.28-.42-.54-.81-.8-1.23s-.4-.7-.59-1.06-.44-.84-.65-1.26-.29-.62-.43-.93-.27-.53-.39-.8a4.11,4.11,0,0,1-.18-.52,3.47,3.47,0,0,1-.1-.34c-.08-.29-.17-.57-.23-.87s-.07-.56-.1-.84-.07-.58-.12-.87C.44,44.85.3,44.15.2,43.43A13.3,13.3,0,0,1,0,41.76a7.46,7.46,0,0,1,.06-2c.09-.37.1-.76.19-1.12a6.77,6.77,0,0,1,.3-.82v-.07a1.16,1.16,0,0,1,.26-.66c.12-.22.24-.43.35-.66a.51.51,0,0,1,.55-.29c.06,0,.12.06.21.11"/><path class="a9b7d984-a19e-44d5-82d3-4d1b6d5bfad2" d="M12.22,53.49l-.85-1.26c-.27-.42-.54-.85-.82-1.27s-.54-.73-.79-1.12-.42-.72-.63-1.09l-.33-.59c-.27-.52-.55-1-.83-1.55-.14-.26-.29-.51-.43-.78A9.71,9.71,0,0,1,6.7,44c-.1-.32-.21-.62-.3-.94a1,1,0,0,0-.06-.41A4.85,4.85,0,0,0,6.18,42a4.52,4.52,0,0,1-.26-1.68v-.8A2.21,2.21,0,0,1,6,39.2c.08-.53.17-1.06.25-1.59s.15-1.22.25-1.82a6.12,6.12,0,0,1,.34-1.57,11.25,11.25,0,0,1,.58-1,.84.84,0,0,1,.32-.33c.18-.08.48,0,.5.24a1.41,1.41,0,0,1,0,.41.92.92,0,0,1-.37.53,2,2,0,0,0-.5,1.07c-.11.57-.22,1.15-.31,1.73A3.81,3.81,0,0,1,7,37.93a6.78,6.78,0,0,0-.19,1c0,.36,0,.46-.08.69a4,4,0,0,0,.07,1.51c.13.63.29,1.25.47,1.86a6.77,6.77,0,0,0,.41,1c.19.44.4.86.61,1.29.12.22.27.42.4.64s.33.64.49,1c.29.56.56,1.13.87,1.69a7.58,7.58,0,0,0,.6.88l.16.23c.25.39.49.78.74,1.16s.48.77.75,1.14a9.43,9.43,0,0,0,.94,1.15,9.65,9.65,0,0,0,.94.75l.46.36a6.69,6.69,0,0,0,1.73.92c.31.12.61.28.92.38.69.22,1.39.43,2.09.63a7.45,7.45,0,0,0,.82.17h.35a.92.92,0,0,1,.23.09.31.31,0,0,1,.09.11.76.76,0,0,1-.27.79c-.2.12-.38,0-.56-.06a1.86,1.86,0,0,1-.22-.1c-.35-.07-.71-.13-1.05-.22s-.82-.26-1.23-.39-.56-.16-.83-.27-.58-.24-.87-.38l-.56-.28a2.61,2.61,0,0,1-.54-.24c-.39-.26-.77-.54-1.14-.82l-.74-.56c-.24-.21-.48-.44-.6-.55"/><path class="a9b7d984-a19e-44d5-82d3-4d1b6d5bfad2" d="M14.79,47.73c-.09-.13-.19-.25-.27-.38-.2-.38-.38-.78-.59-1.15-.28-.52-.59-1-.88-1.54a6.09,6.09,0,0,0-.62-.82,6.78,6.78,0,0,1-.54-.78c0-.06-.08-.1-.11-.16-.18-.3-.36-.59-.52-.89a3.17,3.17,0,0,1-.22-.53,7.43,7.43,0,0,1-.37-.81,8.34,8.34,0,0,1-.28-1.12c-.07-.35-.12-.7-.17-1.06a3.86,3.86,0,0,1,0-.68V36.46a9.18,9.18,0,0,1,.14-1.16c0-.18.25-.2.39-.24a.32.32,0,0,1,.41.3c.05.3-.08.45-.1.68A7,7,0,0,0,11,37.75c.05.49.11,1,.17,1.45a4.09,4.09,0,0,0,.44,1.33c.17.33.29.69.45,1a5.71,5.71,0,0,0,.87,1.34A10.6,10.6,0,0,1,13.74,44c.42.69.79,1.4,1.18,2.11.14.24.23.5.39.73s.46.54.69.82l.51.62c.25.31.5.63.77.93a8.14,8.14,0,0,0,.81.85,5.57,5.57,0,0,0,.77.61,3.71,3.71,0,0,0,.68.43,2.72,2.72,0,0,0,.63.2c.38.11.77.19,1.15.3l.66.21.77.17.42.05a.4.4,0,0,1,.33.46.43.43,0,0,1,0,0A.57.57,0,0,1,23,53a.28.28,0,0,1-.18,0c-.25-.09-.49-.19-.74-.27s-.71-.22-1.07-.31-.66-.13-1-.22-.51-.17-.77-.24a1.46,1.46,0,0,1-.75-.38,6.88,6.88,0,0,1-1-.78,6.3,6.3,0,0,1-.71-.75c-.5-.6-1-1.21-1.49-1.82-.09-.1-.21-.18-.31-.28a1.59,1.59,0,0,1-.16-.19h0"/><path class="a83dfea1-f7f6-443b-8182-5b2b194c959c" d="M68.32,17.94c.19-.2.43-.45.65-.7a5.24,5.24,0,0,0,.44-.59c.14-.2.38-.37.42-.7a5.69,5.69,0,0,0,.07-.83c0-.07-.07-.15-.07-.22V14a2,2,0,0,0-.12-.91,2,2,0,0,1-.19-.69,1.18,1.18,0,0,0-.21-.49.2.2,0,0,0-.07-.15.65.65,0,0,0-.15-.23,12,12,0,0,0-1-.78,2.66,2.66,0,0,0-.46-.35c-.27-.13-.55-.21-.83-.32a3.55,3.55,0,0,0-1.61-.26h-.81c-.27.06-.54.14-.8.22a2.71,2.71,0,0,0-.83.47,3.31,3.31,0,0,0-.78.93,9.88,9.88,0,0,0-.45,1,7,7,0,0,0-.24.87c-.06.34-.12.67-.16,1a2.67,2.67,0,0,0,.65,1.71c.08.13.24.24.26.37a2.26,2.26,0,0,0,.38.74c.05.08.15.15.21.24a1.72,1.72,0,0,0,.91.75.39.39,0,0,0,.09.08s.31.33.57.27h.08a2.17,2.17,0,0,0,1.64.08,3.68,3.68,0,0,1,.47-.15,2.25,2.25,0,0,0,.63-.06.61.61,0,0,0,.19,0l1-.5m-1-13.42c.11.12.22.23.32.36l.65.78c.22.26.44.56.65.85l.59.8c.2.27.5.61.74.93a1.5,1.5,0,0,1,.19.32,4.29,4.29,0,0,0,.73,1,1.76,1.76,0,0,1,.24.42l.36.65c.12.23.24.46.37.69s.29.46.43.7l.36.61c.27.47.52,1,.8,1.42.1.19.25.35.35.53s.14.36.2.54.12.34.17.51a10.47,10.47,0,0,0,.5,1.46,5.76,5.76,0,0,0,.3,1,10.51,10.51,0,0,1,.64,1.78A6.25,6.25,0,0,1,76,21.16a2.71,2.71,0,0,0,.11.51v.58h0a2.09,2.09,0,0,1-.34,1.34c-.06.13-.09.27-.14.41a.16.16,0,0,1-.05.08l-.44.3c-.22.15-.44.3-.67.43a4.16,4.16,0,0,1-.47.24l-1.16.47c-.1,0-.19.13-.29.16a3.78,3.78,0,0,0-.83.53c-.17.11-.36.19-.52.31l-.55.43c-.38.31-.75.64-1.15.92s-1.11.71-1.68,1.06-.88.52-1.33.76-.89.44-1.34.67-.6.34-.91.5l-1.38.71c-.19.1-.36.24-.55.33s-.65.27-1,.39l-.58.22a1.57,1.57,0,0,1-1,.1c-.35-.08-.71-.14-1.06-.24a3.24,3.24,0,0,1-.6-.27,12.55,12.55,0,0,0-1.55-.68l-.47-.2L55.45,31l-.89-.29-1.13-.35-.88-.22a1.37,1.37,0,0,1-.32-.16.74.74,0,0,0-.73-.09c-.43.19-.87.36-1.29.56a4.39,4.39,0,0,0-.85.47,10,10,0,0,1-1.24.69l-.53.34-.84.49-.54.3-.44.23-.52.35c-.14.09-.27.19-.42.27s-.55.32-.81.49l-.67.46a4.91,4.91,0,0,1-.55.38c-.25.14-.51.26-.77.39l-.59.35-.76.47-.38.3-.17.13-1.74,1c-.49.28-1,.55-1.45.84s-.91.56-1.38.83c-.19.12-.41.2-.61.3s-.37.19-.55.29-.46.3-.7.44-.47.22-.7.35c-.41.25-.81.52-1.22.76l-.82.47c-.1.07-.18.17-.28.23a.92.92,0,0,1-.6-.09,1.57,1.57,0,0,1-.57-.91A9.6,9.6,0,0,0,29,39.81a10.43,10.43,0,0,0-.75-1c-.1-.15-.18-.32-.28-.47a1.56,1.56,0,0,0-.16-.2A3.79,3.79,0,0,1,27,37c-.13-.21-.28-.4-.41-.6a5,5,0,0,0-.4-.65,4.18,4.18,0,0,1-.59-1c-.21-.35-.44-.69-.66-1l-.79-1.27c-.1-.17,0-.26.13-.33a.94.94,0,0,0,.28-.21c.14-.11.25-.25.39-.34.29-.19.59-.35.89-.52A.28.28,0,0,0,26,31c.08-.17.25-.19.4-.26a2.17,2.17,0,0,0,.57-.33,6.31,6.31,0,0,1,1-.6,3.62,3.62,0,0,0,.59-.44l.21-.16.63-.38c.18-.11.38-.2.57-.3H30c.24-.3.63-.38.93-.61a9.65,9.65,0,0,1,1.17-.68c.18-.11.34-.24.5-.35l.06-.05a3.45,3.45,0,0,0,.87-.55,7.67,7.67,0,0,1,.7-.36,9.09,9.09,0,0,0,1.22-.75,1.72,1.72,0,0,1,.43-.21,1.58,1.58,0,0,0,.68-.46,2.55,2.55,0,0,1,.52-.33,3.9,3.9,0,0,1,.35-.19l.55-.25a2.76,2.76,0,0,0,.44-.25c.14-.08.26-.19.39-.28.41-.28.81-.55,1.22-.81l.88-.35c.18-.12.35-.25.53-.36l.33-.13a5.57,5.57,0,0,0,.71-.4,7.87,7.87,0,0,1,.7-.39l.11-.08a4.45,4.45,0,0,1,.61-.43,2.12,2.12,0,0,1,.77-.33s.11-.08.14-.13c.15-.29.3-.56.43-.86s.14-.49.23-.73a6,6,0,0,0,.21-.56c0-.19.09-.42.13-.63s.09-.39.15-.59a2.42,2.42,0,0,0,.21-1,1.51,1.51,0,0,0-.05-.47h0c.13-.44-.08-.88.05-1.33a7.9,7.9,0,0,0,.15-1.19v-.33a4.6,4.6,0,0,1,.14-.74c0-.24.23-.43.16-.68v-.08s.19-.34.41-.4.14-.15.23-.21c.3-.2.6-.41.92-.59A6.88,6.88,0,0,0,49,8.81c.18-.13.38-.25.58-.37L50,8.15a1.48,1.48,0,0,1,.52-.29,1.79,1.79,0,0,0,.58-.37c.09,0,.16-.13.25-.18a4.91,4.91,0,0,1,1.16-.66.91.91,0,0,0,.23-.17L53.48,6l.3-.18h.08a2.46,2.46,0,0,1,.69-.44,3.59,3.59,0,0,0,1.11-.7,2.41,2.41,0,0,1,.54-.41c.22-.12.45-.21.67-.33s.39-.25.58-.36l.37-.2,1.23-.71c.17-.1.35-.16.52-.25a4.63,4.63,0,0,0,.51-.31l.65-.42.48-.26h0A1.81,1.81,0,0,0,62,1.12c.21-.1.4,0,.6,0a3.66,3.66,0,0,1,.73.16,4.89,4.89,0,0,1,1.36.79c.43.39.87.77,1.29,1.16l1.17,1.14.14.16h0"/><path class="a83dfea1-f7f6-443b-8182-5b2b194c959c" d="M23.72,34.23c.17-.23.16-.26-.06-.44a.3.3,0,0,0-.08-.07s-.13-.07-.19,0a3,3,0,0,0-.49.2l-.87.46-.52.25c-.32.15-.63.31-1,.45a8.3,8.3,0,0,0-1.59.76c-.19.13-.38.26-.57.41a3.67,3.67,0,0,0-.52.44,2.06,2.06,0,0,0-.49.61.79.79,0,0,0,.08.87v.11a.85.85,0,0,0,.61.58h0l.64.17a.45.45,0,0,0,.55-.22.81.81,0,0,1,.29-.29c.16-.09.35-.14.53-.22l.79-.36.76-.33.25-.13a4.64,4.64,0,0,1,1-.49h.08a1.54,1.54,0,0,1,.19-.17,1.4,1.4,0,0,0,.82-.92,5.11,5.11,0,0,1,.22-.48.92.92,0,0,0,.11-.43.65.65,0,0,0-.21-.33,5,5,0,0,0-.47-.33M19.1,42c.07,0,.13.12.21.16a1.63,1.63,0,0,0,1.11,0c.28-.07.5-.28.78-.33a.14.14,0,0,0,.11-.07l.25-.09a.77.77,0,0,0,.28-.12,2.12,2.12,0,0,1,1-.39,1.41,1.41,0,0,0,.55-.2s.09-.07.13-.06a1.79,1.79,0,0,0,.57-.16,9.07,9.07,0,0,0,1.07-.46,1.45,1.45,0,0,0,.43-.39c.12-.15.17-.37.3-.5a.72.72,0,0,0,.23-.56A1.81,1.81,0,0,0,26,38a5.49,5.49,0,0,0-.5-1h0a.44.44,0,0,0-.54-.27c-.4.18-.79.38-1.18.58-.17.08-.33.19-.5.27-.33.16-.67.28-1,.46s-.56.35-.82.54-.34.25-.53.36l-.71.41-.26.1-.1.06-.25.16a1.73,1.73,0,0,0-.44.25A1.06,1.06,0,0,0,18.91,41c.12.29.21.59.32.91m8.35-1.56a2.71,2.71,0,0,0-.24-.35.54.54,0,0,0-.35-.09,3.18,3.18,0,0,0-.67.25c-.61.3-1.21.61-1.81.92-.21.11-.41.25-.62.37l-1,.51a1.64,1.64,0,0,0-.22.14,2.22,2.22,0,0,1-1,.52,1.83,1.83,0,0,0-.62.36c-.13.13-.25.27-.38.39a.56.56,0,0,0,0,.69.67.67,0,0,1,.06.12c.13.29.25.58.39.86s.17.23.22.35a.74.74,0,0,0,.31.32c.23.15.49.07.73.13a.65.65,0,0,0,.47-.09l.52-.23a.31.31,0,0,0,.11-.09c.2-.16.39-.33.6-.47a6.65,6.65,0,0,1,.61-.27l.92-.45.44-.23c.22-.13.44-.25.67-.36a2.43,2.43,0,0,0,.54-.31l.6-.37a.74.74,0,0,0,.39-.53.64.64,0,0,1,.06-.18,2.22,2.22,0,0,0,.12-.39,2.67,2.67,0,0,0,0-.4,1.45,1.45,0,0,0-.1-.41,2.71,2.71,0,0,0-.28-.41.13.13,0,0,1-.1,0,.33.33,0,0,1-.36-.25m1.93,2.44c-.39.23-.78.43-1.14.67s-.58.49-.88.71a5.81,5.81,0,0,1-.61.4l-.82.51c-.43.24-.86.48-1.28.73-.08,0-.14.11-.21.15-.3.16-.6.3-.88.46s-.53.33-.79.49a2.17,2.17,0,0,1-.35.15l-.4.2a.17.17,0,0,1-.14,0,4.33,4.33,0,0,0-.57-.78,5.7,5.7,0,0,1-.37-.69c-.08-.13-.17-.25-.26-.37s-.28-.4-.41-.61a7.85,7.85,0,0,0-.57-.92,6.37,6.37,0,0,1-.67-1.09c-.25-.4-.42-.84-.64-1.27-.09-.17-.21-.32-.3-.5a2.94,2.94,0,0,1-.12-.35c-.16-.37-.31-.75-.5-1.1s-.32-.48-.49-.72-.44-.56-.64-.85a3.76,3.76,0,0,1-.32-.55.19.19,0,0,1,0-.15,4.92,4.92,0,0,1,.37-.56c.06-.08.19-.09.28-.15a1.78,1.78,0,0,0,.27-.21,4,4,0,0,1,1.14-.6c.08,0,.13-.11.21-.15a2.34,2.34,0,0,1,.47-.25A3.84,3.84,0,0,0,20,34.86a2.84,2.84,0,0,1,.63-.31,2.46,2.46,0,0,0,1-.55c.22-.22.51-.2.71-.38s.67-.24.93-.52.36-.08.49.13c.31.51.63,1,.95,1.53a.2.2,0,0,0,.08.1,1.57,1.57,0,0,1,.47.79,1.76,1.76,0,0,0,.4.67,4.61,4.61,0,0,1,.7,1c.06.11.13.21.2.32s.21.35.31.54a3.8,3.8,0,0,0,.9,1.09.24.24,0,0,1,.06.09c0,.19.23.32.32.48a3.32,3.32,0,0,1,.56,1.07.6.6,0,0,0,.06.19c.11.31.21.61.33.91a.72.72,0,0,0,.2.31.84.84,0,0,1,.25.46"/><path class="a9b7d984-a19e-44d5-82d3-4d1b6d5bfad2" d="M67.53,17.31c.19-.13.32-.2.45-.3a2.33,2.33,0,0,0,.31-.32c.1-.11.34-.39.5-.59a2.17,2.17,0,0,0,.31-.42,2.37,2.37,0,0,0,0-.92v-.33a4.07,4.07,0,0,0-.07-.85c-.08-.32-.25-.62-.36-.94a1.37,1.37,0,0,0-.49-.67,6.84,6.84,0,0,0-1-.69,5.22,5.22,0,0,0-1.08-.41,3.77,3.77,0,0,0-1.34,0h-.31l-.29.08-.44.16a.51.51,0,0,0-.18.09,3.64,3.64,0,0,0-.62.55,5.06,5.06,0,0,0-.53.93,4.41,4.41,0,0,0-.27.85,3.47,3.47,0,0,0-.06.45,1.5,1.5,0,0,0,.34,1.35c.1.17.23.33.35.5l.35.51h0a1.8,1.8,0,0,0,.81.91,2.79,2.79,0,0,0,.8.38,2.2,2.2,0,0,0,.85.08A12.28,12.28,0,0,0,67,17.35l.48-.15m.79.63-1,.51a.61.61,0,0,1-.19,0l-.63.07a3.68,3.68,0,0,0-.47.15,2.17,2.17,0,0,1-1.64-.08h-.08c-.26.06-.4-.14-.57-.27s-.06-.07-.09-.08a1.66,1.66,0,0,1-.91-.76,1.21,1.21,0,0,1-.21-.24,2.12,2.12,0,0,1-.38-.73c0-.14-.17-.24-.26-.37a2.7,2.7,0,0,1-.65-1.72,5.78,5.78,0,0,1,.16-1,7,7,0,0,1,.24-.87,9.88,9.88,0,0,1,.45-1,3,3,0,0,1,.78-.93,2.71,2.71,0,0,1,.83-.47c.26-.08.53-.16.8-.22h.81a3.55,3.55,0,0,1,1.61.26c.28.11.56.19.83.32a2.66,2.66,0,0,1,.46.35c.32.26.64.51,1,.78a.65.65,0,0,1,.15.23.2.2,0,0,0,.07.15,1,1,0,0,1,.2.49,2.29,2.29,0,0,0,.2.69,2,2,0,0,1,.12.91v.86c0,.07.06.15.07.22a5.71,5.71,0,0,1-.07.84c0,.32-.27.47-.42.69s-.28.4-.43.59-.47.5-.66.7"/><path class="a9b7d984-a19e-44d5-82d3-4d1b6d5bfad2" d="M27,42.37h0l.33-.24a.58.58,0,0,0,.25-.49c0-.09-.11-.18-.17-.28a.11.11,0,0,1,0-.08.25.25,0,0,0-.28-.21h0a.78.78,0,0,1-.36-.13h0l-.24.07-.53.26c-.07,0-.13.12-.2.16a5.29,5.29,0,0,0-.68.32c-.23.14-.55.14-.7.42a.3.3,0,0,0-.19.07h-.18c-.46.23-.8.66-1.32.8h0c-.2.11-.41.22-.62.31a1,1,0,0,0-.5.36c0,.07-.09.17-.07.22.1.25.23.49.35.73a.38.38,0,0,0,.44.2,2.06,2.06,0,0,0,.75-.31,7.11,7.11,0,0,1,1.22-.72,4.22,4.22,0,0,0,.65-.3L26,42.94c.1-.06.22-.08.32-.14l.72-.51m.57-2c0,.17.18.23.36.25,0,0,.08,0,.1,0a2.71,2.71,0,0,1,.28.41,1.16,1.16,0,0,1,.09.41,2.67,2.67,0,0,1,0,.4,2.22,2.22,0,0,1-.12.39.64.64,0,0,0-.06.18.74.74,0,0,1-.39.53l-.6.37a2.43,2.43,0,0,1-.54.31,7.12,7.12,0,0,0-.67.36l-.44.23-.92.45a5.63,5.63,0,0,0-.61.27c-.21.14-.4.31-.6.47a.31.31,0,0,1-.11.09l-.52.23a.65.65,0,0,1-.47.09c-.24-.06-.5,0-.73-.13a.74.74,0,0,1-.31-.32c-.05-.12-.16-.22-.22-.35s-.26-.57-.38-.86a.75.75,0,0,0-.07-.12.56.56,0,0,1,.05-.69c.13-.12.25-.26.38-.39a1.83,1.83,0,0,1,.62-.36,2.22,2.22,0,0,0,.95-.52,1.18,1.18,0,0,1,.22-.14l1-.51c.21-.12.41-.26.62-.37.6-.31,1.2-.62,1.81-.92A3,3,0,0,1,27,39.8a.54.54,0,0,1,.35.09,2.71,2.71,0,0,1,.24.35"/><path class="a9b7d984-a19e-44d5-82d3-4d1b6d5bfad2" d="M24.78,39.35l.37-.42c.07-.08.12-.17.18-.24a.5.5,0,0,0-.06-.7.36.36,0,0,1-.08-.12c-.12-.3-.27-.35-.53-.15h-.05c-.19.12-.37.26-.57.36s-.46.17-.68.27-.63.33-.93.51-.38.26-.55.4-.31.25-.48.35-.55.27-.83.41l-.75.42a.23.23,0,0,0-.07.1,3.68,3.68,0,0,0,0,.47.19.19,0,0,0,.15.14,2.05,2.05,0,0,0,.49-.06c.17,0,.33-.15.5-.21s.28-.08.42-.14.43-.24.65-.33.56-.17.83-.27.38-.18.58-.24a7.47,7.47,0,0,0,1.4-.6m-5.54,2.52c-.11-.31-.2-.61-.32-.9a1.06,1.06,0,0,1,.29-1.14,1.73,1.73,0,0,1,.44-.25l.25-.16.1-.06.26-.1c.24-.14.48-.26.71-.41l.53-.36c.26-.19.54-.37.82-.54s.66-.3,1-.46c.17-.08.33-.19.5-.27.39-.2.78-.4,1.18-.58a.44.44,0,0,1,.54.27h0a5.49,5.49,0,0,1,.5,1,2,2,0,0,1,.17.79.72.72,0,0,1-.23.56c-.13.13-.18.35-.3.5a1.45,1.45,0,0,1-.43.39,7.19,7.19,0,0,1-1.07.46c-.19.06-.35.21-.57.16,0,0-.09,0-.12.06a1.56,1.56,0,0,1-.56.2,2,2,0,0,0-1,.39.81.81,0,0,1-.29.12l-.25.09a.42.42,0,0,1-.11.07c-.28.05-.5.26-.78.32a1.52,1.52,0,0,1-1.11,0,.65.65,0,0,1-.21-.16"/><path class="a9b7d984-a19e-44d5-82d3-4d1b6d5bfad2" d="M22.91,34.66c-.22,0-.39.23-.63.26h0l-.57.34c-.09,0-.17.12-.26.18l-.15.09c-.23.07-.45.13-.67.21a5.77,5.77,0,0,0-1.45.82l-.54.41-.28.19a1.36,1.36,0,0,0-.21.34.19.19,0,0,0,0,.15c.06.24.29.28.48.36a.29.29,0,0,0,.22-.07c.1-.07.17-.19.26-.22a11.65,11.65,0,0,0,1.8-.72c.62-.33,1.23-.67,1.87-1a1.65,1.65,0,0,0,.53-.49.54.54,0,0,0,0-.43L23,34.66m.79-.43a5,5,0,0,1,.47.33.65.65,0,0,1,.21.33.92.92,0,0,1-.11.43,2.5,2.5,0,0,0-.21.48,1.41,1.41,0,0,1-.83.92,1.54,1.54,0,0,0-.19.17H23a4.64,4.64,0,0,0-1,.49l-.25.13c-.25.11-.51.21-.76.33s-.52.25-.79.36a4.54,4.54,0,0,0-.53.22.81.81,0,0,0-.29.29.45.45,0,0,1-.55.22l-.64-.17h0a.85.85,0,0,1-.61-.58v-.11a.79.79,0,0,1-.07-.87,1.88,1.88,0,0,1,.48-.61,4.47,4.47,0,0,1,.52-.44c.19-.15.38-.28.57-.41A8.3,8.3,0,0,1,20.69,35c.32-.14.63-.3,1-.45l.52-.25.87-.46a3.07,3.07,0,0,1,.5-.2h.18c.06,0,0,0,.07.07.23.18.24.21.07.44"/><path class="a83dfea1-f7f6-443b-8182-5b2b194c959c" d="M27,42.37l-.72.51c-.1.06-.22.08-.32.14l-1.07.59c-.21.11-.43.21-.65.3a7.11,7.11,0,0,0-1.22.72,1.9,1.9,0,0,1-.75.31.37.37,0,0,1-.44-.2c-.12-.24-.25-.48-.35-.73a.3.3,0,0,1,.07-.22,1,1,0,0,1,.5-.36c.21-.09.42-.2.62-.31h0c.52-.14.86-.57,1.32-.8h.18c.07,0,.16,0,.19-.07.15-.28.47-.28.7-.42a5.29,5.29,0,0,1,.68-.32c.07,0,.13-.12.2-.16l.53-.26.24-.07h0a.78.78,0,0,0,.36.13.26.26,0,0,1,.29.21h0a.11.11,0,0,0,0,.08c.06.1.17.19.17.28a.58.58,0,0,1-.25.49l-.33.24h0"/><path class="a83dfea1-f7f6-443b-8182-5b2b194c959c" d="M24.78,39.35a7.47,7.47,0,0,1-1.4.6c-.2.06-.38.17-.58.24s-.56.17-.83.27-.43.23-.65.33a2.88,2.88,0,0,1-.42.14,4.4,4.4,0,0,1-.5.21,2.05,2.05,0,0,1-.49.06.16.16,0,0,1-.15-.14,1.85,1.85,0,0,1,0-.47.15.15,0,0,1,.06-.1l.75-.42c.28-.14.56-.26.83-.41a3.55,3.55,0,0,0,.48-.35c.16-.11.35-.28.54-.4s.62-.35.94-.5.46-.17.68-.28a6.19,6.19,0,0,0,.57-.36h.05c.26-.2.41-.15.53.15a.36.36,0,0,0,.08.12.5.5,0,0,1,.06.7c-.06.08-.11.16-.18.24l-.37.42"/><path class="a83dfea1-f7f6-443b-8182-5b2b194c959c" d="M22.91,34.66l.34.42a.54.54,0,0,1,0,.43,1.65,1.65,0,0,1-.53.49c-.64.3-1.25.64-1.87,1a11.56,11.56,0,0,1-1.77.77c-.1,0-.17.16-.27.22a.29.29,0,0,1-.22.07c-.19-.08-.42-.12-.48-.36a.19.19,0,0,1,0-.15,1.36,1.36,0,0,1,.21-.34,2.83,2.83,0,0,1,.28-.2l.54-.4a5.77,5.77,0,0,1,1.45-.82c.22-.08.44-.14.67-.21a.42.42,0,0,0,.14-.09c.1-.06.18-.13.27-.18l.57-.34h0c.23,0,.41-.22.63-.26"/></g></g></svg>