<svg xmlns="http://www.w3.org/2000/svg" viewBox="0 0 272.89 39.41"><defs><style>.ee112bc3-831d-4b74-aa50-6b9c677f6858{fill:#7dc8c2;}</style></defs><g id="f8cfa83c-bd7f-4915-81eb-ed314d6df79b" data-name="Livello 2"><g id="ab5c6330-0b7d-4824-a12f-9ba170fed33d" data-name="Livello 1"><path class="ee112bc3-831d-4b74-aa50-6b9c677f6858" d="M264.21,25.35c0,4.53-1.81,7.37-5.44,7.37s-5.5-2.78-5.5-7.32S255.08,18,258.71,18s5.5,2.9,5.5,7.38m8.68-.06c0-8.85-6.07-13.95-13.95-13.95s-14.35,5.16-14.35,14.12,6.07,13.95,14,13.95,14.29-5.28,14.29-14.12M244.63,38.44l-1-6.8a11.21,11.21,0,0,1-3.45.68c-2.22,0-3.63-1-3.46-3.46l.28-9.47h7l.17-6.86H237.6l.06-6.29h-8.45l-.11,6-4,1.3L225,19.11l4,.68-.4,10c-.28,7,3.12,9.59,9.7,9.59a19.58,19.58,0,0,0,6.4-1m-20.85.12V0l-8.73,1.08V38.56ZM185.91,12.19V30.34c0,5.67,3.06,9.07,8.27,9.07a12,12,0,0,0,8.56-4.09v3.92l8.74-1.08v-26h-8.74V30.28A6.69,6.69,0,0,1,198.26,32c-2.26,0-3.62-1.08-3.62-4.26V12.19ZM173.68,19V30.56a5.77,5.77,0,0,1-4.42,1.82c-3.23,0-5.5-2.61-5.5-7.15,0-4.36,2.21-7.37,5.9-7.37a7,7,0,0,1,4,1.14m0-6.7a16.21,16.21,0,0,0-5.44-.9c-7,0-13.21,5.5-13.21,14.29,0,8.33,4.76,13.66,11.28,13.66a10,10,0,0,0,7.37-3.51v2.72h8.73V0l-8.73,1.08ZM144.43,35.38c1.2,2.89,4,4.42,9.76,3.69l.85-6.24c-1.82-.17-2.16-.34-2.16-2.15l.06-7.83c.17-7.37-2.95-11.51-12-11.51a25.8,25.8,0,0,0-12.13,3.12l1.81,6.41c3.12-1.53,6.24-2.67,9-2.67,3.23,0,4.65,1.25,4.65,4v.51c-11.85.28-15.59,4.42-15.59,9.35,0,4.09,3.51,7.32,8,7.32,3.63,0,5.72-1.82,7.59-4Zm-.22-3.51a5.23,5.23,0,0,1-4.08,1.75c-2,0-3.29-1.07-3.29-2.83,0-2.33,1.92-3.35,7.37-4Zm-36.63-6.52c0,4.53-1.81,7.37-5.44,7.37s-5.5-2.78-5.5-7.32S98.45,18,102.08,18s5.5,2.9,5.5,7.38m8.68-.06c0-8.85-6.07-13.95-14-13.95S88,16.5,88,25.46,94,39.41,102,39.41s14.29-5.28,14.29-14.12M85.91,38.56V20.41c0-5.67-3.12-9.07-8.4-9.07a12,12,0,0,0-8.84,4.54V11.57l-8.73,1.07V38.56h8.73V20.75a7,7,0,0,1,4.76-2c2.33,0,3.74,1,3.74,4.19v15.6ZM49,25.35c0,4.53-1.82,7.37-5.45,7.37s-5.5-2.78-5.5-7.32S39.9,18,43.53,18s5.5,2.9,5.5,7.38m8.67-.06c0-8.85-6.06-13.95-14-13.95S29.41,16.5,29.41,25.46s6.07,13.95,14,13.95S57.7,34.13,57.7,25.29M13.84,32A26.55,26.55,0,0,1,1.7,28.69L0,36.18a29.3,29.3,0,0,0,13.66,3.23c9.3,0,14.52-4.77,14.52-11.51s-5.67-9.19-11.11-10.72c-4.26-1.19-7.49-2.1-7.49-4.42,0-2,1.53-3,4.65-3a26.33,26.33,0,0,1,11.45,3.12l1.76-7.43A26.81,26.81,0,0,0,14.17,2.33C5.39,2.33.57,6.69.57,13.27.57,20.36,6.8,22.79,12,24.15c4.71,1.31,7.26,2.16,7.26,4.48S17,32,13.84,32"/></g></g></svg>