<svg xmlns="http://www.w3.org/2000/svg" xmlns:xlink="http://www.w3.org/1999/xlink" viewBox="0 0 1767 128.62"><defs><style>.cls-1{fill:none;}.cls-2{clip-path:url(#clip-path);}.cls-3{fill:#f3b91a;}</style><clipPath id="clip-path" transform="translate(0 0)"><rect class="cls-1" width="1767" height="128.62"/></clipPath></defs><g id="Livello_2" data-name="Livello 2"><g id="Livello_1-2" data-name="Livello 1"><g class="cls-2"><path class="cls-3" d="M1767,3h-31.22V125.67H1767ZM1645.73,62.44V27.69h13.16c15.51,0,23.16,5.3,23.16,16.1,0,11.78-7.26,17.28-20.61,18.26Zm.59,23.17,14.33-1.18,24.55,41.24h35.14l-31.41-48.5c16.49-6.29,25.13-18.85,25.13-35.35,0-23.75-16.88-38.87-49.68-38.87H1615.1V125.67h31.22Zm-82.81-21c0,23-12,38.88-32.59,38.88-21,0-33.19-16.1-33.19-39.66,0-23,11.59-38.68,32.6-38.68,20.82,0,33.18,15.9,33.18,39.46m31.42-.78c0-41.43-27.68-63.82-64.21-63.82-36.72,0-64.4,25.72-64.4,64.6,0,41.43,27.68,64,64,64,36.52,0,64.6-25.93,64.6-64.8m-178,18.85L1365.84,3h-33.77V125.67h29.26V46.14L1413,126.85h33.18V3h-29.26ZM1306.26,3H1275V125.67h31.22Zm-84.92,122.72H1251L1246.87,3h-43.6L1177.75,95,1152.22,3H1108l-4.32,122.72h29.06l.79-94.45,26.9,92.49h33.38L1220.75,31ZM1036,3h-31.22V125.67H1036ZM982.26,125.67V100.53h-59.1v-24h47.52V51.64H923.16V28.08h59.1V3H892.52V125.67ZM841.58,64.6c0,24.54-13.93,36.13-36.71,36.13H790.33V27.89h13c25.73,0,38.29,11.38,38.29,36.71M873,63.43C873,26.9,848.46,3,805.26,3H759.11V125.67h44c45,0,69.91-24.55,69.91-62.24M654.26,75.21h-32l16.3-48.11ZM658.38,3H619.31L575.72,125.67h31l8.84-26.11h45.55l9,26.11h31ZM565.67,125.67V99.56H514.22V3H483V125.67Zm-104.7,0V100.53H401.86v-24h47.52V51.64H401.86V28.08H461V3H371.23V125.67ZM356.16,29.06V3H246.78V29.06h39.08v96.61h31.22V29.06ZM232.27,75.6V3h-31V75.4c0,19-7.46,26.91-22.38,26.91-16.5,0-23.77-9.43-23.77-28.09V3h-31v75.4c0,34.75,22,50.27,54,50.27,33,0,54.19-17.48,54.19-53M109.37,29.06V3H0V29.06H39.08v96.61H70.3V29.06Z" transform="translate(0 0)"/></g></g></g></svg>