<svg xmlns="http://www.w3.org/2000/svg" xmlns:xlink="http://www.w3.org/1999/xlink" viewBox="0 0 171.08 48.7"><defs><style>.cls-1{fill:none;}.cls-2{clip-path:url(#clip-path);}.cls-3{fill:#f3b91a;}</style><clipPath id="clip-path" transform="translate(0 0)"><rect class="cls-1" width="171.08" height="48.7"/></clipPath></defs><g id="Livello_2" data-name="Livello 2"><g id="Livello_1-2" data-name="Livello 1"><g class="cls-2"><path class="cls-3" d="M168.94,27.63H163.7V48.21h5.24Zm-20.33,10V31.78h2.21c2.6,0,3.88.89,3.88,2.7,0,2-1.22,2.9-3.46,3.06Zm.1,3.88,2.4-.2,4.12,6.91h5.89l-5.27-8.12a6,6,0,0,0,4.21-5.93c0-4-2.83-6.52-8.32-6.52h-8.26V48.2h5.23ZM134.83,38c0,3.85-2,6.52-5.46,6.52s-5.57-2.7-5.57-6.65,2-6.49,5.47-6.49S134.83,34,134.83,38m5.27-.13c0-7-4.64-10.7-10.77-10.7A10.37,10.37,0,0,0,118.54,38c0,6.94,4.64,10.73,10.73,10.73A10.45,10.45,0,0,0,140.1,37.84M110.25,41,101.7,27.63H96V48.2h4.9V34.88L109.6,48.4h5.56V27.63h-4.91ZM91.71,27.63H86.48V48.21h5.23ZM77.48,48.2h5l-.69-20.57H74.45L70.17,43.07,65.89,27.63h-7.4L57.76,48.2h4.87l.13-15.83,4.51,15.51h5.6l4.51-15.54ZM46.41,27.63H41.17V48.21h5.24Zm-9,20.57V44H27.5V40h8V35.8h-8V31.85h9.9V27.63h-15V48.2ZM13.82,38c0,4.11-2.33,6.05-6.15,6.05H5.23V31.81H7.41c4.31,0,6.41,1.91,6.41,6.16m5.27-.2c0-6.12-4.11-10.14-11.36-10.14H0V48.2H7.37c7.54,0,11.72-4.11,11.72-10.43" transform="translate(0 0)"/><path class="cls-3" d="M163.21,12.11h-5.36l2.73-8.06ZM163.9,0h-6.55l-7.3,20.57h5.2l1.48-4.38h7.63l1.52,4.38h5.2ZM148.36,20.57V16.19h-8.62V0H134.5V20.57Zm-17.55,0V16.36H120.9v-4h8V8.16h-8V4.21h9.91V0h-15V20.57ZM113.24,4.38V0H94.91V4.38h6.55V20.57h5.23V4.38Zm-20.76,7.8V0h-5.2V12.14c0,3.2-1.25,4.51-3.75,4.51-2.77,0-4-1.58-4-4.7V0h-5.2V12.64c0,5.82,3.69,8.42,9,8.42,5.53,0,9.09-2.92,9.09-8.88m-20.6-7.8V0H53.55V4.38H60.1V20.57h5.23V4.38Z" transform="translate(0 0)"/></g></g></g></svg>